<?xml version="1.0" encoding="UTF-8" standalone="no"?>
<svg
   xmlns:dc="http://purl.org/dc/elements/1.1/"
   xmlns:cc="http://creativecommons.org/ns#"
   xmlns:rdf="http://www.w3.org/1999/02/22-rdf-syntax-ns#"
   xmlns:svg="http://www.w3.org/2000/svg"
   xmlns="http://www.w3.org/2000/svg"
   xmlns:sodipodi="http://sodipodi.sourceforge.net/DTD/sodipodi-0.dtd"
   xmlns:inkscape="http://www.inkscape.org/namespaces/inkscape"
   width="51.698895mm"
   height="51.923241mm"
   viewBox="0 0 51.698895 51.923241"
   version="1.1"
   id="svg7854"
   inkscape:version="1.0.2 (e86c870879, 2021-01-15)"
   sodipodi:docname="alpha.svg">
  <defs
     id="defs7848" />
  <sodipodi:namedview
     id="base"
     pagecolor="#ffffff"
     bordercolor="#666666"
     borderopacity="1.0"
     inkscape:pageopacity="0.0"
     inkscape:pageshadow="2"
     inkscape:zoom="0.35"
     inkscape:cx="0.55583748"
     inkscape:cy="323.83695"
     inkscape:document-units="mm"
     inkscape:current-layer="layer1"
     inkscape:document-rotation="0"
     showgrid="false"
     inkscape:window-width="476"
     inkscape:window-height="260"
     inkscape:window-x="1440"
     inkscape:window-y="816"
     inkscape:window-maximized="0" />
  <metadata
     id="metadata7851">
    <rdf:RDF>
      <cc:Work
         rdf:about="">
        <dc:format>image/svg+xml</dc:format>
        <dc:type
           rdf:resource="http://purl.org/dc/dcmitype/StillImage" />
        <dc:title></dc:title>
      </cc:Work>
    </rdf:RDF>
  </metadata>
  <g
     inkscape:label="Layer 1"
     inkscape:groupmode="layer"
     id="layer1"
     transform="translate(-105.68627,-62.484808)">
    <g
       aria-label="A"
       id="text6154"
       style="font-style:normal;font-variant:normal;font-weight:bold;font-stretch:normal;font-size:14.1111px;line-height:1.25;font-family:Caladea;-inkscape-font-specification:'Caladea, Bold';font-variant-ligatures:normal;font-variant-caps:normal;font-variant-numeric:normal;font-variant-east-asian:normal;text-align:center;text-anchor:middle;display:inline;fill:#37abc8;stroke-width:2.64583"
       transform="matrix(0.1,0,0,0.1,94.750888,-5.6845009)">
      <path
         d="m 117.64719,690.28676 -0.66322,-2.01789 h -2.90689 l -0.67733,1.94733 q 0.39511,0.32456 1.19944,0.42334 l -0.0705,0.56444 h -3.18911 l 0.0847,-0.56444 q 0.64911,-0.0282 0.86078,-0.35278 l 3.00567,-8.49489 h 1.46755 l 3.03389,8.36789 q 0.22578,0.36689 0.86078,0.47978 l -0.0706,0.56444 h -3.86644 l 0.0847,-0.56444 q 0.64911,-0.0988 0.84666,-0.35278 z m -2.06022,-6.29356 -1.19944,3.38667 h 2.30011 z"
         style="font-style:normal;font-variant:normal;font-weight:bold;font-stretch:normal;font-size:14.1111px;font-family:Caladea;-inkscape-font-specification:'Caladea, Bold';font-variant-ligatures:normal;font-variant-caps:normal;font-variant-numeric:normal;font-variant-east-asian:normal;fill:#37abc8;stroke-width:2.64583"
         id="path1228" />
    </g>
    <g
       aria-label="B"
       id="text6158"
       style="font-style:normal;font-variant:normal;font-weight:bold;font-stretch:normal;font-size:14.1111px;line-height:1.25;font-family:Caladea;-inkscape-font-specification:'Caladea, Bold';font-variant-ligatures:normal;font-variant-caps:normal;font-variant-numeric:normal;font-variant-east-asian:normal;text-align:center;text-anchor:middle;display:inline;fill:#37abc8;stroke-width:2.64583"
       transform="matrix(0.1,0,0,0.1,94.750888,-5.6845009)">
      <path
         d="m 242.01396,681.79187 q 1.84856,0 2.82222,0.60678 0.97367,0.59266 0.97367,1.73566 0,1.55223 -1.72155,2.00378 0.98777,0.29633 1.50988,0.93133 0.53623,0.62089 0.53623,1.48167 0,1.24178 -1.016,1.94733 -1.016,0.70556 -2.794,0.70556 h -4.34623 l 0.0564,-0.57856 q 0.47978,-0.0988 0.80433,-0.42333 v -7.40833 q -0.254,-0.254 -0.86078,-0.45156 l 0.0564,-0.55033 z m -0.33866,4.89655 h -0.762 v 3.59834 q 0.55033,0.0423 0.95955,0.0423 1.03011,0 1.50989,-0.42333 0.49389,-0.42334 0.49389,-1.34056 0,-1.87678 -2.20133,-1.87678 z m 1.94733,-2.52588 q 0,-0.73378 -0.46567,-1.11478 -0.46566,-0.39511 -1.17122,-0.39511 -0.69144,0 -1.07244,0.0564 v 3.09033 h 0.77611 q 1.93322,0 1.93322,-1.63688 z"
         style="font-style:normal;font-variant:normal;font-weight:bold;font-stretch:normal;font-size:14.1111px;font-family:Caladea;-inkscape-font-specification:'Caladea, Bold';font-variant-ligatures:normal;font-variant-caps:normal;font-variant-numeric:normal;font-variant-east-asian:normal;fill:#37abc8;stroke-width:2.64583"
         id="path1231" />
    </g>
    <g
       aria-label="C"
       id="text6162"
       style="font-style:normal;font-variant:normal;font-weight:bold;font-stretch:normal;font-size:14.1111px;line-height:1.25;font-family:Caladea;-inkscape-font-specification:'Caladea, Bold';font-variant-ligatures:normal;font-variant-caps:normal;font-variant-numeric:normal;font-variant-east-asian:normal;text-align:center;text-anchor:middle;display:inline;fill:#37abc8;stroke-width:2.64583"
       transform="matrix(0.1,0,0,0.1,94.750888,-5.6845009)">
      <path
         d="m 368.7796,691.34509 q -1.98966,0 -3.03388,-1.19944 -1.03012,-1.19945 -1.03012,-3.58423 0,-2.38477 1.016,-3.62655 1.03012,-1.24178 3.03389,-1.24178 1.28411,0 2.08845,0.52211 0.80433,0.52211 0.80433,1.34056 0,0.508 -0.32455,0.86078 -0.32456,0.35277 -0.73378,0.35277 -0.40922,0 -0.71967,-0.18344 -0.29633,-0.18345 -0.43744,-0.46567 0.22577,-0.381 0.22577,-0.77611 0,-0.39511 -0.26811,-0.64911 -0.254,-0.254 -0.69144,-0.254 -1.66511,0 -1.66511,3.937 0,1.98967 0.52211,3.00567 0.52211,1.00189 1.67922,1.00189 1.15711,0 2.14489,-1.05834 l 0.46567,0.45156 q -0.66323,0.74789 -1.48167,1.15711 -0.80433,0.40922 -1.59456,0.40922 z"
         style="font-style:normal;font-variant:normal;font-weight:bold;font-stretch:normal;font-size:14.1111px;font-family:Caladea;-inkscape-font-specification:'Caladea, Bold';font-variant-ligatures:normal;font-variant-caps:normal;font-variant-numeric:normal;font-variant-east-asian:normal;fill:#37abc8;stroke-width:2.64583"
         id="path1234" />
    </g>
    <g
       aria-label="D"
       id="text6166"
       style="font-style:normal;font-variant:normal;font-weight:bold;font-stretch:normal;font-size:14.1111px;line-height:1.25;font-family:Caladea;-inkscape-font-specification:'Caladea, Bold';font-variant-ligatures:normal;font-variant-caps:normal;font-variant-numeric:normal;font-variant-east-asian:normal;text-align:center;text-anchor:middle;display:inline;fill:#37abc8;stroke-width:2.64583"
       transform="matrix(0.1,0,0,0.1,94.750888,-5.6845009)">
      <path
         d="m 493.78994,681.79187 q 2.89278,0 4.20511,1.12889 1.31233,1.12889 1.31233,3.58422 0,2.45533 -1.32644,3.58422 -1.32645,1.11478 -4.27567,1.11478 h -2.99155 l 0.0564,-0.57856 q 0.45156,-0.0988 0.79022,-0.40922 v -7.43655 q -0.254,-0.23989 -0.84666,-0.43745 l 0.0564,-0.55033 z m 0.45155,0.87489 h -0.59266 v 7.60589 q 0.127,0.0564 0.55033,0.0564 1.524,0 2.20133,-0.91722 0.69145,-0.91722 0.69145,-2.921 0,-2.01789 -0.66322,-2.921 -0.66323,-0.90311 -2.18723,-0.90311 z"
         style="font-style:normal;font-variant:normal;font-weight:bold;font-stretch:normal;font-size:14.1111px;font-family:Caladea;-inkscape-font-specification:'Caladea, Bold';font-variant-ligatures:normal;font-variant-caps:normal;font-variant-numeric:normal;font-variant-east-asian:normal;fill:#37abc8;stroke-width:2.64583"
         id="path1237" />
    </g>
    <g
       aria-label="E"
       id="text6170"
       style="font-style:normal;font-variant:normal;font-weight:bold;font-stretch:normal;font-size:14.1111px;line-height:1.25;font-family:Caladea;-inkscape-font-specification:'Caladea, Bold';font-variant-ligatures:normal;font-variant-caps:normal;font-variant-numeric:normal;font-variant-east-asian:normal;text-align:center;text-anchor:middle;display:inline;fill:#37abc8;stroke-width:2.64583"
       transform="matrix(0.1,0,0,0.1,94.750888,-5.6845009)">
      <path
         d="m 625.51011,684.1202 q -0.32456,0.0988 -0.53622,0.0988 -0.19756,0 -0.508,-0.0564 -0.21167,-0.97367 -0.60678,-1.50989 h -2.37067 v 3.34433 l 1.31234,-0.0988 q 0.254,-0.0282 0.46566,-0.28222 0.22578,-0.254 0.32456,-0.66322 h 0.73378 v 2.921 H 623.591 q -0.19756,-0.56445 -0.381,-0.79022 -0.18345,-0.22578 -0.42333,-0.254 l -1.29823,-0.11289 v 3.61244 h 2.46945 q 0.45155,-0.67733 0.66322,-1.79211 0.29633,-0.0423 0.55033,-0.0423 0.26811,0 0.49389,0.0423 l -0.14111,2.667 h -6.97089 l 0.0565,-0.57856 q 0.55033,-0.0847 0.80433,-0.35277 v -7.54945 q -0.33867,-0.29633 -0.86078,-0.40922 l 0.0423,-0.52211 h 6.858 z"
         style="font-style:normal;font-variant:normal;font-weight:bold;font-stretch:normal;font-size:14.1111px;font-family:Caladea;-inkscape-font-specification:'Caladea, Bold';font-variant-ligatures:normal;font-variant-caps:normal;font-variant-numeric:normal;font-variant-east-asian:normal;fill:#37abc8;stroke-width:2.64583"
         id="path1240" />
    </g>
    <g
       aria-label="F"
       id="text6174"
       style="font-style:normal;font-variant:normal;font-weight:bold;font-stretch:normal;font-size:14.1111px;line-height:1.25;font-family:Caladea;-inkscape-font-specification:'Caladea, Bold';font-variant-ligatures:normal;font-variant-caps:normal;font-variant-numeric:normal;font-variant-east-asian:normal;text-align:center;text-anchor:middle;display:inline;fill:#37abc8;stroke-width:2.64583"
       transform="matrix(0.1,0,0,0.1,94.750888,-5.6845009)">
      <path
         d="m 117.64415,785.72024 q -0.29633,0.0847 -0.55033,0.0847 -0.254,0 -0.508,-0.0423 -0.21167,-0.97366 -0.60678,-1.50989 h -2.30011 v 3.34434 l 1.31233,-0.0988 q 0.254,-0.0282 0.46567,-0.28222 0.22578,-0.254 0.32456,-0.66323 h 0.73377 v 2.921 h -0.73377 q -0.19756,-0.56444 -0.381,-0.79022 -0.18345,-0.22578 -0.42334,-0.254 l -1.29822,-0.11289 v 3.48545 q 0.32456,0.29633 1.05833,0.45155 l -0.0988,0.55034 h -3.89467 l 0.0564,-0.57856 q 0.55034,-0.0847 0.80434,-0.35278 v -7.54944 q -0.33867,-0.29633 -0.86078,-0.40922 l 0.0423,-0.52211 h 6.731 z"
         style="font-style:normal;font-variant:normal;font-weight:bold;font-stretch:normal;font-size:14.1111px;font-family:Caladea;-inkscape-font-specification:'Caladea, Bold';font-variant-ligatures:normal;font-variant-caps:normal;font-variant-numeric:normal;font-variant-east-asian:normal;fill:#37abc8;stroke-width:2.64583"
         id="path1243" />
    </g>
    <g
       aria-label="G"
       id="text6178"
       style="font-style:normal;font-variant:normal;font-weight:bold;font-stretch:normal;font-size:14.1111px;line-height:1.25;font-family:Caladea;-inkscape-font-specification:'Caladea, Bold';font-variant-ligatures:normal;font-variant-caps:normal;font-variant-numeric:normal;font-variant-east-asian:normal;text-align:center;text-anchor:middle;display:inline;fill:#37abc8;stroke-width:2.64583"
       transform="matrix(0.1,0,0,0.1,94.750888,-5.6845009)">
      <path
         d="m 244.7782,791.87268 q -1.49578,1.07245 -3.47133,1.07245 -1.96145,0 -2.99156,-1.19945 -1.03011,-1.21355 -1.03011,-3.58422 0,-2.37067 1.07244,-3.61244 1.08656,-1.25589 3.18912,-1.25589 1.36877,0 2.22955,0.52211 0.87489,0.508 0.87489,1.34055 0,0.508 -0.32456,0.86078 -0.32455,0.35278 -0.73377,0.35278 -0.40923,0 -0.71967,-0.18344 -0.29633,-0.18345 -0.43744,-0.46567 0.23988,-0.39511 0.23988,-0.71967 0,-0.95955 -1.18533,-0.95955 -2.01789,0 -2.01789,3.937 0,2.04611 0.56445,3.03389 0.57855,0.97366 1.778,0.97366 0.45155,0 0.889,-0.19755 v -2.55411 q -0.26811,-0.45156 -1.10067,-0.55034 l 0.0706,-0.56444 3.10444,-0.11289 z"
         style="font-style:normal;font-variant:normal;font-weight:bold;font-stretch:normal;font-size:14.1111px;font-family:Caladea;-inkscape-font-specification:'Caladea, Bold';font-variant-ligatures:normal;font-variant-caps:normal;font-variant-numeric:normal;font-variant-east-asian:normal;fill:#37abc8;stroke-width:2.64583"
         id="path1246" />
    </g>
    <g
       aria-label="H"
       id="text6182"
       style="font-style:normal;font-variant:normal;font-weight:bold;font-stretch:normal;font-size:14.1111px;line-height:1.25;font-family:Caladea;-inkscape-font-specification:'Caladea, Bold';font-variant-ligatures:normal;font-variant-caps:normal;font-variant-numeric:normal;font-variant-east-asian:normal;text-align:center;text-anchor:middle;display:inline;fill:#37abc8;stroke-width:2.64583"
       transform="matrix(0.1,0,0,0.1,94.750888,-5.6845009)">
      <path
         d="m 366.37367,787.54057 h 3.23145 v -3.14678 q -0.36689,-0.31044 -0.97367,-0.42333 l 0.0706,-0.57855 h 3.92288 l -0.0847,0.55033 q -0.55034,0.16933 -0.86078,0.45155 v 7.40834 q 0.32456,0.29633 1.05833,0.45155 l -0.0988,0.55034 h -3.89467 l 0.0564,-0.57856 q 0.46567,-0.0847 0.80434,-0.42333 v -3.37256 h -3.23145 v 3.37256 q 0.32456,0.29633 1.05834,0.45155 l -0.0988,0.55034 h -3.89467 l 0.0564,-0.57856 q 0.46566,-0.0847 0.80433,-0.42333 v -7.40834 q -0.29633,-0.254 -0.86078,-0.45155 l 0.0564,-0.55033 h 3.937 l -0.0847,0.57855 q -0.60678,0.11289 -0.97367,0.42333 z"
         style="font-style:normal;font-variant:normal;font-weight:bold;font-stretch:normal;font-size:14.1111px;font-family:Caladea;-inkscape-font-specification:'Caladea, Bold';font-variant-ligatures:normal;font-variant-caps:normal;font-variant-numeric:normal;font-variant-east-asian:normal;fill:#37abc8;stroke-width:2.64583"
         id="path1249" />
    </g>
    <g
       aria-label="I"
       id="text6186"
       style="font-style:normal;font-variant:normal;font-weight:bold;font-stretch:normal;font-size:14.1111px;line-height:1.25;font-family:Caladea;-inkscape-font-specification:'Caladea, Bold';font-variant-ligatures:normal;font-variant-caps:normal;font-variant-numeric:normal;font-variant-east-asian:normal;text-align:center;text-anchor:middle;display:inline;fill:#37abc8;stroke-width:2.64583"
       transform="matrix(0.1,0,0,0.1,94.750888,-5.6845009)">
      <path
         d="m 492.97856,783.97046 0.0705,-0.57855 h 4.13456 l -0.0847,0.57855 q -0.60677,0.11289 -0.97366,0.42333 v 7.40834 q 0.28222,0.26811 1.05833,0.42333 l -0.0988,0.57856 h -4.10633 l 0.0564,-0.57856 q 0.635,-0.0988 1.016,-0.42333 v -7.40834 q -0.31044,-0.31044 -1.07244,-0.42333 z"
         style="font-style:normal;font-variant:normal;font-weight:bold;font-stretch:normal;font-size:14.1111px;font-family:Caladea;-inkscape-font-specification:'Caladea, Bold';font-variant-ligatures:normal;font-variant-caps:normal;font-variant-numeric:normal;font-variant-east-asian:normal;fill:#37abc8;stroke-width:2.64583"
         id="path1252" />
    </g>
    <g
       aria-label="J"
       id="text6190"
       style="font-style:normal;font-variant:normal;font-weight:bold;font-stretch:normal;font-size:14.1111px;line-height:1.25;font-family:Caladea;-inkscape-font-specification:'Caladea, Bold';font-variant-ligatures:normal;font-variant-caps:normal;font-variant-numeric:normal;font-variant-east-asian:normal;text-align:center;text-anchor:middle;display:inline;fill:#37abc8;stroke-width:2.64583"
       transform="matrix(0.1,0,0,0.1,94.750888,-5.6845009)">
      <path
         d="m 623.09005,792.57824 q 0,1.35466 -0.83255,2.13078 -0.81845,0.77611 -2.38478,1.17122 l -0.29634,-0.77611 q 1.43934,-0.74789 1.43934,-2.31422 v -8.39612 q -0.31045,-0.31044 -1.07245,-0.42333 l 0.0706,-0.57855 h 4.13455 l -0.0847,0.57855 q -0.60678,0.11289 -0.97367,0.42333 z"
         style="font-style:normal;font-variant:normal;font-weight:bold;font-stretch:normal;font-size:14.1111px;font-family:Caladea;-inkscape-font-specification:'Caladea, Bold';font-variant-ligatures:normal;font-variant-caps:normal;font-variant-numeric:normal;font-variant-east-asian:normal;fill:#37abc8;stroke-width:2.64583"
         id="path1255" />
    </g>
    <g
       aria-label="K"
       id="text6194"
       style="font-style:normal;font-variant:normal;font-weight:bold;font-stretch:normal;font-size:14.1111px;line-height:1.25;font-family:Caladea;-inkscape-font-specification:'Caladea, Bold';font-variant-ligatures:normal;font-variant-caps:normal;font-variant-numeric:normal;font-variant-east-asian:normal;text-align:center;text-anchor:middle;display:inline;fill:#37abc8;stroke-width:2.64583"
       transform="matrix(0.1,0,0,0.1,94.750888,-5.6845009)">
      <path
         d="m 113.71421,893.85366 -0.0988,0.55033 h -3.89467 l 0.0564,-0.57855 q 0.46566,-0.0847 0.80433,-0.42334 v -7.40833 q -0.29633,-0.254 -0.86078,-0.45156 l 0.0564,-0.55033 h 3.937 l -0.0847,0.57856 q -0.60678,0.11289 -0.97367,0.42333 v 7.40833 q 0.32456,0.29634 1.05834,0.45156 z m 2.10255,-7.64822 q 0.127,-0.15523 0.127,-0.31045 0,-0.15522 -0.21167,-0.254 -0.21166,-0.0988 -0.52211,-0.0988 l -0.0847,-0.55033 h 3.52777 l -0.0847,0.55033 q -0.79022,0.0423 -1.24178,0.55034 l -2.42711,2.69522 2.77989,4.54378 q 0.45155,0.36689 1.21355,0.49389 l -0.0988,0.57855 h -3.21734 q -0.0141,-0.45155 -0.254,-0.81844 l -2.46944,-4.09222 z"
         style="font-style:normal;font-variant:normal;font-weight:bold;font-stretch:normal;font-size:14.1111px;font-family:Caladea;-inkscape-font-specification:'Caladea, Bold';font-variant-ligatures:normal;font-variant-caps:normal;font-variant-numeric:normal;font-variant-east-asian:normal;fill:#37abc8;stroke-width:2.64583"
         id="path1258" />
    </g>
    <g
       aria-label="L"
       id="text6198"
       style="font-style:normal;font-variant:normal;font-weight:bold;font-stretch:normal;font-size:14.1111px;line-height:1.25;font-family:Caladea;-inkscape-font-specification:'Caladea, Bold';font-variant-ligatures:normal;font-variant-caps:normal;font-variant-numeric:normal;font-variant-east-asian:normal;text-align:center;text-anchor:middle;display:inline;fill:#37abc8;stroke-width:2.64583"
       transform="matrix(0.1,0,0,0.1,94.750888,-5.6845009)">
      <path
         d="m 240.67893,893.5291 h 2.46945 q 0.45155,-0.67733 0.66322,-1.79211 0.28222,-0.0423 0.55033,-0.0423 0.26811,0 0.49389,0.0423 l -0.14111,2.667 h -6.97089 l 0.0564,-0.57855 q 0.55034,-0.0847 0.80434,-0.35278 v -7.47889 q -0.22578,-0.19756 -0.87489,-0.42333 l 0.0705,-0.57856 h 3.937 l -0.0847,0.57856 q -0.60678,0.11289 -0.97367,0.42333 z"
         style="font-style:normal;font-variant:normal;font-weight:bold;font-stretch:normal;font-size:14.1111px;font-family:Caladea;-inkscape-font-specification:'Caladea, Bold';font-variant-ligatures:normal;font-variant-caps:normal;font-variant-numeric:normal;font-variant-east-asian:normal;fill:#37abc8;stroke-width:2.64583"
         id="path1261" />
    </g>
    <g
       aria-label="M"
       id="text6202"
       style="font-style:normal;font-variant:normal;font-weight:bold;font-stretch:normal;font-size:14.1111px;line-height:1.25;font-family:Caladea;-inkscape-font-specification:'Caladea, Bold';font-variant-ligatures:normal;font-variant-caps:normal;font-variant-numeric:normal;font-variant-east-asian:normal;text-align:center;text-anchor:middle;display:inline;fill:#37abc8;stroke-width:2.64583"
       transform="matrix(0.1,0,0,0.1,94.750888,-5.6845009)">
      <path
         d="m 373.73964,893.85366 -0.0988,0.55033 h -3.82411 l 0.0564,-0.57855 q 0.47978,-0.0988 0.79023,-0.42334 v -6.16655 l -2.30012,7.16844 h -1.08655 l -2.52589,-6.78744 v 5.78555 q 0.32456,0.29634 1.05833,0.45156 l -0.0988,0.55033 h -3.048 l 0.0564,-0.57855 q 0.46567,-0.0847 0.80433,-0.42334 v -7.40833 q -0.29633,-0.254 -0.86077,-0.45156 l 0.0564,-0.55033 h 3.18911 l 2.30011,6.35 1.97556,-6.35 h 3.44311 l -0.0847,0.55033 q -0.55033,0.16934 -0.86078,0.45156 v 7.40833 q 0.32456,0.29634 1.05834,0.45156 z"
         style="font-style:normal;font-variant:normal;font-weight:bold;font-stretch:normal;font-size:14.1111px;font-family:Caladea;-inkscape-font-specification:'Caladea, Bold';font-variant-ligatures:normal;font-variant-caps:normal;font-variant-numeric:normal;font-variant-east-asian:normal;fill:#37abc8;stroke-width:2.64583"
         id="path1264" />
    </g>
    <g
       aria-label="N"
       id="text6206"
       style="font-style:normal;font-variant:normal;font-weight:bold;font-stretch:normal;font-size:14.1111px;line-height:1.25;font-family:Caladea;-inkscape-font-specification:'Caladea, Bold';font-variant-ligatures:normal;font-variant-caps:normal;font-variant-numeric:normal;font-variant-east-asian:normal;text-align:center;text-anchor:middle;display:inline;fill:#37abc8;stroke-width:2.64583"
       transform="matrix(0.1,0,0,0.1,94.750888,-5.6845009)">
      <path
         d="m 498.70061,894.40399 h -2.14489 l -3.72533,-6.49111 v 5.48922 q 0.32455,0.29634 1.05833,0.45156 l -0.0988,0.55033 h -3.048 l 0.0564,-0.57855 q 0.46567,-0.0847 0.80433,-0.42334 v -7.40833 q -0.29633,-0.254 -0.86078,-0.45156 l 0.0564,-0.55033 h 2.77989 l 3.89466,6.82978 v -5.82789 q -0.36688,-0.31044 -0.97366,-0.42333 l 0.0706,-0.57856 h 3.07623 l -0.0847,0.55033 q -0.55033,0.16934 -0.86078,0.45156 z"
         style="font-style:normal;font-variant:normal;font-weight:bold;font-stretch:normal;font-size:14.1111px;font-family:Caladea;-inkscape-font-specification:'Caladea, Bold';font-variant-ligatures:normal;font-variant-caps:normal;font-variant-numeric:normal;font-variant-east-asian:normal;fill:#37abc8;stroke-width:2.64583"
         id="path1267" />
    </g>
    <g
       aria-label="O"
       id="text6210"
       style="font-style:normal;font-variant:normal;font-weight:bold;font-stretch:normal;font-size:14.1111px;line-height:1.25;font-family:Caladea;-inkscape-font-specification:'Caladea, Bold';font-variant-ligatures:normal;font-variant-caps:normal;font-variant-numeric:normal;font-variant-east-asian:normal;text-align:center;text-anchor:middle;display:inline;fill:#37abc8;stroke-width:2.64583"
       transform="matrix(0.1,0,0,0.1,94.750888,-5.6845009)">
      <path
         d="m 622.08816,885.6551 q -0.98778,0 -1.43933,0.94545 -0.43745,0.93133 -0.43745,3.09033 0,2.14489 0.43745,3.09033 0.45155,0.94545 1.43933,0.94545 1.00189,0 1.43933,-0.94545 0.43745,-0.94544 0.43745,-3.09033 0,-2.159 -0.43745,-3.09033 -0.43744,-0.94545 -1.43933,-0.94545 z m 0.0141,8.89 q -2.08844,0 -3.16089,-1.24177 -1.05833,-1.24178 -1.05833,-3.61245 0,-2.38478 1.05833,-3.61244 1.07245,-1.24178 3.16089,-1.24178 2.08845,0 3.14678,1.24178 1.05833,1.22766 1.05833,3.61244 0,2.37067 -1.05833,3.61245 -1.05833,1.24177 -3.14678,1.24177 z"
         style="font-style:normal;font-variant:normal;font-weight:bold;font-stretch:normal;font-size:14.1111px;font-family:Caladea;-inkscape-font-specification:'Caladea, Bold';font-variant-ligatures:normal;font-variant-caps:normal;font-variant-numeric:normal;font-variant-east-asian:normal;fill:#37abc8;stroke-width:2.64583"
         id="path1270" />
    </g>
    <g
       aria-label="P"
       id="text6214"
       style="font-style:normal;font-variant:normal;font-weight:bold;font-stretch:normal;font-size:14.1111px;line-height:1.25;font-family:Caladea;-inkscape-font-specification:'Caladea, Bold';font-variant-ligatures:normal;font-variant-caps:normal;font-variant-numeric:normal;font-variant-east-asian:normal;text-align:center;text-anchor:middle;display:inline;fill:#37abc8;stroke-width:2.64583"
       transform="matrix(0.1,0,0,0.1,94.750888,-5.6845009)">
      <path
         d="m 114.34921,986.59186 q 3.683,0 3.683,2.62466 0,1.36878 -1.00189,2.10256 -1.00189,0.73378 -2.87866,0.73378 -0.31045,0 -0.90312,-0.0423 v 2.99156 q 0.29634,0.29633 1.05834,0.45155 l -0.0988,0.55034 h -3.89467 l 0.0564,-0.57856 q 0.47978,-0.0988 0.80433,-0.42333 v -7.40833 q -0.26811,-0.254 -0.86078,-0.45156 l 0.0564,-0.55033 z m 1.49578,2.65289 q 0,-0.86078 -0.45156,-1.32645 -0.43744,-0.46567 -1.11477,-0.46567 -0.67734,0 -1.03012,0.0565 v 3.65478 h 0.91723 q 1.67922,0 1.67922,-1.91911 z"
         style="font-style:normal;font-variant:normal;font-weight:bold;font-stretch:normal;font-size:14.1111px;font-family:Caladea;-inkscape-font-specification:'Caladea, Bold';font-variant-ligatures:normal;font-variant-caps:normal;font-variant-numeric:normal;font-variant-east-asian:normal;fill:#37abc8;stroke-width:2.64583"
         id="path1273" />
    </g>
    <g
       aria-label="Q"
       id="text6218"
       style="font-style:normal;font-variant:normal;font-weight:bold;font-stretch:normal;font-size:14.1111px;line-height:1.25;font-family:Caladea;-inkscape-font-specification:'Caladea, Bold';font-variant-ligatures:normal;font-variant-caps:normal;font-variant-numeric:normal;font-variant-east-asian:normal;text-align:center;text-anchor:middle;display:inline;fill:#37abc8;stroke-width:2.64583"
       transform="matrix(0.1,0,0,0.1,94.750888,-5.6845009)">
      <path
         d="m 240.28381,996.08863 q -3.40077,-0.45155 -3.40077,-4.92477 0,-2.25778 1.05833,-3.48545 1.07244,-1.24178 3.16089,-1.24178 2.08844,0 3.14677,1.24178 1.05834,1.22767 1.05834,3.59834 0,4.21922 -3.175,4.78366 0.49389,1.36878 1.86266,1.89089 0.0141,0.0423 0.0141,0.11289 0,0.29633 -0.18345,0.39511 -1.35466,-0.21167 -2.18722,-0.81844 -0.81844,-0.60678 -1.35467,-1.55223 z m 0.80434,-8.83355 q -0.98778,0 -1.43934,0.94544 -0.43744,0.93134 -0.43744,3.09034 0,2.14489 0.43744,3.09033 0.45156,0.94544 1.43934,0.94544 1.00189,0 1.43933,-0.94544 0.43744,-0.94544 0.43744,-3.09033 0,-2.159 -0.43744,-3.09034 -0.43744,-0.94544 -1.43933,-0.94544 z"
         style="font-style:normal;font-variant:normal;font-weight:bold;font-stretch:normal;font-size:14.1111px;font-family:Caladea;-inkscape-font-specification:'Caladea, Bold';font-variant-ligatures:normal;font-variant-caps:normal;font-variant-numeric:normal;font-variant-east-asian:normal;fill:#37abc8;stroke-width:2.64583"
         id="path1276" />
    </g>
    <g
       aria-label="R"
       id="text6222"
       style="font-style:normal;font-variant:normal;font-weight:bold;font-stretch:normal;font-size:14.1111px;line-height:1.25;font-family:Caladea;-inkscape-font-specification:'Caladea, Bold';font-variant-ligatures:normal;font-variant-caps:normal;font-variant-numeric:normal;font-variant-east-asian:normal;text-align:center;text-anchor:middle;display:inline;fill:#37abc8;stroke-width:2.64583"
       transform="matrix(0.1,0,0,0.1,94.750888,-5.6845009)">
      <path
         d="m 367.99645,986.59186 q 3.61244,0 3.61244,2.48355 0,1.80622 -1.83444,2.413 0.45155,0.31045 0.73377,0.93134 l 1.05834,2.51177 q 0.14111,0.32456 0.86077,0.49389 l -0.0988,0.57856 h -2.56823 l -1.36877,-3.69711 q -0.18345,-0.45156 -0.762,-0.53623 -0.23989,0 -0.57856,-0.0282 h -0.15522 v 3.25967 q 0.29633,0.29633 1.05833,0.45155 l -0.0988,0.55034 h -3.89466 l 0.0564,-0.57856 q 0.47978,-0.0988 0.80434,-0.42333 v -7.40833 q -0.26812,-0.254 -0.86078,-0.45156 l 0.0564,-0.55033 z m 1.42522,2.51177 q 0,-0.79022 -0.42334,-1.21355 -0.42333,-0.43745 -1.08655,-0.43745 -0.66322,0 -1.016,0.0565 v 3.37255 h 0.91722 q 1.60867,0 1.60867,-1.778 z"
         style="font-style:normal;font-variant:normal;font-weight:bold;font-stretch:normal;font-size:14.1111px;font-family:Caladea;-inkscape-font-specification:'Caladea, Bold';font-variant-ligatures:normal;font-variant-caps:normal;font-variant-numeric:normal;font-variant-east-asian:normal;fill:#37abc8;stroke-width:2.64583"
         id="path1279" />
    </g>
    <g
       aria-label="S"
       id="text6226"
       style="font-style:normal;font-variant:normal;font-weight:bold;font-stretch:normal;font-size:14.1111px;line-height:1.25;font-family:Caladea;-inkscape-font-specification:'Caladea, Bold';font-variant-ligatures:normal;font-variant-caps:normal;font-variant-numeric:normal;font-variant-east-asian:normal;text-align:center;text-anchor:middle;display:inline;fill:#37abc8;stroke-width:2.64583"
       transform="matrix(0.1,0,0,0.1,94.750888,-5.6845009)">
      <path
         d="m 493.84639,995.10086 q 0.62089,0.22577 1.18533,0.22577 0.56445,0 0.91723,-0.35277 0.35277,-0.36689 0.35277,-0.87489 0,-0.52211 -0.23988,-0.889 -0.22578,-0.381 -0.59267,-0.635 -0.36689,-0.254 -0.81845,-0.49389 -0.43744,-0.23989 -0.889,-0.508 -0.43744,-0.28222 -0.80433,-0.59267 -0.36689,-0.32455 -0.60678,-0.81844 -0.22577,-0.49389 -0.22577,-1.10067 0,-1.11478 0.87488,-1.84855 0.889,-0.73378 2.22956,-0.73378 0.64911,0 1.48167,0.21166 0.84666,0.19756 1.397,0.49389 l -0.19756,1.94734 q -0.32455,0.0988 -0.52211,0.0988 -0.18344,0 -0.49389,-0.0564 -0.18344,-1.05833 -0.56444,-1.50989 -0.36689,-0.46567 -1.00189,-0.46567 -0.62089,0 -0.97367,0.32456 -0.35278,0.32456 -0.35278,0.79022 0,0.45156 0.31045,0.81845 0.32455,0.35277 0.80433,0.635 0.47978,0.26811 1.03011,0.635 0.56445,0.36689 1.04422,0.74789 0.47978,0.36688 0.79023,0.97366 0.32455,0.59267 0.32455,1.29822 0,1.24178 -0.91722,1.96145 -0.91722,0.71967 -2.48356,0.71967 -0.66322,0 -1.58044,-0.22578 -0.90311,-0.23989 -1.21356,-0.49389 v -2.14489 q 0.56445,-0.19756 1.28412,-0.23989 0.0847,1.24178 0.45155,2.10256 z"
         style="font-style:normal;font-variant:normal;font-weight:bold;font-stretch:normal;font-size:14.1111px;font-family:Caladea;-inkscape-font-specification:'Caladea, Bold';font-variant-ligatures:normal;font-variant-caps:normal;font-variant-numeric:normal;font-variant-east-asian:normal;fill:#37abc8;stroke-width:2.64583"
         id="path1282" />
    </g>
    <g
       aria-label="T"
       id="text6230"
       style="font-style:normal;font-variant:normal;font-weight:bold;font-stretch:normal;font-size:14.1111px;line-height:1.25;font-family:Caladea;-inkscape-font-specification:'Caladea, Bold';font-variant-ligatures:normal;font-variant-caps:normal;font-variant-numeric:normal;font-variant-east-asian:normal;text-align:center;text-anchor:middle;display:inline;fill:#37abc8;stroke-width:2.64583"
       transform="matrix(0.1,0,0,0.1,94.750888,-5.6845009)">
      <path
         d="m 619.0966,989.1883 q -0.254,0.0423 -0.508,0.0423 -0.23988,0 -0.46566,-0.0423 v -2.65289 q 2.07433,0.0565 4.61433,0.0565 2.54,0 3.33022,-0.0565 v 2.65289 q -0.23989,0.0423 -0.47977,0.0423 -0.23989,0 -0.49389,-0.0423 -0.11289,-0.98778 -0.508,-1.62278 -0.70556,-0.0988 -1.45345,-0.11289 v 7.54945 q 0.29634,0.28222 1.05834,0.42333 l -0.0988,0.57856 h -4.10634 l 0.0565,-0.57856 q 0.60678,-0.0847 1.016,-0.42333 v -7.53533 q -0.31045,0.0141 -1.42522,0.0847 -0.508,0.70556 -0.53623,1.63689 z"
         style="font-style:normal;font-variant:normal;font-weight:bold;font-stretch:normal;font-size:14.1111px;font-family:Caladea;-inkscape-font-specification:'Caladea, Bold';font-variant-ligatures:normal;font-variant-caps:normal;font-variant-numeric:normal;font-variant-east-asian:normal;fill:#37abc8;stroke-width:2.64583"
         id="path1285" />
    </g>
    <g
       aria-label="U"
       id="text6234"
       style="font-style:normal;font-variant:normal;font-weight:bold;font-stretch:normal;font-size:14.1111px;line-height:1.25;font-family:Caladea;-inkscape-font-specification:'Caladea, Bold';font-variant-ligatures:normal;font-variant-caps:normal;font-variant-numeric:normal;font-variant-east-asian:normal;text-align:center;text-anchor:middle;display:inline;fill:#37abc8;stroke-width:2.64583"
       transform="matrix(0.1,0,0,0.1,94.750888,-5.6845009)">
      <path
         d="m 112.50065,1094.6688 q 0,2.0884 1.97556,2.0884 1.82033,0 1.82033,-2.3001 v -5.2917 q -0.26811,-0.2116 -1.07244,-0.3951 l 0.0705,-0.5785 h 3.35845 l -0.0847,0.5503 q -0.60678,0.1834 -0.93133,0.4516 v 4.953 q 0,1.3123 -0.33867,2.0602 -0.33867,0.7338 -1.18533,1.1148 -0.83256,0.381 -1.93322,0.381 -3.75356,0 -3.75356,-3.0339 v -5.4751 q -0.29633,-0.2964 -1.07244,-0.4234 l 0.0705,-0.5785 h 4.13456 l -0.0847,0.5785 q -0.62089,0.127 -0.97367,0.4234 z"
         style="font-style:normal;font-variant:normal;font-weight:bold;font-stretch:normal;font-size:14.1111px;font-family:Caladea;-inkscape-font-specification:'Caladea, Bold';font-variant-ligatures:normal;font-variant-caps:normal;font-variant-numeric:normal;font-variant-east-asian:normal;fill:#37abc8;stroke-width:2.64583"
         id="path1288" />
    </g>
    <g
       aria-label="V"
       id="text6238"
       style="font-style:normal;font-variant:normal;font-weight:bold;font-stretch:normal;font-size:14.1111px;line-height:1.25;font-family:Caladea;-inkscape-font-specification:'Caladea, Bold';font-variant-ligatures:normal;font-variant-caps:normal;font-variant-numeric:normal;font-variant-east-asian:normal;text-align:center;text-anchor:middle;display:inline;fill:#37abc8;stroke-width:2.64583"
       transform="matrix(0.1,0,0,0.1,94.750888,-5.6845009)">
      <path
         d="m 240.48843,1088.7562 q -0.59267,0.028 -0.87489,0.3105 l 1.91911,5.9266 2.06022,-5.8138 q -0.36688,-0.3245 -1.11477,-0.4233 l 0.0705,-0.5644 h 3.11856 l -0.0706,0.5644 q -0.66322,0.028 -0.889,0.3669 l -3.10444,8.4808 h -1.42522 l -2.63878,-8.255 q -0.18345,-0.4516 -0.90311,-0.5927 l 0.0705,-0.5644 h 3.86645 z"
         style="font-style:normal;font-variant:normal;font-weight:bold;font-stretch:normal;font-size:14.1111px;font-family:Caladea;-inkscape-font-specification:'Caladea, Bold';font-variant-ligatures:normal;font-variant-caps:normal;font-variant-numeric:normal;font-variant-east-asian:normal;fill:#37abc8;stroke-width:2.64583"
         id="path1291" />
    </g>
    <g
       aria-label="W"
       id="text6242"
       style="font-style:normal;font-variant:normal;font-weight:bold;font-stretch:normal;font-size:14.1111px;line-height:1.25;font-family:Caladea;-inkscape-font-specification:'Caladea, Bold';font-variant-ligatures:normal;font-variant-caps:normal;font-variant-numeric:normal;font-variant-east-asian:normal;text-align:center;text-anchor:middle;display:inline;fill:#37abc8;stroke-width:2.64583"
       transform="matrix(0.1,0,0,0.1,94.750888,-5.6845009)">
      <path
         d="m 367.94706,1088.1918 h 1.24178 l 1.94733,6.8015 1.778,-5.7996 q -0.35278,-0.3387 -1.12889,-0.4375 l 0.0706,-0.5644 h 3.11855 l -0.0706,0.5644 q -0.66323,0.028 -0.87489,0.3528 l -2.82222,8.4949 h -1.42523 l -1.80622,-6.0678 -1.96144,6.0678 h -1.42523 l -2.413,-8.3679 q -0.19755,-0.3387 -0.84666,-0.4798 l 0.0705,-0.5644 h 3.86645 l -0.0847,0.5644 q -0.57855,0.028 -0.889,0.3105 l 1.651,5.9266 z"
         style="font-style:normal;font-variant:normal;font-weight:bold;font-stretch:normal;font-size:14.1111px;font-family:Caladea;-inkscape-font-specification:'Caladea, Bold';font-variant-ligatures:normal;font-variant-caps:normal;font-variant-numeric:normal;font-variant-east-asian:normal;fill:#37abc8;stroke-width:2.64583"
         id="path1294" />
    </g>
    <g
       aria-label="X"
       id="text6246"
       style="font-style:normal;font-variant:normal;font-weight:bold;font-stretch:normal;font-size:14.1111px;line-height:1.25;font-family:Caladea;-inkscape-font-specification:'Caladea, Bold';font-variant-ligatures:normal;font-variant-caps:normal;font-variant-numeric:normal;font-variant-east-asian:normal;text-align:center;text-anchor:middle;display:inline;fill:#37abc8;stroke-width:2.64583"
       transform="matrix(0.1,0,0,0.1,94.750888,-5.6845009)">
      <path
         d="m 491.7015,1096.6867 2.38477,-3.5278 -2.54,-4.0781 q -0.19755,-0.2117 -0.71966,-0.3246 l 0.0705,-0.5644 h 3.86645 l -0.0847,0.5644 q -0.508,0.014 -0.79022,0.2963 l 1.524,2.4554 1.53811,-2.3001 q -0.31044,-0.3105 -0.97367,-0.4093 l 0.0706,-0.5644 h 3.11855 l -0.0706,0.5644 q -0.66322,0.028 -0.889,0.3528 l -2.21545,3.302 2.68112,4.2898 q 0.22577,0.2117 0.71966,0.2963 l -0.0705,0.5645 h -3.86645 l 0.0847,-0.5645 q 0.52211,-0.028 0.79022,-0.2963 l -1.651,-2.6388 -1.70744,2.54 q 0.32455,0.2964 0.97366,0.3951 l -0.0705,0.5645 h -3.11856 l 0.0706,-0.5645 q 0.66322,-0.028 0.87489,-0.3527 z"
         style="font-style:normal;font-variant:normal;font-weight:bold;font-stretch:normal;font-size:14.1111px;font-family:Caladea;-inkscape-font-specification:'Caladea, Bold';font-variant-ligatures:normal;font-variant-caps:normal;font-variant-numeric:normal;font-variant-east-asian:normal;fill:#37abc8;stroke-width:2.64583"
         id="path1297" />
    </g>
    <g
       aria-label="Y"
       id="text6250"
       style="font-style:normal;font-variant:normal;font-weight:bold;font-stretch:normal;font-size:14.1111px;line-height:1.25;font-family:Caladea;-inkscape-font-specification:'Caladea, Bold';font-variant-ligatures:normal;font-variant-caps:normal;font-variant-numeric:normal;font-variant-east-asian:normal;text-align:center;text-anchor:middle;display:inline;fill:#37abc8;stroke-width:2.64583"
       transform="matrix(0.1,0,0,0.1,94.750888,-5.6845009)">
      <path
         d="m 618.75089,1089.236 q -0.18344,-0.3387 -0.84666,-0.4798 l 0.0706,-0.5644 h 3.82411 l -0.0847,0.5644 q -0.59267,0.028 -0.87489,0.3105 l 1.67922,3.4995 1.72156,-3.3867 q -0.36689,-0.3245 -1.12889,-0.4233 l 0.0706,-0.5644 h 3.16089 l -0.0706,0.5644 q -0.62089,0.028 -0.84667,0.3105 l -2.413,4.7554 v 2.7799 q 0.32456,0.2963 1.05833,0.4515 l -0.0988,0.5504 h -3.89467 l 0.0564,-0.5786 q 0.55034,-0.085 0.80434,-0.3528 v -2.8645 z"
         style="font-style:normal;font-variant:normal;font-weight:bold;font-stretch:normal;font-size:14.1111px;font-family:Caladea;-inkscape-font-specification:'Caladea, Bold';font-variant-ligatures:normal;font-variant-caps:normal;font-variant-numeric:normal;font-variant-east-asian:normal;fill:#37abc8;stroke-width:2.64583"
         id="path1300" />
    </g>
    <g
       aria-label="Z"
       id="text6254"
       style="font-style:normal;font-variant:normal;font-weight:bold;font-stretch:normal;font-size:14.1111px;line-height:1.25;font-family:Caladea;-inkscape-font-specification:'Caladea, Bold';font-variant-ligatures:normal;font-variant-caps:normal;font-variant-numeric:normal;font-variant-east-asian:normal;text-align:center;text-anchor:middle;display:inline;fill:#37abc8;stroke-width:2.64583"
       transform="matrix(0.1,0,0,0.1,94.750888,-5.6845009)">
      <path
         d="m 117.5242,1199.2322 -3.73944,-0.028 q -2.70934,0 -3.23145,0.028 l -0.0564,-0.6632 4.60022,-7.9587 h -2.72345 q -0.28222,0.3528 -0.508,1.7498 -0.22577,0.042 -0.53622,0.042 -0.29633,0 -0.66322,-0.1129 l -0.16933,-2.0743 0.52211,-0.4516 q 0.64911,0.028 3.03389,0.028 2.38477,0 3.45722,-0.028 l 0.14111,0.5363 -4.72722,8.0715 h 2.93511 q 0.45155,-0.6491 0.73378,-1.8485 0.22577,-0.056 0.55033,-0.056 0.32456,0 0.508,0.042 z"
         style="font-style:normal;font-variant:normal;font-weight:bold;font-stretch:normal;font-size:14.1111px;font-family:Caladea;-inkscape-font-specification:'Caladea, Bold';font-variant-ligatures:normal;font-variant-caps:normal;font-variant-numeric:normal;font-variant-east-asian:normal;fill:#37abc8;stroke-width:2.64583"
         id="path1303" />
    </g>
    <g
       aria-label="_"
       id="text6258"
       style="font-style:normal;font-variant:normal;font-weight:bold;font-stretch:normal;font-size:14.1111px;line-height:1.25;font-family:Caladea;-inkscape-font-specification:'Caladea, Bold';font-variant-ligatures:normal;font-variant-caps:normal;font-variant-numeric:normal;font-variant-east-asian:normal;text-align:center;text-anchor:middle;display:inline;fill:#37abc8;stroke-width:2.64583"
       transform="matrix(0.1,0,0,0.1,94.750888,-5.6845009)">
      <path
         d="m 243.71282,1200.9255 h -5.23522 v -1.0442 h 5.23522 z"
         style="font-style:normal;font-variant:normal;font-weight:bold;font-stretch:normal;font-size:14.1111px;font-family:Caladea;-inkscape-font-specification:'Caladea, Bold';font-variant-ligatures:normal;font-variant-caps:normal;font-variant-numeric:normal;font-variant-east-asian:normal;fill:#37abc8;stroke-width:2.64583"
         id="path1306" />
    </g>
    <g
       aria-label="."
       id="text6262"
       style="font-style:normal;font-variant:normal;font-weight:bold;font-stretch:normal;font-size:14.1111px;line-height:1.25;font-family:Caladea;-inkscape-font-specification:'Caladea, Bold';font-variant-ligatures:normal;font-variant-caps:normal;font-variant-numeric:normal;font-variant-east-asian:normal;text-align:center;text-anchor:middle;display:inline;fill:#37abc8;stroke-width:2.64583"
       transform="matrix(0.1,0,0,0.1,94.750888,-5.6845009)">
      <path
         d="m 367.12156,1198.188 q 0,-1.0866 0.98778,-1.0866 0.98777,0 0.98777,1.0866 0,1.0724 -0.98777,1.0724 -0.49389,0 -0.74789,-0.2822 -0.23989,-0.2963 -0.23989,-0.7902 z"
         style="font-style:normal;font-variant:normal;font-weight:bold;font-stretch:normal;font-size:14.1111px;font-family:Caladea;-inkscape-font-specification:'Caladea, Bold';font-variant-ligatures:normal;font-variant-caps:normal;font-variant-numeric:normal;font-variant-east-asian:normal;fill:#37abc8;stroke-width:2.64583"
         id="path1309" />
    </g>
    <g
       aria-label="?"
       id="text6266"
       style="font-style:normal;font-variant:normal;font-weight:bold;font-stretch:normal;font-size:14.1111px;line-height:1.25;font-family:Caladea;-inkscape-font-specification:'Caladea, Bold';font-variant-ligatures:normal;font-variant-caps:normal;font-variant-numeric:normal;font-variant-east-asian:normal;text-align:center;text-anchor:middle;display:inline;fill:#37abc8;stroke-width:2.64583"
       transform="matrix(0.1,0,0,0.1,94.750888,-5.6845009)">
      <path
         d="m 494.77066,1196.5088 q -0.46566,0 -0.79022,-0.2964 -0.31044,-0.3104 -0.31044,-0.8466 0,-0.5363 0.21166,-0.9314 0.21167,-0.4092 0.508,-0.6914 0.31045,-0.2964 0.62089,-0.6068 0.71967,-0.7197 0.71967,-1.8344 0,-0.4939 -0.26811,-0.7479 -0.254,-0.254 -0.57856,-0.254 -0.32455,0 -0.53622,0.1693 -0.21167,0.1693 -0.21167,0.5221 0,0.3387 0.42334,0.6773 -0.127,0.3105 -0.42334,0.4798 -0.28222,0.1694 -0.69144,0.1694 -0.39511,0 -0.73378,-0.2823 -0.33867,-0.2963 -0.33867,-0.8043 0,-0.7197 0.77611,-1.143 0.79023,-0.4374 1.93323,-0.4374 1.15711,0 1.84855,0.4938 0.69145,0.4798 0.69145,1.4394 0,0.5362 -0.22578,1.016 -0.22578,0.4656 -0.55034,0.7902 -0.31044,0.3246 -0.62088,0.6209 -0.762,0.7479 -0.762,1.3405 0,0.3246 0.22577,0.8044 -0.43744,0.3528 -0.91722,0.3528 z m -0.0423,0.8748 q 1.12889,0 1.12889,0.9878 0,0.9878 -1.12889,0.9878 -1.11478,0 -1.11478,-0.9878 0,-0.9878 1.11478,-0.9878 z"
         style="font-style:normal;font-variant:normal;font-weight:bold;font-stretch:normal;font-size:14.1111px;font-family:Caladea;-inkscape-font-specification:'Caladea, Bold';font-variant-ligatures:normal;font-variant-caps:normal;font-variant-numeric:normal;font-variant-east-asian:normal;fill:#37abc8;stroke-width:2.64583"
         id="path1312" />
    </g>
  </g>
</svg>
