<?xml version="1.0" encoding="UTF-8" standalone="no"?>
<svg
   xmlns:dc="http://purl.org/dc/elements/1.1/"
   xmlns:cc="http://creativecommons.org/ns#"
   xmlns:rdf="http://www.w3.org/1999/02/22-rdf-syntax-ns#"
   xmlns:svg="http://www.w3.org/2000/svg"
   xmlns="http://www.w3.org/2000/svg"
   xmlns:sodipodi="http://sodipodi.sourceforge.net/DTD/sodipodi-0.dtd"
   xmlns:inkscape="http://www.inkscape.org/namespaces/inkscape"
   width="14.449592mm"
   height="3.809587mm"
   viewBox="0 0 14.449592 3.809587"
   version="1.1"
   id="svg13324"
   inkscape:version="1.0.2 (e86c870879, 2021-01-15)"
   sodipodi:docname="logo.svg">
  <defs
     id="defs13318" />
  <sodipodi:namedview
     id="base"
     pagecolor="#ffffff"
     bordercolor="#666666"
     borderopacity="1.0"
     inkscape:pageopacity="0.0"
     inkscape:pageshadow="2"
     inkscape:zoom="0.35"
     inkscape:cx="218.73489"
     inkscape:cy="-1248.0914"
     inkscape:document-units="mm"
     inkscape:current-layer="layer1"
     inkscape:document-rotation="0"
     showgrid="false"
     inkscape:window-width="956"
     inkscape:window-height="1049"
     inkscape:window-x="960"
     inkscape:window-y="27"
     inkscape:window-maximized="0" />
  <metadata
     id="metadata13321">
    <rdf:RDF>
      <cc:Work
         rdf:about="">
        <dc:format>image/svg+xml</dc:format>
        <dc:type
           rdf:resource="http://purl.org/dc/dcmitype/StillImage" />
        <dc:title></dc:title>
      </cc:Work>
    </rdf:RDF>
  </metadata>
  <g
     inkscape:label="Layer 1"
     inkscape:groupmode="layer"
     id="layer1"
     transform="translate(-47.959728,-95.613064)">
    <path
       style="color:#000000;font-style:normal;font-variant:normal;font-weight:normal;font-stretch:normal;font-size:35.2778px;line-height:1.25;font-family:Caladea;-inkscape-font-specification:'Caladea, Bold';font-variant-ligatures:normal;font-variant-position:normal;font-variant-caps:normal;font-variant-numeric:normal;font-variant-alternates:normal;font-variant-east-asian:normal;font-feature-settings:normal;font-variation-settings:normal;text-indent:0;text-align:start;text-decoration:none;text-decoration-line:none;text-decoration-style:solid;text-decoration-color:#000000;letter-spacing:normal;word-spacing:normal;text-transform:none;writing-mode:lr-tb;direction:ltr;text-orientation:mixed;dominant-baseline:auto;baseline-shift:baseline;text-anchor:start;white-space:normal;shape-padding:0;shape-margin:0;inline-size:0;clip-rule:nonzero;display:inline;overflow:visible;visibility:visible;isolation:auto;mix-blend-mode:normal;color-interpolation:sRGB;color-interpolation-filters:linearRGB;solid-color:#000000;solid-opacity:1;vector-effect:none;fill:#37abc8;fill-opacity:1;fill-rule:nonzero;stroke:none;stroke-width:0.264583;stroke-linecap:butt;stroke-linejoin:miter;stroke-miterlimit:4;stroke-dasharray:none;stroke-dashoffset:0;stroke-opacity:1;color-rendering:auto;image-rendering:auto;shape-rendering:auto;text-rendering:auto;enable-background:accumulate;stop-color:#000000"
       d="m 55.406687,97.426102 c 0.235185,0 0.419806,0.0635 0.553861,0.1905 0.136407,0.127 0.204611,0.296333 0.204611,0.508 0,0.209315 -0.07879,0.378649 -0.236361,0.508 -0.157574,0.129352 -0.369241,0.194028 -0.635,0.194028 -0.263408,0 -0.470371,-0.07761 -0.62089,-0.232833 -0.148167,-0.155223 -0.22225,-0.379825 -0.22225,-0.673806 0,-0.369241 0.121121,-0.690269 0.363362,-0.963084 0.242241,-0.275167 0.567972,-0.465667 0.977195,-0.571501 l 0.08467,0.17639 c -0.261055,0.112889 -0.455083,0.237537 -0.582083,0.373944 -0.127,0.136407 -0.217546,0.332787 -0.271639,0.589139 0.131703,-0.06585 0.259879,-0.09878 0.384528,-0.09878 z m 0.246944,0.709083 c 0,-0.145815 -0.03057,-0.258703 -0.09172,-0.338666 -0.0588,-0.08232 -0.139936,-0.123473 -0.243417,-0.123473 -0.103481,0 -0.214018,0.03998 -0.331611,0.119945 v 0.04586 c 0,0.256352 0.02822,0.4445 0.08467,0.564445 0.05644,0.119945 0.141111,0.179917 0.254,0.179917 0.218722,0 0.328083,-0.149343 0.328083,-0.448029 z"
       id="path1527"
       inkscape:export-xdpi="300"
       inkscape:export-ydpi="300" />
    <path
       style="color:#000000;font-style:normal;font-variant:normal;font-weight:normal;font-stretch:normal;font-size:35.2778px;line-height:1.25;font-family:Caladea;-inkscape-font-specification:'Caladea, Bold';font-variant-ligatures:normal;font-variant-position:normal;font-variant-caps:normal;font-variant-numeric:normal;font-variant-alternates:normal;font-variant-east-asian:normal;font-feature-settings:normal;font-variation-settings:normal;text-indent:0;text-align:start;text-decoration:none;text-decoration-line:none;text-decoration-style:solid;text-decoration-color:#000000;letter-spacing:normal;word-spacing:normal;text-transform:none;writing-mode:lr-tb;direction:ltr;text-orientation:mixed;dominant-baseline:auto;baseline-shift:baseline;text-anchor:start;white-space:normal;shape-padding:0;shape-margin:0;inline-size:0;clip-rule:nonzero;display:inline;overflow:visible;visibility:visible;isolation:auto;mix-blend-mode:normal;color-interpolation:sRGB;color-interpolation-filters:linearRGB;solid-color:#000000;solid-opacity:1;vector-effect:none;fill:#37abc8;fill-opacity:1;fill-rule:nonzero;stroke:none;stroke-width:0.264583;stroke-linecap:butt;stroke-linejoin:miter;stroke-miterlimit:4;stroke-dasharray:none;stroke-dashoffset:0;stroke-opacity:1;color-rendering:auto;image-rendering:auto;shape-rendering:auto;text-rendering:auto;enable-background:accumulate;stop-color:#000000"
       d="m 57.117657,98.385658 c 0.05409,0.155222 0.141111,0.232833 0.261055,0.232833 0.119945,0 0.205787,-0.07761 0.257528,-0.232833 0.05409,-0.157574 0.08114,-0.41863 0.08114,-0.783167 0,-0.364537 -0.02705,-0.625593 -0.08114,-0.783168 -0.05174,-0.159926 -0.137583,-0.239889 -0.257528,-0.239889 -0.119944,0 -0.206962,0.07879 -0.261055,0.236362 -0.05174,0.157574 -0.07761,0.419806 -0.07761,0.786695 0,0.364537 0.02587,0.625593 0.07761,0.783167 z m 0.892528,0.116417 c -0.145815,0.206963 -0.356306,0.310444 -0.631473,0.310444 -0.275167,0 -0.486833,-0.103481 -0.635,-0.310444 -0.148167,-0.209315 -0.22225,-0.508001 -0.22225,-0.896057 0,-0.390407 0.07408,-0.689093 0.22225,-0.896056 0.148167,-0.206963 0.359833,-0.310444 0.635,-0.310444 0.275167,0 0.485658,0.103481 0.631473,0.310444 0.148167,0.204611 0.22225,0.502121 0.22225,0.892529 0,0.390407 -0.07408,0.690269 -0.22225,0.899584 z"
       id="path1529"
       inkscape:export-xdpi="300"
       inkscape:export-ydpi="300" />
    <path
       style="color:#000000;font-style:normal;font-variant:normal;font-weight:normal;font-stretch:normal;font-size:35.2778px;line-height:1.25;font-family:Caladea;-inkscape-font-specification:'Caladea, Bold';font-variant-ligatures:normal;font-variant-position:normal;font-variant-caps:normal;font-variant-numeric:normal;font-variant-alternates:normal;font-variant-east-asian:normal;font-feature-settings:normal;font-variation-settings:normal;text-indent:0;text-align:start;text-decoration:none;text-decoration-line:none;text-decoration-style:solid;text-decoration-color:#000000;letter-spacing:normal;word-spacing:normal;text-transform:none;writing-mode:lr-tb;direction:ltr;text-orientation:mixed;dominant-baseline:auto;baseline-shift:baseline;text-anchor:start;white-space:normal;shape-padding:0;shape-margin:0;inline-size:0;clip-rule:nonzero;display:inline;overflow:visible;visibility:visible;isolation:auto;mix-blend-mode:normal;color-interpolation:sRGB;color-interpolation-filters:linearRGB;solid-color:#000000;solid-opacity:1;vector-effect:none;fill:#37abc8;fill-opacity:1;fill-rule:nonzero;stroke:none;stroke-width:0.264583;stroke-linecap:butt;stroke-linejoin:miter;stroke-miterlimit:4;stroke-dasharray:none;stroke-dashoffset:0;stroke-opacity:1;color-rendering:auto;image-rendering:auto;shape-rendering:auto;text-rendering:auto;enable-background:accumulate;stop-color:#000000"
       d="m 59.206099,98.385658 c 0.05409,0.155222 0.141111,0.232833 0.261056,0.232833 0.119945,0 0.205787,-0.07761 0.257528,-0.232833 0.05409,-0.157574 0.08114,-0.41863 0.08114,-0.783167 0,-0.364537 -0.02705,-0.625593 -0.08114,-0.783168 -0.05174,-0.159926 -0.137583,-0.239889 -0.257528,-0.239889 -0.119945,0 -0.206963,0.07879 -0.261056,0.236362 -0.05174,0.157574 -0.07761,0.419806 -0.07761,0.786695 0,0.364537 0.02587,0.625593 0.07761,0.783167 z m 0.892528,0.116417 c -0.145815,0.206963 -0.356305,0.310444 -0.631472,0.310444 -0.275167,0 -0.486834,-0.103481 -0.635001,-0.310444 -0.148167,-0.209315 -0.22225,-0.508001 -0.22225,-0.896057 0,-0.390407 0.07408,-0.689093 0.22225,-0.896056 0.148167,-0.206963 0.359834,-0.310444 0.635001,-0.310444 0.275167,0 0.485657,0.103481 0.631472,0.310444 0.148167,0.204611 0.222251,0.502121 0.222251,0.892529 0,0.390407 -0.07408,0.690269 -0.222251,0.899584 z"
       id="path1531"
       inkscape:export-xdpi="300"
       inkscape:export-ydpi="300" />
    <path
       style="color:#000000;font-style:normal;font-variant:normal;font-weight:normal;font-stretch:normal;font-size:35.2778px;line-height:1.25;font-family:Caladea;-inkscape-font-specification:'Caladea, Bold';font-variant-ligatures:normal;font-variant-position:normal;font-variant-caps:normal;font-variant-numeric:normal;font-variant-alternates:normal;font-variant-east-asian:normal;font-feature-settings:normal;font-variation-settings:normal;text-indent:0;text-align:start;text-decoration:none;text-decoration-line:none;text-decoration-style:solid;text-decoration-color:#000000;letter-spacing:normal;word-spacing:normal;text-transform:none;writing-mode:lr-tb;direction:ltr;text-orientation:mixed;dominant-baseline:auto;baseline-shift:baseline;text-anchor:start;white-space:normal;shape-padding:0;shape-margin:0;inline-size:0;clip-rule:nonzero;display:inline;overflow:visible;visibility:visible;isolation:auto;mix-blend-mode:normal;color-interpolation:sRGB;color-interpolation-filters:linearRGB;solid-color:#000000;solid-opacity:1;vector-effect:none;fill:#37abc8;fill-opacity:1;fill-rule:nonzero;stroke:none;stroke-width:0.264583;stroke-linecap:butt;stroke-linejoin:miter;stroke-miterlimit:4;stroke-dasharray:none;stroke-dashoffset:0;stroke-opacity:1;color-rendering:auto;image-rendering:auto;shape-rendering:auto;text-rendering:auto;enable-background:accumulate;stop-color:#000000"
       d="m 61.294542,98.385658 c 0.05409,0.155222 0.141111,0.232833 0.261055,0.232833 0.119945,0 0.205787,-0.07761 0.257528,-0.232833 0.05409,-0.157574 0.08114,-0.41863 0.08114,-0.783167 0,-0.364537 -0.02705,-0.625593 -0.08114,-0.783168 -0.05174,-0.159926 -0.137583,-0.239889 -0.257528,-0.239889 -0.119944,0 -0.206962,0.07879 -0.261055,0.236362 -0.05174,0.157574 -0.07761,0.419806 -0.07761,0.786695 0,0.364537 0.02587,0.625593 0.07761,0.783167 z m 0.892528,0.116417 c -0.145815,0.206963 -0.356306,0.310444 -0.631473,0.310444 -0.275167,0 -0.486833,-0.103481 -0.635,-0.310444 -0.148167,-0.209315 -0.22225,-0.508001 -0.22225,-0.896057 0,-0.390407 0.07408,-0.689093 0.22225,-0.896056 0.148167,-0.206963 0.359833,-0.310444 0.635,-0.310444 0.275167,0 0.485658,0.103481 0.631473,0.310444 0.148167,0.204611 0.22225,0.502121 0.22225,0.892529 0,0.390407 -0.07408,0.690269 -0.22225,0.899584 z"
       id="path1533"
       inkscape:export-xdpi="300"
       inkscape:export-ydpi="300" />
    <path
       id="path3169"
       style="color:#000000;font-style:normal;font-variant:normal;font-weight:normal;font-stretch:normal;font-size:medium;line-height:normal;font-family:sans-serif;font-variant-ligatures:normal;font-variant-position:normal;font-variant-caps:normal;font-variant-numeric:normal;font-variant-alternates:normal;font-variant-east-asian:normal;font-feature-settings:normal;font-variation-settings:normal;text-indent:0;text-align:start;text-decoration:none;text-decoration-line:none;text-decoration-style:solid;text-decoration-color:#000000;letter-spacing:normal;word-spacing:normal;text-transform:none;writing-mode:lr-tb;direction:ltr;text-orientation:mixed;dominant-baseline:auto;baseline-shift:baseline;text-anchor:start;white-space:normal;shape-padding:0;shape-margin:0;inline-size:0;clip-rule:nonzero;display:inline;overflow:visible;visibility:visible;isolation:auto;mix-blend-mode:normal;color-interpolation:sRGB;color-interpolation-filters:linearRGB;solid-color:#000000;solid-opacity:1;vector-effect:none;fill:#37abc8;fill-opacity:1;fill-rule:nonzero;stroke:none;stroke-width:0.251005px;stroke-linecap:butt;stroke-linejoin:miter;stroke-miterlimit:4;stroke-dasharray:none;stroke-dashoffset:0;stroke-opacity:1;color-rendering:auto;image-rendering:auto;shape-rendering:auto;text-rendering:auto;enable-background:accumulate;stop-color:#000000"
       d="m 48.53127,95.613064 -0.571542,3.809587 h 5.714897 l 0.571541,-3.809587 z m 3.268017,0.807701 c 0.322204,0.0094 0.689134,0.01394 1.100708,0.01394 0.411575,0 0.683235,-0.0046 0.814938,-0.01394 l -0.10542,0.663009 c -0.03763,0.0071 -0.07807,0.01085 -0.120406,0.01085 -0.03998,0 -0.08066,-0.0038 -0.12299,-0.01085 0,-0.181092 -0.02048,-0.316288 -0.06046,-0.405659 -0.122297,-0.01646 -0.230454,-0.02556 -0.324528,-0.02791 l -0.299723,1.887223 c 0.03057,0.03293 0.132921,0.06831 0.306958,0.105936 l -0.01757,0.144696 h -1.150317 l 0.01809,-0.144696 c 0.155222,-0.02352 0.263379,-0.0589 0.324528,-0.105936 l 0.299723,-1.884122 c -0.01881,0 -0.126972,0.0071 -0.324528,0.02119 -0.10113,0.11289 -0.168095,0.249351 -0.201022,0.409276 -0.04233,0.0071 -0.08352,0.01085 -0.123506,0.01085 -0.03998,0 -0.07991,-0.0038 -0.11989,-0.01085 z m -2.881994,0.01394 h 0.850077 l 0.285771,1.5875 0.74104,-1.5875 h 0.832507 l -0.02119,0.144692 c -0.101129,0.01881 -0.186793,0.0542 -0.257348,0.105937 l -0.293006,1.852083 c 0.04233,0.04469 0.120921,0.08007 0.236161,0.105937 l -0.01757,0.144695 h -0.994771 l 0.01757,-0.144695 c 0.09643,-0.0141 0.181341,-0.04949 0.254248,-0.105937 l 0.229444,-1.457275 -0.80822,1.707907 h -0.271301 l -0.328145,-1.707907 -0.229444,1.457275 c 0.04233,0.04469 0.12092,0.08007 0.236162,0.105937 l -0.01757,0.144695 H 48.56434 l 0.01809,-0.144695 c 0.09643,-0.0141 0.180824,-0.04949 0.253732,-0.105937 l 0.293005,-1.852083 c -0.04233,-0.05409 -0.120172,-0.08947 -0.233061,-0.105937 z"
       inkscape:export-xdpi="300"
       inkscape:export-ydpi="300" />
  </g>
</svg>
