<?xml version="1.0" encoding="UTF-8"?>
<svg width="66.05mm" height="130.33mm" version="1.2" viewBox="0 0 660.5 1303.3" xmlns="http://www.w3.org/2000/svg" xmlns:cc="http://creativecommons.org/ns#" xmlns:dc="http://purl.org/dc/elements/1.1/" xmlns:rdf="http://www.w3.org/1999/02/22-rdf-syntax-ns#">
 <metadata>
  <rdf:RDF>
   <cc:Work rdf:about="">
    <dc:format>image/svg+xml</dc:format>
    <dc:type rdf:resource="http://purl.org/dc/dcmitype/StillImage"/>
    <dc:title>FreeCAD SVG Export</dc:title>
   </cc:Work>
  </rdf:RDF>
 </metadata>
 <title>FreeCAD SVG Export</title>
 <desc>Drawing page: Page exported from FreeCAD document: Calculator</desc>
 <g id="Page" transform="translate(-680.62 -833.33)" fill-rule="evenodd" font-family="'Sans Serif'" font-size="31.75px" font-weight="400" stroke-linejoin="bevel" stroke-width="0">
  <g stroke-linecap="square">
   <g transform="translate(1010.9 1485)" fill="#fff">
    <path d="m319-649.37c5.523 0 10 4.466 10 9.975v1279.8c0 5.509-4.477 9.975-10 9.975h-638c-5.523 0-10-4.466-10-9.975v-1280.9c0-5.509 4.477-9.975 10-9.975v1.051c-5.523 0-10 4.466-10 9.975v-1.051c0-5.509 4.477-9.975 10-9.975h638c5.523 0 10 4.466 10 9.975v1280.9c0 5.509-4.477 9.975-10 9.975h-638c-5.523 0-10-4.466-10-9.975v-1279.8c0-5.509 4.477-9.975 10-9.975h638" fill-rule="evenodd" stroke-width="0" vector-effect="non-scaling-stroke"/>
   </g>
   <g transform="translate(1010.9 1485)" fill="none" stroke="#000">
    <rect width="0" height="0" stroke-width="0"/>
   </g>
   <g transform="translate(1010.9 1485)" fill="#fff">
    <path d="m285-320.18v-274.32c0-5.51-4.477-9.976-10-9.976h-550c-5.523 0-10 4.466-10 9.976v274.32c0 5.509 4.477 9.975 10 9.975h550c5.523 0 10-4.466 10-9.975" fill-rule="evenodd" stroke-width="0" vector-effect="non-scaling-stroke"/>
   </g>
   <g transform="translate(1010.9 1485)" fill="none" stroke="#000">
    <rect width="0" height="0" stroke-width="0"/>
   </g>
   <g transform="translate(1010.9 1485)" fill="#fff">
    <path d="m285-321.24v-273.27c0-5.51-4.477-9.976-10-9.976h-550c-5.523 0-10 4.466-10 9.976v273.27c0 5.509 4.477 9.975 10 9.975h550c5.523 0 10-4.466 10-9.975" fill-rule="evenodd" stroke-width="0" vector-effect="non-scaling-stroke"/>
   </g>
   <g transform="translate(1010.9 1485)" fill="none" stroke="#000">
    <rect width="0" height="0" stroke-width="0"/>
   </g>
   <g transform="translate(1010.9 1485)" fill="#fff">
    <path d="m285-163.6c3e-3 0.175 5e-3 0.35 5e-3 0.526 0 16.527-13.431 29.926-30 29.926s-30-13.399-30-29.926c0-0.176 2e-3 -0.351 5e-3 -0.526 0.287-16.32 13.632-29.401 29.995-29.401s29.708 13.081 29.995 29.401" fill-rule="evenodd" stroke-width="0" vector-effect="non-scaling-stroke"/>
   </g>
   <g transform="translate(1010.9 1485)" fill="none" stroke="#000">
    <rect width="0" height="0" stroke-width="0"/>
   </g>
   <g transform="translate(1010.9 1485)" fill="#fff">
    <path d="m285 140.45c3e-3 0.175 5e-3 0.35 5e-3 0.525 0 16.528-13.431 29.927-30 29.927s-30-13.399-30-29.927c0-0.175 2e-3 -0.35 5e-3 -0.525 0.287-16.32 13.632-29.401 29.995-29.401s29.708 13.081 29.995 29.401" fill-rule="evenodd" stroke-width="0" vector-effect="non-scaling-stroke"/>
   </g>
   <g transform="translate(1010.9 1485)" fill="none" stroke="#000">
    <rect width="0" height="0" stroke-width="0"/>
   </g>
   <g transform="translate(1010.9 1485)" fill="#fff">
    <path d="m225 445.03c0-0.175 2e-3 -0.35 5e-3 -0.525 0.287-16.321 13.632-29.401 29.995-29.401s29.708 13.08 29.995 29.401c3e-3 0.175 5e-3 0.35 5e-3 0.525 0 16.528-13.431 29.927-30 29.927s-30-13.399-30-29.927" fill-rule="evenodd" stroke-width="0" vector-effect="non-scaling-stroke"/>
   </g>
   <g transform="translate(1010.9 1485)" fill="none" stroke="#000">
    <rect width="0" height="0" stroke-width="0"/>
   </g>
   <g transform="translate(1010.9 1485)" fill="#fff">
    <path d="m-156 546.38c0-0.176 2e-3 -0.351 5e-3 -0.526 0.287-16.32 13.632-29.401 29.995-29.401s29.708 13.081 29.995 29.401c0.0031 0.175 0.0046 0.35 0.0046 0.526 0 16.527-13.431 29.926-30 29.926s-30-13.399-30-29.926" fill-rule="evenodd" stroke-width="0" vector-effect="non-scaling-stroke"/>
   </g>
   <g transform="translate(1010.9 1485)" fill="none" stroke="#000">
    <rect width="0" height="0" stroke-width="0"/>
   </g>
   <g transform="translate(1010.9 1485)" fill="#fff">
    <path d="m98 546.38c0-0.176 0.0015-0.351 0.0046-0.526 0.2874-16.32 13.632-29.401 29.995-29.401s29.708 13.081 29.995 29.401c3e-3 0.175 5e-3 0.35 5e-3 0.526 0 16.527-13.431 29.926-30 29.926s-30-13.399-30-29.926" fill-rule="evenodd" stroke-width="0" vector-effect="non-scaling-stroke"/>
   </g>
   <g transform="translate(1010.9 1485)" fill="none" stroke="#000">
    <rect width="0" height="0" stroke-width="0"/>
   </g>
   <g transform="translate(1010.9 1485)" fill="#fff">
    <path d="m-156 445.03c0-0.175 2e-3 -0.35 5e-3 -0.525 0.287-16.321 13.632-29.401 29.995-29.401s29.708 13.08 29.995 29.401c0.0031 0.175 0.0046 0.35 0.0046 0.525 0 16.528-13.431 29.927-30 29.927s-30-13.399-30-29.927" fill-rule="evenodd" stroke-width="0" vector-effect="non-scaling-stroke"/>
   </g>
   <g transform="translate(1010.9 1485)" fill="none" stroke="#000">
    <rect width="0" height="0" stroke-width="0"/>
   </g>
   <g transform="translate(1010.9 1485)" fill="#fff">
    <path d="m158 241.8c3e-3 0.175 5e-3 0.351 5e-3 0.526 0 16.528-13.431 29.926-30 29.926s-30-13.398-30-29.926c0-0.175 0.0015-0.351 0.0046-0.526 0.2874-16.32 13.632-29.401 29.995-29.401s29.708 13.081 29.995 29.401" fill-rule="evenodd" stroke-width="0" vector-effect="non-scaling-stroke"/>
   </g>
   <g transform="translate(1010.9 1485)" fill="none" stroke="#000">
    <rect width="0" height="0" stroke-width="0"/>
   </g>
   <g transform="translate(1010.9 1485)" fill="#fff">
    <path d="m-96.005-163.6c0.0031 0.175 0.0046 0.35 0.0046 0.526 0 16.527-13.431 29.926-30 29.926s-30-13.399-30-29.926c0-0.176 2e-3 -0.351 5e-3 -0.526 0.287-16.32 13.632-29.401 29.995-29.401s29.708 13.081 29.995 29.401" fill-rule="evenodd" stroke-width="0" vector-effect="non-scaling-stroke"/>
   </g>
   <g transform="translate(1010.9 1485)" fill="none" stroke="#000">
    <rect width="0" height="0" stroke-width="0"/>
   </g>
   <g transform="translate(1010.9 1485)" fill="#fff">
    <path d="m-29 343.68c0-0.175 0.0015-0.35 0.0046-0.525 0.2874-16.321 13.632-29.401 29.995-29.401s29.708 13.08 29.995 29.401c0.0031 0.175 0.0046 0.35 0.0046 0.525 0 16.528-13.432 29.926-30 29.926s-30-13.398-30-29.926" fill-rule="evenodd" stroke-width="0" vector-effect="non-scaling-stroke"/>
   </g>
   <g transform="translate(1010.9 1485)" fill="none" stroke="#000">
    <rect width="0" height="0" stroke-width="0"/>
   </g>
   <g transform="translate(1010.9 1485)" fill="#fff">
    <path d="m-223-163.6c3e-3 0.175 5e-3 0.35 5e-3 0.526 0 16.527-13.431 29.926-30 29.926s-30-13.399-30-29.926c0-0.176 2e-3 -0.351 5e-3 -0.526 0.287-16.32 13.632-29.401 29.995-29.401s29.708 13.081 29.995 29.401" fill-rule="evenodd" stroke-width="0" vector-effect="non-scaling-stroke"/>
   </g>
   <g transform="translate(1010.9 1485)" fill="none" stroke="#000">
    <rect width="0" height="0" stroke-width="0"/>
   </g>
   <g transform="translate(1010.9 1485)" fill="#fff">
    <path d="m158 140.45c3e-3 0.175 5e-3 0.35 5e-3 0.525 0 16.528-13.431 29.927-30 29.927s-30-13.399-30-29.927c0-0.175 0.0015-0.35 0.0046-0.525 0.2874-16.32 13.632-29.401 29.995-29.401s29.708 13.081 29.995 29.401" fill-rule="evenodd" stroke-width="0" vector-effect="non-scaling-stroke"/>
   </g>
   <g transform="translate(1010.9 1485)" fill="none" stroke="#000">
    <rect width="0" height="0" stroke-width="0"/>
   </g>
   <g transform="translate(1010.9 1485)" fill="#fff">
    <path d="m285-62.247c3e-3 0.1751 5e-3 0.3503 5e-3 0.5255 0 16.528-13.431 29.926-30 29.926s-30-13.398-30-29.926c0-0.1752 2e-3 -0.3504 5e-3 -0.5255 0.287-16.32 13.632-29.401 29.995-29.401s29.708 13.08 29.995 29.401" fill-rule="evenodd" stroke-width="0" vector-effect="non-scaling-stroke"/>
   </g>
   <g transform="translate(1010.9 1485)" fill="none" stroke="#000">
    <rect width="0" height="0" stroke-width="0"/>
   </g>
   <g transform="translate(1010.9 1485)" fill="#fff">
    <path d="m-96.005 241.8c0.0031 0.175 0.0046 0.351 0.0046 0.526 0 16.528-13.431 29.926-30 29.926s-30-13.398-30-29.926c0-0.175 2e-3 -0.351 5e-3 -0.526 0.287-16.32 13.632-29.401 29.995-29.401s29.708 13.081 29.995 29.401" fill-rule="evenodd" stroke-width="0" vector-effect="non-scaling-stroke"/>
   </g>
   <g transform="translate(1010.9 1485)" fill="none" stroke="#000">
    <rect width="0" height="0" stroke-width="0"/>
   </g>
   <g transform="translate(1010.9 1485)" fill="#fff">
    <path d="m-96.005 140.45c0.0031 0.175 0.0046 0.35 0.0046 0.525 0 16.528-13.431 29.927-30 29.927s-30-13.399-30-29.927c0-0.175 2e-3 -0.35 5e-3 -0.525 0.287-16.32 13.632-29.401 29.995-29.401s29.708 13.081 29.995 29.401" fill-rule="evenodd" stroke-width="0" vector-effect="non-scaling-stroke"/>
   </g>
   <g transform="translate(1010.9 1485)" fill="none" stroke="#000">
    <rect width="0" height="0" stroke-width="0"/>
   </g>
   <g transform="translate(1010.9 1485)" fill="#fff">
    <path d="m158 39.104c3e-3 0.1751 5e-3 0.3503 5e-3 0.5255 0 16.528-13.431 29.926-30 29.926s-30-13.398-30-29.926c0-0.1752 0.0015-0.3504 0.0046-0.5255 0.2874-16.32 13.632-29.401 29.995-29.401s29.708 13.08 29.995 29.401" fill-rule="evenodd" stroke-width="0" vector-effect="non-scaling-stroke"/>
   </g>
   <g transform="translate(1010.9 1485)" fill="none" stroke="#000">
    <rect width="0" height="0" stroke-width="0"/>
   </g>
   <g transform="translate(1010.9 1485)" fill="#fff">
    <path d="m285 39.104c3e-3 0.1751 5e-3 0.3503 5e-3 0.5255 0 16.528-13.431 29.926-30 29.926s-30-13.398-30-29.926c0-0.1752 2e-3 -0.3504 5e-3 -0.5255 0.287-16.32 13.632-29.401 29.995-29.401s29.708 13.08 29.995 29.401" fill-rule="evenodd" stroke-width="0" vector-effect="non-scaling-stroke"/>
   </g>
   <g transform="translate(1010.9 1485)" fill="none" stroke="#000">
    <rect width="0" height="0" stroke-width="0"/>
   </g>
   <g transform="translate(1010.9 1485)" fill="#fff">
    <path d="m285 241.8c3e-3 0.175 5e-3 0.351 5e-3 0.526 0 16.528-13.431 29.926-30 29.926s-30-13.398-30-29.926c0-0.175 2e-3 -0.351 5e-3 -0.526 0.287-16.32 13.632-29.401 29.995-29.401s29.708 13.081 29.995 29.401" fill-rule="evenodd" stroke-width="0" vector-effect="non-scaling-stroke"/>
   </g>
   <g transform="translate(1010.9 1485)" fill="none" stroke="#000">
    <rect width="0" height="0" stroke-width="0"/>
   </g>
   <g transform="translate(1010.9 1485)" fill="#fff">
    <path d="m30.995 140.45c0.0031 0.175 0.0046 0.35 0.0046 0.525 0 16.528-13.432 29.927-30 29.927s-30-13.399-30-29.927c0-0.175 0.0015-0.35 0.0046-0.525 0.2874-16.32 13.632-29.401 29.995-29.401s29.708 13.081 29.995 29.401" fill-rule="evenodd" stroke-width="0" vector-effect="non-scaling-stroke"/>
   </g>
   <g transform="translate(1010.9 1485)" fill="none" stroke="#000">
    <rect width="0" height="0" stroke-width="0"/>
   </g>
   <g transform="translate(1010.9 1485)" fill="#fff">
    <path d="m-96.005 39.104c0.0031 0.1751 0.0046 0.3503 0.0046 0.5255 0 16.528-13.431 29.926-30 29.926s-30-13.398-30-29.926c0-0.1752 2e-3 -0.3504 5e-3 -0.5255 0.287-16.32 13.632-29.401 29.995-29.401s29.708 13.08 29.995 29.401" fill-rule="evenodd" stroke-width="0" vector-effect="non-scaling-stroke"/>
   </g>
   <g transform="translate(1010.9 1485)" fill="none" stroke="#000">
    <rect width="0" height="0" stroke-width="0"/>
   </g>
   <g transform="translate(1010.9 1485)" fill="#fff">
    <path d="m30.995-62.247c0.0031 0.1751 0.0046 0.3503 0.0046 0.5255 0 16.528-13.432 29.926-30 29.926s-30-13.398-30-29.926c0-0.1752 0.0015-0.3504 0.0046-0.5255 0.2874-16.32 13.632-29.401 29.995-29.401s29.708 13.08 29.995 29.401" fill-rule="evenodd" stroke-width="0" vector-effect="non-scaling-stroke"/>
   </g>
   <g transform="translate(1010.9 1485)" fill="none" stroke="#000">
    <rect width="0" height="0" stroke-width="0"/>
   </g>
   <g transform="translate(1010.9 1485)" fill="#fff">
    <path d="m-223-62.247c3e-3 0.1751 5e-3 0.3503 5e-3 0.5255 0 16.528-13.431 29.926-30 29.926s-30-13.398-30-29.926c0-0.1752 2e-3 -0.3504 5e-3 -0.5255 0.287-16.32 13.632-29.401 29.995-29.401s29.708 13.08 29.995 29.401" fill-rule="evenodd" stroke-width="0" vector-effect="non-scaling-stroke"/>
   </g>
   <g transform="translate(1010.9 1485)" fill="none" stroke="#000">
    <rect width="0" height="0" stroke-width="0"/>
   </g>
   <g transform="translate(1010.9 1485)" fill="#fff">
    <path d="m-29 445.03c0-0.175 0.0015-0.35 0.0046-0.525 0.2874-16.321 13.632-29.401 29.995-29.401s29.708 13.08 29.995 29.401c0.0031 0.175 0.0046 0.35 0.0046 0.525 0 16.528-13.432 29.927-30 29.927s-30-13.399-30-29.927" fill-rule="evenodd" stroke-width="0" vector-effect="non-scaling-stroke"/>
   </g>
   <g transform="translate(1010.9 1485)" fill="none" stroke="#000">
    <rect width="0" height="0" stroke-width="0"/>
   </g>
   <g transform="translate(1010.9 1485)" fill="#fff">
    <path d="m30.995 39.104c0.0031 0.1751 0.0046 0.3503 0.0046 0.5255 0 16.528-13.432 29.926-30 29.926s-30-13.398-30-29.926c0-0.1752 0.0015-0.3504 0.0046-0.5255 0.2874-16.32 13.632-29.401 29.995-29.401s29.708 13.08 29.995 29.401" fill-rule="evenodd" stroke-width="0" vector-effect="non-scaling-stroke"/>
   </g>
   <g transform="translate(1010.9 1485)" fill="none" stroke="#000">
    <rect width="0" height="0" stroke-width="0"/>
   </g>
   <g transform="translate(1010.9 1485)" fill="#fff">
    <path d="m158-163.6c3e-3 0.175 5e-3 0.35 5e-3 0.526 0 16.527-13.431 29.926-30 29.926s-30-13.399-30-29.926c0-0.176 0.0015-0.351 0.0046-0.526 0.2874-16.32 13.632-29.401 29.995-29.401s29.708 13.081 29.995 29.401" fill-rule="evenodd" stroke-width="0" vector-effect="non-scaling-stroke"/>
   </g>
   <g transform="translate(1010.9 1485)" fill="none" stroke="#000">
    <rect width="0" height="0" stroke-width="0"/>
   </g>
   <g transform="translate(1010.9 1485)" fill="#fff">
    <path d="m-96.005-62.247c0.0031 0.1751 0.0046 0.3503 0.0046 0.5255 0 16.528-13.431 29.926-30 29.926s-30-13.398-30-29.926c0-0.1752 2e-3 -0.3504 5e-3 -0.5255 0.287-16.32 13.632-29.401 29.995-29.401s29.708 13.08 29.995 29.401" fill-rule="evenodd" stroke-width="0" vector-effect="non-scaling-stroke"/>
   </g>
   <g transform="translate(1010.9 1485)" fill="none" stroke="#000">
    <rect width="0" height="0" stroke-width="0"/>
   </g>
   <g transform="translate(1010.9 1485)" fill="#fff">
    <path d="m-29 546.38c0-0.176 0.0015-0.351 0.0046-0.526 0.2874-16.32 13.632-29.401 29.995-29.401s29.708 13.081 29.995 29.401c0.0031 0.175 0.0046 0.35 0.0046 0.526 0 16.527-13.432 29.926-30 29.926s-30-13.399-30-29.926" fill-rule="evenodd" stroke-width="0" vector-effect="non-scaling-stroke"/>
   </g>
   <g transform="translate(1010.9 1485)" fill="none" stroke="#000">
    <rect width="0" height="0" stroke-width="0"/>
   </g>
   <g transform="translate(1010.9 1485)" fill="#fff">
    <path d="m158-62.247c3e-3 0.1751 5e-3 0.3503 5e-3 0.5255 0 16.528-13.431 29.926-30 29.926s-30-13.398-30-29.926c0-0.1752 0.0015-0.3504 0.0046-0.5255 0.2874-16.32 13.632-29.401 29.995-29.401s29.708 13.08 29.995 29.401" fill-rule="evenodd" stroke-width="0" vector-effect="non-scaling-stroke"/>
   </g>
   <g transform="translate(1010.9 1485)" fill="none" stroke="#000">
    <rect width="0" height="0" stroke-width="0"/>
   </g>
   <g transform="translate(1010.9 1485)" fill="#fff">
    <path d="m30.995 241.8c0.0031 0.175 0.0046 0.351 0.0046 0.526 0 16.528-13.432 29.926-30 29.926s-30-13.398-30-29.926c0-0.175 0.0015-0.351 0.0046-0.526 0.2874-16.32 13.632-29.401 29.995-29.401s29.708 13.081 29.995 29.401" fill-rule="evenodd" stroke-width="0" vector-effect="non-scaling-stroke"/>
   </g>
   <g transform="translate(1010.9 1485)" fill="none" stroke="#000">
    <rect width="0" height="0" stroke-width="0"/>
   </g>
   <g transform="translate(1010.9 1485)" fill="#fff">
    <path d="m30.995-163.6c0.0031 0.175 0.0046 0.35 0.0046 0.526 0 16.527-13.432 29.926-30 29.926s-30-13.399-30-29.926c0-0.176 0.0015-0.351 0.0046-0.526 0.2874-16.32 13.632-29.401 29.995-29.401s29.708 13.081 29.995 29.401" fill-rule="evenodd" stroke-width="0" vector-effect="non-scaling-stroke"/>
   </g>
   <g transform="translate(1010.9 1485)" fill="none" stroke="#000">
    <rect width="0" height="0" stroke-width="0"/>
   </g>
   <g transform="translate(1010.9 1485)" fill="#fff">
    <path d="m-223 140.45c3e-3 0.175 5e-3 0.35 5e-3 0.525 0 16.528-13.431 29.927-30 29.927s-30-13.399-30-29.927c0-0.175 2e-3 -0.35 5e-3 -0.525 0.287-16.32 13.632-29.401 29.995-29.401s29.708 13.081 29.995 29.401" fill-rule="evenodd" stroke-width="0" vector-effect="non-scaling-stroke"/>
   </g>
   <g transform="translate(1010.9 1485)" fill="none" stroke="#000">
    <rect width="0" height="0" stroke-width="0"/>
   </g>
   <g transform="translate(1010.9 1485)" fill="#fff">
    <path d="m98 343.68c0-0.175 0.0015-0.35 0.0046-0.525 0.2874-16.321 13.632-29.401 29.995-29.401s29.708 13.08 29.995 29.401c3e-3 0.175 5e-3 0.35 5e-3 0.525 0 16.528-13.431 29.926-30 29.926s-30-13.398-30-29.926" fill-rule="evenodd" stroke-width="0" vector-effect="non-scaling-stroke"/>
   </g>
   <g transform="translate(1010.9 1485)" fill="none" stroke="#000">
    <rect width="0" height="0" stroke-width="0"/>
   </g>
   <g transform="translate(1010.9 1485)" fill="#fff">
    <path d="m-156 343.68c0-0.175 2e-3 -0.35 5e-3 -0.525 0.287-16.321 13.632-29.401 29.995-29.401s29.708 13.08 29.995 29.401c0.0031 0.175 0.0046 0.35 0.0046 0.525 0 16.528-13.431 29.926-30 29.926s-30-13.398-30-29.926" fill-rule="evenodd" stroke-width="0" vector-effect="non-scaling-stroke"/>
   </g>
   <g transform="translate(1010.9 1485)" fill="none" stroke="#000">
    <rect width="0" height="0" stroke-width="0"/>
   </g>
   <g transform="translate(1010.9 1485)" fill="#fff">
    <path d="m-223 39.104c3e-3 0.1751 5e-3 0.3503 5e-3 0.5255 0 16.528-13.431 29.926-30 29.926s-30-13.398-30-29.926c0-0.1752 2e-3 -0.3504 5e-3 -0.5255 0.287-16.32 13.632-29.401 29.995-29.401s29.708 13.08 29.995 29.401" fill-rule="evenodd" stroke-width="0" vector-effect="non-scaling-stroke"/>
   </g>
   <g transform="translate(1010.9 1485)" fill="none" stroke="#000">
    <rect width="0" height="0" stroke-width="0"/>
   </g>
   <g transform="translate(1010.9 1485)" fill="#fff">
    <path d="m225 546.38c0-0.176 2e-3 -0.351 5e-3 -0.526 0.287-16.32 13.632-29.401 29.995-29.401s29.708 13.081 29.995 29.401c3e-3 0.175 5e-3 0.35 5e-3 0.526 0 16.527-13.431 29.926-30 29.926s-30-13.399-30-29.926" fill-rule="evenodd" stroke-width="0" vector-effect="non-scaling-stroke"/>
   </g>
   <g transform="translate(1010.9 1485)" fill="none" stroke="#000">
    <rect width="0" height="0" stroke-width="0"/>
   </g>
   <g transform="translate(1010.9 1485)" fill="#fff">
    <path d="m-283 343.68c0-0.175 2e-3 -0.35 5e-3 -0.525 0.287-16.321 13.632-29.401 29.995-29.401s29.708 13.08 29.995 29.401c3e-3 0.175 5e-3 0.35 5e-3 0.525 0 16.528-13.431 29.926-30 29.926s-30-13.398-30-29.926" fill-rule="evenodd" stroke-width="0" vector-effect="non-scaling-stroke"/>
   </g>
   <g transform="translate(1010.9 1485)" fill="none" stroke="#000">
    <rect width="0" height="0" stroke-width="0"/>
   </g>
   <g transform="translate(1010.9 1485)" fill="#fff">
    <path d="m-223 241.8c3e-3 0.175 5e-3 0.351 5e-3 0.526 0 16.528-13.431 29.926-30 29.926s-30-13.398-30-29.926c0-0.175 2e-3 -0.351 5e-3 -0.526 0.287-16.32 13.632-29.401 29.995-29.401s29.708 13.081 29.995 29.401" fill-rule="evenodd" stroke-width="0" vector-effect="non-scaling-stroke"/>
   </g>
   <g transform="translate(1010.9 1485)" fill="none" stroke="#000">
    <rect width="0" height="0" stroke-width="0"/>
   </g>
   <g transform="translate(1010.9 1485)" fill="#fff">
    <path d="m98 445.03c0-0.175 0.0015-0.35 0.0046-0.525 0.2874-16.321 13.632-29.401 29.995-29.401s29.708 13.08 29.995 29.401c3e-3 0.175 5e-3 0.35 5e-3 0.525 0 16.528-13.431 29.927-30 29.927s-30-13.399-30-29.927" fill-rule="evenodd" stroke-width="0" vector-effect="non-scaling-stroke"/>
   </g>
   <g transform="translate(1010.9 1485)" fill="none" stroke="#000">
    <rect width="0" height="0" stroke-width="0"/>
   </g>
   <g transform="translate(1010.9 1485)" fill="#fff">
    <path d="m-283 445.03c0-0.175 2e-3 -0.35 5e-3 -0.525 0.287-16.321 13.632-29.401 29.995-29.401s29.708 13.08 29.995 29.401c3e-3 0.175 5e-3 0.35 5e-3 0.525 0 16.528-13.431 29.927-30 29.927s-30-13.399-30-29.927" fill-rule="evenodd" stroke-width="0" vector-effect="non-scaling-stroke"/>
   </g>
   <g transform="translate(1010.9 1485)" fill="none" stroke="#000">
    <rect width="0" height="0" stroke-width="0"/>
   </g>
   <g transform="translate(1010.9 1485)" fill="#fff">
    <path d="m225 343.68c0-0.175 2e-3 -0.35 5e-3 -0.525 0.287-16.321 13.632-29.401 29.995-29.401s29.708 13.08 29.995 29.401c3e-3 0.175 5e-3 0.35 5e-3 0.525 0 16.528-13.431 29.926-30 29.926s-30-13.398-30-29.926" fill-rule="evenodd" stroke-width="0" vector-effect="non-scaling-stroke"/>
   </g>
   <g transform="translate(1010.9 1485)" fill="none" stroke="#000">
    <rect width="0" height="0" stroke-width="0"/>
   </g>
   <g transform="translate(1010.9 1485)" fill="#fff">
    <path d="m-283 546.38c0-0.176 2e-3 -0.351 5e-3 -0.526 0.287-16.32 13.632-29.401 29.995-29.401s29.708 13.081 29.995 29.401c3e-3 0.175 5e-3 0.35 5e-3 0.526 0 16.527-13.431 29.926-30 29.926s-30-13.399-30-29.926" fill-rule="evenodd" stroke-width="0" vector-effect="non-scaling-stroke"/>
   </g>
   <g transform="translate(1010.9 1485)" fill="none" stroke="#000">
    <rect width="0" height="0" stroke-width="0"/>
   </g>
   <g transform="translate(1010.9 1485)" fill="#fff">
    <path d="m158 545.86c-0.287 16.321-13.632 29.401-29.995 29.401s-29.708-13.08-29.995-29.401c0.2874-16.32 13.632-29.401 29.995-29.401s29.708 13.081 29.995 29.401" fill-rule="evenodd" stroke-width="0" vector-effect="non-scaling-stroke"/>
   </g>
   <g transform="translate(1010.9 1485)" fill="none" stroke="#000">
    <rect width="0" height="0" stroke-width="0"/>
   </g>
   <g transform="translate(1010.9 1485)" fill="#fff">
    <path d="m225 241.8c0.287-16.32 13.632-29.401 29.995-29.401s29.708 13.081 29.995 29.401c-0.287 16.321-13.632 29.401-29.995 29.401s-29.708-13.08-29.995-29.401" fill-rule="evenodd" stroke-width="0" vector-effect="non-scaling-stroke"/>
   </g>
   <g transform="translate(1010.9 1485)" fill="none" stroke="#000">
    <rect width="0" height="0" stroke-width="0"/>
   </g>
   <g transform="translate(1010.9 1485)" fill="#fff">
    <path d="m-96.005 343.16c-0.2874 16.32-13.632 29.4-29.995 29.4s-29.708-13.08-29.995-29.4c0.287-16.321 13.632-29.401 29.995-29.401s29.708 13.08 29.995 29.401" fill-rule="evenodd" stroke-width="0" vector-effect="non-scaling-stroke"/>
   </g>
   <g transform="translate(1010.9 1485)" fill="none" stroke="#000">
    <rect width="0" height="0" stroke-width="0"/>
   </g>
   <g transform="translate(1010.9 1485)" fill="#fff">
    <path d="m225 140.45c0.287-16.32 13.632-29.401 29.995-29.401s29.708 13.081 29.995 29.401c-0.287 16.32-13.632 29.401-29.995 29.401s-29.708-13.081-29.995-29.401" fill-rule="evenodd" stroke-width="0" vector-effect="non-scaling-stroke"/>
   </g>
   <g transform="translate(1010.9 1485)" fill="none" stroke="#000">
    <rect width="0" height="0" stroke-width="0"/>
   </g>
   <g transform="translate(1010.9 1485)" fill="#fff">
    <path d="m285 545.86c-0.287 16.321-13.632 29.401-29.995 29.401s-29.708-13.08-29.995-29.401c0.287-16.32 13.632-29.401 29.995-29.401s29.708 13.081 29.995 29.401" fill-rule="evenodd" stroke-width="0" vector-effect="non-scaling-stroke"/>
   </g>
   <g transform="translate(1010.9 1485)" fill="none" stroke="#000">
    <rect width="0" height="0" stroke-width="0"/>
   </g>
   <g transform="translate(1010.9 1485)" fill="#fff">
    <path d="m98.005 140.45c0.2874-16.32 13.632-29.401 29.995-29.401s29.708 13.081 29.995 29.401c-0.287 16.32-13.632 29.401-29.995 29.401s-29.708-13.081-29.995-29.401" fill-rule="evenodd" stroke-width="0" vector-effect="non-scaling-stroke"/>
   </g>
   <g transform="translate(1010.9 1485)" fill="none" stroke="#000">
    <rect width="0" height="0" stroke-width="0"/>
   </g>
   <g transform="translate(1010.9 1485)" fill="#fff">
    <path d="m225-62.247c0.287-16.32 13.632-29.401 29.995-29.401s29.708 13.08 29.995 29.401c-0.287 16.32-13.632 29.401-29.995 29.401s-29.708-13.08-29.995-29.401" fill-rule="evenodd" stroke-width="0" vector-effect="non-scaling-stroke"/>
   </g>
   <g transform="translate(1010.9 1485)" fill="none" stroke="#000">
    <rect width="0" height="0" stroke-width="0"/>
   </g>
   <g transform="translate(1010.9 1485)" fill="#fff">
    <path d="m225 39.104c0.287-16.32 13.632-29.401 29.995-29.401s29.708 13.08 29.995 29.401c-0.287 16.32-13.632 29.401-29.995 29.401s-29.708-13.08-29.995-29.401" fill-rule="evenodd" stroke-width="0" vector-effect="non-scaling-stroke"/>
   </g>
   <g transform="translate(1010.9 1485)" fill="none" stroke="#000">
    <rect width="0" height="0" stroke-width="0"/>
   </g>
   <g transform="translate(1010.9 1485)" fill="#fff">
    <path d="m-156-62.247c0.287-16.32 13.632-29.401 29.995-29.401s29.708 13.08 29.995 29.401c-0.2874 16.32-13.632 29.401-29.995 29.401s-29.708-13.08-29.995-29.401" fill-rule="evenodd" stroke-width="0" vector-effect="non-scaling-stroke"/>
   </g>
   <g transform="translate(1010.9 1485)" fill="none" stroke="#000">
    <rect width="0" height="0" stroke-width="0"/>
   </g>
   <g transform="translate(1010.9 1485)" fill="#fff">
    <path d="m98.005 39.104c0.2874-16.32 13.632-29.401 29.995-29.401s29.708 13.08 29.995 29.401c-0.287 16.32-13.632 29.401-29.995 29.401s-29.708-13.08-29.995-29.401" fill-rule="evenodd" stroke-width="0" vector-effect="non-scaling-stroke"/>
   </g>
   <g transform="translate(1010.9 1485)" fill="none" stroke="#000">
    <rect width="0" height="0" stroke-width="0"/>
   </g>
   <g transform="translate(1010.9 1485)" fill="#fff">
    <path d="m-28.995 241.8c0.2874-16.32 13.632-29.401 29.995-29.401s29.708 13.081 29.995 29.401c-0.2874 16.321-13.632 29.401-29.995 29.401s-29.708-13.08-29.995-29.401" fill-rule="evenodd" stroke-width="0" vector-effect="non-scaling-stroke"/>
   </g>
   <g transform="translate(1010.9 1485)" fill="none" stroke="#000">
    <rect width="0" height="0" stroke-width="0"/>
   </g>
   <g transform="translate(1010.9 1485)" fill="#fff">
    <path d="m-283 39.104c0.287-16.32 13.632-29.401 29.995-29.401s29.708 13.08 29.995 29.401c-0.287 16.32-13.632 29.401-29.995 29.401s-29.708-13.08-29.995-29.401" fill-rule="evenodd" stroke-width="0" vector-effect="non-scaling-stroke"/>
   </g>
   <g transform="translate(1010.9 1485)" fill="none" stroke="#000">
    <rect width="0" height="0" stroke-width="0"/>
   </g>
   <g transform="translate(1010.9 1485)" fill="#fff">
    <path d="m98.005-163.6c0.2874-16.32 13.632-29.401 29.995-29.401s29.708 13.081 29.995 29.401c-0.287 16.321-13.632 29.401-29.995 29.401s-29.708-13.08-29.995-29.401" fill-rule="evenodd" stroke-width="0" vector-effect="non-scaling-stroke"/>
   </g>
   <g transform="translate(1010.9 1485)" fill="none" stroke="#000">
    <rect width="0" height="0" stroke-width="0"/>
   </g>
   <g transform="translate(1010.9 1485)" fill="#fff">
    <path d="m-156 39.104c0.287-16.32 13.632-29.401 29.995-29.401s29.708 13.08 29.995 29.401c-0.2874 16.32-13.632 29.401-29.995 29.401s-29.708-13.08-29.995-29.401" fill-rule="evenodd" stroke-width="0" vector-effect="non-scaling-stroke"/>
   </g>
   <g transform="translate(1010.9 1485)" fill="none" stroke="#000">
    <rect width="0" height="0" stroke-width="0"/>
   </g>
   <g transform="translate(1010.9 1485)" fill="#fff">
    <path d="m-28.995 39.104c0.2874-16.32 13.632-29.401 29.995-29.401s29.708 13.08 29.995 29.401c-0.2874 16.32-13.632 29.401-29.995 29.401s-29.708-13.08-29.995-29.401" fill-rule="evenodd" stroke-width="0" vector-effect="non-scaling-stroke"/>
   </g>
   <g transform="translate(1010.9 1485)" fill="none" stroke="#000">
    <rect width="0" height="0" stroke-width="0"/>
   </g>
   <g transform="translate(1010.9 1485)" fill="#fff">
    <path d="m-28.995-163.6c0.2874-16.32 13.632-29.401 29.995-29.401s29.708 13.081 29.995 29.401c-0.2874 16.321-13.632 29.401-29.995 29.401s-29.708-13.08-29.995-29.401" fill-rule="evenodd" stroke-width="0" vector-effect="non-scaling-stroke"/>
   </g>
   <g transform="translate(1010.9 1485)" fill="none" stroke="#000">
    <rect width="0" height="0" stroke-width="0"/>
   </g>
   <g transform="translate(1010.9 1485)" fill="#fff">
    <path d="m-28.995-62.247c0.2874-16.32 13.632-29.401 29.995-29.401s29.708 13.08 29.995 29.401c-0.2874 16.32-13.632 29.401-29.995 29.401s-29.708-13.08-29.995-29.401" fill-rule="evenodd" stroke-width="0" vector-effect="non-scaling-stroke"/>
   </g>
   <g transform="translate(1010.9 1485)" fill="none" stroke="#000">
    <rect width="0" height="0" stroke-width="0"/>
   </g>
   <g transform="translate(1010.9 1485)" fill="#fff">
    <path d="m30.995 444.5c-0.2874 16.32-13.632 29.401-29.995 29.401s-29.708-13.081-29.995-29.401c0.2874-16.321 13.632-29.401 29.995-29.401s29.708 13.08 29.995 29.401" fill-rule="evenodd" stroke-width="0" vector-effect="non-scaling-stroke"/>
   </g>
   <g transform="translate(1010.9 1485)" fill="none" stroke="#000">
    <rect width="0" height="0" stroke-width="0"/>
   </g>
   <g transform="translate(1010.9 1485)" fill="#fff">
    <path d="m-28.995 140.45c0.2874-16.32 13.632-29.401 29.995-29.401s29.708 13.081 29.995 29.401c-0.2874 16.32-13.632 29.401-29.995 29.401s-29.708-13.081-29.995-29.401" fill-rule="evenodd" stroke-width="0" vector-effect="non-scaling-stroke"/>
   </g>
   <g transform="translate(1010.9 1485)" fill="none" stroke="#000">
    <rect width="0" height="0" stroke-width="0"/>
   </g>
   <g transform="translate(1010.9 1485)" fill="#fff">
    <path d="m-283-62.247c0.287-16.32 13.632-29.401 29.995-29.401s29.708 13.08 29.995 29.401c-0.287 16.32-13.632 29.401-29.995 29.401s-29.708-13.08-29.995-29.401" fill-rule="evenodd" stroke-width="0" vector-effect="non-scaling-stroke"/>
   </g>
   <g transform="translate(1010.9 1485)" fill="none" stroke="#000">
    <rect width="0" height="0" stroke-width="0"/>
   </g>
   <g transform="translate(1010.9 1485)" fill="#fff">
    <path d="m225-163.6c0.287-16.32 13.632-29.401 29.995-29.401s29.708 13.081 29.995 29.401c-0.287 16.321-13.632 29.401-29.995 29.401s-29.708-13.08-29.995-29.401" fill-rule="evenodd" stroke-width="0" vector-effect="non-scaling-stroke"/>
   </g>
   <g transform="translate(1010.9 1485)" fill="none" stroke="#000">
    <rect width="0" height="0" stroke-width="0"/>
   </g>
   <g transform="translate(1010.9 1485)" fill="#fff">
    <path d="m158 343.16c-0.287 16.32-13.632 29.4-29.995 29.4s-29.708-13.08-29.995-29.4c0.2874-16.321 13.632-29.401 29.995-29.401s29.708 13.08 29.995 29.401" fill-rule="evenodd" stroke-width="0" vector-effect="non-scaling-stroke"/>
   </g>
   <g transform="translate(1010.9 1485)" fill="none" stroke="#000">
    <rect width="0" height="0" stroke-width="0"/>
   </g>
   <g transform="translate(1010.9 1485)" fill="#fff">
    <path d="m-156-163.6c0.287-16.32 13.632-29.401 29.995-29.401s29.708 13.081 29.995 29.401c-0.2874 16.321-13.632 29.401-29.995 29.401s-29.708-13.08-29.995-29.401" fill-rule="evenodd" stroke-width="0" vector-effect="non-scaling-stroke"/>
   </g>
   <g transform="translate(1010.9 1485)" fill="none" stroke="#000">
    <rect width="0" height="0" stroke-width="0"/>
   </g>
   <g transform="translate(1010.9 1485)" fill="#fff">
    <path d="m30.995 343.16c-0.2874 16.32-13.632 29.4-29.995 29.4s-29.708-13.08-29.995-29.4c0.2874-16.321 13.632-29.401 29.995-29.401s29.708 13.08 29.995 29.401" fill-rule="evenodd" stroke-width="0" vector-effect="non-scaling-stroke"/>
   </g>
   <g transform="translate(1010.9 1485)" fill="none" stroke="#000">
    <rect width="0" height="0" stroke-width="0"/>
   </g>
   <g transform="translate(1010.9 1485)" fill="#fff">
    <path d="m-156 241.8c0.287-16.32 13.632-29.401 29.995-29.401s29.708 13.081 29.995 29.401c-0.2874 16.321-13.632 29.401-29.995 29.401s-29.708-13.08-29.995-29.401" fill-rule="evenodd" stroke-width="0" vector-effect="non-scaling-stroke"/>
   </g>
   <g transform="translate(1010.9 1485)" fill="none" stroke="#000">
    <rect width="0" height="0" stroke-width="0"/>
   </g>
   <g transform="translate(1010.9 1485)" fill="#fff">
    <path d="m-283 140.45c0.287-16.32 13.632-29.401 29.995-29.401s29.708 13.081 29.995 29.401c-0.287 16.32-13.632 29.401-29.995 29.401s-29.708-13.081-29.995-29.401" fill-rule="evenodd" stroke-width="0" vector-effect="non-scaling-stroke"/>
   </g>
   <g transform="translate(1010.9 1485)" fill="none" stroke="#000">
    <rect width="0" height="0" stroke-width="0"/>
   </g>
   <g transform="translate(1010.9 1485)" fill="#fff">
    <path d="m98.005-62.247c0.2874-16.32 13.632-29.401 29.995-29.401s29.708 13.08 29.995 29.401c-0.287 16.32-13.632 29.401-29.995 29.401s-29.708-13.08-29.995-29.401" fill-rule="evenodd" stroke-width="0" vector-effect="non-scaling-stroke"/>
   </g>
   <g transform="translate(1010.9 1485)" fill="none" stroke="#000">
    <rect width="0" height="0" stroke-width="0"/>
   </g>
   <g transform="translate(1010.9 1485)" fill="#fff">
    <path d="m-96.005 545.86c-0.2874 16.321-13.632 29.401-29.995 29.401s-29.708-13.08-29.995-29.401c0.287-16.32 13.632-29.401 29.995-29.401s29.708 13.081 29.995 29.401" fill-rule="evenodd" stroke-width="0" vector-effect="non-scaling-stroke"/>
   </g>
   <g transform="translate(1010.9 1485)" fill="none" stroke="#000">
    <rect width="0" height="0" stroke-width="0"/>
   </g>
   <g transform="translate(1010.9 1485)" fill="#fff">
    <path d="m98.005 241.8c0.2874-16.32 13.632-29.401 29.995-29.401s29.708 13.081 29.995 29.401c-0.287 16.321-13.632 29.401-29.995 29.401s-29.708-13.08-29.995-29.401" fill-rule="evenodd" stroke-width="0" vector-effect="non-scaling-stroke"/>
   </g>
   <g transform="translate(1010.9 1485)" fill="none" stroke="#000">
    <rect width="0" height="0" stroke-width="0"/>
   </g>
   <g transform="translate(1010.9 1485)" fill="#fff">
    <path d="m-96.005 444.5c-0.2874 16.32-13.632 29.401-29.995 29.401s-29.708-13.081-29.995-29.401c0.287-16.321 13.632-29.401 29.995-29.401s29.708 13.08 29.995 29.401" fill-rule="evenodd" stroke-width="0" vector-effect="non-scaling-stroke"/>
   </g>
   <g transform="translate(1010.9 1485)" fill="none" stroke="#000">
    <rect width="0" height="0" stroke-width="0"/>
   </g>
   <g transform="translate(1010.9 1485)" fill="#fff">
    <path d="m-156 140.45c0.287-16.32 13.632-29.401 29.995-29.401s29.708 13.081 29.995 29.401c-0.2874 16.32-13.632 29.401-29.995 29.401s-29.708-13.081-29.995-29.401" fill-rule="evenodd" stroke-width="0" vector-effect="non-scaling-stroke"/>
   </g>
   <g transform="translate(1010.9 1485)" fill="none" stroke="#000">
    <rect width="0" height="0" stroke-width="0"/>
   </g>
   <g transform="translate(1010.9 1485)" fill="#fff">
    <path d="m285 444.5c-0.287 16.32-13.632 29.401-29.995 29.401s-29.708-13.081-29.995-29.401c0.287-16.321 13.632-29.401 29.995-29.401s29.708 13.08 29.995 29.401" fill-rule="evenodd" stroke-width="0" vector-effect="non-scaling-stroke"/>
   </g>
   <g transform="translate(1010.9 1485)" fill="none" stroke="#000">
    <rect width="0" height="0" stroke-width="0"/>
   </g>
   <g transform="translate(1010.9 1485)" fill="#fff">
    <path d="m30.995 545.86c-0.2874 16.321-13.632 29.401-29.995 29.401s-29.708-13.08-29.995-29.401c0.2874-16.32 13.632-29.401 29.995-29.401s29.708 13.081 29.995 29.401" fill-rule="evenodd" stroke-width="0" vector-effect="non-scaling-stroke"/>
   </g>
   <g transform="translate(1010.9 1485)" fill="none" stroke="#000">
    <rect width="0" height="0" stroke-width="0"/>
   </g>
   <g transform="translate(1010.9 1485)" fill="#fff">
    <path d="m285 343.16c-0.287 16.32-13.632 29.4-29.995 29.4s-29.708-13.08-29.995-29.4c0.287-16.321 13.632-29.401 29.995-29.401s29.708 13.08 29.995 29.401" fill-rule="evenodd" stroke-width="0" vector-effect="non-scaling-stroke"/>
   </g>
   <g transform="translate(1010.9 1485)" fill="none" stroke="#000">
    <rect width="0" height="0" stroke-width="0"/>
   </g>
   <g transform="translate(1010.9 1485)" fill="#fff">
    <path d="m-283-163.6c0.287-16.32 13.632-29.401 29.995-29.401s29.708 13.081 29.995 29.401c-0.287 16.321-13.632 29.401-29.995 29.401s-29.708-13.08-29.995-29.401" fill-rule="evenodd" stroke-width="0" vector-effect="non-scaling-stroke"/>
   </g>
   <g transform="translate(1010.9 1485)" fill="none" stroke="#000">
    <rect width="0" height="0" stroke-width="0"/>
   </g>
   <g transform="translate(1010.9 1485)" fill="#fff">
    <path d="m158 444.5c-0.287 16.32-13.632 29.401-29.995 29.401s-29.708-13.081-29.995-29.401c0.2874-16.321 13.632-29.401 29.995-29.401s29.708 13.08 29.995 29.401" fill-rule="evenodd" stroke-width="0" vector-effect="non-scaling-stroke"/>
   </g>
   <g transform="translate(1010.9 1485)" fill="none" stroke="#000">
    <rect width="0" height="0" stroke-width="0"/>
   </g>
   <g transform="translate(1010.9 1485)" fill="#fff">
    <path d="m-283 241.8c0.287-16.32 13.632-29.401 29.995-29.401s29.708 13.081 29.995 29.401c-0.287 16.321-13.632 29.401-29.995 29.401s-29.708-13.08-29.995-29.401" fill-rule="evenodd" stroke-width="0" vector-effect="non-scaling-stroke"/>
   </g>
   <g transform="translate(1010.9 1485)" fill="none" stroke="#000">
    <rect width="0" height="0" stroke-width="0"/>
   </g>
   <g transform="translate(1010.9 1485)" fill="#fff">
    <path d="m-223 343.16c-0.287 16.32-13.632 29.4-29.995 29.4s-29.708-13.08-29.995-29.4c0.287-16.321 13.632-29.401 29.995-29.401s29.708 13.08 29.995 29.401" fill-rule="evenodd" stroke-width="0" vector-effect="non-scaling-stroke"/>
   </g>
   <g transform="translate(1010.9 1485)" fill="none" stroke="#000">
    <rect width="0" height="0" stroke-width="0"/>
   </g>
   <g transform="translate(1010.9 1485)" fill="#fff">
    <path d="m-223 444.5c-0.287 16.32-13.632 29.401-29.995 29.401s-29.708-13.081-29.995-29.401c0.287-16.321 13.632-29.401 29.995-29.401s29.708 13.08 29.995 29.401" fill-rule="evenodd" stroke-width="0" vector-effect="non-scaling-stroke"/>
   </g>
   <g transform="translate(1010.9 1485)" fill="none" stroke="#000">
    <rect width="0" height="0" stroke-width="0"/>
   </g>
   <g transform="translate(1010.9 1485)" fill="#fff">
    <path d="m-223 545.86c-0.287 16.321-13.632 29.401-29.995 29.401s-29.708-13.08-29.995-29.401c0.287-16.32 13.632-29.401 29.995-29.401s29.708 13.081 29.995 29.401" fill-rule="evenodd" stroke-width="0" vector-effect="non-scaling-stroke"/>
   </g>
   <g transform="translate(1010.9 1485)" fill="none" stroke="#000">
    <rect width="0" height="0" stroke-width="0"/>
   </g>
   <g transform="translate(1010.9 1485)" fill="#fff">
    <path d="m319-649.37v-1.051h-638v1.051h638" fill-rule="evenodd" stroke-width="0" vector-effect="non-scaling-stroke"/>
   </g>
   <g transform="translate(1010.9 1485)" fill="none" stroke="#000">
    <rect width="0" height="0" stroke-width="0"/>
   </g>
   <g transform="translate(1010.9 1485)" fill="#fff">
    <path d="m-275-310.21h550v-1.051h-550v1.051" fill-rule="evenodd" stroke-width="0" vector-effect="non-scaling-stroke"/>
   </g>
   <g transform="translate(1010.9 1485)" fill="none" stroke="#000">
    <rect width="0" height="0" stroke-width="0"/>
   </g>
   <g transform="translate(1010.9 1485)" fill="#fff">
    <path d="m285 444.5c3e-3 0.175 5e-3 0.35 5e-3 0.525 0 16.528-13.431 29.927-30 29.927s-30-13.399-30-29.927c0-0.175 2e-3 -0.35 5e-3 -0.525 0.287 16.32 13.632 29.401 29.995 29.401s29.708-13.081 29.995-29.401" fill-rule="evenodd" stroke-width="0" vector-effect="non-scaling-stroke"/>
   </g>
   <g transform="translate(1010.9 1485)" fill="none" stroke="#000">
    <rect width="0" height="0" stroke-width="0"/>
   </g>
   <g transform="translate(1010.9 1485)" fill="#fff">
    <path d="m285-163.6c3e-3 0.175 5e-3 0.35 5e-3 0.526 0 16.527-13.431 29.926-30 29.926s-30-13.399-30-29.926c0-0.176 2e-3 -0.351 5e-3 -0.526 0.287 16.321 13.632 29.401 29.995 29.401s29.708-13.08 29.995-29.401" fill-rule="evenodd" stroke-width="0" vector-effect="non-scaling-stroke"/>
   </g>
   <g transform="translate(1010.9 1485)" fill="none" stroke="#000">
    <rect width="0" height="0" stroke-width="0"/>
   </g>
   <g transform="translate(1010.9 1485)" fill="#fff">
    <path d="m-223-163.6c3e-3 0.175 5e-3 0.35 5e-3 0.526 0 16.527-13.431 29.926-30 29.926s-30-13.399-30-29.926c0-0.176 2e-3 -0.351 5e-3 -0.526 0.287 16.321 13.632 29.401 29.995 29.401s29.708-13.08 29.995-29.401" fill-rule="evenodd" stroke-width="0" vector-effect="non-scaling-stroke"/>
   </g>
   <g transform="translate(1010.9 1485)" fill="none" stroke="#000">
    <rect width="0" height="0" stroke-width="0"/>
   </g>
   <g transform="translate(1010.9 1485)" fill="#fff">
    <path d="m-96.005 444.5c0.0031 0.175 0.0046 0.35 0.0046 0.525 0 16.528-13.431 29.927-30 29.927s-30-13.399-30-29.927c0-0.175 2e-3 -0.35 5e-3 -0.525 0.287 16.32 13.632 29.401 29.995 29.401s29.708-13.081 29.995-29.401" fill-rule="evenodd" stroke-width="0" vector-effect="non-scaling-stroke"/>
   </g>
   <g transform="translate(1010.9 1485)" fill="none" stroke="#000">
    <rect width="0" height="0" stroke-width="0"/>
   </g>
   <g transform="translate(1010.9 1485)" fill="#fff">
    <path d="m-96.005 545.86c0.0031 0.175 0.0046 0.35 0.0046 0.526 0 16.527-13.431 29.926-30 29.926s-30-13.399-30-29.926c0-0.176 2e-3 -0.351 5e-3 -0.526 0.287 16.321 13.632 29.401 29.995 29.401s29.708-13.08 29.995-29.401" fill-rule="evenodd" stroke-width="0" vector-effect="non-scaling-stroke"/>
   </g>
   <g transform="translate(1010.9 1485)" fill="none" stroke="#000">
    <rect width="0" height="0" stroke-width="0"/>
   </g>
   <g transform="translate(1010.9 1485)" fill="#fff">
    <path d="m-223 343.16c3e-3 0.175 5e-3 0.35 5e-3 0.525 0 16.528-13.431 29.926-30 29.926s-30-13.398-30-29.926c0-0.175 2e-3 -0.35 5e-3 -0.525 0.287 16.32 13.632 29.4 29.995 29.4s29.708-13.08 29.995-29.4" fill-rule="evenodd" stroke-width="0" vector-effect="non-scaling-stroke"/>
   </g>
   <g transform="translate(1010.9 1485)" fill="none" stroke="#000">
    <rect width="0" height="0" stroke-width="0"/>
   </g>
   <g transform="translate(1010.9 1485)" fill="#fff">
    <path d="m-223 241.8c3e-3 0.175 5e-3 0.351 5e-3 0.526 0 16.528-13.431 29.926-30 29.926s-30-13.398-30-29.926c0-0.175 2e-3 -0.351 5e-3 -0.526 0.287 16.321 13.632 29.401 29.995 29.401s29.708-13.08 29.995-29.401" fill-rule="evenodd" stroke-width="0" vector-effect="non-scaling-stroke"/>
   </g>
   <g transform="translate(1010.9 1485)" fill="none" stroke="#000">
    <rect width="0" height="0" stroke-width="0"/>
   </g>
   <g transform="translate(1010.9 1485)" fill="#fff">
    <path d="m158 241.8c3e-3 0.175 5e-3 0.351 5e-3 0.526 0 16.528-13.431 29.926-30 29.926s-30-13.398-30-29.926c0-0.175 0.0015-0.351 0.0046-0.526 0.2874 16.321 13.632 29.401 29.995 29.401s29.708-13.08 29.995-29.401" fill-rule="evenodd" stroke-width="0" vector-effect="non-scaling-stroke"/>
   </g>
   <g transform="translate(1010.9 1485)" fill="none" stroke="#000">
    <rect width="0" height="0" stroke-width="0"/>
   </g>
   <g transform="translate(1010.9 1485)" fill="#fff">
    <path d="m-96.005 140.45c0.0031 0.175 0.0046 0.35 0.0046 0.525 0 16.528-13.431 29.927-30 29.927s-30-13.399-30-29.927c0-0.175 2e-3 -0.35 5e-3 -0.525 0.287 16.32 13.632 29.401 29.995 29.401s29.708-13.081 29.995-29.401" fill-rule="evenodd" stroke-width="0" vector-effect="non-scaling-stroke"/>
   </g>
   <g transform="translate(1010.9 1485)" fill="none" stroke="#000">
    <rect width="0" height="0" stroke-width="0"/>
   </g>
   <g transform="translate(1010.9 1485)" fill="#fff">
    <path d="m-96.005-163.6c0.0031 0.175 0.0046 0.35 0.0046 0.526 0 16.527-13.431 29.926-30 29.926s-30-13.399-30-29.926c0-0.176 2e-3 -0.351 5e-3 -0.526 0.287 16.321 13.632 29.401 29.995 29.401s29.708-13.08 29.995-29.401" fill-rule="evenodd" stroke-width="0" vector-effect="non-scaling-stroke"/>
   </g>
   <g transform="translate(1010.9 1485)" fill="none" stroke="#000">
    <rect width="0" height="0" stroke-width="0"/>
   </g>
   <g transform="translate(1010.9 1485)" fill="#fff">
    <path d="m285 140.45c3e-3 0.175 5e-3 0.35 5e-3 0.525 0 16.528-13.431 29.927-30 29.927s-30-13.399-30-29.927c0-0.175 2e-3 -0.35 5e-3 -0.525 0.287 16.32 13.632 29.401 29.995 29.401s29.708-13.081 29.995-29.401" fill-rule="evenodd" stroke-width="0" vector-effect="non-scaling-stroke"/>
   </g>
   <g transform="translate(1010.9 1485)" fill="none" stroke="#000">
    <rect width="0" height="0" stroke-width="0"/>
   </g>
   <g transform="translate(1010.9 1485)" fill="#fff">
    <path d="m30.995 343.16c0.0031 0.175 0.0046 0.35 0.0046 0.525 0 16.528-13.432 29.926-30 29.926s-30-13.398-30-29.926c0-0.175 0.0015-0.35 0.0046-0.525 0.2874 16.32 13.632 29.4 29.995 29.4s29.708-13.08 29.995-29.4" fill-rule="evenodd" stroke-width="0" vector-effect="non-scaling-stroke"/>
   </g>
   <g transform="translate(1010.9 1485)" fill="none" stroke="#000">
    <rect width="0" height="0" stroke-width="0"/>
   </g>
   <g transform="translate(1010.9 1485)" fill="#fff">
    <path d="m-96.005 241.8c0.0031 0.175 0.0046 0.351 0.0046 0.526 0 16.528-13.431 29.926-30 29.926s-30-13.398-30-29.926c0-0.175 2e-3 -0.351 5e-3 -0.526 0.287 16.321 13.632 29.401 29.995 29.401s29.708-13.08 29.995-29.401" fill-rule="evenodd" stroke-width="0" vector-effect="non-scaling-stroke"/>
   </g>
   <g transform="translate(1010.9 1485)" fill="none" stroke="#000">
    <rect width="0" height="0" stroke-width="0"/>
   </g>
   <g transform="translate(1010.9 1485)" fill="#fff">
    <path d="m158-62.247c3e-3 0.1751 5e-3 0.3503 5e-3 0.5255 0 16.528-13.431 29.926-30 29.926s-30-13.398-30-29.926c0-0.1752 0.0015-0.3504 0.0046-0.5255 0.2874 16.32 13.632 29.401 29.995 29.401s29.708-13.08 29.995-29.401" fill-rule="evenodd" stroke-width="0" vector-effect="non-scaling-stroke"/>
   </g>
   <g transform="translate(1010.9 1485)" fill="none" stroke="#000">
    <rect width="0" height="0" stroke-width="0"/>
   </g>
   <g transform="translate(1010.9 1485)" fill="#fff">
    <path d="m30.995 545.86c0.0031 0.175 0.0046 0.35 0.0046 0.526 0 16.527-13.432 29.926-30 29.926s-30-13.399-30-29.926c0-0.176 0.0015-0.351 0.0046-0.526 0.2874 16.321 13.632 29.401 29.995 29.401s29.708-13.08 29.995-29.401" fill-rule="evenodd" stroke-width="0" vector-effect="non-scaling-stroke"/>
   </g>
   <g transform="translate(1010.9 1485)" fill="none" stroke="#000">
    <rect width="0" height="0" stroke-width="0"/>
   </g>
   <g transform="translate(1010.9 1485)" fill="#fff">
    <path d="m-223-62.247c3e-3 0.1751 5e-3 0.3503 5e-3 0.5255 0 16.528-13.431 29.926-30 29.926s-30-13.398-30-29.926c0-0.1752 2e-3 -0.3504 5e-3 -0.5255 0.287 16.32 13.632 29.401 29.995 29.401s29.708-13.08 29.995-29.401" fill-rule="evenodd" stroke-width="0" vector-effect="non-scaling-stroke"/>
   </g>
   <g transform="translate(1010.9 1485)" fill="none" stroke="#000">
    <rect width="0" height="0" stroke-width="0"/>
   </g>
   <g transform="translate(1010.9 1485)" fill="#fff">
    <path d="m30.995 140.45c0.0031 0.175 0.0046 0.35 0.0046 0.525 0 16.528-13.432 29.927-30 29.927s-30-13.399-30-29.927c0-0.175 0.0015-0.35 0.0046-0.525 0.2874 16.32 13.632 29.401 29.995 29.401s29.708-13.081 29.995-29.401" fill-rule="evenodd" stroke-width="0" vector-effect="non-scaling-stroke"/>
   </g>
   <g transform="translate(1010.9 1485)" fill="none" stroke="#000">
    <rect width="0" height="0" stroke-width="0"/>
   </g>
   <g transform="translate(1010.9 1485)" fill="#fff">
    <path d="m158 444.5c3e-3 0.175 5e-3 0.35 5e-3 0.525 0 16.528-13.431 29.927-30 29.927s-30-13.399-30-29.927c0-0.175 0.0015-0.35 0.0046-0.525 0.2874 16.32 13.632 29.401 29.995 29.401s29.708-13.081 29.995-29.401" fill-rule="evenodd" stroke-width="0" vector-effect="non-scaling-stroke"/>
   </g>
   <g transform="translate(1010.9 1485)" fill="none" stroke="#000">
    <rect width="0" height="0" stroke-width="0"/>
   </g>
   <g transform="translate(1010.9 1485)" fill="#fff">
    <path d="m158 140.45c3e-3 0.175 5e-3 0.35 5e-3 0.525 0 16.528-13.431 29.927-30 29.927s-30-13.399-30-29.927c0-0.175 0.0015-0.35 0.0046-0.525 0.2874 16.32 13.632 29.401 29.995 29.401s29.708-13.081 29.995-29.401" fill-rule="evenodd" stroke-width="0" vector-effect="non-scaling-stroke"/>
   </g>
   <g transform="translate(1010.9 1485)" fill="none" stroke="#000">
    <rect width="0" height="0" stroke-width="0"/>
   </g>
   <g transform="translate(1010.9 1485)" fill="#fff">
    <path d="m30.995-62.247c0.0031 0.1751 0.0046 0.3503 0.0046 0.5255 0 16.528-13.432 29.926-30 29.926s-30-13.398-30-29.926c0-0.1752 0.0015-0.3504 0.0046-0.5255 0.2874 16.32 13.632 29.401 29.995 29.401s29.708-13.08 29.995-29.401" fill-rule="evenodd" stroke-width="0" vector-effect="non-scaling-stroke"/>
   </g>
   <g transform="translate(1010.9 1485)" fill="none" stroke="#000">
    <rect width="0" height="0" stroke-width="0"/>
   </g>
   <g transform="translate(1010.9 1485)" fill="#fff">
    <path d="m158 39.104c3e-3 0.1751 5e-3 0.3503 5e-3 0.5255 0 16.528-13.431 29.926-30 29.926s-30-13.398-30-29.926c0-0.1752 0.0015-0.3504 0.0046-0.5255 0.2874 16.32 13.632 29.401 29.995 29.401s29.708-13.08 29.995-29.401" fill-rule="evenodd" stroke-width="0" vector-effect="non-scaling-stroke"/>
   </g>
   <g transform="translate(1010.9 1485)" fill="none" stroke="#000">
    <rect width="0" height="0" stroke-width="0"/>
   </g>
   <g transform="translate(1010.9 1485)" fill="#fff">
    <path d="m285 39.104c3e-3 0.1751 5e-3 0.3503 5e-3 0.5255 0 16.528-13.431 29.926-30 29.926s-30-13.398-30-29.926c0-0.1752 2e-3 -0.3504 5e-3 -0.5255 0.287 16.32 13.632 29.401 29.995 29.401s29.708-13.08 29.995-29.401" fill-rule="evenodd" stroke-width="0" vector-effect="non-scaling-stroke"/>
   </g>
   <g transform="translate(1010.9 1485)" fill="none" stroke="#000">
    <rect width="0" height="0" stroke-width="0"/>
   </g>
   <g transform="translate(1010.9 1485)" fill="#fff">
    <path d="m-223 140.45c3e-3 0.175 5e-3 0.35 5e-3 0.525 0 16.528-13.431 29.927-30 29.927s-30-13.399-30-29.927c0-0.175 2e-3 -0.35 5e-3 -0.525 0.287 16.32 13.632 29.401 29.995 29.401s29.708-13.081 29.995-29.401" fill-rule="evenodd" stroke-width="0" vector-effect="non-scaling-stroke"/>
   </g>
   <g transform="translate(1010.9 1485)" fill="none" stroke="#000">
    <rect width="0" height="0" stroke-width="0"/>
   </g>
   <g transform="translate(1010.9 1485)" fill="#fff">
    <path d="m30.995 39.104c0.0031 0.1751 0.0046 0.3503 0.0046 0.5255 0 16.528-13.432 29.926-30 29.926s-30-13.398-30-29.926c0-0.1752 0.0015-0.3504 0.0046-0.5255 0.2874 16.32 13.632 29.401 29.995 29.401s29.708-13.08 29.995-29.401" fill-rule="evenodd" stroke-width="0" vector-effect="non-scaling-stroke"/>
   </g>
   <g transform="translate(1010.9 1485)" fill="none" stroke="#000">
    <rect width="0" height="0" stroke-width="0"/>
   </g>
   <g transform="translate(1010.9 1485)" fill="#fff">
    <path d="m285-62.247c3e-3 0.1751 5e-3 0.3503 5e-3 0.5255 0 16.528-13.431 29.926-30 29.926s-30-13.398-30-29.926c0-0.1752 2e-3 -0.3504 5e-3 -0.5255 0.287 16.32 13.632 29.401 29.995 29.401s29.708-13.08 29.995-29.401" fill-rule="evenodd" stroke-width="0" vector-effect="non-scaling-stroke"/>
   </g>
   <g transform="translate(1010.9 1485)" fill="none" stroke="#000">
    <rect width="0" height="0" stroke-width="0"/>
   </g>
   <g transform="translate(1010.9 1485)" fill="#fff">
    <path d="m-96.005 39.104c0.0031 0.1751 0.0046 0.3503 0.0046 0.5255 0 16.528-13.431 29.926-30 29.926s-30-13.398-30-29.926c0-0.1752 2e-3 -0.3504 5e-3 -0.5255 0.287 16.32 13.632 29.401 29.995 29.401s29.708-13.08 29.995-29.401" fill-rule="evenodd" stroke-width="0" vector-effect="non-scaling-stroke"/>
   </g>
   <g transform="translate(1010.9 1485)" fill="none" stroke="#000">
    <rect width="0" height="0" stroke-width="0"/>
   </g>
   <g transform="translate(1010.9 1485)" fill="#fff">
    <path d="m158-163.6c3e-3 0.175 5e-3 0.35 5e-3 0.526 0 16.527-13.431 29.926-30 29.926s-30-13.399-30-29.926c0-0.176 0.0015-0.351 0.0046-0.526 0.2874 16.321 13.632 29.401 29.995 29.401s29.708-13.08 29.995-29.401" fill-rule="evenodd" stroke-width="0" vector-effect="non-scaling-stroke"/>
   </g>
   <g transform="translate(1010.9 1485)" fill="none" stroke="#000">
    <rect width="0" height="0" stroke-width="0"/>
   </g>
   <g transform="translate(1010.9 1485)" fill="#fff">
    <path d="m158 343.16c3e-3 0.175 5e-3 0.35 5e-3 0.525 0 16.528-13.431 29.926-30 29.926s-30-13.398-30-29.926c0-0.175 0.0015-0.35 0.0046-0.525 0.2874 16.32 13.632 29.4 29.995 29.4s29.708-13.08 29.995-29.4" fill-rule="evenodd" stroke-width="0" vector-effect="non-scaling-stroke"/>
   </g>
   <g transform="translate(1010.9 1485)" fill="none" stroke="#000">
    <rect width="0" height="0" stroke-width="0"/>
   </g>
   <g transform="translate(1010.9 1485)" fill="#fff">
    <path d="m-96.005-62.247c0.0031 0.1751 0.0046 0.3503 0.0046 0.5255 0 16.528-13.431 29.926-30 29.926s-30-13.398-30-29.926c0-0.1752 2e-3 -0.3504 5e-3 -0.5255 0.287 16.32 13.632 29.401 29.995 29.401s29.708-13.08 29.995-29.401" fill-rule="evenodd" stroke-width="0" vector-effect="non-scaling-stroke"/>
   </g>
   <g transform="translate(1010.9 1485)" fill="none" stroke="#000">
    <rect width="0" height="0" stroke-width="0"/>
   </g>
   <g transform="translate(1010.9 1485)" fill="#fff">
    <path d="m30.995-163.6c0.0031 0.175 0.0046 0.35 0.0046 0.526 0 16.527-13.432 29.926-30 29.926s-30-13.399-30-29.926c0-0.176 0.0015-0.351 0.0046-0.526 0.2874 16.321 13.632 29.401 29.995 29.401s29.708-13.08 29.995-29.401" fill-rule="evenodd" stroke-width="0" vector-effect="non-scaling-stroke"/>
   </g>
   <g transform="translate(1010.9 1485)" fill="none" stroke="#000">
    <rect width="0" height="0" stroke-width="0"/>
   </g>
   <g transform="translate(1010.9 1485)" fill="#fff">
    <path d="m-223 444.5c3e-3 0.175 5e-3 0.35 5e-3 0.525 0 16.528-13.431 29.927-30 29.927s-30-13.399-30-29.927c0-0.175 2e-3 -0.35 5e-3 -0.525 0.287 16.32 13.632 29.401 29.995 29.401s29.708-13.081 29.995-29.401" fill-rule="evenodd" stroke-width="0" vector-effect="non-scaling-stroke"/>
   </g>
   <g transform="translate(1010.9 1485)" fill="none" stroke="#000">
    <rect width="0" height="0" stroke-width="0"/>
   </g>
   <g transform="translate(1010.9 1485)" fill="#fff">
    <path d="m30.995 444.5c0.0031 0.175 0.0046 0.35 0.0046 0.525 0 16.528-13.432 29.927-30 29.927s-30-13.399-30-29.927c0-0.175 0.0015-0.35 0.0046-0.525 0.2874 16.32 13.632 29.401 29.995 29.401s29.708-13.081 29.995-29.401" fill-rule="evenodd" stroke-width="0" vector-effect="non-scaling-stroke"/>
   </g>
   <g transform="translate(1010.9 1485)" fill="none" stroke="#000">
    <rect width="0" height="0" stroke-width="0"/>
   </g>
   <g transform="translate(1010.9 1485)" fill="#fff">
    <path d="m30.995 241.8c0.0031 0.175 0.0046 0.351 0.0046 0.526 0 16.528-13.432 29.926-30 29.926s-30-13.398-30-29.926c0-0.175 0.0015-0.351 0.0046-0.526 0.2874 16.321 13.632 29.401 29.995 29.401s29.708-13.08 29.995-29.401" fill-rule="evenodd" stroke-width="0" vector-effect="non-scaling-stroke"/>
   </g>
   <g transform="translate(1010.9 1485)" fill="none" stroke="#000">
    <rect width="0" height="0" stroke-width="0"/>
   </g>
   <g transform="translate(1010.9 1485)" fill="#fff">
    <path d="m158 545.86c3e-3 0.175 5e-3 0.35 5e-3 0.526 0 16.527-13.431 29.926-30 29.926s-30-13.399-30-29.926c0-0.176 0.0015-0.351 0.0046-0.526 0.2874 16.321 13.632 29.401 29.995 29.401s29.708-13.08 29.995-29.401" fill-rule="evenodd" stroke-width="0" vector-effect="non-scaling-stroke"/>
   </g>
   <g transform="translate(1010.9 1485)" fill="none" stroke="#000">
    <rect width="0" height="0" stroke-width="0"/>
   </g>
   <g transform="translate(1010.9 1485)" fill="#fff">
    <path d="m-223 39.104c3e-3 0.1751 5e-3 0.3503 5e-3 0.5255 0 16.528-13.431 29.926-30 29.926s-30-13.398-30-29.926c0-0.1752 2e-3 -0.3504 5e-3 -0.5255 0.287 16.32 13.632 29.401 29.995 29.401s29.708-13.08 29.995-29.401" fill-rule="evenodd" stroke-width="0" vector-effect="non-scaling-stroke"/>
   </g>
   <g transform="translate(1010.9 1485)" fill="none" stroke="#000">
    <rect width="0" height="0" stroke-width="0"/>
   </g>
   <g transform="translate(1010.9 1485)" fill="#fff">
    <path d="m285 241.8c3e-3 0.175 5e-3 0.351 5e-3 0.526 0 16.528-13.431 29.926-30 29.926s-30-13.398-30-29.926c0-0.175 2e-3 -0.351 5e-3 -0.526 0.287 16.321 13.632 29.401 29.995 29.401s29.708-13.08 29.995-29.401" fill-rule="evenodd" stroke-width="0" vector-effect="non-scaling-stroke"/>
   </g>
   <g transform="translate(1010.9 1485)" fill="none" stroke="#000">
    <rect width="0" height="0" stroke-width="0"/>
   </g>
   <g transform="translate(1010.9 1485)" fill="#fff">
    <path d="m285 545.86c3e-3 0.175 5e-3 0.35 5e-3 0.526 0 16.527-13.431 29.926-30 29.926s-30-13.399-30-29.926c0-0.176 2e-3 -0.351 5e-3 -0.526 0.287 16.321 13.632 29.401 29.995 29.401s29.708-13.08 29.995-29.401" fill-rule="evenodd" stroke-width="0" vector-effect="non-scaling-stroke"/>
   </g>
   <g transform="translate(1010.9 1485)" fill="none" stroke="#000">
    <rect width="0" height="0" stroke-width="0"/>
   </g>
   <g transform="translate(1010.9 1485)" fill="#fff">
    <path d="m-96.005 343.16c0.0031 0.175 0.0046 0.35 0.0046 0.525 0 16.528-13.431 29.926-30 29.926s-30-13.398-30-29.926c0-0.175 2e-3 -0.35 5e-3 -0.525 0.287 16.32 13.632 29.4 29.995 29.4s29.708-13.08 29.995-29.4" fill-rule="evenodd" stroke-width="0" vector-effect="non-scaling-stroke"/>
   </g>
   <g transform="translate(1010.9 1485)" fill="none" stroke="#000">
    <rect width="0" height="0" stroke-width="0"/>
   </g>
   <g transform="translate(1010.9 1485)" fill="#fff">
    <path d="m285 343.16c3e-3 0.175 5e-3 0.35 5e-3 0.525 0 16.528-13.431 29.926-30 29.926s-30-13.398-30-29.926c0-0.175 2e-3 -0.35 5e-3 -0.525 0.287 16.32 13.632 29.4 29.995 29.4s29.708-13.08 29.995-29.4" fill-rule="evenodd" stroke-width="0" vector-effect="non-scaling-stroke"/>
   </g>
   <g transform="translate(1010.9 1485)" fill="none" stroke="#000">
    <rect width="0" height="0" stroke-width="0"/>
   </g>
   <g transform="translate(1010.9 1485)" fill="#fff">
    <path d="m-223 545.86c3e-3 0.175 5e-3 0.35 5e-3 0.526 0 16.527-13.431 29.926-30 29.926s-30-13.399-30-29.926c0-0.176 2e-3 -0.351 5e-3 -0.526 0.287 16.321 13.632 29.401 29.995 29.401s29.708-13.08 29.995-29.401" fill-rule="evenodd" stroke-width="0" vector-effect="non-scaling-stroke"/>
   </g>
   <g transform="translate(1010.9 1485)" fill="none" stroke="#000">
    <rect width="0" height="0" stroke-width="0"/>
   </g>
   <g transform="translate(1010.9 1485)" fill="#fff">
    <path d="m319-649.37c5.523 0 10 4.466 10 9.975v-1.051c0-5.509-4.477-9.975-10-9.975v1.051" fill-rule="evenodd" stroke-width="0" vector-effect="non-scaling-stroke"/>
   </g>
   <g transform="translate(1010.9 1485)" fill="none" stroke="#000">
    <rect width="0" height="0" stroke-width="0"/>
   </g>
   <g transform="translate(1010.9 1485)" fill="#fff">
    <path d="m285-320.18v-1.051c0 5.509-4.477 9.975-10 9.975v1.051c5.523 0 10-4.466 10-9.975" fill-rule="evenodd" stroke-width="0" vector-effect="non-scaling-stroke"/>
   </g>
   <g transform="translate(1010.9 1485)" fill="none" stroke="#000">
    <rect width="0" height="0" stroke-width="0"/>
   </g>
   <g transform="translate(1010.9 1485)" fill="#fff">
    <path d="m-275-310.21v-1.051c-5.523 0-10-4.466-10-9.975v1.051c0 5.509 4.477 9.975 10 9.975" fill-rule="evenodd" stroke-width="0" vector-effect="non-scaling-stroke"/>
   </g>
  </g>
  <g fill="none" stroke="#000">
   <g transform="translate(1010.9 1485)" stroke-linecap="square">
    <rect width="0" height="0" stroke-width="0"/>
   </g>
   <g transform="translate(1010.9 1485)" stroke-linecap="round">
    <path d="m329-639.4v-1.051"/>
    <path d="m319-649.37c5.523 0 10 4.466 10 9.975"/>
    <path d="m319-650.42c5.523 0 10 4.466 10 9.975"/>
    <path d="m319-649.37h-638"/>
    <path d="m319-650.42h-638"/>
    <path d="m329-639.4v1279.8"/>
    <path d="m-329-639.4c0-5.509 4.477-9.975 10-9.975"/>
    <path d="m329 640.45c0 5.509-4.477 9.975-10 9.975"/>
    <path d="m-329 640.45v-1279.8"/>
    <path d="m319 650.42h-638"/>
    <path d="m-319 650.42c-5.523 0-10-4.466-10-9.975"/>
    <path d="m-283 546.38c0-16.528 13.431-29.927 30-29.927s30 13.399 30 29.927"/>
    <path d="m-223 546.38c0 16.527-13.431 29.926-30 29.926s-30-13.399-30-29.926"/>
    <path d="m-283 445.03c0-16.528 13.431-29.926 30-29.926s30 13.398 30 29.926"/>
    <path d="m-223 445.03c0 16.528-13.431 29.927-30 29.927s-30-13.399-30-29.927"/>
    <path d="m-283 343.68c0-16.528 13.431-29.926 30-29.926s30 13.398 30 29.926"/>
    <path d="m-223 343.68c0 16.528-13.431 29.926-30 29.926s-30-13.398-30-29.926"/>
    <path d="m-283 242.33c0-16.528 13.431-29.927 30-29.927s30 13.399 30 29.927"/>
    <path d="m-223 242.33c0 16.528-13.431 29.926-30 29.926s-30-13.398-30-29.926"/>
    <path d="m-283 140.98c0-16.527 13.431-29.926 30-29.926s30 13.399 30 29.926"/>
    <path d="m-223 140.98c0 16.528-13.431 29.927-30 29.927s-30-13.399-30-29.927"/>
    <path d="m-283 39.629c0-16.528 13.431-29.926 30-29.926s30 13.398 30 29.926"/>
    <path d="m-223 39.629c0 16.528-13.431 29.926-30 29.926s-30-13.398-30-29.926"/>
    <path d="m-156 546.38c0-16.528 13.431-29.927 30-29.927s30 13.399 30 29.927"/>
    <path d="m-96 546.38c0 16.527-13.431 29.926-30 29.926s-30-13.399-30-29.926"/>
    <path d="m-156 445.03c0-16.528 13.431-29.926 30-29.926s30 13.398 30 29.926"/>
    <path d="m-96 445.03c0 16.528-13.431 29.927-30 29.927s-30-13.399-30-29.927"/>
    <path d="m-156 343.68c0-16.528 13.431-29.926 30-29.926s30 13.398 30 29.926"/>
    <path d="m-96 343.68c0 16.528-13.431 29.926-30 29.926s-30-13.398-30-29.926"/>
    <path d="m-156 242.33c0-16.528 13.431-29.927 30-29.927s30 13.399 30 29.927"/>
    <path d="m-96 242.33c0 16.528-13.431 29.926-30 29.926s-30-13.398-30-29.926"/>
    <path d="m-156 140.98c0-16.527 13.431-29.926 30-29.926s30 13.399 30 29.926"/>
    <path d="m-96 140.98c0 16.528-13.431 29.927-30 29.927s-30-13.399-30-29.927"/>
    <path d="m-156 39.629c0-16.528 13.431-29.926 30-29.926s30 13.398 30 29.926"/>
    <path d="m-96 39.629c0 16.528-13.431 29.926-30 29.926s-30-13.398-30-29.926"/>
    <path d="m-283-61.721c0-16.528 13.431-29.926 30-29.926s30 13.398 30 29.926"/>
    <path d="m-223-61.721c0 16.528-13.431 29.926-30 29.926s-30-13.398-30-29.926"/>
    <path d="m-283-163.07c0-16.528 13.431-29.927 30-29.927s30 13.399 30 29.927"/>
    <path d="m-223-163.07c0 16.527-13.431 29.926-30 29.926s-30-13.399-30-29.926"/>
    <path d="m-156-61.721c0-16.528 13.431-29.926 30-29.926s30 13.398 30 29.926"/>
    <path d="m-96-61.721c0 16.528-13.431 29.926-30 29.926s-30-13.398-30-29.926"/>
    <path d="m-156-163.07c0-16.528 13.431-29.927 30-29.927s30 13.399 30 29.927"/>
    <path d="m-96-163.07c0 16.527-13.431 29.926-30 29.926s-30-13.399-30-29.926"/>
    <path d="m-29 546.38c0-16.528 13.432-29.927 30-29.927s30 13.399 30 29.927"/>
    <path d="m31 546.38c0 16.527-13.432 29.926-30 29.926s-30-13.399-30-29.926"/>
    <path d="m-29 445.03c0-16.528 13.432-29.926 30-29.926s30 13.398 30 29.926"/>
    <path d="m31 445.03c0 16.528-13.432 29.927-30 29.927s-30-13.399-30-29.927"/>
    <path d="m-29 343.68c0-16.528 13.432-29.926 30-29.926s30 13.398 30 29.926"/>
    <path d="m31 343.68c0 16.528-13.432 29.926-30 29.926s-30-13.398-30-29.926"/>
    <path d="m98 546.38c0-16.528 13.431-29.927 30-29.927s30 13.399 30 29.927"/>
    <path d="m158 546.38c0 16.527-13.431 29.926-30 29.926s-30-13.399-30-29.926"/>
    <path d="m98 445.03c0-16.528 13.431-29.926 30-29.926s30 13.398 30 29.926"/>
    <path d="m158 445.03c0 16.528-13.431 29.927-30 29.927s-30-13.399-30-29.927"/>
    <path d="m98 343.68c0-16.528 13.431-29.926 30-29.926s30 13.398 30 29.926"/>
    <path d="m158 343.68c0 16.528-13.431 29.926-30 29.926s-30-13.398-30-29.926"/>
    <path d="m-29 242.33c0-16.528 13.432-29.927 30-29.927s30 13.399 30 29.927"/>
    <path d="m31 242.33c0 16.528-13.432 29.926-30 29.926s-30-13.398-30-29.926"/>
    <path d="m-29 140.98c0-16.527 13.432-29.926 30-29.926s30 13.399 30 29.926"/>
    <path d="m31 140.98c0 16.528-13.432 29.927-30 29.927s-30-13.399-30-29.927"/>
    <path d="m-29 39.629c0-16.528 13.432-29.926 30-29.926s30 13.398 30 29.926"/>
    <path d="m31 39.629c0 16.528-13.432 29.926-30 29.926s-30-13.398-30-29.926"/>
    <path d="m98 242.33c0-16.528 13.431-29.927 30-29.927s30 13.399 30 29.927"/>
    <path d="m158 242.33c0 16.528-13.431 29.926-30 29.926s-30-13.398-30-29.926"/>
    <path d="m98 140.98c0-16.527 13.431-29.926 30-29.926s30 13.399 30 29.926"/>
    <path d="m158 140.98c0 16.528-13.431 29.927-30 29.927s-30-13.399-30-29.927"/>
    <path d="m98 39.629c0-16.528 13.431-29.926 30-29.926s30 13.398 30 29.926"/>
    <path d="m158 39.629c0 16.528-13.431 29.926-30 29.926s-30-13.398-30-29.926"/>
    <path d="m225 546.38c0-16.528 13.431-29.927 30-29.927s30 13.399 30 29.927"/>
    <path d="m285 546.38c0 16.527-13.431 29.926-30 29.926s-30-13.399-30-29.926"/>
    <path d="m225 445.03c0-16.528 13.431-29.926 30-29.926s30 13.398 30 29.926"/>
    <path d="m285 445.03c0 16.528-13.431 29.927-30 29.927s-30-13.399-30-29.927"/>
    <path d="m225 343.68c0-16.528 13.431-29.926 30-29.926s30 13.398 30 29.926"/>
    <path d="m285 343.68c0 16.528-13.431 29.926-30 29.926s-30-13.398-30-29.926"/>
    <path d="m225 242.33c0-16.528 13.431-29.927 30-29.927s30 13.399 30 29.927"/>
    <path d="m285 242.33c0 16.528-13.431 29.926-30 29.926s-30-13.398-30-29.926"/>
    <path d="m225 140.98c0-16.527 13.431-29.926 30-29.926s30 13.399 30 29.926"/>
    <path d="m285 140.98c0 16.528-13.431 29.927-30 29.927s-30-13.399-30-29.927"/>
    <path d="m225 39.629c0-16.528 13.431-29.926 30-29.926s30 13.398 30 29.926"/>
    <path d="m285 39.629c0 16.528-13.431 29.926-30 29.926s-30-13.398-30-29.926"/>
    <path d="m-29-61.721c0-16.528 13.432-29.926 30-29.926s30 13.398 30 29.926"/>
    <path d="m31-61.721c0 16.528-13.432 29.926-30 29.926s-30-13.398-30-29.926"/>
    <path d="m-29-163.07c0-16.528 13.432-29.927 30-29.927s30 13.399 30 29.927"/>
    <path d="m31-163.07c0 16.527-13.432 29.926-30 29.926s-30-13.399-30-29.926"/>
    <path d="m98-61.721c0-16.528 13.431-29.926 30-29.926s30 13.398 30 29.926"/>
    <path d="m158-61.721c0 16.528-13.431 29.926-30 29.926s-30-13.398-30-29.926"/>
    <path d="m98-163.07c0-16.528 13.431-29.927 30-29.927s30 13.399 30 29.927"/>
    <path d="m158-163.07c0 16.527-13.431 29.926-30 29.926s-30-13.399-30-29.926"/>
    <path d="m275-604.48h-550"/>
    <path d="m275-604.48c5.523 0 10 4.466 10 9.976"/>
    <path d="m-285-594.51c0-5.51 4.477-9.976 10-9.976"/>
    <path d="m285-320.18v-274.32"/>
    <path d="m-285-594.51v274.32"/>
    <path d="m285-320.18c0 5.509-4.477 9.975-10 9.975"/>
    <path d="m-275-310.21c-5.523 0-10-4.466-10-9.975"/>
    <path d="m-275-310.21h550"/>
    <path d="m225-61.721c0-16.528 13.431-29.926 30-29.926s30 13.398 30 29.926"/>
    <path d="m285-61.721c0 16.528-13.431 29.926-30 29.926s-30-13.398-30-29.926"/>
    <path d="m225-163.07c0-16.528 13.431-29.927 30-29.927s30 13.399 30 29.927"/>
    <path d="m285-163.07c0 16.527-13.431 29.926-30 29.926s-30-13.399-30-29.926"/>
    <path d="m-329-640.45c0-5.509 4.477-9.975 10-9.975"/>
    <path d="m-223 545.86c-0.287 16.321-13.632 29.401-29.995 29.401s-29.708-13.08-29.995-29.401"/>
    <path d="m-223 444.5c-0.287 16.32-13.632 29.401-29.995 29.401s-29.708-13.081-29.995-29.401"/>
    <path d="m-223 343.16c-0.287 16.32-13.632 29.4-29.995 29.4s-29.708-13.08-29.995-29.4"/>
    <path d="m-223 241.8c-0.287 16.321-13.632 29.401-29.995 29.401s-29.708-13.08-29.995-29.401"/>
    <path d="m-223 140.45c-0.287 16.32-13.632 29.401-29.995 29.401s-29.708-13.081-29.995-29.401"/>
    <path d="m-223 39.104c-0.287 16.32-13.632 29.401-29.995 29.401s-29.708-13.08-29.995-29.401"/>
    <path d="m-96.005 545.86c-0.2874 16.321-13.632 29.401-29.995 29.401s-29.708-13.08-29.995-29.401"/>
    <path d="m-96.005 444.5c-0.2874 16.32-13.632 29.401-29.995 29.401s-29.708-13.081-29.995-29.401"/>
    <path d="m-96.005 343.16c-0.2874 16.32-13.632 29.4-29.995 29.4s-29.708-13.08-29.995-29.4"/>
    <path d="m-96.005 241.8c-0.2874 16.321-13.632 29.401-29.995 29.401s-29.708-13.08-29.995-29.401"/>
    <path d="m-96.005 140.45c-0.2874 16.32-13.632 29.401-29.995 29.401s-29.708-13.081-29.995-29.401"/>
    <path d="m-96.005 39.104c-0.2874 16.32-13.632 29.401-29.995 29.401s-29.708-13.08-29.995-29.401"/>
    <path d="m-223-62.247c-0.287 16.32-13.632 29.401-29.995 29.401s-29.708-13.08-29.995-29.401"/>
    <path d="m-223-163.6c-0.287 16.321-13.632 29.401-29.995 29.401s-29.708-13.08-29.995-29.401"/>
    <path d="m-96.005-62.247c-0.2874 16.32-13.632 29.401-29.995 29.401s-29.708-13.08-29.995-29.401"/>
    <path d="m-96.005-163.6c-0.2874 16.321-13.632 29.401-29.995 29.401s-29.708-13.08-29.995-29.401"/>
    <path d="m30.995 545.86c-0.2874 16.321-13.632 29.401-29.995 29.401s-29.708-13.08-29.995-29.401"/>
    <path d="m30.995 444.5c-0.2874 16.32-13.632 29.401-29.995 29.401s-29.708-13.081-29.995-29.401"/>
    <path d="m30.995 343.16c-0.2874 16.32-13.632 29.4-29.995 29.4s-29.708-13.08-29.995-29.4"/>
    <path d="m158 545.86c-0.287 16.321-13.632 29.401-29.995 29.401s-29.708-13.08-29.995-29.401"/>
    <path d="m158 444.5c-0.287 16.32-13.632 29.401-29.995 29.401s-29.708-13.081-29.995-29.401"/>
    <path d="m158 343.16c-0.287 16.32-13.632 29.4-29.995 29.4s-29.708-13.08-29.995-29.4"/>
    <path d="m30.995 241.8c-0.2874 16.321-13.632 29.401-29.995 29.401s-29.708-13.08-29.995-29.401"/>
    <path d="m30.995 140.45c-0.2874 16.32-13.632 29.401-29.995 29.401s-29.708-13.081-29.995-29.401"/>
    <path d="m30.995 39.104c-0.2874 16.32-13.632 29.401-29.995 29.401s-29.708-13.08-29.995-29.401"/>
    <path d="m158 241.8c-0.287 16.321-13.632 29.401-29.995 29.401s-29.708-13.08-29.995-29.401"/>
    <path d="m158 140.45c-0.287 16.32-13.632 29.401-29.995 29.401s-29.708-13.081-29.995-29.401"/>
    <path d="m158 39.104c-0.287 16.32-13.632 29.401-29.995 29.401s-29.708-13.08-29.995-29.401"/>
    <path d="m285 545.86c-0.287 16.321-13.632 29.401-29.995 29.401s-29.708-13.08-29.995-29.401"/>
    <path d="m285 444.5c-0.287 16.32-13.632 29.401-29.995 29.401s-29.708-13.081-29.995-29.401"/>
    <path d="m285 343.16c-0.287 16.32-13.632 29.4-29.995 29.4s-29.708-13.08-29.995-29.4"/>
    <path d="m285 241.8c-0.287 16.321-13.632 29.401-29.995 29.401s-29.708-13.08-29.995-29.401"/>
    <path d="m285 140.45c-0.287 16.32-13.632 29.401-29.995 29.401s-29.708-13.081-29.995-29.401"/>
    <path d="m285 39.104c-0.287 16.32-13.632 29.401-29.995 29.401s-29.708-13.08-29.995-29.401"/>
    <path d="m30.995-62.247c-0.2874 16.32-13.632 29.401-29.995 29.401s-29.708-13.08-29.995-29.401"/>
    <path d="m30.995-163.6c-0.2874 16.321-13.632 29.401-29.995 29.401s-29.708-13.08-29.995-29.401"/>
    <path d="m158-62.247c-0.287 16.32-13.632 29.401-29.995 29.401s-29.708-13.08-29.995-29.401"/>
    <path d="m158-163.6c-0.287 16.321-13.632 29.401-29.995 29.401s-29.708-13.08-29.995-29.401"/>
    <path d="m285-321.24c0 5.509-4.477 9.975-10 9.975"/>
    <path d="m-275-311.26c-5.523 0-10-4.466-10-9.975"/>
    <path d="m-275-311.26h550"/>
    <path d="m285-62.247c-0.287 16.32-13.632 29.401-29.995 29.401s-29.708-13.08-29.995-29.401"/>
    <path d="m285-163.6c-0.287 16.321-13.632 29.401-29.995 29.401s-29.708-13.08-29.995-29.401"/>
    <path d="m-329-639.4v-1.051"/>
    <path d="m319-649.37v-1.051"/>
    <path d="m-319-649.37v-1.051"/>
    <path d="m275-310.21v-1.051"/>
    <path d="m-275-310.21v-1.051"/>
   </g>
   <g transform="translate(1010.9 1485)" stroke-linecap="square">
    <rect width="0" height="0"/>
    <rect width="0" height="0"/>
    <rect width="0" height="0"/>
    <rect width="0" height="0"/>
    <rect width="0" height="0"/>
    <rect width="0" height="0"/>
   </g>
  </g>
 </g>
</svg>
