<?xml version="1.0" encoding="UTF-8" standalone="no"?>
<svg
   xmlns:dc="http://purl.org/dc/elements/1.1/"
   xmlns:cc="http://creativecommons.org/ns#"
   xmlns:rdf="http://www.w3.org/1999/02/22-rdf-syntax-ns#"
   xmlns:svg="http://www.w3.org/2000/svg"
   xmlns="http://www.w3.org/2000/svg"
   xmlns:sodipodi="http://sodipodi.sourceforge.net/DTD/sodipodi-0.dtd"
   xmlns:inkscape="http://www.inkscape.org/namespaces/inkscape"
   width="56.909763mm"
   height="72.923416mm"
   viewBox="0 0 56.909763 72.923416"
   version="1.1"
   id="svg4415"
   inkscape:version="1.0.2 (e86c870879, 2021-01-15)"
   sodipodi:docname="primary.svg">
  <defs
     id="defs4409" />
  <sodipodi:namedview
     id="base"
     pagecolor="#ffffff"
     bordercolor="#666666"
     borderopacity="1.0"
     inkscape:pageopacity="0.0"
     inkscape:pageshadow="2"
     inkscape:zoom="15.843269"
     inkscape:cx="171.24678"
     inkscape:cy="132.49234"
     inkscape:document-units="mm"
     inkscape:current-layer="layer1"
     inkscape:document-rotation="0"
     showgrid="false"
     inkscape:window-width="1920"
     inkscape:window-height="1053"
     inkscape:window-x="0"
     inkscape:window-y="27"
     inkscape:window-maximized="0" />
  <metadata
     id="metadata4412">
    <rdf:RDF>
      <cc:Work
         rdf:about="">
        <dc:format>image/svg+xml</dc:format>
        <dc:type
           rdf:resource="http://purl.org/dc/dcmitype/StillImage" />
        <dc:title />
      </cc:Work>
    </rdf:RDF>
  </metadata>
  <g
     inkscape:label="Layer 1"
     inkscape:groupmode="layer"
     id="layer1"
     transform="translate(-14.843522,19.074162)">
    <g
       aria-label="ENTER"
       id="text5777"
       style="font-style:normal;font-variant:normal;font-weight:bold;font-stretch:normal;font-size:21.1667px;line-height:1.25;font-family:Caladea;-inkscape-font-specification:'Caladea Bold';text-align:center;text-anchor:middle;display:inline;fill:#000080;stroke-width:0;stroke-miterlimit:4;stroke-dasharray:none"
       transform="matrix(0.1,0,0,0.1,10.085623,-63.264447)">
      <path
         d="m 562.04541,1156.8283 q -0.48683,0.1482 -0.80433,0.1482 -0.29633,0 -0.762,-0.085 -0.3175,-1.4605 -0.91017,-2.2648 h -3.556 v 5.0165 l 1.9685,-0.1482 q 0.381,-0.042 0.6985,-0.4233 0.33867,-0.381 0.48683,-0.9949 h 1.10067 v 4.3815 h -1.10067 q -0.29633,-0.8466 -0.5715,-1.1853 -0.27516,-0.3387 -0.635,-0.381 l -1.94733,-0.1693 v 5.4186 h 3.70417 q 0.67733,-1.016 0.99483,-2.6881 0.4445,-0.063 0.8255,-0.063 0.40217,0 0.74084,0.063 l -0.21167,4.0005 h -10.45635 l 0.0847,-0.8679 q 0.8255,-0.127 1.2065,-0.5291 v -11.3242 q -0.508,-0.4445 -1.29117,-0.6138 l 0.0635,-0.7832 h 10.28702 z"
         style="font-style:normal;font-variant:normal;font-weight:bold;font-stretch:normal;font-size:21.1667px;font-family:Caladea;-inkscape-font-specification:'Caladea Bold';fill:#000080;stroke-width:0;stroke-miterlimit:4;stroke-dasharray:none"
         id="path1316" />
      <path
         d="m 575.63442,1167.454 h -3.21734 l -5.58801,-9.7367 v 8.2338 q 0.48683,0.4445 1.5875,0.6774 l -0.14816,0.8255 h -4.57201 l 0.0847,-0.8679 q 0.6985,-0.127 1.2065,-0.635 v -11.1125 q -0.4445,-0.381 -1.29117,-0.6773 l 0.0847,-0.8255 h 4.16984 l 5.842,10.2447 v -8.7419 q -0.55033,-0.4656 -1.4605,-0.635 l 0.10584,-0.8678 h 4.61434 l -0.127,0.8255 q -0.82551,0.254 -1.29117,0.6773 z"
         style="font-style:normal;font-variant:normal;font-weight:bold;font-stretch:normal;font-size:21.1667px;font-family:Caladea;-inkscape-font-specification:'Caladea Bold';fill:#000080;stroke-width:0;stroke-miterlimit:4;stroke-dasharray:none"
         id="path1318" />
      <path
         d="m 579.67724,1157.2305 q -0.381,0.064 -0.762,0.064 -0.35984,0 -0.69851,-0.064 v -3.9794 q 3.11151,0.085 6.92152,0.085 3.81,0 4.99534,-0.085 v 3.9794 q -0.35984,0.064 -0.71967,0.064 -0.35984,0 -0.74084,-0.064 -0.16933,-1.4817 -0.762,-2.4342 -1.05833,-0.1482 -2.18017,-0.1693 v 11.3241 q 0.4445,0.4234 1.58751,0.635 l -0.14817,0.8679 h -6.15951 l 0.0847,-0.8679 q 0.91016,-0.127 1.524,-0.635 v -11.303 q -0.46567,0.021 -2.13784,0.127 -0.762,1.0584 -0.80433,2.4554 z"
         style="font-style:normal;font-variant:normal;font-weight:bold;font-stretch:normal;font-size:21.1667px;font-family:Caladea;-inkscape-font-specification:'Caladea Bold';fill:#000080;stroke-width:0;stroke-miterlimit:4;stroke-dasharray:none"
         id="path1320" />
      <path
         d="m 602.17744,1156.8283 q -0.48684,0.1482 -0.80434,0.1482 -0.29633,0 -0.762,-0.085 -0.3175,-1.4605 -0.91017,-2.2648 h -3.556 v 5.0165 l 1.9685,-0.1482 q 0.381,-0.042 0.6985,-0.4233 0.33867,-0.381 0.48684,-0.9949 h 1.10066 v 4.3815 h -1.10066 q -0.29634,-0.8466 -0.5715,-1.1853 -0.27517,-0.3387 -0.63501,-0.381 l -1.94733,-0.1693 v 5.4186 h 3.70417 q 0.67733,-1.016 0.99484,-2.6881 0.4445,-0.063 0.8255,-0.063 0.40216,0 0.74083,0.063 l -0.21167,4.0005 h -10.45635 l 0.0847,-0.8679 q 0.8255,-0.127 1.2065,-0.5291 v -11.3242 q -0.508,-0.4445 -1.29117,-0.6138 l 0.0635,-0.7832 h 10.28702 z"
         style="font-style:normal;font-variant:normal;font-weight:bold;font-stretch:normal;font-size:21.1667px;font-family:Caladea;-inkscape-font-specification:'Caladea Bold';fill:#000080;stroke-width:0;stroke-miterlimit:4;stroke-dasharray:none"
         id="path1322" />
      <path
         d="m 610.03026,1153.3358 q 5.41868,0 5.41868,3.7253 0,2.7094 -2.75167,3.6195 0.67733,0.4657 1.10067,1.397 l 1.5875,3.7677 q 0.21167,0.4868 1.29117,0.7408 l -0.14817,0.8679 h -3.85234 l -2.05317,-5.5457 q -0.27517,-0.6773 -1.143,-0.8043 -0.35983,0 -0.86784,-0.042 h -0.23283 v 4.8895 q 0.4445,0.4445 1.5875,0.6774 l -0.14816,0.8255 h -5.84201 l 0.0847,-0.8679 q 0.71967,-0.1481 1.20651,-0.635 v -11.1125 q -0.40217,-0.381 -1.29117,-0.6773 l 0.0847,-0.8255 z m 2.13784,3.7677 q 0,-1.1854 -0.635,-1.8204 -0.635,-0.6561 -1.62984,-0.6561 -0.99483,0 -1.524,0.085 v 5.0589 h 1.37584 q 2.413,0 2.413,-2.667 z"
         style="font-style:normal;font-variant:normal;font-weight:bold;font-stretch:normal;font-size:21.1667px;font-family:Caladea;-inkscape-font-specification:'Caladea Bold';fill:#000080;stroke-width:0;stroke-miterlimit:4;stroke-dasharray:none"
         id="path1324" />
    </g>
    <g
       aria-label="."
       id="text5785"
       style="font-style:normal;font-variant:normal;font-weight:bold;font-stretch:normal;font-size:21.1667px;line-height:1.25;font-family:Caladea;-inkscape-font-specification:'Caladea Bold';text-align:center;text-anchor:middle;display:inline;fill:#000080;stroke-width:0;stroke-miterlimit:4;stroke-dasharray:none"
       transform="matrix(0.1,0,0,0.1,10.085623,-63.264447)">
      <path
         d="m 328.53472,1165.93 q 0,-1.6299 1.48167,-1.6299 1.48167,0 1.48167,1.6299 0,1.6086 -1.48167,1.6086 -0.74083,0 -1.12183,-0.4233 -0.35984,-0.4445 -0.35984,-1.1853 z"
         style="font-style:normal;font-variant:normal;font-weight:bold;font-stretch:normal;font-size:21.1667px;font-family:Caladea;-inkscape-font-specification:'Caladea Bold';fill:#000080;stroke-width:0;stroke-miterlimit:4;stroke-dasharray:none"
         id="path1327" />
    </g>
    <g
       aria-label="±"
       id="text5797"
       style="font-style:normal;font-variant:normal;font-weight:bold;font-stretch:normal;font-size:21.1667px;line-height:1.25;font-family:Caladea;-inkscape-font-specification:'Caladea Bold';text-align:center;text-anchor:middle;display:inline;fill:#000080;stroke-width:0;stroke-miterlimit:4;stroke-dasharray:none"
       transform="matrix(0.1,0,0,0.1,10.085623,-63.264447)">
      <path
         d="m 198.2327,1160.977 v -2.0109 h 3.66184 v -3.3231 h 2.11667 v 3.3231 h 3.72533 v 2.0109 h -3.72533 v 3.302 h -2.11667 v -3.302 z m -0.0212,6.477 v -2.0109 h 9.50385 v 2.0109 z"
         style="font-style:normal;font-variant:normal;font-weight:bold;font-stretch:normal;font-family:Caladea;-inkscape-font-specification:'Caladea Bold';fill:#000080;stroke-width:0;stroke-miterlimit:4;stroke-dasharray:none"
         id="path1332" />
    </g>
    <g
       aria-label="0"
       id="text5805"
       style="font-style:normal;font-variant:normal;font-weight:bold;font-stretch:normal;font-size:21.1667px;line-height:1.25;font-family:Caladea;-inkscape-font-specification:'Caladea Bold';text-align:center;text-anchor:middle;display:inline;fill:#000080;stroke-width:0;stroke-miterlimit:4;stroke-dasharray:none"
       transform="matrix(0.1,0,0,0.1,10.085623,-63.264447)">
      <path
         d="m 74.428891,1165.041 q 0.486834,1.397 1.566335,1.397 1.079502,0 1.54517,-1.397 0.486834,-1.4182 0.486834,-4.699 0,-3.2809 -0.486834,-4.699 -0.465668,-1.4394 -1.54517,-1.4394 -1.079501,0 -1.566335,1.4182 -0.465668,1.4182 -0.465668,4.7202 0,3.2808 0.465668,4.699 z m 5.355175,0.6985 q -1.312336,1.8626 -3.78884,1.8626 -2.476504,0 -3.810006,-1.8626 -1.333502,-1.8839 -1.333502,-5.3764 0,-3.5136 1.333502,-5.3763 1.333502,-1.8627 3.810006,-1.8627 2.476504,0 3.78884,1.8627 1.333502,1.8415 1.333502,5.3552 0,3.5136 -1.333502,5.3975 z"
         style="font-style:normal;font-variant:normal;font-weight:bold;font-stretch:normal;font-family:Caladea;-inkscape-font-specification:'Caladea Bold';fill:#000080;stroke-width:0;stroke-miterlimit:4;stroke-dasharray:none"
         id="path1335" />
    </g>
    <g
       aria-label="1"
       id="text5809"
       style="font-style:normal;font-variant:normal;font-weight:bold;font-stretch:normal;font-size:21.1667px;line-height:1.25;font-family:Caladea;-inkscape-font-specification:'Caladea Bold';text-align:center;text-anchor:middle;display:inline;fill:#000080;stroke-width:0;stroke-miterlimit:4;stroke-dasharray:none"
       transform="matrix(0.1,0,0,0.1,10.085623,-63.264447)">
      <path
         d="M 74.831058,1054.064 H 71.99472 v -1.2276 q 3.153838,-0.2329 5.270508,-1.1854 l 0.698502,0.3175 v 12.2344 q 0.402167,0.2328 1.270002,0.4233 0.867834,0.1693 1.375835,0.2117 l -0.0635,1.016 h -8.636014 l 0.04233,-1.016 q 1.883836,-0.2117 2.878671,-0.635 z"
         style="font-style:normal;font-variant:normal;font-weight:bold;font-stretch:normal;font-family:Caladea;-inkscape-font-specification:'Caladea Bold';fill:#000080;stroke-width:0;stroke-miterlimit:4;stroke-dasharray:none"
         id="path1338" />
    </g>
    <g
       aria-label="4"
       id="text5813"
       style="font-style:normal;font-variant:normal;font-weight:bold;font-stretch:normal;font-size:21.1667px;line-height:1.25;font-family:Caladea;-inkscape-font-specification:'Caladea Bold';text-align:center;text-anchor:middle;display:inline;fill:#000080;stroke-width:0;stroke-miterlimit:4;stroke-dasharray:none"
       transform="matrix(0.1,0,0,0.1,10.085623,-63.264447)">
      <path
         d="m 76.503227,960.42273 h -6.09601 l -0.148166,-0.71966 5.969009,-9.56735 h 3.026838 v 8.72068 h 2.010837 v 1.524 h -2.010837 v 2.51884 q 0.656168,0.40216 1.841503,0.5715 l -0.105833,0.78317 h -6.561677 l 0.127,-0.78317 q 1.227668,-0.14817 1.947336,-0.5715 z m 0,-1.524 v -5.79967 l -3.492505,5.79967 z"
         style="font-style:normal;font-variant:normal;font-weight:bold;font-stretch:normal;font-family:Caladea;-inkscape-font-specification:'Caladea Bold';fill:#000080;stroke-width:0;stroke-miterlimit:4;stroke-dasharray:none"
         id="path1341" />
    </g>
    <g
       aria-label="7"
       id="text5817"
       style="font-style:normal;font-variant:normal;font-weight:bold;font-stretch:normal;font-size:21.1667px;line-height:1.25;font-family:Caladea;-inkscape-font-specification:'Caladea Bold';text-align:center;text-anchor:middle;display:inline;fill:#000080;stroke-width:0;stroke-miterlimit:4;stroke-dasharray:none"
       transform="matrix(0.1,0,0,0.1,10.085623,-63.264447)">
      <path
         d="m 75.952893,848.53574 4.826008,-0.0212 0.635001,1.10067 -5.249342,13.03869 h -3.069172 l 5.058842,-12.23435 h -4.593174 q -0.232834,0.84667 -0.296334,2.05317 -0.381001,0.0635 -0.804335,0.0635 -0.402167,0 -0.804334,-0.0635 -0.105834,-0.74084 -0.359834,-2.11667 -0.232834,-1.37584 -0.232834,-1.524 l 0.338667,-0.31751 z"
         style="font-style:normal;font-variant:normal;font-weight:bold;font-stretch:normal;font-family:Caladea;-inkscape-font-specification:'Caladea Bold';fill:#000080;stroke-width:0;stroke-miterlimit:4;stroke-dasharray:none"
         id="path1344" />
    </g>
    <g
       aria-label="8"
       id="text5821"
       style="font-style:normal;font-variant:normal;font-weight:bold;font-stretch:normal;font-size:21.1667px;line-height:1.25;font-family:Caladea;-inkscape-font-specification:'Caladea Bold';text-align:center;text-anchor:middle;display:inline;fill:#000080;stroke-width:0;stroke-miterlimit:4;stroke-dasharray:none"
       transform="matrix(0.1,0,0,0.1,10.085623,-63.264447)">
      <path
         d="m 207.77888,851.79541 q 0,0.86784 -0.635,1.73567 -0.635,0.86784 -1.67217,1.41817 1.31233,0.635 2.05317,1.48167 0.762,0.84667 0.762,2.18017 0,1.92617 -1.397,3.06917 -1.39701,1.12184 -3.89468,1.12184 -2.4765,0 -3.89467,-1.03717 -1.397,-1.03717 -1.397,-2.96334 0,-0.99483 0.635,-1.9685 0.635,-0.99484 1.778,-1.75684 -2.01083,-1.12183 -2.01083,-3.1115 0,-1.69334 1.31233,-2.68817 1.31234,-0.99484 3.51367,-0.99484 2.22251,0 3.53484,0.9525 1.31234,0.9525 1.31234,2.56117 z m -3.85234,4.97418 q -0.8255,-0.4445 -1.86267,-0.8255 -1.22767,0.9525 -1.22767,2.7305 0,1.24884 0.61383,1.9685 0.61384,0.69851 1.65101,0.69851 1.05833,0 1.62983,-0.69851 0.59267,-0.6985 0.59267,-1.905 0,-1.22767 -1.397,-1.9685 z m -1.016,-6.98501 q -0.8255,0 -1.31234,0.55033 -0.48683,0.52917 -0.48683,1.397 0,0.84667 0.61383,1.37584 0.635,0.508 1.8415,1.016 0.52917,-0.35983 0.84667,-0.99483 0.3175,-0.63501 0.3175,-1.43934 0,-0.8255 -0.508,-1.35467 -0.48683,-0.55033 -1.31233,-0.55033 z"
         style="font-style:normal;font-variant:normal;font-weight:bold;font-stretch:normal;font-family:Caladea;-inkscape-font-specification:'Caladea Bold';fill:#000080;stroke-width:0;stroke-miterlimit:4;stroke-dasharray:none"
         id="path1347" />
    </g>
    <g
       aria-label="9"
       id="text5825"
       style="font-style:normal;font-variant:normal;font-weight:bold;font-stretch:normal;font-size:21.1667px;line-height:1.25;font-family:Caladea;-inkscape-font-specification:'Caladea Bold';text-align:center;text-anchor:middle;display:inline;fill:#000080;stroke-width:0;stroke-miterlimit:4;stroke-dasharray:none"
       transform="matrix(0.1,0,0,0.1,10.085623,-63.264447)">
      <path
         d="m 329.23322,856.74842 q -2.11667,0 -3.34434,-1.143 -1.2065,-1.143 -1.2065,-3.02684 0,-1.905 1.41817,-3.06917 1.41816,-1.16417 3.78884,-1.16417 2.39183,0 3.72533,1.397 1.35467,1.39701 1.35467,4.04284 0,3.32318 -2.18017,5.79968 -2.18017,2.45534 -5.86317,3.40784 l -0.508,-1.05834 q 2.3495,-1.016 3.4925,-2.24367 1.143,-1.22767 1.62984,-3.53484 -1.18534,0.59267 -2.30717,0.59267 z m -1.48167,-4.25451 q 0,1.31234 0.52917,2.05317 0.55033,0.71967 1.48167,0.71967 0.93133,0 1.98966,-0.71967 v -0.27516 q 0,-2.30717 -0.508,-3.38667 -0.508,-1.07951 -1.50283,-1.07951 -1.98967,0 -1.98967,2.68817 z"
         style="font-style:normal;font-variant:normal;font-weight:bold;font-stretch:normal;font-family:Caladea;-inkscape-font-specification:'Caladea Bold';fill:#000080;stroke-width:0;stroke-miterlimit:4;stroke-dasharray:none"
         id="path1350" />
    </g>
    <g
       aria-label="EXP"
       id="text5829"
       style="font-style:normal;font-variant:normal;font-weight:bold;font-stretch:normal;font-size:21.1667px;line-height:1.25;font-family:Caladea;-inkscape-font-specification:'Caladea Bold';text-align:center;text-anchor:middle;display:inline;fill:#000080;stroke-width:0;stroke-miterlimit:4;stroke-dasharray:none"
       transform="matrix(0.1,0,0,0.1,10.085623,-63.264447)">
      <path
         d="m 449.06831,852.02825 q -0.48683,0.14816 -0.80433,0.14816 -0.29634,0 -0.762,-0.0847 -0.31751,-1.46051 -0.91017,-2.26484 h -3.55601 v 5.01651 l 1.9685,-0.14817 q 0.38101,-0.0423 0.69851,-0.42333 0.33866,-0.381 0.48683,-0.99484 h 1.10067 v 4.38151 h -1.10067 q -0.29633,-0.84667 -0.5715,-1.18534 -0.27517,-0.33866 -0.635,-0.381 l -1.94734,-0.16933 v 5.41868 h 3.70417 q 0.67734,-1.01601 0.99484,-2.68818 0.4445,-0.0635 0.8255,-0.0635 0.40217,0 0.74083,0.0635 l -0.21166,4.00051 h -10.45635 l 0.0847,-0.86783 q 0.82551,-0.127 1.20651,-0.52917 V 849.9327 q -0.508,-0.4445 -1.29117,-0.61383 l 0.0635,-0.78317 h 10.28701 z"
         style="font-style:normal;font-variant:normal;font-weight:bold;font-stretch:normal;font-family:Caladea;-inkscape-font-specification:'Caladea Bold';fill:#000080;stroke-width:0;stroke-miterlimit:4;stroke-dasharray:none"
         id="path1353" />
      <path
         d="m 451.52363,861.2781 3.57717,-5.29168 -3.81,-6.11718 q -0.29634,-0.3175 -1.07951,-0.48683 l 0.10584,-0.84667 h 5.79967 l -0.127,0.84667 q -0.762,0.0212 -1.18533,0.4445 l 2.286,3.68301 2.30717,-3.45018 q -0.46567,-0.46566 -1.4605,-0.61383 l 0.10583,-0.84667 h 4.67784 l -0.10583,0.84667 q -0.99483,0.0423 -1.3335,0.52917 l -3.32317,4.95301 4.02167,6.43467 q 0.33867,0.3175 1.0795,0.4445 l -0.10583,0.84667 h -5.79968 l 0.127,-0.84667 q 0.78317,-0.0423 1.18534,-0.4445 l -2.47651,-3.95817 -2.56117,3.81001 q 0.48684,0.4445 1.4605,0.59266 l -0.10583,0.84667 h -4.67784 l 0.10583,-0.84667 q 0.99484,-0.0423 1.31234,-0.52916 z"
         style="font-style:normal;font-variant:normal;font-weight:bold;font-stretch:normal;font-family:Caladea;-inkscape-font-specification:'Caladea Bold';fill:#000080;stroke-width:0;stroke-miterlimit:4;stroke-dasharray:none"
         id="path1355" />
      <path
         d="m 470.04448,848.53574 q 5.52451,0 5.52451,3.93701 0,2.05317 -1.50284,3.15384 -1.50283,1.10066 -4.318,1.10066 -0.46567,0 -1.35467,-0.0635 v 4.48734 q 0.4445,0.44451 1.5875,0.67734 l -0.14817,0.8255 h -5.84201 l 0.0847,-0.86783 q 0.71967,-0.14817 1.2065,-0.63501 v -11.11251 q -0.40216,-0.381 -1.29117,-0.67734 l 0.0847,-0.8255 z m 2.24367,3.97934 q 0,-1.29117 -0.67733,-1.98967 -0.65617,-0.6985 -1.67217,-0.6985 -1.016,0 -1.54517,0.0847 v 5.48217 h 1.37583 q 2.51884,0 2.51884,-2.87867 z"
         style="font-style:normal;font-variant:normal;font-weight:bold;font-stretch:normal;font-family:Caladea;-inkscape-font-specification:'Caladea Bold';fill:#000080;stroke-width:0;stroke-miterlimit:4;stroke-dasharray:none"
         id="path1357" />
    </g>
    <g
       aria-label="⬅"
       id="text5833"
       style="font-style:normal;font-variant:normal;font-weight:bold;font-stretch:normal;font-size:21.1667px;line-height:1.25;font-family:Caladea;-inkscape-font-specification:'Caladea Bold';text-align:center;text-anchor:middle;display:inline;fill:#000080;stroke-width:0;stroke-miterlimit:4;stroke-dasharray:none"
       transform="matrix(0.1,0,0,0.1,10.085623,-63.264447)">
      <path
         d="m 591.6537,853.0731 v 5.47772 h -10.80039 v 1.5813 h -0.63046 l -4.30982,-4.26848 v -0.10336 l 4.30982,-4.26848 h 0.63046 v 1.5813 z"
         style="font-style:normal;font-variant:normal;font-weight:bold;font-stretch:normal;font-family:Caladea;-inkscape-font-specification:'Caladea Bold';fill:#000080;stroke-width:0;stroke-miterlimit:4;stroke-dasharray:none"
         id="path1360" />
    </g>
    <g
       aria-label="2"
       id="text5837"
       style="font-style:normal;font-variant:normal;font-weight:bold;font-stretch:normal;font-size:21.1667px;line-height:1.25;font-family:Caladea;-inkscape-font-specification:'Caladea Bold';text-align:center;text-anchor:middle;display:inline;fill:#000080;stroke-width:0;stroke-miterlimit:4;stroke-dasharray:none"
       transform="matrix(0.1,0,0,0.1,10.085623,-63.264447)">
      <path
         d="m 207.56721,1063.7795 v 2.0744 h -9.58851 v -1.2277 q 3.47133,-3.3443 4.80484,-5.4187 1.3335,-2.0955 1.3335,-4.2968 0,-2.2013 -1.524,-2.2013 -0.67734,0 -1.10067,0.635 -0.42334,0.6138 -0.42334,1.397 0,0.762 0.4445,1.3335 -0.762,0.7196 -1.62983,0.7196 -0.84667,0 -1.35467,-0.4656 -0.508,-0.4869 -0.508,-1.397 0,-1.5029 1.24883,-2.4554 1.27001,-0.9736 3.38668,-0.9736 1.56633,0 2.667,0.5503 2.0955,1.0583 2.0955,3.5137 0,1.6933 -1.29116,3.6195 -1.29117,1.905 -4.25451,4.5931 z"
         style="font-style:normal;font-variant:normal;font-weight:bold;font-stretch:normal;font-family:Caladea;-inkscape-font-specification:'Caladea Bold';fill:#000080;stroke-width:0;stroke-miterlimit:4;stroke-dasharray:none"
         id="path1363" />
    </g>
    <g
       aria-label="3"
       id="text5841"
       style="font-style:normal;font-variant:normal;font-weight:bold;font-stretch:normal;font-size:21.1667px;line-height:1.25;font-family:Caladea;-inkscape-font-specification:'Caladea Bold';text-align:center;text-anchor:middle;display:inline;fill:#000080;stroke-width:0;stroke-miterlimit:4;stroke-dasharray:none"
       transform="matrix(0.1,0,0,0.1,10.085623,-63.264447)">
      <path
         d="m 327.96322,1059.1017 v -1.3123 q 3.1115,-0.254 3.1115,-2.667 0,-2.413 -1.41817,-2.413 -0.78317,0 -1.18533,0.5503 -0.381,0.5503 -0.381,1.2912 0,0.7408 0.29633,1.2911 -0.59267,0.635 -1.48167,0.635 -0.889,0 -1.35467,-0.508 -0.46567,-0.508 -0.46567,-1.4393 0,-0.9313 0.80434,-1.6722 1.41817,-1.3546 3.683,-1.3546 2.28601,0 3.57718,0.9948 1.31233,0.9948 1.31233,2.6035 0,2.4342 -2.77284,3.3232 1.73567,0.381 2.43418,1.2488 0.6985,0.8678 0.6985,2.3495 0,1.905 -1.60867,2.9633 -1.60867,1.0372 -3.61951,1.0372 -1.98967,0 -3.32317,-0.7832 -1.31234,-0.7831 -1.31234,-2.1378 0,-0.7832 0.46567,-1.2065 0.46567,-0.4445 1.16417,-0.4445 0.71967,0 1.4605,0.5715 -0.1905,0.4022 -0.1905,1.0372 0,0.6138 0.40217,1.0371 0.42333,0.4234 1.24883,0.4234 1.82034,0 1.82034,-2.5189 0,-1.3758 -0.889,-2.1378 -0.86784,-0.762 -2.4765,-0.762 z"
         style="font-style:normal;font-variant:normal;font-weight:bold;font-stretch:normal;font-family:Caladea;-inkscape-font-specification:'Caladea Bold';fill:#000080;stroke-width:0;stroke-miterlimit:4;stroke-dasharray:none"
         id="path1366" />
    </g>
    <g
       aria-label="+"
       id="text5845"
       style="font-style:normal;font-variant:normal;font-weight:bold;font-stretch:normal;font-size:21.1667px;line-height:1.25;font-family:Caladea;-inkscape-font-specification:'Caladea Bold';text-align:center;text-anchor:middle;display:inline;fill:#000080;stroke-width:0;stroke-miterlimit:4;stroke-dasharray:none"
       transform="matrix(0.1,0,0,0.1,10.085623,-63.264447)">
      <path
         d="m 452.65605,1060.8162 v -2.0108 h 3.2385 v -3.3232 h 2.11667 v 3.3232 h 3.30201 v 2.0108 h -3.30201 v 3.302 h -2.11667 v -3.302 z"
         style="font-style:normal;font-variant:normal;font-weight:bold;font-stretch:normal;font-family:Caladea;-inkscape-font-specification:'Caladea Bold';fill:#000080;stroke-width:0;stroke-miterlimit:4;stroke-dasharray:none"
         id="path1369" />
    </g>
    <g
       aria-label="-"
       id="text5849"
       style="font-style:normal;font-variant:normal;font-weight:bold;font-stretch:normal;font-size:21.1667px;line-height:1.25;font-family:Caladea;-inkscape-font-specification:'Caladea Bold';text-align:center;text-anchor:middle;display:inline;fill:#000080;stroke-width:0;stroke-miterlimit:4;stroke-dasharray:none"
       transform="matrix(0.1,0,0,0.1,10.085623,-63.264447)">
      <path
         d="m 581.55049,1061.2184 v -2.0109 h 4.8895 v 2.0109 z"
         style="font-style:normal;font-variant:normal;font-weight:bold;font-stretch:normal;font-family:Caladea;-inkscape-font-specification:'Caladea Bold';fill:#000080;stroke-width:0;stroke-miterlimit:4;stroke-dasharray:none"
         id="path1372" />
    </g>
    <g
       aria-label="5"
       id="text5853"
       style="font-style:normal;font-variant:normal;font-weight:bold;font-stretch:normal;font-size:21.1667px;line-height:1.25;font-family:Caladea;-inkscape-font-specification:'Caladea Bold';text-align:center;text-anchor:middle;display:inline;fill:#000080;stroke-width:0;stroke-miterlimit:4;stroke-dasharray:none"
       transform="matrix(0.1,0,0,0.1,10.085623,-63.264447)">
      <path
         d="m 199.5027,950.07222 q 2.81517,0.0635 3.45017,0.0635 0.65617,0 3.83117,-0.0423 l 0.61384,0.4445 -0.1905,1.60867 h -5.84201 v 3.53484 q 1.05833,-0.27516 2.07433,-0.27516 1.92617,0 3.28084,1.143 1.37584,1.12183 1.37584,3.21734 0,2.0955 -1.397,3.38667 -1.39701,1.27 -3.57718,1.27 -2.159,0 -3.47134,-0.78317 -1.29116,-0.80433 -1.29116,-2.032 0,-0.84667 0.46566,-1.29117 0.46567,-0.46567 1.20651,-0.46567 0.74083,0 1.41816,0.5715 -0.1905,0.4445 -0.1905,1.03717 0,0.59267 0.40217,1.03717 0.42334,0.4445 1.27,0.4445 1.90501,0 1.90501,-3.02684 0,-3.02684 -2.18017,-3.02684 -1.22767,0 -2.68817,0.88901 l -1.16417,-1.12184 v -6.01134 z"
         style="font-style:normal;font-variant:normal;font-weight:bold;font-stretch:normal;font-family:Caladea;-inkscape-font-specification:'Caladea Bold';fill:#000080;stroke-width:0;stroke-miterlimit:4;stroke-dasharray:none"
         id="path1375" />
    </g>
    <g
       aria-label="6"
       id="text5857"
       style="font-style:normal;font-variant:normal;font-weight:bold;font-stretch:normal;font-size:21.1667px;line-height:1.25;font-family:Caladea;-inkscape-font-specification:'Caladea Bold';text-align:center;text-anchor:middle;display:inline;fill:#000080;stroke-width:0;stroke-miterlimit:4;stroke-dasharray:none"
       transform="matrix(0.1,0,0,0.1,10.085623,-63.264447)">
      <path
         d="m 330.69372,956.08356 q 2.11667,0 3.32317,1.143 1.22767,1.143 1.22767,3.04801 0,1.88383 -1.41817,3.048 -1.41817,1.16417 -3.81,1.16417 -2.37067,0 -3.72534,-1.397 -1.33351,-1.397 -1.33351,-4.04284 0,-3.32317 2.18017,-5.77851 2.18017,-2.47651 5.86318,-3.42901 l 0.508,1.05834 q -2.3495,1.016 -3.4925,2.24367 -1.14301,1.22767 -1.62984,3.53484 1.18533,-0.59267 2.30717,-0.59267 z m 1.48167,4.25451 q 0,-1.31234 -0.55034,-2.03201 -0.52916,-0.74083 -1.4605,-0.74083 -0.93133,0 -1.98967,0.71967 v 0.27516 q 0,2.30717 0.508,3.38668 0.508,1.0795 1.52401,1.0795 1.9685,0 1.9685,-2.68817 z"
         style="font-style:normal;font-variant:normal;font-weight:bold;font-stretch:normal;font-family:Caladea;-inkscape-font-specification:'Caladea Bold';fill:#000080;stroke-width:0;stroke-miterlimit:4;stroke-dasharray:none"
         id="path1378" />
    </g>
    <g
       aria-label="×"
       id="text5861"
       style="font-style:normal;font-variant:normal;font-weight:bold;font-stretch:normal;font-size:21.1667px;line-height:1.25;font-family:Caladea;-inkscape-font-specification:'Caladea Bold';text-align:center;text-anchor:middle;display:inline;fill:#000080;stroke-width:0;stroke-miterlimit:4;stroke-dasharray:none"
       transform="matrix(0.1,0,0,0.1,10.085623,-63.264447)">
      <path
         d="m 452.33854,954.91939 1.50284,-1.50283 3.17501,3.19617 3.175,-3.17501 1.41817,1.41817 -3.19617,3.17501 3.2385,3.25967 -1.50283,1.50283 -3.23851,-3.25967 -3.13267,3.13267 -1.41817,-1.41817 3.13267,-3.13267 z"
         style="font-style:normal;font-variant:normal;font-weight:bold;font-stretch:normal;font-family:Caladea;-inkscape-font-specification:'Caladea Bold';fill:#000080;stroke-width:0;stroke-miterlimit:4;stroke-dasharray:none"
         id="path1381" />
    </g>
    <g
       aria-label="÷"
       id="text5865"
       style="font-style:normal;font-variant:normal;font-weight:bold;font-stretch:normal;font-size:21.1667px;line-height:1.25;font-family:Caladea;-inkscape-font-specification:'Caladea Bold';text-align:center;text-anchor:middle;display:inline;fill:#000080;stroke-width:0;stroke-miterlimit:4;stroke-dasharray:none"
       transform="matrix(0.1,0,0,0.1,10.085623,-63.264447)">
      <path
         d="m 578.99991,959.21623 v -2.01083 h 9.92718 v 2.01083 z m 3.89467,3.59834 q -0.4445,-0.46567 -0.4445,-1.10067 0,-0.635 0.4445,-1.0795 0.46567,-0.46567 1.10067,-0.46567 0.635,0 1.0795,0.46567 0.46567,0.4445 0.46567,1.0795 0,0.635 -0.46567,1.10067 -0.4445,0.4445 -1.0795,0.4445 -0.635,0 -1.10067,-0.4445 z m 0,-7.00618 q -0.4445,-0.46566 -0.4445,-1.10067 0,-0.635 0.4445,-1.0795 0.46567,-0.46566 1.10067,-0.46566 0.635,0 1.0795,0.46566 0.46567,0.4445 0.46567,1.0795 0,0.63501 -0.46567,1.10067 -0.4445,0.4445 -1.0795,0.4445 -0.635,0 -1.10067,-0.4445 z"
         style="font-style:normal;font-variant:normal;font-weight:bold;font-stretch:normal;font-family:Caladea;-inkscape-font-specification:'Caladea Bold';fill:#000080;stroke-width:0;stroke-miterlimit:4;stroke-dasharray:none"
         id="path1384" />
    </g>
    <g
       aria-label="yx"
       id="text5869"
       style="font-style:normal;font-variant:normal;font-weight:bold;font-stretch:normal;font-size:21.1667px;line-height:1.25;font-family:Caladea;-inkscape-font-specification:'Caladea Bold';text-align:center;text-anchor:middle;display:inline;fill:#000080;stroke-width:0;stroke-miterlimit:4;stroke-dasharray:none"
       transform="matrix(0.1,0,0,0.1,10.085623,-63.264447)">
      <path
         d="m 72.351904,763.23413 q -0.550334,1.3335 -1.227668,1.905 -0.677335,0.5715 -1.73567,0.5715 -1.058335,0 -1.651002,-0.42333 -0.592668,-0.42334 -0.592668,-1.14301 0,-0.6985 0.338667,-1.0795 0.338667,-0.381 0.910168,-0.381 0.592668,0 1.037169,0.508 -0.232834,0.1905 -0.232834,0.635 0,0.65617 0.571501,0.65617 0.359834,0 0.656167,-0.40217 0.317501,-0.40216 0.719668,-1.41817 l 0.635001,-1.60866 h -0.719668 l -3.048004,-8.61485 q -0.254001,-0.6985 -1.312336,-0.889 l 0.04233,-0.74084 H 72.2884 l -0.105833,0.74084 q -0.783168,0.0212 -1.206502,0.40216 l 2.095503,5.90551 2.328337,-5.84201 q -0.486834,-0.3175 -1.375835,-0.46566 l 0.08467,-0.74084 h 3.937007 l -0.08467,0.74084 q -0.931335,0.0423 -1.100669,0.508 z"
         style="font-style:normal;font-variant:normal;font-weight:bold;font-stretch:normal;font-family:Caladea;-inkscape-font-specification:'Caladea Bold';fill:#000080;stroke-width:0;stroke-miterlimit:4;stroke-dasharray:none"
         id="path1387" />
      <path
         d="m 82.337257,751.84432 -1.128185,-1.59597 -1.307044,1.52718 q 0.343959,0.19262 0.784227,0.27517 l -0.08255,0.53657 h -2.531537 l 0.09631,-0.56409 q 0.385234,-0.0275 0.536575,-0.19261 l 1.981204,-2.31141 -1.92617,-2.72415 q -0.151342,-0.20638 -0.632884,-0.31645 l 0.08255,-0.53657 h 3.329522 l -0.09631,0.56409 q -0.371475,0.0413 -0.536576,0.17886 l 1.045635,1.47214 1.128185,-1.40335 q -0.220133,-0.20637 -0.632884,-0.27517 l 0.08255,-0.55033 h 2.462746 l -0.08255,0.56409 q -0.481543,0.0275 -0.646643,0.22014 l -1.788586,2.18758 2.022478,2.83422 q 0.1651,0.23389 0.619126,0.31644 l -0.08255,0.53657 h -3.343281 l 0.110067,-0.56409 q 0.316443,0 0.536575,-0.17886 z"
         style="font-style:normal;font-variant:normal;font-weight:bold;font-stretch:normal;font-size:65%;font-family:Caladea;-inkscape-font-specification:'Caladea Bold';baseline-shift:super;fill:#000080;stroke-width:0;stroke-miterlimit:4;stroke-dasharray:none"
         id="path1389" />
    </g>
    <g
       aria-label="√x"
       id="text5875"
       style="font-style:normal;font-variant:normal;font-weight:bold;font-stretch:normal;font-size:21.1667px;line-height:1.25;font-family:Caladea;-inkscape-font-specification:'Caladea Bold';text-align:center;text-anchor:middle;display:inline;fill:#000080;stroke-width:0;stroke-miterlimit:4;stroke-dasharray:none"
       transform="matrix(0.1,0,0,0.1,10.085623,-63.264447)">
      <path
         d="m 205.50346,744.77676 v 1.27 l -3.048,0.1905 -4.25451,15.68453 h -2.39183 l -2.62468,-6.87918 -2.413,0.6985 -0.46567,-1.35467 5.05884,-1.67216 1.50284,4.1275 3.13267,-12.06502 z"
         style="font-style:normal;font-variant:normal;font-weight:bold;font-stretch:normal;font-family:Caladea;-inkscape-font-specification:'Caladea Bold';fill:#000080;stroke-width:0;stroke-miterlimit:4;stroke-dasharray:none"
         id="path1392" />
      <path
         d="m 212.21328,759.91095 -1.73567,-2.45533 -2.01083,2.3495 q 0.52917,0.29633 1.2065,0.42333 l -0.127,0.82551 h -3.89467 l 0.14816,-0.86784 q 0.59267,-0.0423 0.82551,-0.29633 l 3.048,-3.55601 -2.96334,-4.19101 q -0.23283,-0.3175 -0.97367,-0.48683 l 0.127,-0.8255 h 5.12235 l -0.14817,0.86783 q -0.5715,0.0635 -0.8255,0.27517 l 1.60867,2.26484 1.73567,-2.15901 q -0.33867,-0.3175 -0.97367,-0.42333 l 0.127,-0.84667 h 3.78884 l -0.127,0.86784 q -0.74084,0.0423 -0.99484,0.33866 l -2.75167,3.36551 3.11151,4.36034 q 0.254,0.35983 0.9525,0.48683 l -0.127,0.82551 h -5.14351 l 0.16933,-0.86784 q 0.48684,0 0.8255,-0.27517 z"
         style="font-style:normal;font-variant:normal;font-weight:bold;font-stretch:normal;font-family:Caladea;-inkscape-font-specification:'Caladea Bold';fill:#000080;stroke-width:0;stroke-miterlimit:4;stroke-dasharray:none"
         id="path1394" />
    </g>
    <g
       aria-label="1/x"
       id="text5885"
       style="font-style:normal;font-variant:normal;font-weight:bold;font-stretch:normal;font-size:21.1667px;line-height:1.25;font-family:Caladea;-inkscape-font-specification:'Caladea Bold';text-align:center;text-anchor:middle;display:inline;fill:#000080;stroke-width:0;stroke-miterlimit:4;stroke-dasharray:none"
       transform="matrix(0.1,0,0,0.1,10.085623,-63.264447)">
      <path
         d="m 317.93021,749.26404 h -2.83634 v -1.22767 q 3.15384,-0.23283 5.27051,-1.18533 l 0.6985,0.3175 v 12.23435 q 0.40217,0.23284 1.27001,0.42334 0.86783,0.16933 1.37583,0.21166 l -0.0635,1.016 h -8.63601 l 0.0423,-1.016 q 1.88384,-0.21166 2.87867,-0.635 z"
         style="font-style:normal;font-variant:normal;font-weight:bold;font-stretch:normal;font-family:Caladea;-inkscape-font-specification:'Caladea Bold';fill:#000080;stroke-width:0;stroke-miterlimit:4;stroke-dasharray:none"
         id="path1397" />
      <path
         d="m 328.34421,764.01723 -1.56634,-0.59267 6.56168,-17.18736 1.56634,0.59267 z"
         style="font-style:normal;font-variant:normal;font-weight:bold;font-stretch:normal;font-family:Caladea;-inkscape-font-specification:'Caladea Bold';fill:#000080;stroke-width:0;stroke-miterlimit:4;stroke-dasharray:none"
         id="path1399" />
      <path
         d="m 342.71638,759.91089 -1.73567,-2.45534 -2.01083,2.34951 q 0.52916,0.29633 1.2065,0.42333 l -0.127,0.8255 h -3.89468 l 0.14817,-0.86783 q 0.59267,-0.0423 0.8255,-0.29633 l 3.04801,-3.55601 -2.96334,-4.19101 q -0.23283,-0.3175 -0.97367,-0.48683 l 0.127,-0.8255 h 5.12234 l -0.14816,0.86783 q -0.5715,0.0635 -0.82551,0.27517 l 1.60867,2.26484 1.73567,-2.15901 q -0.33866,-0.3175 -0.97366,-0.42333 l 0.127,-0.84667 h 3.78883 l -0.127,0.86784 q -0.74083,0.0423 -0.99483,0.33866 l -2.75167,3.36551 3.1115,4.36034 q 0.254,0.35983 0.95251,0.48683 l -0.12701,0.8255 h -5.1435 l 0.16933,-0.86783 q 0.48683,0 0.8255,-0.27517 z"
         style="font-style:normal;font-variant:normal;font-weight:bold;font-stretch:normal;font-family:Caladea;-inkscape-font-specification:'Caladea Bold';fill:#000080;stroke-width:0;stroke-miterlimit:4;stroke-dasharray:none"
         id="path1401" />
    </g>
    <g
       aria-label="DROP"
       id="text5889"
       style="font-style:normal;font-variant:normal;font-weight:bold;font-stretch:normal;font-size:21.1667px;line-height:1.25;font-family:Caladea;-inkscape-font-specification:'Caladea Bold';text-align:center;text-anchor:middle;display:inline;fill:#000080;stroke-width:0;stroke-miterlimit:4;stroke-dasharray:none"
       transform="matrix(0.1,0,0,0.1,10.085623,-63.264447)">
      <path
         d="m 434.41036,746.9357 q 4.33917,0 6.30767,1.69334 1.96851,1.69334 1.96851,5.37634 0,3.68301 -1.98967,5.37634 -1.98967,1.67217 -6.41351,1.67217 h -4.48734 l 0.0847,-0.86783 q 0.67734,-0.14817 1.18534,-0.61383 v -11.15486 q -0.381,-0.35983 -1.27,-0.65616 l 0.0847,-0.82551 z m 0.67733,1.31234 h -0.889 v 11.40885 q 0.1905,0.0847 0.8255,0.0847 2.286,0 3.30201,-1.37584 1.03716,-1.37583 1.03716,-4.3815 0,-3.02684 -0.99483,-4.38151 -0.99484,-1.35467 -3.28084,-1.35467 z"
         style="font-style:normal;font-variant:normal;font-weight:bold;font-stretch:normal;font-family:Caladea;-inkscape-font-specification:'Caladea Bold';fill:#000080;stroke-width:0;stroke-miterlimit:4;stroke-dasharray:none"
         id="path1404" />
      <path
         d="m 450.68755,746.9357 q 5.41867,0 5.41867,3.72534 0,2.70934 -2.75167,3.61951 0.67734,0.46567 1.10067,1.397 l 1.5875,3.76767 q 0.21167,0.48684 1.29117,0.74084 l -0.14817,0.86783 h -3.85233 l -2.05317,-5.54567 q -0.27517,-0.67734 -1.14301,-0.80434 -0.35983,0 -0.86783,-0.0423 h -0.23283 v 4.88951 q 0.4445,0.4445 1.5875,0.67733 l -0.14817,0.8255 h -5.84201 l 0.0847,-0.86783 q 0.71967,-0.14817 1.2065,-0.635 v -11.11252 q -0.40217,-0.381 -1.29117,-0.67733 l 0.0847,-0.82551 z m 2.13783,3.76768 q 0,-1.18534 -0.635,-1.82034 -0.635,-0.65617 -1.62983,-0.65617 -0.99484,0 -1.524,0.0847 v 5.05884 h 1.37583 q 2.413,0 2.413,-2.667 z"
         style="font-style:normal;font-variant:normal;font-weight:bold;font-stretch:normal;font-family:Caladea;-inkscape-font-specification:'Caladea Bold';fill:#000080;stroke-width:0;stroke-miterlimit:4;stroke-dasharray:none"
         id="path1406" />
      <path
         d="m 464.72102,747.93054 q -1.48167,0 -2.15901,1.41817 -0.65616,1.397 -0.65616,4.63551 0,3.21733 0.65616,4.6355 0.67734,1.41817 2.15901,1.41817 1.50283,0 2.159,-1.41817 0.65617,-1.41817 0.65617,-4.6355 0,-3.23851 -0.65617,-4.63551 -0.65617,-1.41817 -2.159,-1.41817 z m 0.0212,13.33502 q -3.13267,0 -4.74134,-1.86267 -1.5875,-1.86267 -1.5875,-5.41867 0,-3.57718 1.5875,-5.41868 1.60867,-1.86267 4.74134,-1.86267 3.13268,0 4.72018,1.86267 1.5875,1.8415 1.5875,5.41868 0,3.556 -1.5875,5.41867 -1.5875,1.86267 -4.72018,1.86267 z"
         style="font-style:normal;font-variant:normal;font-weight:bold;font-stretch:normal;font-family:Caladea;-inkscape-font-specification:'Caladea Bold';fill:#000080;stroke-width:0;stroke-miterlimit:4;stroke-dasharray:none"
         id="path1408" />
      <path
         d="m 478.9662,746.9357 q 5.52451,0 5.52451,3.93701 0,2.05317 -1.50284,3.15384 -1.50283,1.10067 -4.318,1.10067 -0.46567,0 -1.35467,-0.0635 v 4.48734 q 0.4445,0.4445 1.5875,0.67733 l -0.14817,0.8255 h -5.84201 l 0.0847,-0.86783 q 0.71967,-0.14817 1.2065,-0.635 v -11.11252 q -0.40217,-0.381 -1.29117,-0.67733 l 0.0847,-0.82551 z m 2.24367,3.97934 q 0,-1.29116 -0.67733,-1.98967 -0.65617,-0.6985 -1.67217,-0.6985 -1.01601,0 -1.54517,0.0847 v 5.48218 h 1.37583 q 2.51884,0 2.51884,-2.87868 z"
         style="font-style:normal;font-variant:normal;font-weight:bold;font-stretch:normal;font-family:Caladea;-inkscape-font-specification:'Caladea Bold';fill:#000080;stroke-width:0;stroke-miterlimit:4;stroke-dasharray:none"
         id="path1410" />
    </g>
    <g
       aria-label="x⇋y"
       id="text5893"
       style="font-style:normal;font-variant:normal;font-weight:bold;font-stretch:normal;font-size:21.1667px;line-height:1.25;font-family:Caladea;-inkscape-font-specification:'Caladea Bold';text-align:center;text-anchor:middle;display:inline;fill:#000080;stroke-width:0;stroke-miterlimit:4;stroke-dasharray:none"
       transform="matrix(0.1,0,0,0.1,10.085623,-63.264447)">
      <path
         d="m 570.61906,759.91095 -1.73566,-2.45533 -2.01084,2.3495 q 0.52917,0.29633 1.2065,0.42333 l -0.127,0.82551 h -3.89467 l 0.14816,-0.86784 q 0.59267,-0.0423 0.82551,-0.29633 l 3.048,-3.55601 -2.96334,-4.19101 q -0.23283,-0.3175 -0.97367,-0.48683 l 0.127,-0.8255 h 5.12235 l -0.14817,0.86783 q -0.5715,0.0635 -0.8255,0.27517 l 1.60867,2.26484 1.73567,-2.15901 q -0.33867,-0.3175 -0.97367,-0.42333 l 0.127,-0.84667 h 3.78884 l -0.127,0.86784 q -0.74084,0.0423 -0.99484,0.33866 l -2.75167,3.36551 3.11151,4.36034 q 0.254,0.35983 0.9525,0.48683 l -0.127,0.82551 h -5.14351 l 0.16933,-0.86784 q 0.48684,0 0.8255,-0.27517 z"
         style="font-style:normal;font-variant:normal;font-weight:bold;font-stretch:normal;font-family:Caladea;-inkscape-font-specification:'Caladea Bold';fill:#000080;stroke-width:0;stroke-miterlimit:4;stroke-dasharray:none"
         id="path1413" />
      <path
         d="m 575.78754,753.28181 v -0.10336 l 5.40536,-5.35368 h 0.53743 l -1.34358,3.18327 h 11.20346 v 2.27377 z m 16.28843,1.86035 v 0.10335 l -5.40536,5.35369 h -0.53744 l 1.34359,-3.18327 h -11.20347 v -2.27377 z"
         style="font-style:normal;font-variant:normal;font-weight:bold;font-stretch:normal;font-family:Caladea;-inkscape-font-specification:'Caladea Bold';fill:#000080;stroke-width:0;stroke-miterlimit:4;stroke-dasharray:none"
         id="path1415" />
      <path
         d="m 598.38745,763.23413 q -0.55033,1.3335 -1.22767,1.905 -0.67733,0.5715 -1.73567,0.5715 -1.05833,0 -1.651,-0.42333 -0.59267,-0.42334 -0.59267,-1.14301 0,-0.6985 0.33867,-1.0795 0.33867,-0.381 0.91017,-0.381 0.59267,0 1.03717,0.508 -0.23284,0.1905 -0.23284,0.635 0,0.65617 0.5715,0.65617 0.35984,0 0.65617,-0.40217 0.3175,-0.40216 0.71967,-1.41817 l 0.635,-1.60866 h -0.71967 l -3.048,-8.61485 q -0.254,-0.6985 -1.31234,-0.889 l 0.0423,-0.74084 h 5.54567 l -0.10583,0.74084 q -0.78317,0.0212 -1.2065,0.40216 l 2.0955,5.90551 2.32834,-5.84201 q -0.48684,-0.3175 -1.37584,-0.46566 l 0.0847,-0.74084 h 3.937 l -0.0847,0.74084 q -0.93134,0.0423 -1.10067,0.508 z"
         style="font-style:normal;font-variant:normal;font-weight:bold;font-stretch:normal;font-family:Caladea;-inkscape-font-specification:'Caladea Bold';fill:#000080;stroke-width:0;stroke-miterlimit:4;stroke-dasharray:none"
         id="path1417" />
    </g>
    <g
       aria-label="sin"
       id="text5897"
       style="font-style:normal;font-variant:normal;font-weight:bold;font-stretch:normal;font-size:21.1667px;line-height:1.25;font-family:Caladea;-inkscape-font-specification:'Caladea Bold';text-align:center;text-anchor:middle;display:inline;fill:#000080;stroke-width:0;stroke-miterlimit:4;stroke-dasharray:none"
       transform="matrix(0.1,0,0,0.1,10.085623,-63.264447)">
      <path
         d="m 66.396134,649.9713 q -0.613834,0 -0.994835,0.40217 -0.381,0.40216 -0.381,1.016 0,0.59266 0.508001,0.99483 0.508,0.381 1.947336,0.889 2.857505,1.016 2.857505,3.17501 0,1.50283 -1.143002,2.3495 -1.143002,0.8255 -3.196172,0.8255 -0.825501,0 -1.98967,-0.33866 -1.143002,-0.35984 -1.756836,-0.78317 v -2.32834 l 2.18017,-0.3175 q 0.02117,0.6985 0.148167,1.48167 0.148167,0.762 0.296334,1.03717 0.613834,0.1905 1.206502,0.1905 0.592667,0 1.016001,-0.40217 0.423334,-0.40217 0.423334,-1.016 0,-1.2065 -1.862669,-1.82034 -1.841503,-0.635 -2.624671,-1.43933 -0.762001,-0.80434 -0.762001,-2.07434 0,-1.29117 1.079501,-2.032 1.100669,-0.762 3.048005,-0.762 0.931335,0 1.86267,0.1905 0.931335,0.16933 1.375835,0.33866 l 0.465668,0.16934 -0.211667,2.64583 h -1.651003 q 0,-1.016 -0.465667,-1.69333 -0.465668,-0.6985 -1.375836,-0.6985 z"
         style="font-style:normal;font-variant:normal;font-weight:bold;font-stretch:normal;font-family:Caladea;-inkscape-font-specification:'Caladea Bold';fill:#000080;stroke-width:0;stroke-miterlimit:4;stroke-dasharray:none"
         id="path1420" />
      <path
         d="m 73.10597,651.96097 q 0,-0.762 -0.296333,-1.03717 -0.275168,-0.29633 -1.016002,-0.33867 l 0.0635,-0.8255 q 0.275167,-0.0635 1.143002,-0.21167 2.05317,-0.3175 2.730504,-0.508 l 0.359834,0.1905 v 8.82652 q 0.529168,0.40216 1.354669,0.5715 l -0.08467,0.8255 h -5.439842 l 0.08467,-0.86784 q 0.698501,-0.14816 1.100668,-0.52916 z m 1.524003,-7.11201 q 1.693336,0 1.693336,1.48167 0,1.48166 -1.693336,1.48166 -1.67217,0 -1.67217,-1.48166 0,-1.48167 1.67217,-1.48167 z"
         style="font-style:normal;font-variant:normal;font-weight:bold;font-stretch:normal;font-family:Caladea;-inkscape-font-specification:'Caladea Bold';fill:#000080;stroke-width:0;stroke-miterlimit:4;stroke-dasharray:none"
         id="path1422" />
      <path
         d="m 85.869473,652.49014 q 0,-2.03201 -1.312336,-2.03201 -0.550334,0 -1.079501,0.3175 -0.508001,0.3175 -0.804335,0.84667 v 6.43468 q 0.486834,0.381 1.270002,0.5715 l -0.08467,0.8255 h -5.355175 l 0.0635,-0.86784 q 0.677335,-0.127 1.121835,-0.52916 v -6.09601 q 0,-0.762 -0.296333,-1.03717 -0.296334,-0.29633 -1.037169,-0.33867 l 0.0635,-0.8255 q 3.175005,-0.59267 3.619506,-0.71967 l 0.381001,0.1905 0.169333,1.22767 q 1.206502,-1.41817 3.111505,-1.41817 1.439336,0 2.286004,0.86784 0.867835,0.86783 0.867835,2.39183 v 5.75735 q 0.529167,0.40216 1.354668,0.5715 l -0.08467,0.8255 h -5.355176 l 0.0635,-0.8255 q 0.635001,-0.127 1.037168,-0.5715 z"
         style="font-style:normal;font-variant:normal;font-weight:bold;font-stretch:normal;font-family:Caladea;-inkscape-font-specification:'Caladea Bold';fill:#000080;stroke-width:0;stroke-miterlimit:4;stroke-dasharray:none"
         id="path1424" />
    </g>
    <g
       aria-label="cos"
       id="text5901"
       style="font-style:normal;font-variant:normal;font-weight:bold;font-stretch:normal;font-size:21.1667px;line-height:1.25;font-family:Caladea;-inkscape-font-specification:'Caladea Bold';text-align:center;text-anchor:middle;display:inline;fill:#000080;stroke-width:0;stroke-miterlimit:4;stroke-dasharray:none"
       transform="matrix(0.1,0,0,0.1,10.085623,-63.264447)">
      <path
         d="m 197.03678,658.01464 q -1.524,1.58751 -3.93701,1.58751 -2.413,0 -3.683,-1.31234 -1.27,-1.31233 -1.27,-3.87351 0,-2.58233 1.27,-3.937 1.29117,-1.37584 3.72534,-1.37584 1.62983,0 2.64584,0.61384 1.03716,0.59266 1.03716,1.54517 0,0.61383 -0.48683,1.03716 -0.46567,0.42334 -1.05834,0.42334 -0.59266,0 -1.016,-0.254 -0.40216,-0.254 -0.52916,-0.635 0.254,-0.381 0.254,-0.80434 0,-0.4445 -0.29634,-0.6985 -0.29633,-0.254 -0.74083,-0.254 -1.69334,0 -1.69334,4.12751 0,2.26483 0.55034,3.21734 0.5715,0.9525 1.905,0.9525 1.3335,0 2.56117,-1.12184 z"
         style="font-style:normal;font-variant:normal;font-weight:bold;font-stretch:normal;font-family:Caladea;-inkscape-font-specification:'Caladea Bold';fill:#000080;stroke-width:0;stroke-miterlimit:4;stroke-dasharray:none"
         id="path1427" />
      <path
         d="m 203.04811,650.2253 q -1.05834,0 -1.524,0.9525 -0.46567,0.9525 -0.46567,3.15384 0,2.18017 0.46567,3.13267 0.46566,0.9525 1.524,0.9525 1.05833,0 1.50283,-0.9525 0.46567,-0.97367 0.46567,-3.15384 0,-2.18017 -0.46567,-3.13267 -0.4445,-0.9525 -1.50283,-0.9525 z m -3.81001,8.02218 q -1.29117,-1.35467 -1.29117,-3.93701 0,-2.58234 1.29117,-3.91584 1.29117,-1.35467 3.81001,-1.35467 2.51884,0 3.78884,1.35467 1.29117,1.3335 1.29117,3.91584 0,2.58234 -1.29117,3.93701 -1.27,1.35467 -3.78884,1.35467 -2.51884,0 -3.81001,-1.35467 z"
         style="font-style:normal;font-variant:normal;font-weight:bold;font-stretch:normal;font-family:Caladea;-inkscape-font-specification:'Caladea Bold';fill:#000080;stroke-width:0;stroke-miterlimit:4;stroke-dasharray:none"
         id="path1429" />
      <path
         d="m 214.03359,649.9713 q -0.61383,0 -0.99483,0.40217 -0.381,0.40216 -0.381,1.016 0,0.59266 0.508,0.99483 0.508,0.381 1.94733,0.889 2.85751,1.016 2.85751,3.17501 0,1.50283 -1.143,2.3495 -1.143,0.8255 -3.19617,0.8255 -0.82551,0 -1.98967,-0.33866 -1.14301,-0.35984 -1.75684,-0.78317 v -2.32834 l 2.18017,-0.3175 q 0.0212,0.6985 0.14817,1.48167 0.14816,0.762 0.29633,1.03717 0.61383,0.1905 1.2065,0.1905 0.59267,0 1.016,-0.40217 0.42334,-0.40217 0.42334,-1.016 0,-1.2065 -1.86267,-1.82034 -1.8415,-0.635 -2.62467,-1.43933 -0.762,-0.80434 -0.762,-2.07434 0,-1.29117 1.0795,-2.032 1.10067,-0.762 3.048,-0.762 0.93134,0 1.86267,0.1905 0.93134,0.16933 1.37584,0.33866 l 0.46567,0.16934 -0.21167,2.64583 h -1.651 q 0,-1.016 -0.46567,-1.69333 -0.46567,-0.6985 -1.37584,-0.6985 z"
         style="font-style:normal;font-variant:normal;font-weight:bold;font-stretch:normal;font-family:Caladea;-inkscape-font-specification:'Caladea Bold';fill:#000080;stroke-width:0;stroke-miterlimit:4;stroke-dasharray:none"
         id="path1431" />
    </g>
    <g
       aria-label="tan"
       id="text5905"
       style="font-style:normal;font-variant:normal;font-weight:bold;font-stretch:normal;font-size:21.1667px;line-height:1.25;font-family:Caladea;-inkscape-font-specification:'Caladea Bold';text-align:center;text-anchor:middle;display:inline;fill:#000080;stroke-width:0;stroke-miterlimit:4;stroke-dasharray:none"
       transform="matrix(0.1,0,0,0.1,10.085623,-63.264447)">
      <path
         d="m 318.35355,659.53859 q -1.14301,0 -1.86267,-0.61384 -0.71967,-0.61383 -0.71967,-1.86267 v -6.35001 h -1.50284 v -0.97367 q 2.20134,-0.8255 3.15384,-2.64583 h 1.37584 v 2.24367 h 2.70934 v 1.37583 h -2.73051 v 6.18068 q 0,1.12183 1.016,1.12183 0.762,0 1.524,-0.52916 l 0.42334,0.74083 q -1.4605,1.31234 -3.38667,1.31234 z"
         style="font-style:normal;font-variant:normal;font-weight:bold;font-stretch:normal;font-family:Caladea;-inkscape-font-specification:'Caladea Bold';fill:#000080;stroke-width:0;stroke-miterlimit:4;stroke-dasharray:none"
         id="path1434" />
      <path
         d="m 325.44439,659.60209 q -1.46051,0 -2.24367,-0.67734 -0.78317,-0.67733 -0.78317,-1.9685 0,-2.81517 4.16984,-3.11151 l 1.86267,-0.127 v -1.22767 q 0,-1.48166 -0.35984,-2.05317 -0.33866,-0.5715 -1.0795,-0.5715 -0.71967,0 -1.12183,0.3175 -0.381,0.29634 -0.381,0.80434 0,0.48683 0.46566,0.84667 -0.10583,0.52916 -0.508,0.84666 -0.40216,0.3175 -1.03717,0.3175 -0.635,0 -1.10066,-0.4445 -0.46567,-0.4445 -0.46567,-1.10066 0,-1.12184 1.05833,-1.75684 1.07951,-0.65617 2.96334,-0.65617 4.55084,0 4.55084,3.34434 v 5.75734 q 0.35984,0.40217 1.27,0.5715 l -0.0847,0.74084 h -3.81001 l -0.21167,-1.2065 q -1.35466,1.35467 -3.15383,1.35467 z m 1.94733,-4.76251 q -1.16417,0.0847 -1.67217,0.52917 -0.508,0.4445 -0.508,1.24883 0,1.60867 1.27,1.60867 0.97367,0 1.96851,-1.16417 v -2.30717 z"
         style="font-style:normal;font-variant:normal;font-weight:bold;font-stretch:normal;font-family:Caladea;-inkscape-font-specification:'Caladea Bold';fill:#000080;stroke-width:0;stroke-miterlimit:4;stroke-dasharray:none"
         id="path1436" />
      <path
         d="m 341.21357,652.49007 q 0,-2.032 -1.31233,-2.032 -0.55033,0 -1.0795,0.3175 -0.508,0.3175 -0.80434,0.84667 v 6.43468 q 0.48684,0.381 1.27001,0.5715 l -0.0847,0.8255 h -5.35518 l 0.0635,-0.86784 q 0.67734,-0.127 1.12184,-0.52916 v -6.09601 q 0,-0.762 -0.29634,-1.03717 -0.29633,-0.29634 -1.03716,-0.33867 l 0.0635,-0.8255 q 3.175,-0.59267 3.6195,-0.71967 l 0.381,0.1905 0.16934,1.22767 q 1.2065,-1.41817 3.1115,-1.41817 1.43934,0 2.28601,0.86784 0.86783,0.86783 0.86783,2.39183 v 5.75735 q 0.52917,0.40216 1.35467,0.5715 l -0.0847,0.8255 h -5.35517 l 0.0635,-0.8255 q 0.635,-0.127 1.03716,-0.5715 z"
         style="font-style:normal;font-variant:normal;font-weight:bold;font-stretch:normal;font-family:Caladea;-inkscape-font-specification:'Caladea Bold';fill:#000080;stroke-width:0;stroke-miterlimit:4;stroke-dasharray:none"
         id="path1438" />
    </g>
    <g
       aria-label="ln"
       id="text5909"
       style="font-style:normal;font-variant:normal;font-weight:bold;font-stretch:normal;font-size:21.1667px;line-height:1.25;font-family:Caladea;-inkscape-font-specification:'Caladea Bold';text-align:center;text-anchor:middle;display:inline;fill:#000080;stroke-width:0;stroke-miterlimit:4;stroke-dasharray:none"
       transform="matrix(0.1,0,0,0.1,10.085623,-63.264447)">
      <path
         d="m 449.10006,647.6429 q 0,-0.78317 -0.29633,-1.05834 -0.27517,-0.29633 -1.016,-0.33866 l 0.0635,-0.8255 q 0.27516,-0.0635 1.143,-0.1905 2.05317,-0.33867 2.7305,-0.52917 l 0.381,0.21167 v 13.14452 q 0.48684,0.40216 1.33351,0.5715 l -0.0635,0.8255 h -5.46101 l 0.0847,-0.86784 q 0.69851,-0.14816 1.10067,-0.52916 z"
         style="font-style:normal;font-variant:normal;font-weight:bold;font-stretch:normal;font-family:Caladea;-inkscape-font-specification:'Caladea Bold';fill:#000080;stroke-width:0;stroke-miterlimit:4;stroke-dasharray:none"
         id="path1441" />
      <path
         d="m 461.94822,652.49007 q 0,-2.032 -1.31233,-2.032 -0.55034,0 -1.07951,0.3175 -0.508,0.3175 -0.80433,0.84667 v 6.43468 q 0.48683,0.381 1.27,0.5715 l -0.0847,0.8255 h -5.35518 l 0.0635,-0.86784 q 0.67733,-0.127 1.12184,-0.52916 v -6.09601 q 0,-0.762 -0.29634,-1.03717 -0.29633,-0.29634 -1.03717,-0.33867 l 0.0635,-0.8255 q 3.17501,-0.59267 3.61951,-0.71967 l 0.381,0.1905 0.16933,1.22767 q 1.2065,-1.41817 3.11151,-1.41817 1.43933,0 2.286,0.86784 0.86784,0.86783 0.86784,2.39183 v 5.75735 q 0.52916,0.40216 1.35467,0.5715 l -0.0847,0.8255 h -5.35518 l 0.0635,-0.8255 q 0.635,-0.127 1.03717,-0.5715 z"
         style="font-style:normal;font-variant:normal;font-weight:bold;font-stretch:normal;font-family:Caladea;-inkscape-font-specification:'Caladea Bold';fill:#000080;stroke-width:0;stroke-miterlimit:4;stroke-dasharray:none"
         id="path1443" />
    </g>
    <g
       aria-label="log"
       id="text5913"
       style="font-style:normal;font-variant:normal;font-weight:bold;font-stretch:normal;font-size:21.1667px;line-height:1.25;font-family:Caladea;-inkscape-font-specification:'Caladea Bold';text-align:center;text-anchor:middle;display:inline;fill:#000080;stroke-width:0;stroke-miterlimit:4;stroke-dasharray:none"
       transform="matrix(0.1,0,0,0.1,10.085623,-63.264447)">
      <path
         d="m 570.96718,647.6429 q 0,-0.78317 -0.29633,-1.05834 -0.27517,-0.29633 -1.016,-0.33866 l 0.0635,-0.8255 q 0.27516,-0.0635 1.143,-0.1905 2.05317,-0.33867 2.7305,-0.52917 l 0.381,0.21167 v 13.14452 q 0.48684,0.40216 1.33351,0.5715 l -0.0635,0.8255 h -5.46101 l 0.0847,-0.86784 q 0.69851,-0.14816 1.10067,-0.52916 z"
         style="font-style:normal;font-variant:normal;font-weight:bold;font-stretch:normal;font-family:Caladea;-inkscape-font-specification:'Caladea Bold';fill:#000080;stroke-width:0;stroke-miterlimit:4;stroke-dasharray:none"
         id="path1446" />
      <path
         d="m 581.76217,650.22524 q -1.05833,0 -1.524,0.9525 -0.46567,0.9525 -0.46567,3.15384 0,2.18017 0.46567,3.13267 0.46567,0.9525 1.524,0.9525 1.05834,0 1.50284,-0.9525 0.46566,-0.97367 0.46566,-3.15384 0,-2.18017 -0.46566,-3.13267 -0.4445,-0.9525 -1.50284,-0.9525 z m -3.81001,8.02218 q -1.29116,-1.35467 -1.29116,-3.93701 0,-2.58234 1.29116,-3.91584 1.29117,-1.35467 3.81001,-1.35467 2.51884,0 3.78884,1.35467 1.29117,1.3335 1.29117,3.91584 0,2.58234 -1.29117,3.93701 -1.27,1.35467 -3.78884,1.35467 -2.51884,0 -3.81001,-1.35467 z"
         style="font-style:normal;font-variant:normal;font-weight:bold;font-stretch:normal;font-family:Caladea;-inkscape-font-specification:'Caladea Bold';fill:#000080;stroke-width:0;stroke-miterlimit:4;stroke-dasharray:none"
         id="path1448" />
      <path
         d="m 588.70481,652.78641 q 0,-1.778 1.14301,-2.75167 1.16416,-0.99484 3.048,-0.99484 1.905,0 3.02684,0.6985 0.29633,-0.254 0.29633,-0.71966 0,-0.46567 -0.59266,-0.76201 0,-0.33866 0.33866,-0.5715 0.35984,-0.23283 0.86784,-0.23283 0.508,0 0.8255,0.3175 0.33867,0.29633 0.33867,0.80433 0,0.50801 -0.381,1.03717 -0.35984,0.508 -0.91017,0.78317 0.78316,0.9525 0.78316,2.49767 0,1.524 -1.18533,2.49767 -1.18534,0.9525 -3.19617,0.9525 h -0.33867 l -0.71967,0.91017 q 0.0635,0.42334 1.22767,0.42334 h 0.889 q 2.09551,0 3.19617,0.8255 1.10067,0.80433 1.10067,2.3495 0,1.56634 -1.29117,2.39184 -1.29116,0.84667 -3.7465,0.84667 -2.45534,0 -3.81001,-0.69851 -1.35467,-0.67733 -1.35467,-1.9685 0,-1.60867 1.65101,-2.70934 -0.3175,-0.508 -0.3175,-1.27 l 1.8415,-1.29117 q -1.29117,-0.35983 -2.01084,-1.22767 -0.71967,-0.889 -0.71967,-2.13783 z m 4.95301,6.66751 h -1.92617 l -0.127,0.127 q -0.59267,0.59267 -0.59267,1.524 0,0.93134 0.59267,1.35467 0.59267,0.4445 1.86267,0.4445 2.54001,0 2.54001,-1.79917 0,-1.651 -2.34951,-1.651 z m -1.9685,-6.62518 q 0,1.4605 0.27517,1.9685 0.29633,0.50801 1.16416,0.50801 0.86784,0 1.20651,-0.52917 0.33866,-0.55034 0.33866,-1.96851 0,-1.43933 -0.381,-2.07433 -0.35983,-0.635 -1.143,-0.635 -0.78317,0 -1.12183,0.635 -0.33867,0.635 -0.33867,2.0955 z"
         style="font-style:normal;font-variant:normal;font-weight:bold;font-stretch:normal;font-family:Caladea;-inkscape-font-specification:'Caladea Bold';fill:#000080;stroke-width:0;stroke-miterlimit:4;stroke-dasharray:none"
         id="path1450" />
    </g>
    <g
       aria-label="SHIFT"
       id="text5917"
       style="font-style:normal;font-variant:normal;font-weight:bold;font-stretch:normal;font-size:21.1667px;line-height:1.25;font-family:Caladea;-inkscape-font-specification:'Caladea Bold';text-align:center;text-anchor:middle;display:inline;fill:#000080;stroke-width:0;stroke-miterlimit:4;stroke-dasharray:none"
       transform="matrix(0.1,0,0,0.1,10.085623,-63.264447)">
      <path
         d="m 50.18249,556.49927 q 0.931335,0.33867 1.778003,0.33867 0.846668,0 1.375835,-0.52917 0.529168,-0.55033 0.529168,-1.31233 0,-0.78317 -0.359834,-1.3335 -0.338667,-0.5715 -0.889002,-0.95251 -0.550334,-0.381 -1.227668,-0.74083 -0.656168,-0.35983 -1.333502,-0.762 -0.656168,-0.42334 -1.206502,-0.889 -0.550334,-0.48684 -0.910168,-1.22767 -0.338668,-0.74084 -0.338668,-1.651 0,-1.67217 1.312336,-2.77284 1.333502,-1.10067 3.344339,-1.10067 0.973668,0 2.222503,0.3175 1.270002,0.29633 2.095503,0.74084 l -0.296333,2.921 q -0.486835,0.14817 -0.783168,0.14817 -0.275167,0 -0.740835,-0.0847 -0.275167,-1.5875 -0.846668,-2.26484 -0.550334,-0.6985 -1.502836,-0.6985 -0.931334,0 -1.460502,0.48684 -0.529167,0.48683 -0.529167,1.18533 0,0.67734 0.465667,1.22767 0.486834,0.52917 1.206502,0.9525 0.719668,0.40217 1.545169,0.9525 0.846668,0.55034 1.566336,1.12184 0.719668,0.55033 1.185335,1.4605 0.486834,0.889 0.486834,1.94734 0,1.86267 -1.375835,2.94217 -1.375836,1.0795 -3.72534,1.0795 -0.994835,0 -2.37067,-0.33867 -1.354669,-0.35983 -1.820336,-0.74083 v -3.21734 q 0.846668,-0.29633 1.926169,-0.35983 0.127001,1.86267 0.677335,3.15383 z"
         style="font-style:normal;font-variant:normal;font-weight:bold;font-stretch:normal;font-family:Caladea;-inkscape-font-specification:'Caladea Bold';fill:#ff6600;stroke-width:0;stroke-miterlimit:4;stroke-dasharray:none"
         id="path1453" />
      <path
         d="m 62.543813,549.95876 h 4.847174 v -4.72017 q -0.550334,-0.46567 -1.460502,-0.635 l 0.105833,-0.86784 h 5.884343 l -0.127,0.82551 q -0.825502,0.254 -1.291169,0.67733 v 11.11252 q 0.486834,0.4445 1.587503,0.67733 l -0.148167,0.8255 h -5.84201 l 0.08467,-0.86783 q 0.698501,-0.127 1.206502,-0.635 v -5.05884 h -4.847174 v 5.05884 q 0.486834,0.4445 1.587502,0.67733 l -0.148167,0.8255 h -5.842009 l 0.08467,-0.86783 q 0.698501,-0.127 1.206502,-0.635 v -11.11252 q -0.444501,-0.381 -1.291169,-0.67733 l 0.08467,-0.82551 h 5.905509 l -0.127,0.86784 q -0.910168,0.16933 -1.460502,0.635 z"
         style="font-style:normal;font-variant:normal;font-weight:bold;font-stretch:normal;font-family:Caladea;-inkscape-font-specification:'Caladea Bold';fill:#ff6600;stroke-width:0;stroke-miterlimit:4;stroke-dasharray:none"
         id="path1455" />
      <path
         d="m 73.29646,544.60359 0.105833,-0.86784 h 6.201844 l -0.127001,0.86784 q -0.910168,0.16933 -1.460502,0.635 v 11.11252 q 0.423334,0.40216 1.587503,0.635 l -0.148167,0.86783 h -6.15951 l 0.08467,-0.86783 q 0.952501,-0.14817 1.524002,-0.635 v -11.11252 q -0.465667,-0.46567 -1.608669,-0.635 z"
         style="font-style:normal;font-variant:normal;font-weight:bold;font-stretch:normal;font-family:Caladea;-inkscape-font-specification:'Caladea Bold';fill:#ff6600;stroke-width:0;stroke-miterlimit:4;stroke-dasharray:none"
         id="path1457" />
      <path
         d="m 91.330453,547.22826 q -0.4445,0.127 -0.825501,0.127 -0.381001,0 -0.762001,-0.0635 -0.317501,-1.4605 -0.910168,-2.26484 h -3.450172 v 5.01651 l 1.968503,-0.14817 q 0.381,-0.0423 0.698501,-0.42333 0.338667,-0.381 0.486834,-0.99484 h 1.100668 v 4.38151 h -1.100668 q -0.296334,-0.84667 -0.571501,-1.18533 -0.275167,-0.33867 -0.635001,-0.381 l -1.947336,-0.16934 v 5.22818 q 0.486834,0.4445 1.587502,0.67733 l -0.148167,0.8255 h -5.842009 l 0.08467,-0.86783 q 0.825501,-0.127 1.206502,-0.52917 v -11.32418 q -0.508001,-0.4445 -1.291169,-0.61384 l 0.0635,-0.78317 h 10.096516 z"
         style="font-style:normal;font-variant:normal;font-weight:bold;font-stretch:normal;font-family:Caladea;-inkscape-font-specification:'Caladea Bold';fill:#ff6600;stroke-width:0;stroke-miterlimit:4;stroke-dasharray:none"
         id="path1459" />
      <path
         d="m 94.103266,547.63043 q -0.381001,0.0635 -0.762001,0.0635 -0.359834,0 -0.698502,-0.0635 v -3.97934 q 3.111505,0.0847 6.921511,0.0847 3.810006,0 4.995346,-0.0847 v 3.97934 q -0.35984,0.0635 -0.71967,0.0635 -0.35984,0 -0.74084,-0.0635 -0.16933,-1.48167 -0.762,-2.43417 -1.05833,-0.14817 -2.18017,-0.16934 v 11.32419 q 0.4445,0.42333 1.5875,0.635 l -0.14816,0.86783 h -6.159512 l 0.08467,-0.86783 q 0.910168,-0.127 1.524002,-0.635 v -11.30302 q -0.465667,0.0212 -2.137837,0.127 -0.762001,1.05833 -0.804334,2.45534 z"
         style="font-style:normal;font-variant:normal;font-weight:bold;font-stretch:normal;font-family:Caladea;-inkscape-font-specification:'Caladea Bold';fill:#ff6600;stroke-width:0;stroke-miterlimit:4;stroke-dasharray:none"
         id="path1461" />
    </g>
    <g
       aria-label="MR"
       id="text5921"
       style="font-style:normal;font-variant:normal;font-weight:bold;font-stretch:normal;font-size:21.1667px;line-height:1.25;font-family:Caladea;-inkscape-font-specification:'Caladea Bold';text-align:center;text-anchor:middle;display:inline;fill:#000080;stroke-width:0;stroke-miterlimit:4;stroke-dasharray:none"
       transform="matrix(0.1,0,0,0.1,10.085623,-63.264447)">
      <path
         d="m 331.45571,557.02844 -0.14817,0.8255 h -5.73618 l 0.0847,-0.86783 q 0.71967,-0.14817 1.18534,-0.635 v -9.24985 l -3.45018,10.75268 h -1.62983 l -3.78884,-10.18118 v 8.67835 q 0.48683,0.4445 1.5875,0.67733 l -0.14817,0.8255 h -4.572 l 0.0847,-0.86783 q 0.6985,-0.127 1.20651,-0.635 v -11.11252 q -0.4445,-0.381 -1.29117,-0.67733 l 0.0847,-0.82551 h 4.78368 l 3.45017,9.52502 2.96334,-9.52502 h 5.16467 l -0.127,0.82551 q -0.8255,0.254 -1.29117,0.67733 v 11.11252 q 0.48684,0.4445 1.58751,0.67733 z"
         style="font-style:normal;font-variant:normal;font-weight:bold;font-stretch:normal;font-family:Caladea;-inkscape-font-specification:'Caladea Bold';fill:#000080;stroke-width:0;stroke-miterlimit:4;stroke-dasharray:none"
         id="path1464" />
      <path
         d="m 338.80052,543.73575 q 5.41868,0 5.41868,3.72534 0,2.70934 -2.75167,3.61951 0.67733,0.46567 1.10067,1.397 l 1.5875,3.76767 q 0.21167,0.48684 1.29117,0.74084 l -0.14817,0.86783 h -3.85234 l -2.05317,-5.54567 q -0.27516,-0.67734 -1.143,-0.80434 -0.35983,0 -0.86783,-0.0423 h -0.23284 v 4.88951 q 0.4445,0.4445 1.5875,0.67733 l -0.14816,0.8255 h -5.84201 l 0.0847,-0.86783 q 0.71966,-0.14817 1.2065,-0.635 v -11.11252 q -0.40217,-0.381 -1.29117,-0.67733 l 0.0847,-0.82551 z m 2.13784,3.76768 q 0,-1.18534 -0.635,-1.82034 -0.635,-0.65617 -1.62984,-0.65617 -0.99483,0 -1.524,0.0847 v 5.05884 h 1.37584 q 2.413,0 2.413,-2.667 z"
         style="font-style:normal;font-variant:normal;font-weight:bold;font-stretch:normal;font-family:Caladea;-inkscape-font-specification:'Caladea Bold';fill:#000080;stroke-width:0;stroke-miterlimit:4;stroke-dasharray:none"
         id="path1466" />
    </g>
    <g
       aria-label="MS"
       id="text5925"
       style="font-style:normal;font-variant:normal;font-weight:bold;font-stretch:normal;font-size:21.1667px;line-height:1.25;font-family:Caladea;-inkscape-font-specification:'Caladea Bold';text-align:center;text-anchor:middle;display:inline;fill:#000080;stroke-width:0;stroke-miterlimit:4;stroke-dasharray:none"
       transform="matrix(0.1,0,0,0.1,10.085623,-63.264447)">
      <path
         d="m 460.03263,557.02844 -0.14817,0.8255 h -5.73617 l 0.0847,-0.86783 q 0.71967,-0.14817 1.18534,-0.635 v -9.24985 l -3.45018,10.75268 h -1.62983 l -3.78884,-10.18118 v 8.67835 q 0.48683,0.4445 1.5875,0.67733 l -0.14816,0.8255 h -4.57201 l 0.0847,-0.86783 q 0.69851,-0.127 1.20651,-0.635 v -11.11252 q -0.4445,-0.381 -1.29117,-0.67733 l 0.0847,-0.82551 h 4.78368 l 3.45017,9.52502 2.96334,-9.52502 h 5.16467 l -0.127,0.82551 q -0.8255,0.254 -1.29116,0.67733 v 11.11252 q 0.48683,0.4445 1.5875,0.67733 z"
         style="font-style:normal;font-variant:normal;font-weight:bold;font-stretch:normal;font-family:Caladea;-inkscape-font-specification:'Caladea Bold';fill:#000080;stroke-width:0;stroke-miterlimit:4;stroke-dasharray:none"
         id="path1469" />
      <path
         d="m 464.07544,556.49927 q 0.93134,0.33867 1.778,0.33867 0.84667,0 1.37584,-0.52917 0.52917,-0.55033 0.52917,-1.31233 0,-0.78317 -0.35984,-1.3335 -0.33866,-0.5715 -0.889,-0.95251 -0.55033,-0.381 -1.22767,-0.74083 -0.65617,-0.35983 -1.3335,-0.762 -0.65617,-0.42334 -1.2065,-0.889 -0.55034,-0.48684 -0.91017,-1.22767 -0.33867,-0.74084 -0.33867,-1.651 0,-1.67217 1.31234,-2.77284 1.3335,-1.10067 3.34434,-1.10067 0.97367,0 2.2225,0.3175 1.27,0.29633 2.0955,0.74084 l -0.29633,2.921 q -0.48683,0.14817 -0.78317,0.14817 -0.27516,0 -0.74083,-0.0847 -0.27517,-1.5875 -0.84667,-2.26484 -0.55033,-0.6985 -1.50284,-0.6985 -0.93133,0 -1.4605,0.48684 -0.52917,0.48683 -0.52917,1.18533 0,0.67734 0.46567,1.22767 0.48684,0.52917 1.2065,0.9525 0.71967,0.40217 1.54517,0.9525 0.84667,0.55034 1.56634,1.12184 0.71967,0.55033 1.18533,1.4605 0.48684,0.889 0.48684,1.94734 0,1.86267 -1.37584,2.94217 -1.37583,1.0795 -3.72534,1.0795 -0.99483,0 -2.37067,-0.33867 -1.35467,-0.35983 -1.82033,-0.74083 v -3.21734 q 0.84666,-0.29633 1.92617,-0.35983 0.127,1.86267 0.67733,3.15383 z"
         style="font-style:normal;font-variant:normal;font-weight:bold;font-stretch:normal;font-family:Caladea;-inkscape-font-specification:'Caladea Bold';fill:#000080;stroke-width:0;stroke-miterlimit:4;stroke-dasharray:none"
         id="path1471" />
    </g>
    <g
       aria-label="M+"
       id="text5929"
       style="font-style:normal;font-variant:normal;font-weight:bold;font-stretch:normal;font-size:21.1667px;line-height:1.25;font-family:Caladea;-inkscape-font-specification:'Caladea Bold';text-align:center;text-anchor:middle;display:inline;fill:#000080;stroke-width:0;stroke-miterlimit:4;stroke-dasharray:none"
       transform="matrix(0.1,0,0,0.1,10.085623,-63.264447)">
      <path
         d="m 586.19654,557.02844 -0.14817,0.8255 h -5.73617 l 0.0847,-0.86783 q 0.71967,-0.14817 1.18534,-0.635 v -9.24985 l -3.45017,10.75268 h -1.62984 l -3.78884,-10.18118 v 8.67835 q 0.48683,0.4445 1.5875,0.67733 l -0.14816,0.8255 h -4.57201 l 0.0847,-0.86783 q 0.6985,-0.127 1.2065,-0.635 v -11.11252 q -0.4445,-0.381 -1.29117,-0.67733 l 0.0847,-0.82551 h 4.78367 l 3.45017,9.52502 2.96334,-9.52502 h 5.16467 l -0.127,0.82551 q -0.8255,0.254 -1.29116,0.67733 v 11.11252 q 0.48683,0.4445 1.5875,0.67733 z"
         style="font-style:normal;font-variant:normal;font-weight:bold;font-stretch:normal;font-family:Caladea;-inkscape-font-specification:'Caladea Bold';fill:#000080;stroke-width:0;stroke-miterlimit:4;stroke-dasharray:none"
         id="path1474" />
      <path
         d="m 588.60951,552.81627 v -2.01084 h 3.23851 v -3.32317 h 2.11667 v 3.32317 h 3.30201 v 2.01084 h -3.30201 v 3.302 h -2.11667 v -3.302 z"
         style="font-style:normal;font-variant:normal;font-weight:bold;font-stretch:normal;font-family:Caladea;-inkscape-font-specification:'Caladea Bold';fill:#000080;stroke-width:0;stroke-miterlimit:4;stroke-dasharray:none"
         id="path1476" />
    </g>
    <g
       aria-label="F1"
       id="text5939"
       style="font-style:normal;font-variant:normal;font-weight:bold;font-stretch:normal;font-size:21.1667px;line-height:1.25;font-family:Caladea;-inkscape-font-specification:'Caladea Bold';text-align:center;text-anchor:middle;display:inline;fill:#000080;stroke-width:0;stroke-miterlimit:4;stroke-dasharray:none"
       transform="matrix(0.1,0,0,0.1,10.085623,-63.264447)">
      <path
         d="m 75.053322,445.62822 q -0.444501,0.127 -0.825501,0.127 -0.381001,0 -0.762001,-0.0635 -0.317501,-1.4605 -0.910169,-2.26483 h -3.450172 v 5.0165 l 1.968503,-0.14816 q 0.381001,-0.0423 0.698502,-0.42334 0.338667,-0.381 0.486834,-0.99483 h 1.100668 v 4.3815 h -1.100668 q -0.296334,-0.84666 -0.571501,-1.18533 -0.275167,-0.33867 -0.635001,-0.381 l -1.947337,-0.16933 v 5.22817 q 0.486834,0.4445 1.587503,0.67733 l -0.148167,0.82551 h -5.842009 l 0.08467,-0.86784 q 0.825502,-0.127 1.206502,-0.52917 v -11.32418 q -0.508,-0.4445 -1.291168,-0.61383 l 0.0635,-0.78317 h 10.096516 z"
         style="font-style:normal;font-variant:normal;font-weight:bold;font-stretch:normal;font-family:Caladea;-inkscape-font-specification:'Caladea Bold';fill:#000080;stroke-width:0;stroke-miterlimit:4;stroke-dasharray:none"
         id="path1479" />
      <path
         d="m 80.662469,444.46405 h -2.836337 v -1.22766 q 3.153838,-0.23284 5.270508,-1.18534 l 0.698501,0.3175 v 12.23435 q 0.402167,0.23284 1.270002,0.42334 0.867835,0.16933 1.375836,0.21166 l -0.0635,1.01601 h -8.636014 l 0.04233,-1.01601 q 1.883837,-0.21166 2.878671,-0.635 z"
         style="font-style:normal;font-variant:normal;font-weight:bold;font-stretch:normal;font-family:Caladea;-inkscape-font-specification:'Caladea Bold';fill:#000080;stroke-width:0;stroke-miterlimit:4;stroke-dasharray:none"
         id="path1481" />
    </g>
    <g
       aria-label="F2"
       id="text5943"
       style="font-style:normal;font-variant:normal;font-weight:bold;font-stretch:normal;font-size:21.1667px;line-height:1.25;font-family:Caladea;-inkscape-font-specification:'Caladea Bold';text-align:center;text-anchor:middle;display:inline;fill:#000080;stroke-width:0;stroke-miterlimit:4;stroke-dasharray:none"
       transform="matrix(0.1,0,0,0.1,10.085623,-63.264447)">
      <path
         d="m 202.0533,445.62822 q -0.4445,0.127 -0.8255,0.127 -0.381,0 -0.762,-0.0635 -0.3175,-1.4605 -0.91017,-2.26483 h -3.45017 v 5.0165 l 1.9685,-0.14816 q 0.381,-0.0423 0.6985,-0.42334 0.33867,-0.381 0.48683,-0.99483 h 1.10067 v 4.3815 h -1.10067 q -0.29633,-0.84666 -0.5715,-1.18533 -0.27516,-0.33867 -0.635,-0.381 l -1.94733,-0.16933 v 5.22817 q 0.48683,0.4445 1.5875,0.67733 l -0.14817,0.82551 h -5.84201 l 0.0847,-0.86784 q 0.8255,-0.127 1.2065,-0.52917 v -11.32418 q -0.508,-0.4445 -1.29117,-0.61383 l 0.0635,-0.78317 h 10.09652 z"
         style="font-style:normal;font-variant:normal;font-weight:bold;font-stretch:normal;font-family:Caladea;-inkscape-font-specification:'Caladea Bold';fill:#000080;stroke-width:0;stroke-miterlimit:4;stroke-dasharray:none"
         id="path1484" />
      <path
         d="m 213.39862,454.17957 v 2.07434 h -9.58851 v -1.22767 q 3.47134,-3.34434 4.80484,-5.41868 1.3335,-2.0955 1.3335,-4.29684 0,-2.20133 -1.524,-2.20133 -0.67734,0 -1.10067,0.635 -0.42333,0.61383 -0.42333,1.397 0,0.762 0.4445,1.3335 -0.76201,0.71967 -1.62984,0.71967 -0.84667,0 -1.35467,-0.46567 -0.508,-0.48683 -0.508,-1.397 0,-1.50284 1.24884,-2.45534 1.27,-0.97367 3.38667,-0.97367 1.56633,0 2.667,0.55034 2.09551,1.05833 2.09551,3.51367 0,1.69334 -1.29117,3.61951 -1.29117,1.905 -4.25451,4.59317 z"
         style="font-style:normal;font-variant:normal;font-weight:bold;font-stretch:normal;font-family:Caladea;-inkscape-font-specification:'Caladea Bold';fill:#000080;stroke-width:0;stroke-miterlimit:4;stroke-dasharray:none"
         id="path1486" />
    </g>
    <g
       aria-label="F4"
       id="text5951"
       style="font-style:normal;font-variant:normal;font-weight:bold;font-stretch:normal;font-size:21.1667px;line-height:1.25;font-family:Caladea;-inkscape-font-specification:'Caladea Bold';text-align:center;text-anchor:middle;display:inline;fill:#000080;stroke-width:0;stroke-miterlimit:4;stroke-dasharray:none"
       transform="matrix(0.1,0,0,0.1,10.085623,-63.264447)">
      <path
         d="m 456.05331,445.62822 q -0.4445,0.127 -0.8255,0.127 -0.381,0 -0.762,-0.0635 -0.3175,-1.4605 -0.91017,-2.26483 h -3.45017 v 5.0165 l 1.9685,-0.14816 q 0.38101,-0.0423 0.69851,-0.42334 0.33866,-0.381 0.48683,-0.99483 h 1.10067 v 4.3815 h -1.10067 q -0.29633,-0.84666 -0.5715,-1.18533 -0.27517,-0.33867 -0.635,-0.381 l -1.94734,-0.16933 v 5.22817 q 0.48684,0.4445 1.5875,0.67733 l -0.14816,0.82551 h -5.84201 l 0.0847,-0.86784 q 0.82551,-0.127 1.20651,-0.52917 v -11.32418 q -0.508,-0.4445 -1.29117,-0.61383 l 0.0635,-0.78317 h 10.09651 z"
         style="font-style:normal;font-variant:normal;font-weight:bold;font-stretch:normal;font-family:Caladea;-inkscape-font-specification:'Caladea Bold';fill:#000080;stroke-width:0;stroke-miterlimit:4;stroke-dasharray:none"
         id="path1494" />
      <path
         d="m 463.33463,452.42273 h -6.09601 l -0.14817,-0.71966 5.96901,-9.56735 h 3.02684 v 8.72068 h 2.01084 v 1.524 h -2.01084 v 2.51884 q 0.65617,0.40216 1.84151,0.5715 l -0.10584,0.78317 h -6.56168 l 0.127,-0.78317 q 1.22767,-0.14817 1.94734,-0.5715 z m 0,-1.524 v -5.79967 l -3.4925,5.79967 z"
         style="font-style:normal;font-variant:normal;font-weight:bold;font-stretch:normal;font-family:Caladea;-inkscape-font-specification:'Caladea Bold';fill:#000080;stroke-width:0;stroke-miterlimit:4;stroke-dasharray:none"
         id="path1496" />
    </g>
    <g
       aria-label="F5"
       id="text5955"
       style="font-style:normal;font-variant:normal;font-weight:bold;font-stretch:normal;font-size:21.1667px;line-height:1.25;font-family:Caladea;-inkscape-font-specification:'Caladea Bold';text-align:center;text-anchor:middle;display:inline;fill:#000080;stroke-width:0;stroke-miterlimit:4;stroke-dasharray:none"
       transform="matrix(0.1,0,0,0.1,10.085623,-63.264447)">
      <path
         d="m 583.05334,445.62822 q -0.4445,0.127 -0.8255,0.127 -0.381,0 -0.762,-0.0635 -0.3175,-1.4605 -0.91017,-2.26483 h -3.45017 v 5.0165 l 1.96851,-0.14816 q 0.381,-0.0423 0.6985,-0.42334 0.33866,-0.381 0.48683,-0.99483 h 1.10067 v 4.3815 h -1.10067 q -0.29633,-0.84666 -0.5715,-1.18533 -0.27517,-0.33867 -0.635,-0.381 l -1.94734,-0.16933 v 5.22817 q 0.48684,0.4445 1.5875,0.67733 l -0.14816,0.82551 h -5.84201 l 0.0847,-0.86784 q 0.8255,-0.127 1.2065,-0.52917 v -11.32418 q -0.508,-0.4445 -1.29117,-0.61383 l 0.0635,-0.78317 h 10.09651 z"
         style="font-style:normal;font-variant:normal;font-weight:bold;font-stretch:normal;font-family:Caladea;-inkscape-font-specification:'Caladea Bold';fill:#000080;stroke-width:0;stroke-miterlimit:4;stroke-dasharray:none"
         id="path1499" />
      <path
         d="m 586.33416,442.07222 q 2.81517,0.0635 3.45017,0.0635 0.65617,0 3.83117,-0.0423 l 0.61383,0.4445 -0.1905,1.60867 h -5.84201 v 3.53484 q 1.05834,-0.27516 2.07434,-0.27516 1.92617,0 3.28084,1.143 1.37584,1.12183 1.37584,3.21734 0,2.0955 -1.39701,3.38667 -1.397,1.27 -3.57717,1.27 -2.159,0 -3.47134,-0.78317 -1.29117,-0.80433 -1.29117,-2.032 0,-0.84667 0.46567,-1.29117 0.46567,-0.46567 1.2065,-0.46567 0.74084,0 1.41817,0.5715 -0.1905,0.4445 -0.1905,1.03717 0,0.59267 0.40217,1.03717 0.42333,0.4445 1.27,0.4445 1.905,0 1.905,-3.02684 0,-3.02684 -2.18017,-3.02684 -1.22766,0 -2.68817,0.88901 l -1.16417,-1.12184 v -6.01134 z"
         style="font-style:normal;font-variant:normal;font-weight:bold;font-stretch:normal;font-family:Caladea;-inkscape-font-specification:'Caladea Bold';fill:#000080;stroke-width:0;stroke-miterlimit:4;stroke-dasharray:none"
         id="path1501" />
    </g>
    <g
       aria-label="ALPHA"
       id="text6011"
       style="font-style:normal;font-variant:normal;font-weight:bold;font-stretch:normal;font-size:21.1667px;line-height:1.25;font-family:Caladea;-inkscape-font-specification:'Caladea Bold';text-align:center;text-anchor:middle;display:inline;fill:#000080;stroke-width:0;stroke-miterlimit:4;stroke-dasharray:none"
       transform="matrix(0.1,0,0,0.1,10.085623,-63.264447)">
      <path
         d="m 178.51599,556.47817 -0.99484,-3.02684 h -4.36034 l -1.016,2.921 q 0.59267,0.48684 1.79917,0.63501 l -0.10584,0.84666 h -4.78367 l 0.127,-0.84666 q 0.97367,-0.0423 1.29117,-0.52917 l 4.50851,-12.74236 h 2.20133 l 4.55084,12.55186 q 0.33867,0.55033 1.29117,0.71967 l -0.10583,0.84666 h -5.79968 l 0.127,-0.84666 q 0.97367,-0.14817 1.27001,-0.52917 z m -3.09034,-9.44035 -1.79917,5.08001 h 3.45017 z"
         style="font-style:normal;font-variant:normal;font-weight:bold;font-stretch:normal;font-family:Caladea;-inkscape-font-specification:'Caladea Bold';fill:#37abc8;stroke-width:0;stroke-miterlimit:4;stroke-dasharray:none"
         id="path1504" />
      <path
         d="m 188.23147,556.54167 h 3.70417 q 0.67734,-1.016 0.99484,-2.68817 0.42333,-0.0635 0.8255,-0.0635 0.40217,0 0.74083,0.0635 l -0.21166,4.0005 H 183.8288 l 0.0847,-0.86783 q 0.8255,-0.127 1.2065,-0.52917 v -11.21835 q -0.33866,-0.29633 -1.31233,-0.635 l 0.10583,-0.86784 h 5.90551 l -0.127,0.86784 q -0.91017,0.16933 -1.4605,0.635 z"
         style="font-style:normal;font-variant:normal;font-weight:bold;font-stretch:normal;font-family:Caladea;-inkscape-font-specification:'Caladea Bold';fill:#37abc8;stroke-width:0;stroke-miterlimit:4;stroke-dasharray:none"
         id="path1506" />
      <path
         d="m 201.56646,543.73581 q 5.52451,0 5.52451,3.93701 0,2.05317 -1.50283,3.15384 -1.50284,1.10067 -4.31801,1.10067 -0.46567,0 -1.35467,-0.0635 v 4.48734 q 0.4445,0.4445 1.5875,0.67733 l -0.14816,0.8255 h -5.84201 l 0.0847,-0.86783 q 0.71967,-0.14817 1.20651,-0.635 v -11.11252 q -0.40217,-0.381 -1.29117,-0.67733 l 0.0847,-0.82551 z m 2.24367,3.97934 q 0,-1.29116 -0.67733,-1.98967 -0.65617,-0.6985 -1.67217,-0.6985 -1.016,0 -1.54517,0.0847 v 5.48218 h 1.37584 q 2.51883,0 2.51883,-2.87868 z"
         style="font-style:normal;font-variant:normal;font-weight:bold;font-stretch:normal;font-family:Caladea;-inkscape-font-specification:'Caladea Bold';fill:#37abc8;stroke-width:0;stroke-miterlimit:4;stroke-dasharray:none"
         id="path1508" />
      <path
         d="m 212.74245,549.95882 h 4.84717 v -4.72017 q -0.55033,-0.46567 -1.4605,-0.635 l 0.10583,-0.86784 h 5.88434 l -0.127,0.82551 q -0.8255,0.254 -1.29116,0.67733 v 11.11252 q 0.48683,0.4445 1.5875,0.67733 l -0.14817,0.8255 h -5.84201 l 0.0847,-0.86783 q 0.6985,-0.127 1.2065,-0.635 v -5.05884 h -4.84717 v 5.05884 q 0.48683,0.4445 1.5875,0.67733 l -0.14817,0.8255 h -5.84201 l 0.0847,-0.86783 q 0.6985,-0.127 1.2065,-0.635 v -11.11252 q -0.4445,-0.381 -1.29117,-0.67733 l 0.0847,-0.82551 h 5.90551 l -0.127,0.86784 q -0.91017,0.16933 -1.4605,0.635 z"
         style="font-style:normal;font-variant:normal;font-weight:bold;font-stretch:normal;font-family:Caladea;-inkscape-font-specification:'Caladea Bold';fill:#37abc8;stroke-width:0;stroke-miterlimit:4;stroke-dasharray:none"
         id="path1510" />
      <path
         d="m 232.25811,556.47817 -0.99484,-3.02684 h -4.36034 l -1.016,2.921 q 0.59267,0.48684 1.79917,0.63501 l -0.10583,0.84666 h -4.78368 l 0.127,-0.84666 q 0.97367,-0.0423 1.29117,-0.52917 l 4.50851,-12.74236 h 2.20134 l 4.55084,12.55186 q 0.33866,0.55033 1.29117,0.71967 l -0.10584,0.84666 h -5.79967 l 0.127,-0.84666 q 0.97366,-0.14817 1.27,-0.52917 z m -3.09034,-9.44035 -1.79917,5.08001 h 3.45017 z"
         style="font-style:normal;font-variant:normal;font-weight:bold;font-stretch:normal;font-family:Caladea;-inkscape-font-specification:'Caladea Bold';fill:#37abc8;stroke-width:0;stroke-miterlimit:4;stroke-dasharray:none"
         id="path1512" />
    </g>
    <g
       aria-label="QUICK"
       id="text6292"
       style="font-weight:bold;font-size:21.1667px;line-height:1.25;font-family:Caladea;-inkscape-font-specification:'Caladea, Bold';text-align:center;text-anchor:middle;display:inline;fill:#000080;stroke-width:0;stroke-miterlimit:4;stroke-dasharray:none"
       transform="matrix(0.1,0,0,0.1,10.085623,-63.264447)">
      <path
         d="m 431.63754,1167.581 q -5.10117,-0.6774 -5.10117,-7.3872 0,-3.3867 1.5875,-5.2282 1.60867,-1.8626 4.74134,-1.8626 3.13267,0 4.72018,1.8626 1.5875,1.8415 1.5875,5.3975 0,6.3289 -4.76251,7.1755 0.74084,2.0532 2.79401,2.8364 0.0212,0.063 0.0212,0.1693 0,0.4445 -0.27516,0.5927 -2.03201,-0.3175 -3.28084,-1.2277 -1.22767,-0.9102 -2.03201,-2.3283 z m 1.20651,-13.2504 q -1.48167,0 -2.15901,1.4182 -0.65617,1.397 -0.65617,4.6355 0,3.2173 0.65617,4.6355 0.67734,1.4182 2.15901,1.4182 1.50283,0 2.159,-1.4182 0.65617,-1.4182 0.65617,-4.6355 0,-3.2385 -0.65617,-4.6355 -0.65617,-1.4182 -2.159,-1.4182 z"
         style="fill:#000080;stroke-width:0;stroke-miterlimit:4;stroke-dasharray:none"
         id="path1515" />
      <path
         d="m 444.97256,1163.0513 q 0,3.1327 2.96334,3.1327 2.7305,0 2.7305,-3.4502 v -7.9375 q -0.40217,-0.3175 -1.60867,-0.5927 l 0.10584,-0.8678 h 5.03767 l -0.127,0.8255 q -0.91017,0.2752 -1.397,0.6773 v 7.4295 q 0,1.9685 -0.508,3.0904 -0.508,1.1006 -1.77801,1.6721 -1.24883,0.5715 -2.89983,0.5715 -5.63035,0 -5.63035,-4.5508 v -8.2127 q -0.4445,-0.4445 -1.60867,-0.635 l 0.10584,-0.8678 h 6.20184 l -0.127,0.8678 q -0.93133,0.1905 -1.4605,0.635 z"
         style="fill:#000080;stroke-width:0;stroke-miterlimit:4;stroke-dasharray:none"
         id="path1517" />
      <path
         d="m 455.04788,1154.2036 0.10583,-0.8678 h 6.20185 l -0.127,0.8678 q -0.91017,0.1694 -1.46051,0.635 v 11.1125 q 0.42334,0.4022 1.58751,0.635 l -0.14817,0.8679 h -6.15951 l 0.0847,-0.8679 q 0.9525,-0.1481 1.524,-0.635 v -11.1125 q -0.46567,-0.4656 -1.60867,-0.635 z"
         style="fill:#000080;stroke-width:0;stroke-miterlimit:4;stroke-dasharray:none"
         id="path1519" />
      <path
         d="m 469.01787,1167.6656 q -2.9845,0 -4.55084,-1.7991 -1.54517,-1.7992 -1.54517,-5.3764 0,-3.5771 1.524,-5.4398 1.54517,-1.8627 4.55084,-1.8627 1.92617,0 3.13268,0.7832 1.2065,0.7832 1.2065,2.0108 0,0.762 -0.48684,1.2912 -0.48683,0.5292 -1.10066,0.5292 -0.61384,0 -1.07951,-0.2752 -0.4445,-0.2752 -0.65616,-0.6985 0.33866,-0.5715 0.33866,-1.1642 0,-0.5926 -0.40216,-0.9736 -0.381,-0.381 -1.03717,-0.381 -2.49767,0 -2.49767,5.9055 0,2.9845 0.78317,4.5085 0.78316,1.5028 2.51883,1.5028 1.73567,0 3.21734,-1.5875 l 0.6985,0.6773 q -0.99483,1.1219 -2.2225,1.7357 -1.2065,0.6138 -2.39184,0.6138 z"
         style="fill:#000080;stroke-width:0;stroke-miterlimit:4;stroke-dasharray:none"
         id="path1521" />
      <path
         d="m 480.70189,1166.6285 -0.14817,0.8255 h -5.84201 l 0.0847,-0.8679 q 0.6985,-0.127 1.2065,-0.635 v -11.1125 q -0.4445,-0.381 -1.29117,-0.6773 l 0.0847,-0.8255 h 5.90551 l -0.127,0.8678 q -0.91017,0.1694 -1.4605,0.635 v 11.1125 q 0.48683,0.4445 1.5875,0.6774 z m 3.15384,-11.4724 q 0.1905,-0.2328 0.1905,-0.4656 0,-0.2329 -0.3175,-0.381 -0.3175,-0.1482 -0.78317,-0.1482 l -0.127,-0.8255 h 5.29167 l -0.127,0.8255 q -1.18533,0.063 -1.86267,0.8255 l -3.64067,4.0428 4.16984,6.8157 q 0.67733,0.5503 1.82034,0.7408 l -0.14817,0.8679 h -4.82601 q -0.0212,-0.6774 -0.381,-1.2277 l -3.70417,-6.1383 z"
         style="fill:#000080;stroke-width:0;stroke-miterlimit:4;stroke-dasharray:none"
         id="path1523" />
    </g>
    <path
       d="m 42.990954,-18.701625 q -0.04445,0.0127 -0.08255,0.0127 -0.0381,0 -0.0762,-0.0063 -0.03175,-0.14605 -0.09102,-0.226483 H 42.39617 v 0.50165 l 0.19685,-0.01482 q 0.0381,-0.0042 0.06985,-0.04233 0.03387,-0.0381 0.04868,-0.09948 h 0.110067 v 0.43815 H 42.71155 q -0.02963,-0.08467 -0.05715,-0.118533 -0.02752,-0.03387 -0.0635,-0.0381 l -0.194734,-0.01693 v 0.522817 q 0.04868,0.04445 0.15875,0.06773 l -0.01482,0.08255 h -0.584201 l 0.0085,-0.08678 q 0.08255,-0.0127 0.120651,-0.05292 v -1.132418 q -0.0508,-0.04445 -0.129117,-0.06138 l 0.0063,-0.07832 h 1.009651 z"
       style="font-style:normal;font-variant:normal;font-weight:bold;font-stretch:normal;font-size:21.1667px;line-height:1.25;font-family:Caladea;-inkscape-font-specification:'Caladea Bold';text-align:center;text-anchor:middle;display:inline;fill:#000080;stroke-width:0;stroke-miterlimit:4;stroke-dasharray:none"
       id="path1489" />
    <path
       d="m 43.465086,-18.314274 v -0.131234 q 0.31115,-0.0254 0.31115,-0.2667 0,-0.2413 -0.141817,-0.2413 -0.07832,0 -0.118533,0.05503 -0.0381,0.05503 -0.0381,0.129117 0,0.07408 0.02963,0.129117 -0.05927,0.0635 -0.148167,0.0635 -0.0889,0 -0.135467,-0.0508 -0.04657,-0.0508 -0.04657,-0.143934 0,-0.09313 0.08043,-0.167217 0.141817,-0.135467 0.368301,-0.135467 0.2286,0 0.357717,0.09948 0.131233,0.09948 0.131233,0.26035 0,0.243417 -0.277283,0.332317 0.173567,0.0381 0.243417,0.124884 0.06985,0.08678 0.06985,0.23495 0,0.190501 -0.160867,0.296334 -0.160867,0.103717 -0.361951,0.103717 -0.198967,0 -0.332317,-0.07832 -0.131233,-0.07832 -0.131233,-0.213783 0,-0.07832 0.04657,-0.120651 0.04657,-0.04445 0.116417,-0.04445 0.07197,0 0.14605,0.05715 -0.01905,0.04022 -0.01905,0.103717 0,0.06138 0.04022,0.103717 0.04233,0.04233 0.124884,0.04233 0.182033,0 0.182033,-0.251883 0,-0.137584 -0.0889,-0.213784 -0.08678,-0.0762 -0.24765,-0.0762 z"
       style="font-style:normal;font-variant:normal;font-weight:bold;font-stretch:normal;font-size:21.1667px;line-height:1.25;font-family:Caladea;-inkscape-font-specification:'Caladea Bold';text-align:center;text-anchor:middle;display:inline;fill:#000080;stroke-width:0;stroke-miterlimit:4;stroke-dasharray:none"
       id="path1491" />
  </g>
</svg>
