<?xml version="1.0" encoding="UTF-8" standalone="no"?>
<svg
   xmlns:dc="http://purl.org/dc/elements/1.1/"
   xmlns:cc="http://creativecommons.org/ns#"
   xmlns:rdf="http://www.w3.org/1999/02/22-rdf-syntax-ns#"
   xmlns:svg="http://www.w3.org/2000/svg"
   xmlns="http://www.w3.org/2000/svg"
   xmlns:sodipodi="http://sodipodi.sourceforge.net/DTD/sodipodi-0.dtd"
   xmlns:inkscape="http://www.inkscape.org/namespaces/inkscape"
   width="54.703827mm"
   height="61.930832mm"
   viewBox="0 0 54.703827 61.930832"
   version="1.1"
   id="svg8358"
   inkscape:version="1.0.2 (e86c870879, 2021-01-15)"
   sodipodi:docname="secondary.svg">
  <defs
     id="defs8352" />
  <sodipodi:namedview
     id="base"
     pagecolor="#ffffff"
     bordercolor="#666666"
     borderopacity="1.0"
     inkscape:pageopacity="0.0"
     inkscape:pageshadow="2"
     inkscape:zoom="0.35"
     inkscape:cx="674.80589"
     inkscape:cy="968.46323"
     inkscape:document-units="mm"
     inkscape:current-layer="layer1"
     inkscape:document-rotation="0"
     showgrid="false"
     inkscape:window-width="956"
     inkscape:window-height="1049"
     inkscape:window-x="960"
     inkscape:window-y="27"
     inkscape:window-maximized="0" />
  <metadata
     id="metadata8355">
    <rdf:RDF>
      <cc:Work
         rdf:about="">
        <dc:format>image/svg+xml</dc:format>
        <dc:type
           rdf:resource="http://purl.org/dc/dcmitype/StillImage" />
        <dc:title></dc:title>
      </cc:Work>
    </rdf:RDF>
  </metadata>
  <g
     inkscape:label="Layer 1"
     inkscape:groupmode="layer"
     id="layer1"
     transform="translate(72.709057,108.07256)">
    <g
       aria-label="sin-1"
       id="text5989"
       style="font-style:normal;font-variant:normal;font-weight:bold;font-stretch:normal;font-size:14.1111px;line-height:1.25;font-family:Caladea;-inkscape-font-specification:'Caladea, Bold';font-variant-ligatures:normal;font-variant-caps:normal;font-variant-numeric:normal;font-variant-east-asian:normal;text-align:center;text-anchor:middle;display:inline;fill:#ff6600;stroke-width:2.64583"
       transform="matrix(0.1,0,0,0.1,-78.564447,-170.52123)">
      <path
         d="m 65.237026,729.33222 q -0.409222,0 -0.663221,0.26811 -0.254,0.26811 -0.254,0.67733 0,0.39511 0.338666,0.66322 0.338667,0.254 1.298221,0.59267 1.904999,0.67733 1.904999,2.11667 0,1.00188 -0.761999,1.56633 -0.762,0.55033 -2.130777,0.55033 -0.550332,0 -1.326443,-0.22578 -0.761999,-0.23989 -1.171221,-0.52211 v -1.55222 l 1.453443,-0.21167 q 0.01411,0.46567 0.09878,0.98778 0.09878,0.508 0.197555,0.69145 0.409222,0.127 0.804333,0.127 0.395111,0 0.677333,-0.26812 0.282222,-0.26811 0.282222,-0.67733 0,-0.80433 -1.241777,-1.21355 -1.227666,-0.42334 -1.749777,-0.95956 -0.507999,-0.53622 -0.507999,-1.38289 0,-0.86077 0.719666,-1.35466 0.733777,-0.508 2.031998,-0.508 0.620889,0 1.241777,0.127 0.620889,0.11289 0.917222,0.22578 l 0.310444,0.11289 -0.141111,1.76388 h -1.100666 q 0,-0.67733 -0.310444,-1.12888 -0.310444,-0.46567 -0.917222,-0.46567 z"
         style="font-style:normal;font-variant:normal;font-weight:bold;font-stretch:normal;font-size:14.1111px;font-family:Caladea;-inkscape-font-specification:'Caladea, Bold';font-variant-ligatures:normal;font-variant-caps:normal;font-variant-numeric:normal;font-variant-east-asian:normal;fill:#ff6600;stroke-width:2.64583"
         id="path1038" />
      <path
         d="m 69.71024,730.65866 q 0,-0.508 -0.197556,-0.69144 -0.183444,-0.19756 -0.677332,-0.22578 l 0.04233,-0.55033 q 0.183444,-0.0423 0.761999,-0.14111 1.368777,-0.21167 1.820332,-0.33867 l 0.239889,0.127 v 5.88433 q 0.352777,0.26811 0.90311,0.381 l -0.05644,0.55033 h -3.626553 l 0.05644,-0.57855 q 0.465666,-0.0988 0.733777,-0.35278 z m 1.015999,-4.74133 q 1.128888,0 1.128888,0.98778 0,0.98778 -1.128888,0.98778 -1.114777,0 -1.114777,-0.98778 0,-0.98778 1.114777,-0.98778 z"
         style="font-style:normal;font-variant:normal;font-weight:bold;font-stretch:normal;font-size:14.1111px;font-family:Caladea;-inkscape-font-specification:'Caladea, Bold';font-variant-ligatures:normal;font-variant-caps:normal;font-variant-numeric:normal;font-variant-east-asian:normal;fill:#ff6600;stroke-width:2.64583"
         id="path1040" />
      <path
         d="m 78.219222,731.01144 q 0,-1.35467 -0.874889,-1.35467 -0.366888,0 -0.719666,0.21167 -0.338666,0.21167 -0.536221,0.56444 v 4.28978 q 0.324555,0.254 0.846666,0.381 l -0.05645,0.55033 h -3.570108 l 0.04233,-0.57855 q 0.451555,-0.0847 0.747888,-0.35278 v -4.064 q 0,-0.508 -0.197555,-0.69144 -0.197555,-0.19756 -0.691444,-0.22578 l 0.04233,-0.55033 q 2.116665,-0.39511 2.412999,-0.47978 l 0.253999,0.127 0.112889,0.81844 q 0.804333,-0.94544 2.074332,-0.94544 0.959555,0 1.523999,0.57856 0.578555,0.57855 0.578555,1.59455 v 3.83822 q 0.352777,0.26811 0.90311,0.381 l -0.05644,0.55033 h -3.570109 l 0.04233,-0.55033 q 0.423333,-0.0847 0.691444,-0.381 z"
         style="font-style:normal;font-variant:normal;font-weight:bold;font-stretch:normal;font-size:14.1111px;font-family:Caladea;-inkscape-font-specification:'Caladea, Bold';font-variant-ligatures:normal;font-variant-caps:normal;font-variant-numeric:normal;font-variant-east-asian:normal;fill:#ff6600;stroke-width:2.64583"
         id="path1042" />
      <path
         d="m 81.849207,727.95448 v -0.89147 h 2.167678 v 0.89147 z"
         style="font-size:9.38389px;baseline-shift:super"
         id="path1044" />
      <path
         d="m 86.775749,724.78272 h -1.257442 v -0.54426 q 1.3982,-0.10322 2.336589,-0.5255 l 0.309668,0.14076 v 5.42389 q 0.178294,0.10322 0.563034,0.18768 0.384739,0.0751 0.609953,0.0938 l -0.02815,0.45043 h -3.828627 l 0.01877,-0.45043 q 0.835167,-0.0938 1.27621,-0.28151 z"
         style="font-size:9.38389px;baseline-shift:super"
         id="path1046" />
    </g>
    <g
       aria-label="cos-1"
       id="text5995"
       style="font-style:normal;font-variant:normal;font-weight:bold;font-stretch:normal;font-size:14.1111px;line-height:1.25;font-family:Caladea;-inkscape-font-specification:'Caladea, Bold';font-variant-ligatures:normal;font-variant-caps:normal;font-variant-numeric:normal;font-variant-east-asian:normal;text-align:center;text-anchor:middle;display:inline;fill:#ff6600;stroke-width:2.64583"
       transform="matrix(0.1,0,0,0.1,-78.564447,-170.52123)">
      <path
         d="m 194.66413,734.69444 q -1.016,1.05833 -2.62467,1.05833 -1.60866,0 -2.45533,-0.87489 -0.84667,-0.87489 -0.84667,-2.58233 0,-1.72155 0.84667,-2.62466 0.86078,-0.91723 2.48355,-0.91723 1.08656,0 1.76389,0.40923 0.69144,0.39511 0.69144,1.03011 0,0.40922 -0.32455,0.69144 -0.31044,0.28222 -0.70556,0.28222 -0.39511,0 -0.67733,-0.16933 -0.26811,-0.16933 -0.35278,-0.42333 0.16934,-0.254 0.16934,-0.53623 0,-0.29633 -0.19756,-0.46566 -0.19755,-0.16934 -0.49389,-0.16934 -1.12888,0 -1.12888,2.75167 0,1.50989 0.36688,2.14489 0.381,0.635 1.27,0.635 0.889,0 1.70745,-0.74789 z"
         style="font-style:normal;font-variant:normal;font-weight:bold;font-stretch:normal;font-size:14.1111px;font-family:Caladea;-inkscape-font-specification:'Caladea, Bold';font-variant-ligatures:normal;font-variant-caps:normal;font-variant-numeric:normal;font-variant-east-asian:normal;baseline-shift:baseline;fill:#ff6600;stroke-width:2.64583"
         id="path1049" />
      <path
         d="m 198.67167,729.50155 q -0.70556,0 -1.016,0.635 -0.31044,0.635 -0.31044,2.10256 0,1.45344 0.31044,2.08844 0.31044,0.635 1.016,0.635 0.70555,0 1.00189,-0.635 0.31044,-0.64911 0.31044,-2.10256 0,-1.45344 -0.31044,-2.08844 -0.29634,-0.635 -1.00189,-0.635 z m -2.54,5.34811 q -0.86078,-0.90311 -0.86078,-2.62467 0,-1.72155 0.86078,-2.61055 0.86078,-0.90311 2.54,-0.90311 1.67922,0 2.52589,0.90311 0.86077,0.889 0.86077,2.61055 0,1.72156 -0.86077,2.62467 -0.84667,0.90311 -2.52589,0.90311 -1.67922,0 -2.54,-0.90311 z"
         style="font-style:normal;font-variant:normal;font-weight:bold;font-stretch:normal;font-size:14.1111px;font-family:Caladea;-inkscape-font-specification:'Caladea, Bold';font-variant-ligatures:normal;font-variant-caps:normal;font-variant-numeric:normal;font-variant-east-asian:normal;baseline-shift:baseline;fill:#ff6600;stroke-width:2.64583"
         id="path1051" />
      <path
         d="m 205.99531,729.33222 q -0.40923,0 -0.66322,0.26811 -0.254,0.26811 -0.254,0.67733 0,0.39511 0.33866,0.66322 0.33867,0.254 1.29822,0.59267 1.905,0.67733 1.905,2.11667 0,1.00188 -0.762,1.56633 -0.762,0.55033 -2.13077,0.55033 -0.55034,0 -1.32645,-0.22578 -0.762,-0.23989 -1.17122,-0.52211 v -1.55222 l 1.45344,-0.21167 q 0.0141,0.46567 0.0988,0.98778 0.0988,0.508 0.19756,0.69145 0.40922,0.127 0.80433,0.127 0.39511,0 0.67733,-0.26812 0.28223,-0.26811 0.28223,-0.67733 0,-0.80433 -1.24178,-1.21355 -1.22767,-0.42334 -1.74978,-0.95956 -0.508,-0.53622 -0.508,-1.38289 0,-0.86077 0.71967,-1.35466 0.73378,-0.508 2.032,-0.508 0.62089,0 1.24177,0.127 0.62089,0.11289 0.91723,0.22578 l 0.31044,0.11289 -0.14111,1.76388 h -1.10067 q 0,-0.67733 -0.31044,-1.12888 -0.31045,-0.46567 -0.91722,-0.46567 z"
         style="font-style:normal;font-variant:normal;font-weight:bold;font-stretch:normal;font-size:14.1111px;font-family:Caladea;-inkscape-font-specification:'Caladea, Bold';font-variant-ligatures:normal;font-variant-caps:normal;font-variant-numeric:normal;font-variant-east-asian:normal;baseline-shift:baseline;fill:#ff6600;stroke-width:2.64583"
         id="path1053" />
      <path
         d="m 209.65353,727.95448 v -0.89147 h 2.16768 v 0.89147 z"
         style="font-size:9.38389px;baseline-shift:super"
         id="path1055" />
      <path
         d="m 214.58008,724.78272 h -1.25745 v -0.54426 q 1.3982,-0.10322 2.33659,-0.5255 l 0.30967,0.14076 v 5.42389 q 0.17829,0.10322 0.56303,0.18768 0.38474,0.0751 0.60996,0.0938 l -0.0281,0.45043 h -3.82863 l 0.0188,-0.45043 q 0.83516,-0.0938 1.27621,-0.28151 z"
         style="font-size:9.38389px;baseline-shift:super"
         id="path1057" />
    </g>
    <g
       aria-label="tan-1"
       id="text6015"
       style="font-style:normal;font-variant:normal;font-weight:bold;font-stretch:normal;font-size:14.1111px;line-height:1.25;font-family:Caladea;-inkscape-font-specification:'Caladea, Bold';font-variant-ligatures:normal;font-variant-caps:normal;font-variant-numeric:normal;font-variant-east-asian:normal;text-align:center;text-anchor:middle;display:inline;fill:#ff6600;stroke-width:2.64583"
       transform="matrix(0.1,0,0,0.1,-78.564447,-170.52123)">
      <path
         d="m 317.87531,735.71044 q -0.762,0 -1.24178,-0.40923 -0.47978,-0.40922 -0.47978,-1.24177 v -4.23333 h -1.00189 V 729.177 q 1.46756,-0.55034 2.10256,-1.76389 h 0.91722 v 1.49578 h 1.80622 v 0.91722 h -1.82033 v 4.12044 q 0,0.74789 0.67733,0.74789 0.508,0 1.016,-0.35278 l 0.28222,0.49389 q -0.97366,0.87489 -2.25777,0.87489 z"
         style="font-style:normal;font-variant:normal;font-weight:bold;font-stretch:normal;font-size:14.1111px;font-family:Caladea;-inkscape-font-specification:'Caladea, Bold';font-variant-ligatures:normal;font-variant-caps:normal;font-variant-numeric:normal;font-variant-east-asian:normal;fill:#ff6600;stroke-width:2.64583"
         id="path1061" />
      <path
         d="m 322.60252,735.75277 q -0.97366,0 -1.49577,-0.45156 -0.52211,-0.45155 -0.52211,-1.31233 0,-1.87677 2.77988,-2.07433 l 1.24178,-0.0847 v -0.81844 q 0,-0.98778 -0.23989,-1.36878 -0.22578,-0.381 -0.71967,-0.381 -0.47977,0 -0.74788,0.21167 -0.254,0.19756 -0.254,0.53622 0,0.32456 0.31044,0.56445 -0.0706,0.35277 -0.33867,0.56444 -0.26811,0.21167 -0.69144,0.21167 -0.42333,0 -0.73378,-0.29634 -0.31044,-0.29633 -0.31044,-0.73377 0,-0.74789 0.70555,-1.17123 0.71967,-0.43744 1.97556,-0.43744 3.03388,0 3.03388,2.22955 v 3.83822 q 0.23989,0.26811 0.84667,0.381 l -0.0564,0.49389 h -2.54 l -0.14111,-0.80433 q -0.90311,0.90311 -2.10256,0.90311 z m 1.29822,-3.175 q -0.77611,0.0565 -1.11477,0.35278 -0.33867,0.29633 -0.33867,0.83255 0,1.07245 0.84667,1.07245 0.64911,0 1.31233,-0.77611 v -1.53811 z"
         style="font-style:normal;font-variant:normal;font-weight:bold;font-stretch:normal;font-size:14.1111px;font-family:Caladea;-inkscape-font-specification:'Caladea, Bold';font-variant-ligatures:normal;font-variant-caps:normal;font-variant-numeric:normal;font-variant-east-asian:normal;fill:#ff6600;stroke-width:2.64583"
         id="path1063" />
      <path
         d="m 333.11529,731.01144 q 0,-1.35467 -0.87489,-1.35467 -0.36689,0 -0.71966,0.21167 -0.33867,0.21167 -0.53623,0.56444 v 4.28978 q 0.32456,0.254 0.84667,0.381 l -0.0564,0.55033 h -3.57011 l 0.0423,-0.57855 q 0.45156,-0.0847 0.74789,-0.35278 v -4.064 q 0,-0.508 -0.19756,-0.69144 -0.19755,-0.19756 -0.69144,-0.22578 l 0.0423,-0.55033 q 2.11667,-0.39511 2.413,-0.47978 l 0.254,0.127 0.11289,0.81844 q 0.80433,-0.94544 2.07433,-0.94544 0.95956,0 1.524,0.57856 0.57856,0.57855 0.57856,1.59455 v 3.83822 q 0.35277,0.26811 0.90311,0.381 l -0.0564,0.55033 h -3.57011 l 0.0423,-0.55033 q 0.42333,-0.0847 0.69144,-0.381 z"
         style="font-style:normal;font-variant:normal;font-weight:bold;font-stretch:normal;font-size:14.1111px;font-family:Caladea;-inkscape-font-specification:'Caladea, Bold';font-variant-ligatures:normal;font-variant-caps:normal;font-variant-numeric:normal;font-variant-east-asian:normal;fill:#ff6600;stroke-width:2.64583"
         id="path1065" />
      <path
         d="m 336.74528,727.95448 v -0.89147 h 2.16767 v 0.89147 z"
         style="font-size:9.38389px;baseline-shift:super"
         id="path1067" />
      <path
         d="m 341.67182,724.78272 h -1.25745 v -0.54426 q 1.3982,-0.10322 2.33659,-0.5255 l 0.30967,0.14076 v 5.42389 q 0.1783,0.10322 0.56303,0.18768 0.38474,0.0751 0.60996,0.0938 l -0.0281,0.45043 h -3.82863 l 0.0188,-0.45043 q 0.83516,-0.0938 1.27621,-0.28151 z"
         style="font-size:9.38389px;baseline-shift:super"
         id="path1069" />
    </g>
    <g
       aria-label="ex"
       id="text6021"
       style="font-style:normal;font-variant:normal;font-weight:bold;font-stretch:normal;font-size:14.1111px;line-height:1.25;font-family:Caladea;-inkscape-font-specification:'Caladea, Bold';font-variant-ligatures:normal;font-variant-caps:normal;font-variant-numeric:normal;font-variant-east-asian:normal;text-align:center;text-anchor:middle;display:inline;fill:#ff6600;stroke-width:2.64583"
       transform="matrix(0.1,0,0,0.1,-78.564447,-170.52123)">
      <path
         d="m 453.41012,732.22499 v 0.22578 q 0,1.18533 0.33867,1.76389 0.33866,0.56444 1.26999,0.56444 1.18534,0 1.94734,-0.77611 l 0.56444,0.55034 q -0.57855,0.57855 -1.21355,0.889 -0.62089,0.31044 -1.63689,0.31044 -1.63689,0 -2.46944,-0.91722 -0.81845,-0.93133 -0.81845,-2.56822 0,-1.651 0.87489,-2.59644 0.87489,-0.95956 2.48355,-0.95956 1.62278,0 2.286,0.73378 0.66322,0.73377 0.74789,2.18722 l -0.39511,0.59266 z m 1.32644,-2.82222 q -1.28411,0 -1.32644,2.25778 l 2.37066,-0.11289 q 0,-1.12889 -0.22577,-1.63689 -0.22578,-0.508 -0.81845,-0.508 z"
         style="font-style:normal;font-variant:normal;font-weight:bold;font-stretch:normal;font-size:14.1111px;font-family:Caladea;-inkscape-font-specification:'Caladea, Bold';font-variant-ligatures:normal;font-variant-caps:normal;font-variant-numeric:normal;font-variant-east-asian:normal;fill:#ff6600;stroke-width:2.64583"
         id="path1072" />
      <path
         d="m 461.23435,729.50282 -0.76948,-1.08853 -0.89147,1.04161 q 0.2346,0.13138 0.53488,0.18768 l -0.0563,0.36597 h -1.72664 l 0.0657,-0.38474 q 0.26275,-0.0188 0.36597,-0.13137 l 1.35128,-1.5765 -1.31374,-1.85801 q -0.10323,-0.14075 -0.43166,-0.21583 l 0.0563,-0.36597 h 2.2709 l -0.0657,0.38474 q -0.25337,0.0282 -0.36598,0.12199 l 0.71318,1.00408 0.76948,-0.95716 q -0.15014,-0.14076 -0.43166,-0.18768 l 0.0563,-0.37535 h 1.67972 l -0.0563,0.38474 q -0.32844,0.0188 -0.44105,0.15014 l -1.2199,1.49204 1.37943,1.93308 q 0.11261,0.15953 0.42227,0.21583 l -0.0563,0.36597 h -2.28028 l 0.0751,-0.38474 q 0.21583,0 0.36597,-0.12199 z"
         style="font-style:normal;font-variant:normal;font-weight:bold;font-stretch:normal;font-size:9.38389px;font-family:Caladea;-inkscape-font-specification:'Caladea, Bold';font-variant-ligatures:normal;font-variant-caps:normal;font-variant-numeric:normal;font-variant-east-asian:normal;baseline-shift:super;fill:#ff6600"
         id="path1074" />
    </g>
    <g
       aria-label="10x"
       id="text6027"
       style="font-style:normal;font-variant:normal;font-weight:bold;font-stretch:normal;font-size:14.1111px;line-height:1.25;font-family:Caladea;-inkscape-font-specification:'Caladea, Bold';font-variant-ligatures:normal;font-variant-caps:normal;font-variant-numeric:normal;font-variant-east-asian:normal;text-align:center;text-anchor:middle;display:inline;fill:#ff6600;stroke-width:2.64583"
       transform="matrix(0.1,0,0,0.1,-78.564447,-170.52123)">
      <path
         d="m 575.33803,727.7941 h -1.89089 v -0.81844 q 2.10256,-0.15522 3.51367,-0.79022 l 0.46566,0.21166 v 8.15623 q 0.26811,0.15522 0.84667,0.28222 0.57855,0.11289 0.91722,0.14111 l -0.0423,0.67733 h -5.75733 l 0.0282,-0.67733 q 1.25589,-0.14111 1.91911,-0.42333 z"
         style="font-style:normal;font-variant:normal;font-weight:bold;font-stretch:normal;font-size:14.1111px;font-family:Caladea;-inkscape-font-specification:'Caladea, Bold';font-variant-ligatures:normal;font-variant-caps:normal;font-variant-numeric:normal;font-variant-east-asian:normal;fill:#ff6600;stroke-width:2.64583"
         id="path1077" />
      <path
         d="m 583.42368,734.04533 q 0.32456,0.93133 1.04422,0.93133 0.71967,0 1.03011,-0.93133 0.32456,-0.94545 0.32456,-3.13267 0,-2.18722 -0.32456,-3.13267 -0.31044,-0.95955 -1.03011,-0.95955 -0.71966,0 -1.04422,0.94544 -0.31044,0.94545 -0.31044,3.14678 0,2.18722 0.31044,3.13267 z m 3.57011,0.46566 q -0.87489,1.24178 -2.52589,1.24178 -1.651,0 -2.54,-1.24178 -0.889,-1.25589 -0.889,-3.58422 0,-2.34244 0.889,-3.58422 0.889,-1.24178 2.54,-1.24178 1.651,0 2.52589,1.24178 0.889,1.22766 0.889,3.57011 0,2.34244 -0.889,3.59833 z"
         style="font-style:normal;font-variant:normal;font-weight:bold;font-stretch:normal;font-size:14.1111px;font-family:Caladea;-inkscape-font-specification:'Caladea, Bold';font-variant-ligatures:normal;font-variant-caps:normal;font-variant-numeric:normal;font-variant-east-asian:normal;fill:#ff6600;stroke-width:2.64583"
         id="path1079" />
      <path
         d="m 593.08978,729.24755 -1.15711,-1.63689 -1.34056,1.56633 q 0.35278,0.19756 0.80433,0.28222 l -0.0847,0.55034 h -2.59645 l 0.0988,-0.57856 q 0.39511,-0.0282 0.55033,-0.19755 l 2.032,-2.37067 -1.97555,-2.794 q -0.15522,-0.21167 -0.64911,-0.32456 l 0.0847,-0.55033 h 3.41489 l -0.0988,0.57856 q -0.381,0.0423 -0.55034,0.18344 l 1.07245,1.50989 1.15711,-1.43933 q -0.22578,-0.21167 -0.64911,-0.28223 l 0.0847,-0.56444 h 2.52589 l -0.0847,0.57856 q -0.49389,0.0282 -0.66323,0.22577 l -1.83444,2.24367 2.07433,2.90689 q 0.16934,0.23989 0.635,0.32455 l -0.0847,0.55034 h -3.429 l 0.11288,-0.57856 q 0.32456,0 0.55034,-0.18344 z"
         style="font-style:normal;font-variant:normal;font-weight:bold;font-stretch:normal;font-size:14.1111px;font-family:Caladea;-inkscape-font-specification:'Caladea, Bold';font-variant-ligatures:normal;font-variant-caps:normal;font-variant-numeric:normal;font-variant-east-asian:normal;baseline-shift:super;fill:#ff6600"
         id="path1081" />
    </g>
    <g
       aria-label="x√y"
       id="text6033"
       style="font-style:normal;font-variant:normal;font-weight:bold;font-stretch:normal;font-size:14.1111px;line-height:1.25;font-family:Caladea;-inkscape-font-specification:'Caladea, Bold';font-variant-ligatures:normal;font-variant-caps:normal;font-variant-numeric:normal;font-variant-east-asian:normal;text-align:center;text-anchor:middle;display:inline;fill:#ff6600;stroke-width:2.64583"
       transform="matrix(0.1,0,0,0.1,-78.564447,-170.52123)">
      <path
         d="m 67.336829,831.1028 -0.769479,-1.08853 -0.891469,1.04161 q 0.234597,0.13137 0.534882,0.18768 l -0.0563,0.36597 h -1.726636 l 0.06569,-0.38474 q 0.262749,-0.0188 0.365971,-0.13138 l 1.351281,-1.57649 -1.313745,-1.85801 q -0.103223,-0.14076 -0.431659,-0.21583 l 0.0563,-0.36597 h 2.270902 l -0.06569,0.38474 q -0.253365,0.0281 -0.365971,0.12199 l 0.713175,1.00407 0.769479,-0.95715 Q 67.693417,827.49 67.4119,827.44308 l 0.0563,-0.37536 h 1.679716 l -0.0563,0.38474 q -0.328436,0.0188 -0.441043,0.15015 l -1.219906,1.49203 1.379432,1.93309 q 0.112607,0.15952 0.422275,0.21583 l -0.0563,0.36597 h -2.280286 l 0.07507,-0.38474 q 0.215829,0 0.365971,-0.12199 z"
         style="font-style:normal;font-variant:normal;font-weight:bold;font-stretch:normal;font-size:9.38389px;font-family:Caladea;-inkscape-font-specification:'Caladea, Bold';font-variant-ligatures:normal;font-variant-caps:normal;font-variant-numeric:normal;font-variant-east-asian:normal;baseline-shift:super;fill:#ff6600"
         id="path1084" />
      <path
         d="m 80.088323,826.40253 v 0.84667 l -2.031998,0.127 -2.836331,10.45632 H 73.62544 l -1.749777,-4.58611 -1.608665,0.46567 -0.310445,-0.90311 3.372553,-1.11478 1.001889,2.75167 2.088442,-8.04333 z"
         style="font-style:normal;font-variant:normal;font-weight:bold;font-stretch:normal;font-size:14.1111px;font-family:Caladea;-inkscape-font-specification:'Caladea, Bold';font-variant-ligatures:normal;font-variant-caps:normal;font-variant-numeric:normal;font-variant-east-asian:normal;fill:#ff6600;stroke-width:2.64583"
         id="path1086" />
      <path
         d="m 83.841861,838.70741 q -0.366889,0.889 -0.818444,1.27 -0.451555,0.381 -1.15711,0.381 -0.705555,0 -1.100666,-0.28222 -0.395111,-0.28222 -0.395111,-0.762 0,-0.46567 0.225778,-0.71967 0.225777,-0.254 0.606777,-0.254 0.395111,0 0.691444,0.33867 -0.155222,0.127 -0.155222,0.42333 0,0.43745 0.380999,0.43745 0.239889,0 0.437444,-0.26812 0.211667,-0.26811 0.479778,-0.94544 l 0.423333,-1.07244 h -0.479778 l -2.031998,-5.74322 q -0.169333,-0.46567 -0.874888,-0.59267 l 0.02822,-0.49389 h 3.697108 l -0.07055,0.49389 q -0.522111,0.0141 -0.804333,0.26811 l 1.396999,3.937 1.552221,-3.89466 q -0.324555,-0.21167 -0.917221,-0.31045 l 0.05644,-0.49389 h 2.624665 l -0.05645,0.49389 q -0.620888,0.0282 -0.733777,0.33867 z"
         style="font-style:normal;font-variant:normal;font-weight:bold;font-stretch:normal;font-size:14.1111px;font-family:Caladea;-inkscape-font-specification:'Caladea, Bold';font-variant-ligatures:normal;font-variant-caps:normal;font-variant-numeric:normal;font-variant-east-asian:normal;fill:#ff6600;stroke-width:2.64583"
         id="path1088" />
    </g>
    <g
       aria-label="x2"
       id="text6039"
       style="font-style:normal;font-variant:normal;font-weight:bold;font-stretch:normal;font-size:14.1111px;line-height:1.25;font-family:Caladea;-inkscape-font-specification:'Caladea, Bold';font-variant-ligatures:normal;font-variant-caps:normal;font-variant-numeric:normal;font-variant-east-asian:normal;text-align:center;text-anchor:middle;display:inline;fill:#ff6600;stroke-width:2.64583"
       transform="matrix(0.1,0,0,0.1,-78.564447,-170.52123)">
      <path
         d="m 200.9584,836.49197 -1.15711,-1.63689 -1.34055,1.56633 q 0.35277,0.19756 0.80433,0.28222 l -0.0847,0.55034 h -2.59644 l 0.0988,-0.57856 q 0.39511,-0.0282 0.55033,-0.19755 l 2.032,-2.37067 -1.97555,-2.794 q -0.15523,-0.21166 -0.64911,-0.32455 l 0.0847,-0.55033 h 3.41489 l -0.0988,0.57855 q -0.381,0.0423 -0.55033,0.18345 l 1.07244,1.50988 1.15711,-1.43933 q -0.22578,-0.21167 -0.64911,-0.28222 l 0.0847,-0.56445 h 2.52588 l -0.0847,0.57856 q -0.49389,0.0282 -0.66322,0.22578 l -1.83445,2.24366 2.07433,2.90689 q 0.16934,0.23989 0.635,0.32455 l -0.0847,0.55034 h -3.429 l 0.11289,-0.57856 q 0.32455,0 0.55033,-0.18344 z"
         style="font-style:normal;font-variant:normal;font-weight:bold;font-stretch:normal;font-size:14.1111px;font-family:Caladea;-inkscape-font-specification:'Caladea, Bold';font-variant-ligatures:normal;font-variant-caps:normal;font-variant-numeric:normal;font-variant-east-asian:normal;fill:#ff6600;stroke-width:2.64583"
         id="path1091" />
      <path
         d="m 208.72628,830.68991 v 0.91962 h -4.2509 v -0.54427 q 1.53896,-1.48265 2.13014,-2.40227 0.59119,-0.92901 0.59119,-1.90493 0,-0.97593 -0.67564,-0.97593 -0.30029,0 -0.48797,0.28152 -0.18767,0.27213 -0.18767,0.61933 0,0.33782 0.19706,0.59119 -0.33782,0.31905 -0.72256,0.31905 -0.37536,0 -0.60057,-0.20644 -0.22522,-0.21583 -0.22522,-0.61934 0,-0.66626 0.55365,-1.08853 0.56304,-0.43166 1.50143,-0.43166 0.6944,0 1.18237,0.24398 0.929,0.4692 0.929,1.55773 0,0.75071 -0.57242,1.60464 -0.57241,0.84455 -1.88616,2.03631 z"
         style="font-style:normal;font-variant:normal;font-weight:bold;font-stretch:normal;font-size:9.38389px;font-family:Caladea;-inkscape-font-specification:'Caladea, Bold';font-variant-ligatures:normal;font-variant-caps:normal;font-variant-numeric:normal;font-variant-east-asian:normal;baseline-shift:super;fill:#ff6600"
         id="path1093" />
    </g>
    <g
       aria-label="%"
       id="text6045"
       style="font-style:normal;font-variant:normal;font-weight:bold;font-stretch:normal;font-size:14.1111px;line-height:1.25;font-family:Caladea;-inkscape-font-specification:'Caladea, Bold';font-variant-ligatures:normal;font-variant-caps:normal;font-variant-numeric:normal;font-variant-east-asian:normal;text-align:center;text-anchor:middle;display:inline;fill:#ff6600;stroke-width:2.64583"
       transform="matrix(0.1,0,0,0.1,-78.564447,-170.52123)">
      <path
         d="m 325.6631,832.54086 q 0.19755,0.53622 0.64911,0.53622 0.45156,0 0.64911,-0.53622 0.21167,-0.55034 0.21167,-1.80623 0,-1.25588 -0.21167,-1.80622 -0.19755,-0.55033 -0.64911,-0.55033 -0.45156,0 -0.64911,0.55033 -0.19756,0.53622 -0.19756,1.80622 0,1.27 0.19756,1.80623 z m 2.37067,0.381 q -0.59267,0.762 -1.72156,0.762 -1.12889,0 -1.73567,-0.762 -0.59266,-0.762 -0.59266,-2.17311 0,-1.42523 0.59266,-2.17312 0.60678,-0.762 1.73567,-0.762 1.12889,0 1.72156,0.762 0.60677,0.74789 0.60677,2.17312 0,1.41111 -0.60677,2.17311 z m 4.99533,3.33022 q 0.19755,0.53622 0.64911,0.53622 0.45156,0 0.64911,-0.53622 0.21167,-0.55033 0.21167,-1.80622 0,-1.25589 -0.21167,-1.80623 -0.19755,-0.55033 -0.64911,-0.55033 -0.45156,0 -0.64911,0.55033 -0.19756,0.53623 -0.19756,1.80623 0,1.27 0.19756,1.80622 z m 2.37066,0.381 q -0.59266,0.762 -1.72155,0.762 -1.12889,0 -1.73567,-0.762 -0.59266,-0.762 -0.59266,-2.17311 0,-1.42522 0.59266,-2.17311 0.60678,-0.762 1.73567,-0.762 1.12889,0 1.72155,0.762 0.60678,0.74789 0.60678,2.17311 0,1.41111 -0.60678,2.17311 z m -7.21077,1.04422 -0.93134,-0.45155 4.52967,-9.62378 0.93133,0.45155 z"
         style="font-style:normal;font-variant:normal;font-weight:bold;font-stretch:normal;font-size:14.1111px;font-family:Caladea;-inkscape-font-specification:'Caladea, Bold';font-variant-ligatures:normal;font-variant-caps:normal;font-variant-numeric:normal;font-variant-east-asian:normal;fill:#ff6600;stroke-width:2.64583"
         id="path1096" />
    </g>
    <g
       aria-label="STACK"
       id="text6049"
       style="font-style:normal;font-variant:normal;font-weight:bold;font-stretch:normal;font-size:14.1111px;line-height:1.25;font-family:Caladea;-inkscape-font-specification:'Caladea, Bold';font-variant-ligatures:normal;font-variant-caps:normal;font-variant-numeric:normal;font-variant-east-asian:normal;text-align:center;text-anchor:middle;display:inline;fill:#ff6600;stroke-width:2.64583"
       transform="matrix(0.1,0,0,0.1,-78.564447,-170.52123)">
      <path
         d="m 438.79898,836.35086 q 0.62089,0.22577 1.18533,0.22577 0.56445,0 0.91723,-0.35277 0.35277,-0.36689 0.35277,-0.87489 0,-0.52211 -0.23989,-0.889 -0.22577,-0.381 -0.59266,-0.635 -0.36689,-0.254 -0.81845,-0.49389 -0.43744,-0.23989 -0.889,-0.508 -0.43744,-0.28222 -0.80433,-0.59267 -0.36689,-0.32455 -0.60678,-0.81844 -0.22578,-0.49389 -0.22578,-1.10067 0,-1.11478 0.87489,-1.84855 0.889,-0.73378 2.22956,-0.73378 0.64911,0 1.48167,0.21166 0.84666,0.19756 1.397,0.49389 l -0.19756,1.94734 q -0.32456,0.0988 -0.52211,0.0988 -0.18345,0 -0.49389,-0.0564 -0.18344,-1.05833 -0.56444,-1.50989 -0.36689,-0.46567 -1.00189,-0.46567 -0.62089,0 -0.97367,0.32456 -0.35278,0.32456 -0.35278,0.79022 0,0.45156 0.31045,0.81845 0.32455,0.35277 0.80433,0.635 0.47978,0.26811 1.03011,0.635 0.56445,0.36689 1.04422,0.74789 0.47978,0.36688 0.79023,0.97366 0.32455,0.59267 0.32455,1.29822 0,1.24178 -0.91722,1.96145 -0.91722,0.71967 -2.48356,0.71967 -0.66322,0 -1.58044,-0.22578 -0.90311,-0.23989 -1.21356,-0.49389 v -2.14489 q 0.56445,-0.19756 1.28411,-0.23989 0.0847,1.24178 0.45156,2.10256 z"
         style="font-style:normal;font-variant:normal;font-weight:bold;font-stretch:normal;font-size:14.1111px;font-family:Caladea;-inkscape-font-specification:'Caladea, Bold';font-variant-ligatures:normal;font-variant-caps:normal;font-variant-numeric:normal;font-variant-east-asian:normal;fill:#ff6600;stroke-width:2.64583"
         id="path1099" />
      <path
         d="m 445.00783,830.4383 q -0.254,0.0423 -0.508,0.0423 -0.23989,0 -0.46566,-0.0423 v -2.65289 q 2.07433,0.0565 4.61433,0.0565 2.54,0 3.33022,-0.0565 v 2.65289 q -0.23989,0.0423 -0.47978,0.0423 -0.23988,0 -0.49388,-0.0423 -0.11289,-0.98778 -0.508,-1.62278 -0.70556,-0.0988 -1.45345,-0.11289 v 7.54945 q 0.29633,0.28222 1.05833,0.42333 l -0.0988,0.57856 h -4.10634 l 0.0564,-0.57856 q 0.60678,-0.0847 1.016,-0.42333 v -7.53533 q -0.31045,0.0141 -1.42522,0.0847 -0.508,0.70556 -0.53623,1.63689 z"
         style="font-style:normal;font-variant:normal;font-weight:bold;font-stretch:normal;font-size:14.1111px;font-family:Caladea;-inkscape-font-specification:'Caladea, Bold';font-variant-ligatures:normal;font-variant-caps:normal;font-variant-numeric:normal;font-variant-east-asian:normal;fill:#ff6600;stroke-width:2.64583"
         id="path1101" />
      <path
         d="m 457.14339,836.33675 -0.66323,-2.01789 h -2.90688 l -0.67734,1.94733 q 0.39511,0.32456 1.19945,0.42333 l -0.0706,0.56445 h -3.18911 l 0.0847,-0.56445 q 0.64911,-0.0282 0.86077,-0.35277 l 3.00567,-8.49489 h 1.46756 l 3.03388,8.36789 q 0.22578,0.36688 0.86078,0.47977 l -0.0705,0.56445 h -3.86645 l 0.0847,-0.56445 q 0.64911,-0.0988 0.84667,-0.35277 z m -2.06023,-6.29356 -1.19944,3.38667 h 2.30011 z"
         style="font-style:normal;font-variant:normal;font-weight:bold;font-stretch:normal;font-size:14.1111px;font-family:Caladea;-inkscape-font-specification:'Caladea, Bold';font-variant-ligatures:normal;font-variant-caps:normal;font-variant-numeric:normal;font-variant-east-asian:normal;fill:#ff6600;stroke-width:2.64583"
         id="path1103" />
      <path
         d="m 464.57989,837.39508 q -1.98966,0 -3.03388,-1.19945 -1.03012,-1.19944 -1.03012,-3.58422 0,-2.38478 1.016,-3.62655 1.03012,-1.24178 3.03389,-1.24178 1.28411,0 2.08845,0.52211 0.80433,0.52211 0.80433,1.34056 0,0.508 -0.32456,0.86077 -0.32455,0.35278 -0.73377,0.35278 -0.40923,0 -0.71967,-0.18344 -0.29633,-0.18345 -0.43744,-0.46567 0.22577,-0.381 0.22577,-0.77611 0,-0.39511 -0.26811,-0.64911 -0.254,-0.254 -0.69144,-0.254 -1.66511,0 -1.66511,3.937 0,1.98966 0.52211,3.00566 0.52211,1.00189 1.67922,1.00189 1.15711,0 2.14489,-1.05833 l 0.46567,0.45156 q -0.66323,0.74788 -1.48167,1.15711 -0.80433,0.40922 -1.59456,0.40922 z"
         style="font-style:normal;font-variant:normal;font-weight:bold;font-stretch:normal;font-size:14.1111px;font-family:Caladea;-inkscape-font-specification:'Caladea, Bold';font-variant-ligatures:normal;font-variant-caps:normal;font-variant-numeric:normal;font-variant-east-asian:normal;fill:#ff6600;stroke-width:2.64583"
         id="path1105" />
      <path
         d="m 472.36923,836.70363 -0.0988,0.55034 h -3.89467 l 0.0564,-0.57856 q 0.46566,-0.0847 0.80433,-0.42333 v -7.40833 q -0.29633,-0.254 -0.86078,-0.45156 l 0.0564,-0.55033 h 3.937 l -0.0847,0.57855 q -0.60678,0.11289 -0.97367,0.42334 v 7.40833 q 0.32456,0.29633 1.05834,0.45155 z m 2.10255,-7.64822 q 0.127,-0.15522 0.127,-0.31044 0,-0.15522 -0.21166,-0.254 -0.21167,-0.0988 -0.52212,-0.0988 l -0.0847,-0.55033 h 3.52778 l -0.0847,0.55033 q -0.79022,0.0423 -1.24178,0.55033 l -2.42711,2.69523 2.77989,4.54377 q 0.45155,0.36689 1.21355,0.49389 l -0.0988,0.57856 h -3.21734 q -0.0141,-0.45156 -0.254,-0.81845 l -2.46944,-4.09222 z"
         style="font-style:normal;font-variant:normal;font-weight:bold;font-stretch:normal;font-size:14.1111px;font-family:Caladea;-inkscape-font-specification:'Caladea, Bold';font-variant-ligatures:normal;font-variant-caps:normal;font-variant-numeric:normal;font-variant-east-asian:normal;fill:#ff6600;stroke-width:2.64583"
         id="path1107" />
    </g>
    <g
       aria-label="LAST x"
       id="text6053"
       style="font-style:normal;font-variant:normal;font-weight:bold;font-stretch:normal;font-size:14.1111px;line-height:1.25;font-family:Caladea;-inkscape-font-specification:'Caladea, Bold';font-variant-ligatures:normal;font-variant-caps:normal;font-variant-numeric:normal;font-variant-east-asian:normal;text-align:center;text-anchor:middle;display:inline;fill:#ff6600;stroke-width:2.64583"
       transform="matrix(0.1,0,0,0.1,-78.564447,-170.52123)">
      <path
         d="m 565.75663,836.37908 h 2.46944 q 0.45155,-0.67733 0.66322,-1.79211 0.28222,-0.0423 0.55033,-0.0423 0.26812,0 0.49389,0.0423 l -0.14111,2.667 h -6.97089 l 0.0565,-0.57856 q 0.55033,-0.0847 0.80433,-0.35278 v -7.47888 q -0.22578,-0.19756 -0.87489,-0.42334 l 0.0706,-0.57855 h 3.937 l -0.0847,0.57855 q -0.60678,0.11289 -0.97366,0.42334 z"
         style="font-style:normal;font-variant:normal;font-weight:bold;font-stretch:normal;font-size:14.1111px;font-family:Caladea;-inkscape-font-specification:'Caladea, Bold';font-variant-ligatures:normal;font-variant-caps:normal;font-variant-numeric:normal;font-variant-east-asian:normal;fill:#ff6600;stroke-width:2.64583"
         id="path1110" />
      <path
         d="m 576.25527,836.33675 -0.66322,-2.01789 h -2.90689 l -0.67733,1.94733 q 0.39511,0.32456 1.19944,0.42333 l -0.0706,0.56445 h -3.18911 l 0.0847,-0.56445 q 0.64911,-0.0282 0.86078,-0.35277 l 3.00567,-8.49489 h 1.46755 l 3.03389,8.36789 q 0.22578,0.36688 0.86078,0.47977 l -0.0706,0.56445 h -3.86644 l 0.0847,-0.56445 q 0.64911,-0.0988 0.84666,-0.35277 z m -2.06022,-6.29356 -1.19944,3.38667 h 2.30011 z"
         style="font-style:normal;font-variant:normal;font-weight:bold;font-stretch:normal;font-size:14.1111px;font-family:Caladea;-inkscape-font-specification:'Caladea, Bold';font-variant-ligatures:normal;font-variant-caps:normal;font-variant-numeric:normal;font-variant-east-asian:normal;fill:#ff6600;stroke-width:2.64583"
         id="path1112" />
      <path
         d="m 581.47634,836.35086 q 0.62089,0.22577 1.18533,0.22577 0.56445,0 0.91723,-0.35277 0.35277,-0.36689 0.35277,-0.87489 0,-0.52211 -0.23989,-0.889 -0.22577,-0.381 -0.59266,-0.635 -0.36689,-0.254 -0.81845,-0.49389 -0.43744,-0.23989 -0.889,-0.508 -0.43744,-0.28222 -0.80433,-0.59267 -0.36689,-0.32455 -0.60678,-0.81844 -0.22578,-0.49389 -0.22578,-1.10067 0,-1.11478 0.87489,-1.84855 0.889,-0.73378 2.22956,-0.73378 0.64911,0 1.48166,0.21166 0.84667,0.19756 1.397,0.49389 l -0.19755,1.94734 q -0.32456,0.0988 -0.52211,0.0988 -0.18345,0 -0.49389,-0.0564 -0.18345,-1.05833 -0.56444,-1.50989 -0.36689,-0.46567 -1.00189,-0.46567 -0.62089,0 -0.97367,0.32456 -0.35278,0.32456 -0.35278,0.79022 0,0.45156 0.31045,0.81845 0.32455,0.35277 0.80433,0.635 0.47978,0.26811 1.03011,0.635 0.56444,0.36689 1.04422,0.74789 0.47978,0.36688 0.79022,0.97366 0.32456,0.59267 0.32456,1.29822 0,1.24178 -0.91722,1.96145 -0.91722,0.71967 -2.48356,0.71967 -0.66322,0 -1.58044,-0.22578 -0.90311,-0.23989 -1.21356,-0.49389 v -2.14489 q 0.56445,-0.19756 1.28411,-0.23989 0.0847,1.24178 0.45156,2.10256 z"
         style="font-style:normal;font-variant:normal;font-weight:bold;font-stretch:normal;font-size:14.1111px;font-family:Caladea;-inkscape-font-specification:'Caladea, Bold';font-variant-ligatures:normal;font-variant-caps:normal;font-variant-numeric:normal;font-variant-east-asian:normal;fill:#ff6600;stroke-width:2.64583"
         id="path1114" />
      <path
         d="m 587.68519,830.4383 q -0.254,0.0423 -0.508,0.0423 -0.23989,0 -0.46566,-0.0423 v -2.65289 q 2.07433,0.0565 4.61433,0.0565 2.54,0 3.33022,-0.0565 v 2.65289 q -0.23989,0.0423 -0.47978,0.0423 -0.23988,0 -0.49388,-0.0423 -0.11289,-0.98778 -0.508,-1.62278 -0.70556,-0.0988 -1.45345,-0.11289 v 7.54945 q 0.29633,0.28222 1.05833,0.42333 l -0.0988,0.57856 h -4.10634 l 0.0564,-0.57856 q 0.60678,-0.0847 1.016,-0.42333 v -7.53533 q -0.31045,0.0141 -1.42522,0.0847 -0.508,0.70556 -0.53623,1.63689 z"
         style="font-style:normal;font-variant:normal;font-weight:bold;font-stretch:normal;font-size:14.1111px;font-family:Caladea;-inkscape-font-specification:'Caladea, Bold';font-variant-ligatures:normal;font-variant-caps:normal;font-variant-numeric:normal;font-variant-east-asian:normal;fill:#ff6600;stroke-width:2.64583"
         id="path1116" />
      <path
         d="m 602.74174,836.49197 -1.15712,-1.63689 -1.34055,1.56633 q 0.35278,0.19756 0.80433,0.28222 l -0.0847,0.55034 h -2.59645 l 0.0988,-0.57856 q 0.39511,-0.0282 0.55033,-0.19755 l 2.032,-2.37067 -1.97555,-2.794 q -0.15522,-0.21167 -0.64911,-0.32456 l 0.0847,-0.55033 h 3.41489 l -0.0988,0.57856 q -0.381,0.0423 -0.55033,0.18344 l 1.07244,1.50989 1.15712,-1.43933 q -0.22578,-0.21167 -0.64912,-0.28223 l 0.0847,-0.56444 h 2.52589 l -0.0847,0.57856 q -0.49389,0.0282 -0.66322,0.22577 l -1.83444,2.24367 2.07433,2.90689 q 0.16933,0.23989 0.635,0.32455 l -0.0847,0.55034 h -3.429 l 0.11289,-0.57856 q 0.32456,0 0.55034,-0.18344 z"
         style="font-style:normal;font-variant:normal;font-weight:bold;font-stretch:normal;font-size:14.1111px;font-family:Caladea;-inkscape-font-specification:'Caladea, Bold';font-variant-ligatures:normal;font-variant-caps:normal;font-variant-numeric:normal;font-variant-east-asian:normal;fill:#ff6600;stroke-width:2.64583"
         id="path1118" />
    </g>
    <g
       aria-label="x3"
       id="text6057"
       style="font-style:normal;font-variant:normal;font-weight:bold;font-stretch:normal;font-size:14.1111px;line-height:1.25;font-family:Caladea;-inkscape-font-specification:'Caladea, Bold';font-variant-ligatures:normal;font-variant-caps:normal;font-variant-numeric:normal;font-variant-east-asian:normal;text-align:center;text-anchor:middle;display:inline;fill:#ff6600;stroke-width:2.64583"
       transform="matrix(0.1,0,0,0.1,-78.564447,-170.52123)">
      <path
         d="m 73.95841,938.09194 -1.157111,-1.63688 -1.340554,1.56633 q 0.352777,0.19755 0.804332,0.28222 l -0.08467,0.55033 h -2.596443 l 0.09878,-0.57855 q 0.395111,-0.0282 0.550333,-0.19756 l 2.031998,-2.37066 -1.975554,-2.794 q -0.155222,-0.21167 -0.64911,-0.32456 l 0.08467,-0.55033 h 3.414887 l -0.09878,0.57856 q -0.381,0.0423 -0.550333,0.18344 l 1.072444,1.50989 1.15711,-1.43933 q -0.225778,-0.21167 -0.649111,-0.28223 l 0.08467,-0.56444 h 2.525887 l -0.08467,0.57856 q -0.493888,0.0282 -0.663221,0.22577 l -1.834443,2.24367 2.074331,2.90688 q 0.169333,0.23989 0.635,0.32456 l -0.08467,0.55033 h -3.428997 l 0.112889,-0.57855 q 0.324555,0 0.550333,-0.18345 z"
         style="font-style:normal;font-variant:normal;font-weight:bold;font-stretch:normal;font-size:14.1111px;font-family:Caladea;-inkscape-font-specification:'Caladea, Bold';font-variant-ligatures:normal;font-variant-caps:normal;font-variant-numeric:normal;font-variant-east-asian:normal;fill:#ff6600;stroke-width:2.64583"
         id="path1121" />
      <path
         d="m 78.798513,930.21604 v -0.5818 q 1.379432,-0.11261 1.379432,-1.18237 0,-1.06976 -0.62872,-1.06976 -0.347204,0 -0.525498,0.24398 -0.16891,0.24398 -0.16891,0.57242 0,0.32843 0.131374,0.57241 -0.262749,0.28152 -0.656872,0.28152 -0.394124,0 -0.600569,-0.22521 -0.206446,-0.22522 -0.206446,-0.63811 0,-0.41289 0.356588,-0.74133 0.628721,-0.60056 1.632797,-0.60056 1.01346,0 1.585877,0.44104 0.581802,0.44104 0.581802,1.15422 0,1.07914 -1.22929,1.47327 0.769479,0.16891 1.079147,0.55365 0.309669,0.38474 0.309669,1.04161 0,0.84455 -0.713176,1.31374 -0.713176,0.45981 -1.604645,0.45981 -0.882086,0 -1.473271,-0.3472 -0.581801,-0.3472 -0.581801,-0.94777 0,-0.34721 0.206446,-0.53488 0.206445,-0.19707 0.516113,-0.19707 0.319053,0 0.647489,0.25337 -0.08446,0.17829 -0.08446,0.45981 0,0.27213 0.178294,0.45981 0.187678,0.18768 0.553649,0.18768 0.807015,0 0.807015,-1.11669 0,-0.60995 -0.394124,-0.94777 -0.384739,-0.33782 -1.097915,-0.33782 z"
         style="font-style:normal;font-variant:normal;font-weight:bold;font-stretch:normal;font-size:9.38389px;font-family:Caladea;-inkscape-font-specification:'Caladea, Bold';font-variant-ligatures:normal;font-variant-caps:normal;font-variant-numeric:normal;font-variant-east-asian:normal;baseline-shift:super;fill:#ff6600"
         id="path1123" />
    </g>
    <g
       aria-label="3√"
       id="text6087"
       style="font-style:normal;font-variant:normal;font-weight:bold;font-stretch:normal;font-size:14.1111px;line-height:1.25;font-family:Caladea;-inkscape-font-specification:'Caladea, Bold';font-variant-ligatures:normal;font-variant-caps:normal;font-variant-numeric:normal;font-variant-east-asian:normal;text-align:center;text-anchor:middle;display:inline;fill:#ff6600;stroke-width:2.64583"
       transform="matrix(0.1,0,0,0.1,-78.564447,-170.52123)">
      <path
         d="m 196.6898,930.21604 v -0.5818 q 1.37943,-0.11261 1.37943,-1.18237 0,-1.06976 -0.62872,-1.06976 -0.3472,0 -0.5255,0.24398 -0.16891,0.24398 -0.16891,0.57242 0,0.32843 0.13138,0.57241 -0.26275,0.28152 -0.65687,0.28152 -0.39413,0 -0.60057,-0.22521 -0.20645,-0.22522 -0.20645,-0.63811 0,-0.41289 0.35659,-0.74133 0.62872,-0.60056 1.6328,-0.60056 1.01346,0 1.58587,0.44104 0.58181,0.44104 0.58181,1.15422 0,1.07914 -1.22929,1.47327 0.76947,0.16891 1.07914,0.55365 0.30967,0.38474 0.30967,1.04161 0,0.84455 -0.71317,1.31374 -0.71318,0.45981 -1.60465,0.45981 -0.88208,0 -1.47327,-0.3472 -0.5818,-0.3472 -0.5818,-0.94777 0,-0.34721 0.20644,-0.53488 0.20645,-0.19707 0.51612,-0.19707 0.31905,0 0.64749,0.25337 -0.0845,0.17829 -0.0845,0.45981 0,0.27213 0.1783,0.45981 0.18767,0.18768 0.55365,0.18768 0.80701,0 0.80701,-1.11669 0,-0.60995 -0.39412,-0.94777 -0.38474,-0.33782 -1.09792,-0.33782 z"
         style="font-style:normal;font-variant:normal;font-weight:bold;font-stretch:normal;font-size:9.38389px;font-family:Caladea;-inkscape-font-specification:'Caladea, Bold';font-variant-ligatures:normal;font-variant-caps:normal;font-variant-numeric:normal;font-variant-east-asian:normal;baseline-shift:super;fill:#ff6600"
         id="path1126" />
      <path
         d="m 211.14916,928.00251 v 0.84666 l -2.032,0.127 -2.83633,10.45633 h -1.59456 l -1.74977,-4.58611 -1.60867,0.46567 -0.31044,-0.90311 3.37255,-1.11478 1.00189,2.75166 2.08844,-8.04332 z"
         style="font-style:normal;font-variant:normal;font-weight:bold;font-stretch:normal;font-size:14.1111px;font-family:Caladea;-inkscape-font-specification:'Caladea, Bold';font-variant-ligatures:normal;font-variant-caps:normal;font-variant-numeric:normal;font-variant-east-asian:normal;fill:#ff6600;stroke-width:2.64583"
         id="path1128" />
    </g>
    <g
       aria-label="UNDO"
       id="text6093"
       style="font-style:normal;font-variant:normal;font-weight:bold;font-stretch:normal;font-size:14.1111px;line-height:1.25;font-family:Caladea;-inkscape-font-specification:'Caladea, Bold';font-variant-ligatures:normal;font-variant-caps:normal;font-variant-numeric:normal;font-variant-east-asian:normal;text-align:center;text-anchor:middle;display:inline;fill:#ff6600;stroke-width:2.64583"
       transform="matrix(0.1,0,0,0.1,-78.564447,-170.52123)">
      <path
         d="m 313.73217,935.91883 q 0,2.08845 1.97556,2.08845 1.82033,0 1.82033,-2.30011 v -5.29167 q -0.26811,-0.21167 -1.07244,-0.39511 l 0.0705,-0.57856 h 3.35845 l -0.0847,0.55034 q -0.60678,0.18344 -0.93133,0.45155 v 4.953 q 0,1.31233 -0.33867,2.06022 -0.33867,0.73378 -1.18533,1.11478 -0.83256,0.381 -1.93322,0.381 -3.75356,0 -3.75356,-3.03389 v -5.47511 q -0.29633,-0.29633 -1.07244,-0.42333 l 0.0706,-0.57856 h 4.13456 l -0.0847,0.57856 q -0.62089,0.127 -0.97367,0.42333 z"
         style="font-style:normal;font-variant:normal;font-weight:bold;font-stretch:normal;font-size:14.1111px;font-family:Caladea;-inkscape-font-specification:'Caladea, Bold';font-variant-ligatures:normal;font-variant-caps:normal;font-variant-numeric:normal;font-variant-east-asian:normal;fill:#ff6600;stroke-width:2.64583"
         id="path1131" />
      <path
         d="m 328.49238,938.85394 h -2.14489 l -3.72533,-6.49111 v 5.48922 q 0.32455,0.29634 1.05833,0.45156 l -0.0988,0.55033 h -3.048 l 0.0565,-0.57855 q 0.46566,-0.0847 0.80433,-0.42334 v -7.40833 q -0.29633,-0.254 -0.86078,-0.45155 l 0.0565,-0.55034 h 2.77988 l 3.89467,6.82978 v -5.82789 q -0.36689,-0.31044 -0.97367,-0.42333 l 0.0706,-0.57856 h 3.07622 l -0.0847,0.55034 q -0.55033,0.16933 -0.86077,0.45155 z"
         style="font-style:normal;font-variant:normal;font-weight:bold;font-stretch:normal;font-size:14.1111px;font-family:Caladea;-inkscape-font-specification:'Caladea, Bold';font-variant-ligatures:normal;font-variant-caps:normal;font-variant-numeric:normal;font-variant-east-asian:normal;fill:#ff6600;stroke-width:2.64583"
         id="path1133" />
      <path
         d="m 333.34658,929.44183 q 2.89278,0 4.20512,1.12889 1.31233,1.12889 1.31233,3.58422 0,2.45534 -1.32645,3.58423 -1.32644,1.11477 -4.27566,1.11477 h -2.99156 l 0.0565,-0.57855 q 0.45155,-0.0988 0.79022,-0.40922 v -7.43656 q -0.254,-0.23989 -0.84667,-0.43744 l 0.0565,-0.55034 z m 0.45156,0.87489 h -0.59267 v 7.60589 q 0.127,0.0564 0.55034,0.0564 1.524,0 2.20133,-0.91722 0.69144,-0.91722 0.69144,-2.921 0,-2.01789 -0.66322,-2.921 -0.66322,-0.90311 -2.18722,-0.90311 z"
         style="font-style:normal;font-variant:normal;font-weight:bold;font-stretch:normal;font-size:14.1111px;font-family:Caladea;-inkscape-font-specification:'Caladea, Bold';font-variant-ligatures:normal;font-variant-caps:normal;font-variant-numeric:normal;font-variant-east-asian:normal;fill:#ff6600;stroke-width:2.64583"
         id="path1135" />
      <path
         d="m 344.52258,930.10505 q -0.98778,0 -1.43933,0.94545 -0.43745,0.93133 -0.43745,3.09033 0,2.14489 0.43745,3.09034 0.45155,0.94544 1.43933,0.94544 1.00189,0 1.43933,-0.94544 0.43745,-0.94545 0.43745,-3.09034 0,-2.159 -0.43745,-3.09033 -0.43744,-0.94545 -1.43933,-0.94545 z m 0.0141,8.89 q -2.08844,0 -3.16089,-1.24177 -1.05833,-1.24178 -1.05833,-3.61245 0,-2.38478 1.05833,-3.61244 1.07245,-1.24178 3.16089,-1.24178 2.08845,0 3.14678,1.24178 1.05833,1.22766 1.05833,3.61244 0,2.37067 -1.05833,3.61245 -1.05833,1.24177 -3.14678,1.24177 z"
         style="font-style:normal;font-variant:normal;font-weight:bold;font-stretch:normal;font-size:14.1111px;font-family:Caladea;-inkscape-font-specification:'Caladea, Bold';font-variant-ligatures:normal;font-variant-caps:normal;font-variant-numeric:normal;font-variant-east-asian:normal;fill:#ff6600;stroke-width:2.64583"
         id="path1137" />
    </g>
    <g
       aria-label="MOD"
       id="text6097"
       style="font-style:normal;font-variant:normal;font-weight:bold;font-stretch:normal;font-size:14.1111px;line-height:1.25;font-family:Caladea;-inkscape-font-specification:'Caladea, Bold';font-variant-ligatures:normal;font-variant-caps:normal;font-variant-numeric:normal;font-variant-east-asian:normal;text-align:center;text-anchor:middle;display:inline;fill:#ff6600;stroke-width:2.64583"
       transform="matrix(0.1,0,0,0.1,-78.564447,-170.52123)">
      <path
         d="m 452.76189,938.30361 -0.0988,0.55033 H 448.839 l 0.0564,-0.57855 q 0.47978,-0.0988 0.79023,-0.42334 v -6.16655 l -2.30012,7.16844 H 446.299 l -2.52589,-6.78744 v 5.78555 q 0.32456,0.29634 1.05833,0.45156 l -0.0988,0.55033 h -3.048 l 0.0564,-0.57855 q 0.46567,-0.0847 0.80433,-0.42334 v -7.40833 q -0.29633,-0.254 -0.86077,-0.45155 l 0.0564,-0.55034 h 3.18911 l 2.30011,6.35 1.97556,-6.35 h 3.44311 l -0.0847,0.55034 q -0.55033,0.16933 -0.86078,0.45155 v 7.40833 q 0.32456,0.29634 1.05834,0.45156 z"
         style="font-style:normal;font-variant:normal;font-weight:bold;font-stretch:normal;font-size:14.1111px;font-family:Caladea;-inkscape-font-specification:'Caladea, Bold';font-variant-ligatures:normal;font-variant-caps:normal;font-variant-numeric:normal;font-variant-east-asian:normal;fill:#ff6600;stroke-width:2.64583"
         id="path1140" />
      <path
         d="m 457.98298,930.10505 q -0.98778,0 -1.43933,0.94545 -0.43745,0.93133 -0.43745,3.09033 0,2.14489 0.43745,3.09034 0.45155,0.94544 1.43933,0.94544 1.00189,0 1.43933,-0.94544 0.43745,-0.94545 0.43745,-3.09034 0,-2.159 -0.43745,-3.09033 -0.43744,-0.94545 -1.43933,-0.94545 z m 0.0141,8.89 q -2.08844,0 -3.16089,-1.24177 -1.05833,-1.24178 -1.05833,-3.61245 0,-2.38478 1.05833,-3.61244 1.07245,-1.24178 3.16089,-1.24178 2.08845,0 3.14678,1.24178 1.05833,1.22766 1.05833,3.61244 0,2.37067 -1.05833,3.61245 -1.05833,1.24177 -3.14678,1.24177 z"
         style="font-style:normal;font-variant:normal;font-weight:bold;font-stretch:normal;font-size:14.1111px;font-family:Caladea;-inkscape-font-specification:'Caladea, Bold';font-variant-ligatures:normal;font-variant-caps:normal;font-variant-numeric:normal;font-variant-east-asian:normal;fill:#ff6600;stroke-width:2.64583"
         id="path1142" />
      <path
         d="m 466.56253,929.44183 q 2.89278,0 4.20511,1.12889 1.31233,1.12889 1.31233,3.58422 0,2.45534 -1.32644,3.58423 -1.32644,1.11477 -4.27567,1.11477 h -2.99155 l 0.0564,-0.57855 q 0.45156,-0.0988 0.79022,-0.40922 v -7.43656 q -0.254,-0.23989 -0.84666,-0.43744 l 0.0564,-0.55034 z m 0.45156,0.87489 h -0.59267 v 7.60589 q 0.127,0.0564 0.55033,0.0564 1.524,0 2.20134,-0.91722 0.69144,-0.91722 0.69144,-2.921 0,-2.01789 -0.66322,-2.921 -0.66322,-0.90311 -2.18722,-0.90311 z"
         style="font-style:normal;font-variant:normal;font-weight:bold;font-stretch:normal;font-size:14.1111px;font-family:Caladea;-inkscape-font-specification:'Caladea, Bold';font-variant-ligatures:normal;font-variant-caps:normal;font-variant-numeric:normal;font-variant-east-asian:normal;fill:#ff6600;stroke-width:2.64583"
         id="path1144" />
    </g>
    <g
       aria-label="CLS"
       id="text6101"
       style="font-style:normal;font-variant:normal;font-weight:bold;font-stretch:normal;font-size:14.1111px;line-height:1.25;font-family:Caladea;-inkscape-font-specification:'Caladea, Bold';font-variant-ligatures:normal;font-variant-caps:normal;font-variant-numeric:normal;font-variant-east-asian:normal;text-align:center;text-anchor:middle;display:inline;fill:#ff6600;stroke-width:2.64583"
       transform="matrix(0.1,0,0,0.1,-78.564447,-170.52123)">
      <path
         d="m 577.22188,938.99505 q -1.98967,0 -3.03389,-1.19944 -1.03011,-1.19944 -1.03011,-3.58422 0,-2.38478 1.016,-3.62656 1.03011,-1.24178 3.03389,-1.24178 1.28411,0 2.08844,0.52212 0.80433,0.52211 0.80433,1.34055 0,0.508 -0.32455,0.86078 -0.32456,0.35278 -0.73378,0.35278 -0.40922,0 -0.71967,-0.18345 -0.29633,-0.18344 -0.43744,-0.46566 0.22578,-0.381 0.22578,-0.77612 0,-0.39511 -0.26811,-0.64911 -0.254,-0.254 -0.69145,-0.254 -1.66511,0 -1.66511,3.937 0,1.98967 0.52211,3.00567 0.52211,1.00189 1.67923,1.00189 1.15711,0 2.14488,-1.05833 l 0.46567,0.45155 q -0.66322,0.74789 -1.48167,1.15711 -0.80433,0.40922 -1.59455,0.40922 z"
         style="font-style:normal;font-variant:normal;font-weight:bold;font-stretch:normal;font-size:14.1111px;font-family:Caladea;-inkscape-font-specification:'Caladea, Bold';font-variant-ligatures:normal;font-variant-caps:normal;font-variant-numeric:normal;font-variant-east-asian:normal;fill:#ff6600;stroke-width:2.64583"
         id="path1147" />
      <path
         d="m 584.05166,937.97905 h 2.46944 q 0.45156,-0.67733 0.66322,-1.79211 0.28222,-0.0423 0.55033,-0.0423 0.26812,0 0.49389,0.0423 l -0.14111,2.667 h -6.97089 l 0.0565,-0.57855 q 0.55033,-0.0847 0.80433,-0.35278 v -7.47889 q -0.22578,-0.19755 -0.87489,-0.42333 l 0.0706,-0.57856 h 3.937 l -0.0847,0.57856 q -0.60678,0.11289 -0.97366,0.42333 z"
         style="font-style:normal;font-variant:normal;font-weight:bold;font-stretch:normal;font-size:14.1111px;font-family:Caladea;-inkscape-font-specification:'Caladea, Bold';font-variant-ligatures:normal;font-variant-caps:normal;font-variant-numeric:normal;font-variant-east-asian:normal;fill:#ff6600;stroke-width:2.64583"
         id="path1149" />
      <path
         d="m 590.62739,937.95083 q 0.62089,0.22578 1.18533,0.22578 0.56444,0 0.91722,-0.35278 0.35278,-0.36689 0.35278,-0.87489 0,-0.52211 -0.23989,-0.889 -0.22578,-0.381 -0.59267,-0.635 -0.36688,-0.254 -0.81844,-0.49389 -0.43744,-0.23988 -0.889,-0.508 -0.43744,-0.28222 -0.80433,-0.59266 -0.36689,-0.32456 -0.60678,-0.81845 -0.22578,-0.49389 -0.22578,-1.10066 0,-1.11478 0.87489,-1.84856 0.889,-0.73378 2.22956,-0.73378 0.64911,0 1.48166,0.21167 0.84667,0.19756 1.397,0.49389 l -0.19755,1.94733 q -0.32456,0.0988 -0.52211,0.0988 -0.18345,0 -0.49389,-0.0564 -0.18345,-1.05834 -0.56445,-1.50989 -0.36689,-0.46567 -1.00189,-0.46567 -0.62089,0 -0.97366,0.32456 -0.35278,0.32455 -0.35278,0.79022 0,0.45155 0.31044,0.81844 0.32456,0.35278 0.80434,0.635 0.47977,0.26811 1.03011,0.635 0.56444,0.36689 1.04422,0.74789 0.47978,0.36689 0.79022,0.97367 0.32456,0.59266 0.32456,1.29822 0,1.24178 -0.91722,1.96144 -0.91723,0.71967 -2.48356,0.71967 -0.66322,0 -1.58044,-0.22578 -0.90312,-0.23989 -1.21356,-0.49389 v -2.14488 q 0.56444,-0.19756 1.28411,-0.23989 0.0847,1.24177 0.45156,2.10255 z"
         style="font-style:normal;font-variant:normal;font-weight:bold;font-stretch:normal;font-size:14.1111px;font-family:Caladea;-inkscape-font-specification:'Caladea, Bold';font-variant-ligatures:normal;font-variant-caps:normal;font-variant-numeric:normal;font-variant-east-asian:normal;fill:#ff6600;stroke-width:2.64583"
         id="path1151" />
    </g>
    <g
       aria-label="n!"
       id="text6105"
       style="font-style:normal;font-variant:normal;font-weight:bold;font-stretch:normal;font-size:14.1111px;line-height:1.25;font-family:Caladea;-inkscape-font-specification:'Caladea, Bold';font-variant-ligatures:normal;font-variant-caps:normal;font-variant-numeric:normal;font-variant-east-asian:normal;text-align:center;text-anchor:middle;display:inline;fill:#ff6600;stroke-width:2.64583"
       transform="matrix(0.1,0,0,0.1,-78.564447,-170.52123)">
      <path
         d="m 74.760498,1035.8114 q 0,-1.3546 -0.874889,-1.3546 -0.366888,0 -0.719666,0.2116 -0.338667,0.2117 -0.536222,0.5645 v 4.2897 q 0.324555,0.254 0.846666,0.381 l -0.05644,0.5504 h -3.570111 l 0.04233,-0.5786 q 0.451556,-0.085 0.747889,-0.3528 v -4.064 q 0,-0.508 -0.197555,-0.6914 -0.197556,-0.1976 -0.691445,-0.2258 l 0.04233,-0.5503 q 2.116666,-0.3951 2.412999,-0.4798 l 0.254,0.127 0.112889,0.8185 q 0.804334,-0.9455 2.074333,-0.9455 0.959556,0 1.524,0.5786 0.578556,0.5785 0.578556,1.5945 v 3.8382 q 0.352777,0.2682 0.903111,0.381 l -0.05645,0.5504 h -3.57011 l 0.04233,-0.5504 q 0.423333,-0.085 0.691444,-0.381 z"
         style="font-style:normal;font-variant:normal;font-weight:bold;font-stretch:normal;font-size:14.1111px;font-family:Caladea;-inkscape-font-specification:'Caladea, Bold';font-variant-ligatures:normal;font-variant-caps:normal;font-variant-numeric:normal;font-variant-east-asian:normal;fill:#ff6600;stroke-width:2.64583"
         id="path1154" />
      <path
         d="m 79.614694,1034.739 q 0,-2.2155 -0.381,-3.5278 0.08467,-0.1834 0.338667,-0.3387 0.268111,-0.1552 0.620889,-0.1552 0.719666,0 1.001889,0.3105 0.296333,0.3104 0.296333,0.8466 0,0.5362 -0.352778,2.54 -0.352778,1.9897 -0.423333,2.9069 l -1.199444,0.2258 q 0.09878,-2.5118 0.09878,-2.8081 z m 0.451556,5.842 q -1.114778,0 -1.114778,-0.9878 0,-0.9878 1.114778,-0.9878 1.128889,0 1.128889,0.9878 0,0.9878 -1.128889,0.9878 z"
         style="font-style:normal;font-variant:normal;font-weight:bold;font-stretch:normal;font-size:14.1111px;font-family:Caladea;-inkscape-font-specification:'Caladea, Bold';font-variant-ligatures:normal;font-variant-caps:normal;font-variant-numeric:normal;font-variant-east-asian:normal;fill:#ff6600;stroke-width:2.64583"
         id="path1156" />
    </g>
    <g
       aria-label="nCr"
       id="text6109"
       style="font-style:normal;font-variant:normal;font-weight:bold;font-stretch:normal;font-size:14.1111px;line-height:1.25;font-family:Caladea;-inkscape-font-specification:'Caladea, Bold';font-variant-ligatures:normal;font-variant-caps:normal;font-variant-numeric:normal;font-variant-east-asian:normal;text-align:center;text-anchor:middle;display:inline;fill:#ff6600;stroke-width:2.64583"
       transform="matrix(0.1,0,0,0.1,-78.564447,-170.52123)">
      <path
         d="m 196.82866,1035.8114 q 0,-1.3546 -0.87489,-1.3546 -0.36689,0 -0.71966,0.2116 -0.33867,0.2117 -0.53623,0.5645 v 4.2897 q 0.32456,0.254 0.84667,0.381 l -0.0564,0.5504 H 191.918 l 0.0423,-0.5786 q 0.45155,-0.085 0.74789,-0.3528 v -4.064 q 0,-0.508 -0.19756,-0.6914 -0.19755,-0.1976 -0.69144,-0.2258 l 0.0423,-0.5503 q 2.11667,-0.3951 2.413,-0.4798 l 0.254,0.127 0.11289,0.8185 q 0.80433,-0.9455 2.07433,-0.9455 0.95956,0 1.524,0.5786 0.57856,0.5785 0.57856,1.5945 v 3.8382 q 0.35278,0.2682 0.90311,0.381 l -0.0564,0.5504 h -3.57012 l 0.0423,-0.5504 q 0.42333,-0.085 0.69144,-0.381 z"
         style="font-style:normal;font-variant:normal;font-weight:bold;font-stretch:normal;font-size:14.1111px;font-family:Caladea;-inkscape-font-specification:'Caladea, Bold';font-variant-ligatures:normal;font-variant-caps:normal;font-variant-numeric:normal;font-variant-east-asian:normal;fill:#ff6600;stroke-width:2.64583"
         id="path1159" />
      <path
         d="m 204.68852,1040.5951 q -1.98966,0 -3.03388,-1.1995 -1.03012,-1.1994 -1.03012,-3.5842 0,-2.3848 1.016,-3.6265 1.03012,-1.2418 3.03389,-1.2418 1.28411,0 2.08845,0.5221 0.80433,0.5221 0.80433,1.3406 0,0.508 -0.32455,0.8607 -0.32456,0.3528 -0.73378,0.3528 -0.40922,0 -0.71967,-0.1834 -0.29633,-0.1835 -0.43744,-0.4657 0.22577,-0.381 0.22577,-0.7761 0,-0.3951 -0.26811,-0.6491 -0.254,-0.254 -0.69144,-0.254 -1.66511,0 -1.66511,3.937 0,1.9896 0.52211,3.0056 0.52211,1.0019 1.67922,1.0019 1.15711,0 2.14489,-1.0583 l 0.46567,0.4516 q -0.66323,0.7478 -1.48167,1.1571 -0.80433,0.4092 -1.59456,0.4092 z"
         style="font-style:normal;font-variant:normal;font-weight:bold;font-stretch:normal;font-size:14.1111px;font-family:Caladea;-inkscape-font-specification:'Caladea, Bold';font-variant-ligatures:normal;font-variant-caps:normal;font-variant-numeric:normal;font-variant-east-asian:normal;fill:#ff6600;stroke-width:2.64583"
         id="path1161" />
      <path
         d="m 209.31697,1035.4586 q 0,-0.508 -0.19756,-0.6914 -0.19755,-0.1976 -0.69144,-0.2258 l 0.0423,-0.5503 q 2.11667,-0.3951 2.413,-0.4798 l 0.254,0.127 0.11289,0.9313 q 0.71967,-1.0442 1.82033,-1.0442 0.55034,0 0.94545,0.381 0.40922,0.3669 0.40922,0.9031 0,0.5221 -0.29633,0.8185 -0.28223,0.2822 -0.69145,0.2822 -0.40922,0 -0.66322,-0.3528 0.19755,-0.2399 0.19755,-0.4656 0,-0.2258 -0.19755,-0.3669 -0.18345,-0.1411 -0.45156,-0.1411 -0.26811,0 -0.56444,0.254 -0.28222,0.2398 -0.45156,0.635 v 4.0498 q 0.32456,0.254 0.84667,0.381 l -0.0564,0.5504 h -3.57011 l 0.0423,-0.5786 q 0.45155,-0.085 0.74789,-0.3528 z"
         style="font-style:normal;font-variant:normal;font-weight:bold;font-stretch:normal;font-size:14.1111px;font-family:Caladea;-inkscape-font-specification:'Caladea, Bold';font-variant-ligatures:normal;font-variant-caps:normal;font-variant-numeric:normal;font-variant-east-asian:normal;fill:#ff6600;stroke-width:2.64583"
         id="path1163" />
    </g>
    <g
       aria-label="nPr"
       id="text6113"
       style="font-style:normal;font-variant:normal;font-weight:bold;font-stretch:normal;font-size:14.1111px;line-height:1.25;font-family:Caladea;-inkscape-font-specification:'Caladea, Bold';font-variant-ligatures:normal;font-variant-caps:normal;font-variant-numeric:normal;font-variant-east-asian:normal;text-align:center;text-anchor:middle;display:inline;fill:#ff6600;stroke-width:2.64583"
       transform="matrix(0.1,0,0,0.1,-78.564447,-170.52123)">
      <path
         d="m 323.53941,1035.8114 q 0,-1.3546 -0.87489,-1.3546 -0.36689,0 -0.71967,0.2116 -0.33866,0.2117 -0.53622,0.5645 v 4.2897 q 0.32456,0.254 0.84667,0.381 l -0.0564,0.5504 h -3.57011 l 0.0423,-0.5786 q 0.45155,-0.085 0.74789,-0.3528 v -4.064 q 0,-0.508 -0.19756,-0.6914 -0.19755,-0.1976 -0.69144,-0.2258 l 0.0423,-0.5503 q 2.11667,-0.3951 2.413,-0.4798 l 0.254,0.127 0.11289,0.8185 q 0.80433,-0.9455 2.07433,-0.9455 0.95956,0 1.524,0.5786 0.57856,0.5785 0.57856,1.5945 v 3.8382 q 0.35277,0.2682 0.90311,0.381 l -0.0564,0.5504 h -3.57011 l 0.0423,-0.5504 q 0.42333,-0.085 0.69144,-0.381 z"
         style="font-style:normal;font-variant:normal;font-weight:bold;font-stretch:normal;font-size:14.1111px;font-family:Caladea;-inkscape-font-specification:'Caladea, Bold';font-variant-ligatures:normal;font-variant-caps:normal;font-variant-numeric:normal;font-variant-east-asian:normal;fill:#ff6600;stroke-width:2.64583"
         id="path1166" />
      <path
         d="m 331.25816,1031.0419 q 3.683,0 3.683,2.6246 0,1.3688 -1.00189,2.1026 -1.00189,0.7338 -2.87866,0.7338 -0.31045,0 -0.90311,-0.042 v 2.9916 q 0.29633,0.2963 1.05833,0.4515 l -0.0988,0.5504 h -3.89467 l 0.0565,-0.5786 q 0.47978,-0.099 0.80433,-0.4233 v -7.4083 q -0.26811,-0.254 -0.86078,-0.4516 l 0.0565,-0.5503 z m 1.49578,2.6529 q 0,-0.8608 -0.45156,-1.3265 -0.43744,-0.4657 -1.11477,-0.4657 -0.67734,0 -1.03011,0.057 v 3.6548 h 0.91722 q 1.67922,0 1.67922,-1.9191 z"
         style="font-style:normal;font-variant:normal;font-weight:bold;font-stretch:normal;font-size:14.1111px;font-family:Caladea;-inkscape-font-specification:'Caladea, Bold';font-variant-ligatures:normal;font-variant-caps:normal;font-variant-numeric:normal;font-variant-east-asian:normal;fill:#ff6600;stroke-width:2.64583"
         id="path1168" />
      <path
         d="m 336.60625,1035.4586 q 0,-0.508 -0.19756,-0.6914 -0.19755,-0.1976 -0.69144,-0.2258 l 0.0423,-0.5503 q 2.11667,-0.3951 2.413,-0.4798 l 0.254,0.127 0.11289,0.9313 q 0.71967,-1.0442 1.82033,-1.0442 0.55034,0 0.94545,0.381 0.40922,0.3669 0.40922,0.9031 0,0.5221 -0.29633,0.8185 -0.28222,0.2822 -0.69145,0.2822 -0.40922,0 -0.66322,-0.3528 0.19756,-0.2399 0.19756,-0.4656 0,-0.2258 -0.19756,-0.3669 -0.18344,-0.1411 -0.45155,-0.1411 -0.26812,0 -0.56445,0.254 -0.28222,0.2398 -0.45155,0.635 v 4.0498 q 0.32455,0.254 0.84666,0.381 l -0.0564,0.5504 h -3.57011 l 0.0423,-0.5786 q 0.45156,-0.085 0.74789,-0.3528 z"
         style="font-style:normal;font-variant:normal;font-weight:bold;font-stretch:normal;font-size:14.1111px;font-family:Caladea;-inkscape-font-specification:'Caladea, Bold';font-variant-ligatures:normal;font-variant-caps:normal;font-variant-numeric:normal;font-variant-east-asian:normal;fill:#ff6600;stroke-width:2.64583"
         id="path1170" />
    </g>
    <g
       aria-label="π"
       id="text6117"
       style="font-style:normal;font-variant:normal;font-weight:bold;font-stretch:normal;font-size:14.1111px;line-height:1.25;font-family:Caladea;-inkscape-font-specification:'Caladea, Bold';font-variant-ligatures:normal;font-variant-caps:normal;font-variant-numeric:normal;font-variant-east-asian:normal;text-align:center;text-anchor:middle;display:inline;fill:#ff6600;stroke-width:2.64583"
       transform="matrix(0.1,0,0,0.1,-78.564447,-170.52123)">
      <path
         d="m 71.313317,1142.054 v -0.8338 h 1.040419 v -5.6568 h -1.040419 v -0.8337 h 9.370659 v 0.8337 h -1.047309 v 5.6568 h 1.047309 v 0.8338 h -4.389052 v -0.8338 h 0.902615 v -5.6568 h -2.404676 v 5.6568 h 0.895725 v 0.8338 z"
         style="font-style:normal;font-variant:normal;font-weight:bold;font-stretch:normal;font-size:14.1111px;font-family:Caladea;-inkscape-font-specification:'Caladea, Bold';font-variant-ligatures:normal;font-variant-caps:normal;font-variant-numeric:normal;font-variant-east-asian:normal;fill:#ff6600;stroke-width:2.64583"
         id="path1173" />
    </g>
    <g
       aria-label="e"
       id="text6121"
       style="font-style:normal;font-variant:normal;font-weight:bold;font-stretch:normal;font-size:14.1111px;line-height:1.25;font-family:Caladea;-inkscape-font-specification:'Caladea, Bold';font-variant-ligatures:normal;font-variant-caps:normal;font-variant-numeric:normal;font-variant-east-asian:normal;text-align:center;text-anchor:middle;display:inline;fill:#ff6600;stroke-width:2.64583"
       transform="matrix(0.1,0,0,0.1,-78.564447,-170.52123)">
      <path
         d="m 201.87337,1138.625 v 0.2257 q 0,1.1854 0.33867,1.7639 0.33867,0.5645 1.27,0.5645 1.18533,0 1.94733,-0.7761 l 0.56445,0.5503 q -0.57856,0.5785 -1.21356,0.889 -0.62089,0.3104 -1.63689,0.3104 -1.63689,0 -2.46944,-0.9172 -0.81845,-0.9313 -0.81845,-2.5682 0,-1.651 0.87489,-2.5965 0.87489,-0.9595 2.48356,-0.9595 1.62278,0 2.286,0.7338 0.66322,0.7337 0.74789,2.1872 l -0.39511,0.5927 z m 1.32645,-2.8223 q -1.28411,0 -1.32645,2.2578 l 2.37067,-0.1129 q 0,-1.1289 -0.22578,-1.6369 -0.22578,-0.508 -0.81844,-0.508 z"
         style="font-style:normal;font-variant:normal;font-weight:bold;font-stretch:normal;font-size:14.1111px;font-family:Caladea;-inkscape-font-specification:'Caladea, Bold';font-variant-ligatures:normal;font-variant-caps:normal;font-variant-numeric:normal;font-variant-east-asian:normal;fill:#ff6600;stroke-width:2.64583"
         id="path1176" />
    </g>
    <g
       aria-label="Δ%"
       id="text6125"
       style="font-style:normal;font-variant:normal;font-weight:bold;font-stretch:normal;font-size:14.1111px;line-height:1.25;font-family:Caladea;-inkscape-font-specification:'Caladea, Bold';font-variant-ligatures:normal;font-variant-caps:normal;font-variant-numeric:normal;font-variant-east-asian:normal;text-align:center;text-anchor:middle;display:inline;fill:#ff6600;stroke-width:2.64583"
       transform="matrix(0.1,0,0,0.1,-78.564447,-170.52123)">
      <path
         d="m 328.09404,1148.4039 h -10.0459 l 4.18924,-10.287 h 1.64675 z m -8.73676,-0.8337 h 5.57416 l -2.76985,-6.8695 z"
         style="font-style:normal;font-variant:normal;font-weight:bold;font-stretch:normal;font-size:14.1111px;font-family:Caladea;-inkscape-font-specification:'Caladea, Bold';font-variant-ligatures:normal;font-variant-caps:normal;font-variant-numeric:normal;font-variant-east-asian:normal;fill:#ff6600;stroke-width:2.64583"
         id="path1179" />
      <path
         d="m 331.13736,1143.6908 q 0.19755,0.5362 0.64911,0.5362 0.45155,0 0.64911,-0.5362 0.21166,-0.5503 0.21166,-1.8062 0,-1.2559 -0.21166,-1.8062 -0.19756,-0.5504 -0.64911,-0.5504 -0.45156,0 -0.64911,0.5504 -0.19756,0.5362 -0.19756,1.8062 0,1.27 0.19756,1.8062 z m 2.37066,0.381 q -0.59267,0.762 -1.72155,0.762 -1.12889,0 -1.73567,-0.762 -0.59267,-0.762 -0.59267,-2.1731 0,-1.4252 0.59267,-2.1731 0.60678,-0.762 1.73567,-0.762 1.12888,0 1.72155,0.762 0.60678,0.7479 0.60678,2.1731 0,1.4111 -0.60678,2.1731 z m 4.99533,3.3302 q 0.19756,0.5363 0.64912,0.5363 0.45155,0 0.64911,-0.5363 0.21166,-0.5503 0.21166,-1.8062 0,-1.2559 -0.21166,-1.8062 -0.19756,-0.5503 -0.64911,-0.5503 -0.45156,0 -0.64912,0.5503 -0.19755,0.5362 -0.19755,1.8062 0,1.27 0.19755,1.8062 z m 2.37067,0.381 q -0.59267,0.762 -1.72155,0.762 -1.12889,0 -1.73567,-0.762 -0.59267,-0.762 -0.59267,-2.1731 0,-1.4252 0.59267,-2.1731 0.60678,-0.762 1.73567,-0.762 1.12888,0 1.72155,0.762 0.60678,0.7479 0.60678,2.1731 0,1.4111 -0.60678,2.1731 z m -7.21078,1.0443 -0.93133,-0.4516 4.52967,-9.6238 0.93133,0.4516 z"
         style="font-style:normal;font-variant:normal;font-weight:bold;font-stretch:normal;font-size:14.1111px;font-family:Caladea;-inkscape-font-specification:'Caladea, Bold';font-variant-ligatures:normal;font-variant-caps:normal;font-variant-numeric:normal;font-variant-east-asian:normal;fill:#ff6600;stroke-width:2.64583"
         id="path1181" />
    </g>
    <g
       aria-label="CONV"
       id="text6129"
       style="font-style:normal;font-variant:normal;font-weight:bold;font-stretch:normal;font-size:14.1111px;line-height:1.25;font-family:Caladea;-inkscape-font-specification:'Caladea, Bold';font-variant-ligatures:normal;font-variant-caps:normal;font-variant-numeric:normal;font-variant-east-asian:normal;text-align:center;text-anchor:middle;display:inline;fill:#ff6600;stroke-width:2.64583"
       transform="matrix(0.1,0,0,0.1,-78.564447,-170.52123)">
      <path
         d="m 62.617896,1243.795 q -1.989666,0 -3.033888,-1.1994 -1.030111,-1.1994 -1.030111,-3.5842 0,-2.3848 1.015999,-3.6266 1.030111,-1.2418 3.033889,-1.2418 1.284111,0 2.088444,0.5222 0.804333,0.5221 0.804333,1.3405 0,0.508 -0.324555,0.8608 -0.324556,0.3528 -0.733778,0.3528 -0.409222,0 -0.719666,-0.1835 -0.296334,-0.1834 -0.437445,-0.4656 0.225778,-0.381 0.225778,-0.7762 0,-0.3951 -0.268111,-0.6491 -0.254,-0.254 -0.691444,-0.254 -1.665111,0 -1.665111,3.937 0,1.9897 0.522111,3.0057 0.522111,1.0019 1.679222,1.0019 1.157111,0 2.144888,-1.0583 l 0.465667,0.4515 q -0.663222,0.7479 -1.481666,1.1571 -0.804334,0.4092 -1.594556,0.4092 z"
         style="font-style:normal;font-variant:normal;font-weight:bold;font-stretch:normal;font-size:14.1111px;font-family:Caladea;-inkscape-font-specification:'Caladea, Bold';font-variant-ligatures:normal;font-variant-caps:normal;font-variant-numeric:normal;font-variant-east-asian:normal;fill:#ff6600;stroke-width:2.64583"
         id="path1184" />
      <path
         d="m 70.661209,1234.905 q -0.987777,0 -1.439333,0.9455 -0.437444,0.9313 -0.437444,3.0903 0,2.1449 0.437444,3.0904 0.451556,0.9454 1.439333,0.9454 1.001889,0 1.439334,-0.9454 0.437444,-0.9455 0.437444,-3.0904 0,-2.159 -0.437444,-3.0903 -0.437445,-0.9455 -1.439334,-0.9455 z m 0.01411,8.89 q -2.088445,0 -3.160889,-1.2417 -1.058333,-1.2418 -1.058333,-3.6125 0,-2.3848 1.058333,-3.6124 1.072444,-1.2418 3.160889,-1.2418 2.088444,0 3.146777,1.2418 1.058333,1.2276 1.058333,3.6124 0,2.3707 -1.058333,3.6125 -1.058333,1.2417 -3.146777,1.2417 z"
         style="font-style:normal;font-variant:normal;font-weight:bold;font-stretch:normal;font-size:14.1111px;font-family:Caladea;-inkscape-font-specification:'Caladea, Bold';font-variant-ligatures:normal;font-variant-caps:normal;font-variant-numeric:normal;font-variant-east-asian:normal;fill:#ff6600;stroke-width:2.64583"
         id="path1186" />
      <path
         d="m 83.967981,1243.6539 h -2.144889 l -3.725333,-6.4911 v 5.4892 q 0.324556,0.2964 1.058333,0.4516 l -0.09878,0.5503 h -3.048 l 0.05644,-0.5785 q 0.465667,-0.085 0.804334,-0.4234 v -7.4083 q -0.296334,-0.254 -0.860778,-0.4515 l 0.05644,-0.5504 h 2.779889 l 3.894666,6.8298 v -5.8279 q -0.366889,-0.3104 -0.973666,-0.4233 l 0.07055,-0.5786 h 3.076222 l -0.08467,0.5504 q -0.550334,0.1693 -0.860778,0.4515 z"
         style="font-style:normal;font-variant:normal;font-weight:bold;font-stretch:normal;font-size:14.1111px;font-family:Caladea;-inkscape-font-specification:'Caladea, Bold';font-variant-ligatures:normal;font-variant-caps:normal;font-variant-numeric:normal;font-variant-east-asian:normal;fill:#ff6600;stroke-width:2.64583"
         id="path1188" />
      <path
         d="m 89.019743,1234.8063 q -0.592666,0.028 -0.874889,0.3104 l 1.919111,5.9267 2.060222,-5.8138 q -0.366889,-0.3246 -1.114777,-0.4233 l 0.07055,-0.5645 h 3.118555 l -0.07055,0.5645 q -0.663222,0.028 -0.889,0.3669 l -3.104444,8.4807 h -1.425222 l -2.638778,-8.255 q -0.183444,-0.4515 -0.903111,-0.5926 l 0.07056,-0.5645 h 3.866444 z"
         style="font-style:normal;font-variant:normal;font-weight:bold;font-stretch:normal;font-size:14.1111px;font-family:Caladea;-inkscape-font-specification:'Caladea, Bold';font-variant-ligatures:normal;font-variant-caps:normal;font-variant-numeric:normal;font-variant-east-asian:normal;fill:#ff6600;stroke-width:2.64583"
         id="path1190" />
    </g>
    <g
       aria-label="CNST"
       id="text6133"
       style="font-style:normal;font-variant:normal;font-weight:bold;font-stretch:normal;font-size:14.1111px;line-height:1.25;font-family:Caladea;-inkscape-font-specification:'Caladea, Bold';font-variant-ligatures:normal;font-variant-caps:normal;font-variant-numeric:normal;font-variant-east-asian:normal;text-align:center;text-anchor:middle;display:inline;fill:#ff6600;stroke-width:2.64583"
       transform="matrix(0.1,0,0,0.1,-78.564447,-170.52123)">
      <path
         d="m 190.84555,1243.795 q -1.98966,0 -3.03389,-1.1994 -1.03011,-1.1994 -1.03011,-3.5842 0,-2.3848 1.016,-3.6266 1.03011,-1.2418 3.03389,-1.2418 1.28411,0 2.08845,0.5222 0.80433,0.5221 0.80433,1.3405 0,0.508 -0.32456,0.8608 -0.32455,0.3528 -0.73377,0.3528 -0.40923,0 -0.71967,-0.1835 -0.29633,-0.1834 -0.43744,-0.4656 0.22577,-0.381 0.22577,-0.7762 0,-0.3951 -0.26811,-0.6491 -0.254,-0.254 -0.69144,-0.254 -1.66511,0 -1.66511,3.937 0,1.9897 0.52211,3.0057 0.52211,1.0019 1.67922,1.0019 1.15711,0 2.14489,-1.0583 l 0.46567,0.4515 q -0.66323,0.7479 -1.48167,1.1571 -0.80433,0.4092 -1.59456,0.4092 z"
         style="font-style:normal;font-variant:normal;font-weight:bold;font-stretch:normal;font-size:14.1111px;font-family:Caladea;-inkscape-font-specification:'Caladea, Bold';font-variant-ligatures:normal;font-variant-caps:normal;font-variant-numeric:normal;font-variant-east-asian:normal;fill:#ff6600;stroke-width:2.64583"
         id="path1193" />
      <path
         d="m 202.60011,1243.6539 h -2.14489 l -3.72533,-6.4911 v 5.4892 q 0.32455,0.2964 1.05833,0.4516 l -0.0988,0.5503 h -3.048 l 0.0565,-0.5785 q 0.46566,-0.085 0.80433,-0.4234 v -7.4083 q -0.29633,-0.254 -0.86078,-0.4515 l 0.0565,-0.5504 h 2.77988 l 3.89467,6.8298 v -5.8279 q -0.36689,-0.3104 -0.97367,-0.4233 l 0.0706,-0.5786 h 3.07622 l -0.0847,0.5504 q -0.55034,0.1693 -0.86078,0.4515 z"
         style="font-style:normal;font-variant:normal;font-weight:bold;font-stretch:normal;font-size:14.1111px;font-family:Caladea;-inkscape-font-specification:'Caladea, Bold';font-variant-ligatures:normal;font-variant-caps:normal;font-variant-numeric:normal;font-variant-east-asian:normal;fill:#ff6600;stroke-width:2.64583"
         id="path1195" />
      <path
         d="m 206.15609,1242.7508 q 0.62089,0.2258 1.18534,0.2258 0.56444,0 0.91722,-0.3528 0.35278,-0.3669 0.35278,-0.8749 0,-0.5221 -0.23989,-0.889 -0.22578,-0.381 -0.59267,-0.635 -0.36689,-0.254 -0.81844,-0.4939 -0.43745,-0.2398 -0.889,-0.508 -0.43745,-0.2822 -0.80434,-0.5926 -0.36689,-0.3246 -0.60677,-0.8185 -0.22578,-0.4939 -0.22578,-1.1006 0,-1.1148 0.87489,-1.8486 0.889,-0.7338 2.22955,-0.7338 0.64911,0 1.48167,0.2117 0.84667,0.1976 1.397,0.4939 l -0.19756,1.9473 q -0.32455,0.099 -0.52211,0.099 -0.18344,0 -0.49389,-0.056 -0.18344,-1.0584 -0.56444,-1.5099 -0.36689,-0.4657 -1.00189,-0.4657 -0.62089,0 -0.97367,0.3246 -0.35277,0.3245 -0.35277,0.7902 0,0.4515 0.31044,0.8184 0.32456,0.3528 0.80433,0.635 0.47978,0.2681 1.03011,0.635 0.56445,0.3669 1.04423,0.7479 0.47977,0.3669 0.79022,0.9737 0.32455,0.5926 0.32455,1.2982 0,1.2418 -0.91722,1.9614 -0.91722,0.7197 -2.48355,0.7197 -0.66323,0 -1.58045,-0.2258 -0.90311,-0.2399 -1.21355,-0.4939 v -2.1448 q 0.56444,-0.1976 1.28411,-0.2399 0.0847,1.2417 0.45155,2.1025 z"
         style="font-style:normal;font-variant:normal;font-weight:bold;font-stretch:normal;font-size:14.1111px;font-family:Caladea;-inkscape-font-specification:'Caladea, Bold';font-variant-ligatures:normal;font-variant-caps:normal;font-variant-numeric:normal;font-variant-east-asian:normal;fill:#ff6600;stroke-width:2.64583"
         id="path1197" />
      <path
         d="m 212.36495,1236.8383 q -0.254,0.042 -0.508,0.042 -0.23989,0 -0.46567,-0.042 v -2.6529 q 2.07433,0.056 4.61433,0.056 2.54,0 3.33022,-0.056 v 2.6529 q -0.23989,0.042 -0.47977,0.042 -0.23989,0 -0.49389,-0.042 -0.11289,-0.9878 -0.508,-1.6228 -0.70556,-0.099 -1.45345,-0.1129 v 7.5494 q 0.29634,0.2823 1.05834,0.4234 l -0.0988,0.5785 h -4.10633 l 0.0564,-0.5785 q 0.60678,-0.085 1.016,-0.4234 v -7.5353 q -0.31044,0.014 -1.42522,0.085 -0.508,0.7055 -0.53622,1.6369 z"
         style="font-style:normal;font-variant:normal;font-weight:bold;font-stretch:normal;font-size:14.1111px;font-family:Caladea;-inkscape-font-specification:'Caladea, Bold';font-variant-ligatures:normal;font-variant-caps:normal;font-variant-numeric:normal;font-variant-east-asian:normal;fill:#ff6600;stroke-width:2.64583"
         id="path1199" />
    </g>
    <g
       aria-label="ANS"
       id="text6137"
       style="font-style:normal;font-variant:normal;font-weight:bold;font-stretch:normal;font-size:14.1111px;line-height:1.25;font-family:Caladea;-inkscape-font-specification:'Caladea, Bold';font-variant-ligatures:normal;font-variant-caps:normal;font-variant-numeric:normal;font-variant-east-asian:normal;text-align:center;text-anchor:middle;display:inline;fill:#ff6600;stroke-width:2.64583"
       transform="matrix(0.1,0,0,0.1,-78.564447,-170.52123)">
      <path
         d="m 577.17954,1242.7367 -0.66322,-2.0179 h -2.90689 l -0.67733,1.9474 q 0.39511,0.3245 1.19944,0.4233 l -0.0706,0.5644 h -3.18911 l 0.0847,-0.5644 q 0.64911,-0.028 0.86078,-0.3528 l 3.00566,-8.4949 h 1.46756 l 3.03389,8.3679 q 0.22578,0.3669 0.86078,0.4798 l -0.0706,0.5644 h -3.86644 l 0.0847,-0.5644 q 0.64911,-0.099 0.84667,-0.3528 z m -2.06022,-6.2935 -1.19945,3.3866 h 2.30011 z"
         style="font-style:normal;font-variant:normal;font-weight:bold;font-stretch:normal;font-size:14.1111px;font-family:Caladea;-inkscape-font-specification:'Caladea, Bold';font-variant-ligatures:normal;font-variant-caps:normal;font-variant-numeric:normal;font-variant-east-asian:normal;fill:#ff6600;stroke-width:2.64583"
         id="path1202" />
      <path
         d="m 588.5813,1243.6539 h -2.14489 l -3.72534,-6.4911 v 5.4892 q 0.32456,0.2964 1.05834,0.4516 l -0.0988,0.5503 h -3.048 l 0.0564,-0.5785 q 0.46567,-0.085 0.80434,-0.4234 v -7.4083 q -0.29634,-0.254 -0.86078,-0.4515 l 0.0564,-0.5504 h 2.77989 l 3.89467,6.8298 v -5.8279 q -0.36689,-0.3104 -0.97367,-0.4233 l 0.0706,-0.5786 h 3.07622 l -0.0847,0.5504 q -0.55033,0.1693 -0.86077,0.4515 z"
         style="font-style:normal;font-variant:normal;font-weight:bold;font-stretch:normal;font-size:14.1111px;font-family:Caladea;-inkscape-font-specification:'Caladea, Bold';font-variant-ligatures:normal;font-variant-caps:normal;font-variant-numeric:normal;font-variant-east-asian:normal;fill:#ff6600;stroke-width:2.64583"
         id="path1204" />
      <path
         d="m 592.13728,1242.7508 q 0.62089,0.2258 1.18533,0.2258 0.56445,0 0.91723,-0.3528 0.35277,-0.3669 0.35277,-0.8749 0,-0.5221 -0.23989,-0.889 -0.22577,-0.381 -0.59266,-0.635 -0.36689,-0.254 -0.81845,-0.4939 -0.43744,-0.2398 -0.889,-0.508 -0.43744,-0.2822 -0.80433,-0.5926 -0.36689,-0.3246 -0.60678,-0.8185 -0.22578,-0.4939 -0.22578,-1.1006 0,-1.1148 0.87489,-1.8486 0.889,-0.7338 2.22956,-0.7338 0.64911,0 1.48167,0.2117 0.84666,0.1976 1.397,0.4939 l -0.19756,1.9473 q -0.32456,0.099 -0.52211,0.099 -0.18345,0 -0.49389,-0.056 -0.18344,-1.0584 -0.56444,-1.5099 -0.36689,-0.4657 -1.00189,-0.4657 -0.62089,0 -0.97367,0.3246 -0.35278,0.3245 -0.35278,0.7902 0,0.4515 0.31045,0.8184 0.32455,0.3528 0.80433,0.635 0.47978,0.2681 1.03011,0.635 0.56445,0.3669 1.04422,0.7479 0.47978,0.3669 0.79023,0.9737 0.32455,0.5926 0.32455,1.2982 0,1.2418 -0.91722,1.9614 -0.91722,0.7197 -2.48356,0.7197 -0.66322,0 -1.58044,-0.2258 -0.90311,-0.2399 -1.21356,-0.4939 v -2.1448 q 0.56445,-0.1976 1.28411,-0.2399 0.0847,1.2417 0.45156,2.1025 z"
         style="font-style:normal;font-variant:normal;font-weight:bold;font-stretch:normal;font-size:14.1111px;font-family:Caladea;-inkscape-font-specification:'Caladea, Bold';font-variant-ligatures:normal;font-variant-caps:normal;font-variant-numeric:normal;font-variant-east-asian:normal;fill:#ff6600;stroke-width:2.64583"
         id="path1206" />
    </g>
    <g
       aria-label="RCL"
       id="text6141"
       style="font-style:normal;font-variant:normal;font-weight:bold;font-stretch:normal;font-size:14.1111px;line-height:1.25;font-family:Caladea;-inkscape-font-specification:'Caladea, Bold';font-variant-ligatures:normal;font-variant-caps:normal;font-variant-numeric:normal;font-variant-east-asian:normal;text-align:center;text-anchor:middle;display:inline;fill:#ff6600;stroke-width:2.64583"
       transform="matrix(0.1,0,0,0.1,-78.564447,-170.52123)">
      <path
         d="m 322.12124,624.64191 q 3.61244,0 3.61244,2.48355 0,1.80622 -1.83444,2.413 0.45155,0.31045 0.73377,0.93133 l 1.05834,2.51178 q 0.14111,0.32456 0.86078,0.49389 l -0.0988,0.57856 h -2.56822 l -1.36878,-3.69711 q -0.18345,-0.45156 -0.762,-0.53623 -0.23989,0 -0.57856,-0.0282 h -0.15522 v 3.25967 q 0.29633,0.29633 1.05833,0.45155 l -0.0988,0.55034 h -3.89467 l 0.0564,-0.57856 q 0.47978,-0.0988 0.80434,-0.42333 v -7.40834 q -0.26811,-0.254 -0.86078,-0.45155 l 0.0564,-0.55033 z m 1.42522,2.51177 q 0,-0.79022 -0.42333,-1.21355 -0.42334,-0.43745 -1.08656,-0.43745 -0.66322,0 -1.016,0.0564 v 3.37255 h 0.91722 q 1.60867,0 1.60867,-1.778 z"
         style="font-style:normal;font-variant:normal;font-weight:bold;font-stretch:normal;font-size:14.1111px;font-family:Caladea;-inkscape-font-specification:'Caladea, Bold';font-variant-ligatures:normal;font-variant-caps:normal;font-variant-numeric:normal;font-variant-east-asian:normal;fill:#ff6600;stroke-width:2.64583"
         id="path1209" />
      <path
         d="m 331.30753,634.19513 q -1.98966,0 -3.03389,-1.19945 -1.03011,-1.19944 -1.03011,-3.58422 0,-2.38478 1.016,-3.62655 1.03011,-1.24178 3.03389,-1.24178 1.28411,0 2.08845,0.52211 0.80433,0.52211 0.80433,1.34055 0,0.508 -0.32456,0.86078 -0.32455,0.35278 -0.73377,0.35278 -0.40923,0 -0.71967,-0.18344 -0.29633,-0.18345 -0.43744,-0.46567 0.22577,-0.381 0.22577,-0.77611 0,-0.39511 -0.26811,-0.64911 -0.254,-0.254 -0.69144,-0.254 -1.66511,0 -1.66511,3.937 0,1.98966 0.52211,3.00566 0.52211,1.00189 1.67922,1.00189 1.15711,0 2.14489,-1.05833 l 0.46567,0.45155 q -0.66323,0.74789 -1.48167,1.15712 -0.80433,0.40922 -1.59456,0.40922 z"
         style="font-style:normal;font-variant:normal;font-weight:bold;font-stretch:normal;font-size:14.1111px;font-family:Caladea;-inkscape-font-specification:'Caladea, Bold';font-variant-ligatures:normal;font-variant-caps:normal;font-variant-numeric:normal;font-variant-east-asian:normal;fill:#ff6600;stroke-width:2.64583"
         id="path1211" />
      <path
         d="m 338.13731,633.17913 h 2.46945 q 0.45155,-0.67734 0.66322,-1.79211 0.28222,-0.0423 0.55033,-0.0423 0.26811,0 0.49389,0.0423 l -0.14111,2.667 h -6.97089 l 0.0564,-0.57856 q 0.55033,-0.0847 0.80433,-0.35278 v -7.47889 q -0.22578,-0.19755 -0.87489,-0.42333 l 0.0706,-0.57855 h 3.93699 l -0.0847,0.57855 q -0.60678,0.11289 -0.97367,0.42333 z"
         style="font-style:normal;font-variant:normal;font-weight:bold;font-stretch:normal;font-size:14.1111px;font-family:Caladea;-inkscape-font-specification:'Caladea, Bold';font-variant-ligatures:normal;font-variant-caps:normal;font-variant-numeric:normal;font-variant-east-asian:normal;fill:#ff6600;stroke-width:2.64583"
         id="path1213" />
    </g>
    <g
       aria-label="STO"
       id="text6145"
       style="font-style:normal;font-variant:normal;font-weight:bold;font-stretch:normal;font-size:14.1111px;line-height:1.25;font-family:Caladea;-inkscape-font-specification:'Caladea, Bold';font-variant-ligatures:normal;font-variant-caps:normal;font-variant-numeric:normal;font-variant-east-asian:normal;text-align:center;text-anchor:middle;display:inline;fill:#ff6600;stroke-width:2.64583"
       transform="matrix(0.1,0,0,0.1,-78.564447,-170.52123)">
      <path
         d="m 446.61652,633.15091 q 0.62089,0.22577 1.18533,0.22577 0.56445,0 0.91723,-0.35277 0.35277,-0.36689 0.35277,-0.87489 0,-0.52211 -0.23989,-0.889 -0.22577,-0.381 -0.59266,-0.635 -0.36689,-0.254 -0.81845,-0.49389 -0.43744,-0.23989 -0.889,-0.508 -0.43744,-0.28222 -0.80433,-0.59267 -0.36689,-0.32455 -0.60678,-0.81844 -0.22578,-0.49389 -0.22578,-1.10067 0,-1.11478 0.87489,-1.84856 0.889,-0.73377 2.22956,-0.73377 0.64911,0 1.48167,0.21166 0.84666,0.19756 1.397,0.49389 l -0.19756,1.94734 q -0.32456,0.0988 -0.52211,0.0988 -0.18345,0 -0.49389,-0.0564 -0.18344,-1.05833 -0.56444,-1.50989 -0.36689,-0.46567 -1.00189,-0.46567 -0.62089,0 -0.97367,0.32456 -0.35278,0.32455 -0.35278,0.79022 0,0.45156 0.31045,0.81845 0.32455,0.35277 0.80433,0.635 0.47978,0.26811 1.03011,0.635 0.56445,0.36688 1.04422,0.74788 0.47978,0.36689 0.79023,0.97367 0.32455,0.59267 0.32455,1.29822 0,1.24178 -0.91722,1.96145 -0.91722,0.71966 -2.48356,0.71966 -0.66322,0 -1.58044,-0.22577 -0.90311,-0.23989 -1.21356,-0.49389 v -2.14489 q 0.56445,-0.19756 1.28411,-0.23989 0.0847,1.24178 0.45156,2.10256 z"
         style="font-style:normal;font-variant:normal;font-weight:bold;font-stretch:normal;font-size:14.1111px;font-family:Caladea;-inkscape-font-specification:'Caladea, Bold';font-variant-ligatures:normal;font-variant-caps:normal;font-variant-numeric:normal;font-variant-east-asian:normal;fill:#ff6600;stroke-width:2.64583"
         id="path1216" />
      <path
         d="m 452.82537,627.23835 q -0.254,0.0423 -0.508,0.0423 -0.23989,0 -0.46566,-0.0423 v -2.65289 q 2.07433,0.0565 4.61433,0.0565 2.54,0 3.33022,-0.0565 v 2.65289 q -0.23989,0.0423 -0.47978,0.0423 -0.23988,0 -0.49388,-0.0423 -0.11289,-0.98778 -0.508,-1.62278 -0.70556,-0.0988 -1.45345,-0.11289 v 7.54945 q 0.29633,0.28222 1.05833,0.42333 l -0.0988,0.57856 h -4.10634 l 0.0565,-0.57856 q 0.60678,-0.0847 1.016,-0.42333 v -7.53534 q -0.31045,0.0141 -1.42522,0.0847 -0.508,0.70556 -0.53623,1.63689 z"
         style="font-style:normal;font-variant:normal;font-weight:bold;font-stretch:normal;font-size:14.1111px;font-family:Caladea;-inkscape-font-specification:'Caladea, Bold';font-variant-ligatures:normal;font-variant-caps:normal;font-variant-numeric:normal;font-variant-east-asian:normal;fill:#ff6600;stroke-width:2.64583"
         id="path1218" />
      <path
         d="m 464.8339,625.30513 q -0.98778,0 -1.43933,0.94544 -0.43744,0.93134 -0.43744,3.09034 0,2.14488 0.43744,3.09033 0.45155,0.94544 1.43933,0.94544 1.00189,0 1.43934,-0.94544 0.43744,-0.94545 0.43744,-3.09033 0,-2.159 -0.43744,-3.09034 -0.43745,-0.94544 -1.43934,-0.94544 z m 0.0141,8.89 q -2.08844,0 -3.16088,-1.24178 -1.05834,-1.24178 -1.05834,-3.61244 0,-2.38478 1.05834,-3.61245 1.07244,-1.24178 3.16088,-1.24178 2.08845,0 3.14678,1.24178 1.05833,1.22767 1.05833,3.61245 0,2.37066 -1.05833,3.61244 -1.05833,1.24178 -3.14678,1.24178 z"
         style="font-style:normal;font-variant:normal;font-weight:bold;font-stretch:normal;font-size:14.1111px;font-family:Caladea;-inkscape-font-specification:'Caladea, Bold';font-variant-ligatures:normal;font-variant-caps:normal;font-variant-numeric:normal;font-variant-east-asian:normal;fill:#ff6600;stroke-width:2.64583"
         id="path1220" />
    </g>
    <g
       aria-label="M-"
       id="text6149"
       style="font-style:normal;font-variant:normal;font-weight:bold;font-stretch:normal;font-size:14.1111px;line-height:1.25;font-family:Caladea;-inkscape-font-specification:'Caladea, Bold';font-variant-ligatures:normal;font-variant-caps:normal;font-variant-numeric:normal;font-variant-east-asian:normal;text-align:center;text-anchor:middle;display:inline;fill:#ff6600;stroke-width:2.64583"
       transform="matrix(0.1,0,0,0.1,-78.564447,-170.52123)">
      <path
         d="m 587.26191,633.50368 -0.0988,0.55034 H 583.339 l 0.0565,-0.57856 q 0.47977,-0.0988 0.79022,-0.42333 v -6.16656 l -2.30011,7.16845 h -1.08656 l -2.52589,-6.78745 v 5.78556 q 0.32456,0.29633 1.05834,0.45155 l -0.0988,0.55034 h -3.048 l 0.0564,-0.57856 q 0.46567,-0.0847 0.80434,-0.42333 v -7.40834 q -0.29634,-0.254 -0.86078,-0.45155 l 0.0564,-0.55033 h 3.18911 l 2.30011,6.35 1.97556,-6.35 h 3.44311 l -0.0847,0.55033 q -0.55033,0.16933 -0.86077,0.45155 v 7.40834 q 0.32455,0.29633 1.05833,0.45155 z"
         style="font-style:normal;font-variant:normal;font-weight:bold;font-stretch:normal;font-size:14.1111px;font-family:Caladea;-inkscape-font-specification:'Caladea, Bold';font-variant-ligatures:normal;font-variant-caps:normal;font-variant-numeric:normal;font-variant-east-asian:normal;fill:#ff6600;stroke-width:2.64583"
         id="path1223" />
      <path
         d="m 588.33434,630.96368 v -1.34055 h 3.25966 v 1.34055 z"
         style="font-style:normal;font-variant:normal;font-weight:bold;font-stretch:normal;font-size:14.1111px;font-family:Caladea;-inkscape-font-specification:'Caladea, Bold';font-variant-ligatures:normal;font-variant-caps:normal;font-variant-numeric:normal;font-variant-east-asian:normal;fill:#ff6600;stroke-width:2.64583"
         id="path1225" />
    </g>
  </g>
</svg>
