%TF.GenerationSoftware,KiCad,Pcbnew,6.0.5+dfsg-1~bpo11+1*%
%TF.CreationDate,2022-10-05T21:30:28+13:00*%
%TF.ProjectId,FrontPanel,46726f6e-7450-4616-9e65-6c2e6b696361,rev?*%
%TF.SameCoordinates,Original*%
%TF.FileFunction,Profile,NP*%
%FSLAX46Y46*%
G04 Gerber Fmt 4.6, Leading zero omitted, Abs format (unit mm)*
G04 Created by KiCad (PCBNEW 6.0.5+dfsg-1~bpo11+1) date 2022-10-05 21:30:28*
%MOMM*%
%LPD*%
G01*
G04 APERTURE LIST*
%TA.AperFunction,Profile*%
%ADD10C,0.100000*%
%TD*%
G04 APERTURE END LIST*
D10*
X142394077Y-147320000D02*
G75*
G03*
X142394077Y-147320000I-2694077J0D01*
G01*
X129694077Y-147320000D02*
G75*
G03*
X129694077Y-147320000I-2694077J0D01*
G01*
X116994077Y-147320000D02*
G75*
G03*
X116994077Y-147320000I-2694077J0D01*
G01*
X104294077Y-147320000D02*
G75*
G03*
X104294077Y-147320000I-2694077J0D01*
G01*
X91594077Y-147320000D02*
G75*
G03*
X91594077Y-147320000I-2694077J0D01*
G01*
X142394077Y-137160000D02*
G75*
G03*
X142394077Y-137160000I-2694077J0D01*
G01*
X129694077Y-137160000D02*
G75*
G03*
X129694077Y-137160000I-2694077J0D01*
G01*
X116994077Y-137160000D02*
G75*
G03*
X116994077Y-137160000I-2694077J0D01*
G01*
X104294077Y-137160000D02*
G75*
G03*
X104294077Y-137160000I-2694077J0D01*
G01*
X91594077Y-137160000D02*
G75*
G03*
X91594077Y-137160000I-2694077J0D01*
G01*
X142394077Y-127000000D02*
G75*
G03*
X142394077Y-127000000I-2694077J0D01*
G01*
X129694077Y-127000000D02*
G75*
G03*
X129694077Y-127000000I-2694077J0D01*
G01*
X116994077Y-127000000D02*
G75*
G03*
X116994077Y-127000000I-2694077J0D01*
G01*
X104294077Y-127000000D02*
G75*
G03*
X104294077Y-127000000I-2694077J0D01*
G01*
X91594077Y-127000000D02*
G75*
G03*
X91594077Y-127000000I-2694077J0D01*
G01*
X142394077Y-116840000D02*
G75*
G03*
X142394077Y-116840000I-2694077J0D01*
G01*
X129694077Y-116840000D02*
G75*
G03*
X129694077Y-116840000I-2694077J0D01*
G01*
X116994077Y-116840000D02*
G75*
G03*
X116994077Y-116840000I-2694077J0D01*
G01*
X104294077Y-116840000D02*
G75*
G03*
X104294077Y-116840000I-2694077J0D01*
G01*
X91594077Y-116840000D02*
G75*
G03*
X91594077Y-116840000I-2694077J0D01*
G01*
X142394077Y-106680000D02*
G75*
G03*
X142394077Y-106680000I-2694077J0D01*
G01*
X129694077Y-106680000D02*
G75*
G03*
X129694077Y-106680000I-2694077J0D01*
G01*
X116994077Y-106680000D02*
G75*
G03*
X116994077Y-106680000I-2694077J0D01*
G01*
X104294077Y-106680000D02*
G75*
G03*
X104294077Y-106680000I-2694077J0D01*
G01*
X91594077Y-106680000D02*
G75*
G03*
X91594077Y-106680000I-2694077J0D01*
G01*
X142394077Y-96520000D02*
G75*
G03*
X142394077Y-96520000I-2694077J0D01*
G01*
X129694077Y-96520000D02*
G75*
G03*
X129694077Y-96520000I-2694077J0D01*
G01*
X116994077Y-96520000D02*
G75*
G03*
X116994077Y-96520000I-2694077J0D01*
G01*
X104294077Y-96520000D02*
G75*
G03*
X104294077Y-96520000I-2694077J0D01*
G01*
X91594077Y-96520000D02*
G75*
G03*
X91594077Y-96520000I-2694077J0D01*
G01*
X142394077Y-86360000D02*
G75*
G03*
X142394077Y-86360000I-2694077J0D01*
G01*
X129694077Y-86360000D02*
G75*
G03*
X129694077Y-86360000I-2694077J0D01*
G01*
X116994077Y-86360000D02*
G75*
G03*
X116994077Y-86360000I-2694077J0D01*
G01*
X104294077Y-86360000D02*
G75*
G03*
X104294077Y-86360000I-2694077J0D01*
G01*
X91594077Y-86360000D02*
G75*
G03*
X91594077Y-86360000I-2694077J0D01*
G01*
X142394077Y-76200000D02*
G75*
G03*
X142394077Y-76200000I-2694077J0D01*
G01*
X129694077Y-76200000D02*
G75*
G03*
X129694077Y-76200000I-2694077J0D01*
G01*
X116994077Y-76200000D02*
G75*
G03*
X116994077Y-76200000I-2694077J0D01*
G01*
X104294077Y-76200000D02*
G75*
G03*
X104294077Y-76200000I-2694077J0D01*
G01*
X91594077Y-76200000D02*
G75*
G03*
X91594077Y-76200000I-2694077J0D01*
G01*
X86042500Y-60642500D02*
G75*
G03*
X87312500Y-61912500I1270000J0D01*
G01*
X86042500Y-33337500D02*
X86042500Y-60642500D01*
X141287500Y-61912500D02*
X87312500Y-61912500D01*
X141287500Y-61912500D02*
G75*
G03*
X142557500Y-60642500I0J1270000D01*
G01*
X142557500Y-33337500D02*
X142557500Y-60642500D01*
X87312500Y-32067500D02*
X141287500Y-32067500D01*
X142557500Y-33337500D02*
G75*
G03*
X141287500Y-32067500I-1270000J0D01*
G01*
X87312500Y-32067500D02*
G75*
G03*
X86042500Y-33337500I0J-1270000D01*
G01*
X81597500Y-156527500D02*
G75*
G03*
X82867500Y-157797500I1270000J0D01*
G01*
X145732500Y-157797500D02*
G75*
G03*
X147002500Y-156527500I0J1270000D01*
G01*
X82867500Y-157797500D02*
X145732500Y-157797500D01*
X147002500Y-28892500D02*
G75*
G03*
X145732500Y-27622500I-1270000J0D01*
G01*
X82867500Y-27622500D02*
X145732500Y-27622500D01*
X82867500Y-27622500D02*
G75*
G03*
X81597500Y-28892500I0J-1270000D01*
G01*
X147002500Y-28892500D02*
X147002500Y-156527500D01*
X81597500Y-28892500D02*
X81597500Y-156527500D01*
M02*
