M48
; DRILL file {KiCad 6.0.5+dfsg-1~bpo11+1} date Mon Oct  3 08:51:29 2022
; FORMAT={-:-/ absolute / inch / decimal}
; #@! TF.CreationDate,2022-10-03T08:51:29+13:00
; #@! TF.GenerationSoftware,Kicad,Pcbnew,6.0.5+dfsg-1~bpo11+1
; #@! TF.FileFunction,Plated,1,2,PTH
FMAT,2
INCH
; #@! TA.AperFunction,Plated,PTH,ViaDrill
T1C0.0157
; #@! TA.AperFunction,Plated,PTH,ComponentDrill
T2C0.0394
; #@! TA.AperFunction,Plated,PTH,ComponentDrill
T3C0.0402
; #@! TA.AperFunction,Plated,PTH,ComponentDrill
T4C0.0433
%
G90
G05
T1
X3.9646Y-1.8896
X4.1146Y-1.5646
X4.1146Y-1.8146
X4.1896Y-1.5003
X4.1896Y-1.6646
X4.204Y-1.8646
X4.2896Y-1.8396
X4.5146Y-1.7396
X4.5146Y-1.9146
X4.5646Y-2.9396
X4.5646Y-3.0896
X4.6497Y-1.8081
X4.6646Y-1.4728
X4.6646Y-1.5896
X4.6646Y-1.7146
X4.6646Y-2.9396
X4.6646Y-3.0896
X4.7166Y-1.8646
X4.8646Y-1.6146
X4.8646Y-2.9396
X4.8646Y-3.0896
X4.9146Y-1.6146
X4.9896Y-1.6146
X5.0646Y-2.9396
X5.0646Y-3.0896
X5.0753Y-1.8216
X5.0896Y-1.6146
X5.0898Y-1.7396
X5.1345Y-1.8513
X5.1646Y-2.9396
X5.1646Y-3.0896
X5.1737Y-1.7646
X5.1737Y-1.8063
X5.1896Y-1.6146
X5.2146Y-1.8396
X5.2396Y-1.6146
X5.3396Y-2.9396
X5.3396Y-3.0896
X5.3646Y-1.6646
X5.5646Y-2.9396
X5.5646Y-3.0896
X5.6396Y-1.6396
X5.6396Y-1.7396
X5.6646Y-2.9396
X5.6646Y-3.0896
X5.6896Y-1.8396
X5.8231Y-1.7912
X5.9688Y-1.7038
X5.9688Y-2.0996
X6.0096Y-1.9246
X6.2096Y-2.0846
X6.2396Y-2.3246
T2
X4.3396Y-1.5662
X4.3396Y-1.6646
X6.1196Y-2.5646
X6.1196Y-2.6646
X6.1196Y-2.7646
T3
X3.9646Y-2.0396
X3.9646Y-2.7396
X4.0646Y-2.0396
X4.0646Y-2.7396
X4.1646Y-2.0396
X4.1646Y-2.7396
X4.2646Y-2.0396
X4.2646Y-2.7396
X4.3646Y-2.0396
X4.3646Y-2.7396
X4.4646Y-2.0396
X4.4646Y-2.7396
X4.5646Y-2.0396
X4.5646Y-2.7396
X4.6646Y-2.0396
X4.6646Y-2.7396
X4.7646Y-2.0396
X4.7646Y-2.7396
X4.8646Y-2.0396
X4.8646Y-2.7396
X4.9646Y-2.0396
X4.9646Y-2.7396
X5.0646Y-2.0396
X5.0646Y-2.7396
X5.1646Y-2.0396
X5.1646Y-2.7396
X5.2646Y-2.0396
X5.2646Y-2.7396
X5.3646Y-2.0396
X5.3646Y-2.7396
X5.4646Y-2.0396
X5.4646Y-2.7396
X5.5646Y-2.0396
X5.5646Y-2.7396
X5.6646Y-2.0396
X5.6646Y-2.7396
X5.7646Y-2.0396
X5.7646Y-2.7396
X5.8556Y-2.2896
X5.8556Y-2.3896
X5.8556Y-2.4896
X5.8646Y-2.0396
X5.8646Y-2.7396
T4
X3.9867Y-3.1761
X3.9867Y-3.3532
X3.9867Y-3.5761
X3.9867Y-3.7532
X3.9867Y-3.9761
X3.9867Y-4.1532
X3.9867Y-4.3761
X3.9867Y-4.5532
X3.9867Y-4.7761
X3.9867Y-4.9532
X3.9867Y-5.1761
X3.9867Y-5.3532
X3.9867Y-5.5761
X3.9867Y-5.7532
X3.9867Y-5.9761
X3.9867Y-6.1532
X4.2426Y-3.1761
X4.2426Y-3.3532
X4.2426Y-3.5761
X4.2426Y-3.7532
X4.2426Y-3.9761
X4.2426Y-4.1532
X4.2426Y-4.3761
X4.2426Y-4.5532
X4.2426Y-4.7761
X4.2426Y-4.9532
X4.2426Y-5.1761
X4.2426Y-5.3532
X4.2426Y-5.5761
X4.2426Y-5.7532
X4.2426Y-5.9761
X4.2426Y-6.1532
X4.4867Y-3.1761
X4.4867Y-3.3532
X4.4867Y-3.5761
X4.4867Y-3.7532
X4.4867Y-3.9761
X4.4867Y-4.1532
X4.4867Y-4.3761
X4.4867Y-4.5532
X4.4867Y-4.7761
X4.4867Y-4.9532
X4.4867Y-5.1761
X4.4867Y-5.3532
X4.4867Y-5.5761
X4.4867Y-5.7532
X4.4867Y-5.9761
X4.4867Y-6.1532
X4.7426Y-3.1761
X4.7426Y-3.3532
X4.7426Y-3.5761
X4.7426Y-3.7532
X4.7426Y-3.9761
X4.7426Y-4.1532
X4.7426Y-4.3761
X4.7426Y-4.5532
X4.7426Y-4.7761
X4.7426Y-4.9532
X4.7426Y-5.1761
X4.7426Y-5.3532
X4.7426Y-5.5761
X4.7426Y-5.7532
X4.7426Y-5.9761
X4.7426Y-6.1532
X4.9867Y-3.1761
X4.9867Y-3.3532
X4.9867Y-3.5761
X4.9867Y-3.7532
X4.9867Y-3.9761
X4.9867Y-4.1532
X4.9867Y-4.3761
X4.9867Y-4.5532
X4.9867Y-4.7761
X4.9867Y-4.9532
X4.9867Y-5.1761
X4.9867Y-5.3532
X4.9867Y-5.5761
X4.9867Y-5.7532
X4.9867Y-5.9761
X4.9867Y-6.1532
X5.2426Y-3.1761
X5.2426Y-3.3532
X5.2426Y-3.5761
X5.2426Y-3.7532
X5.2426Y-3.9761
X5.2426Y-4.1532
X5.2426Y-4.3761
X5.2426Y-4.5532
X5.2426Y-4.7761
X5.2426Y-4.9532
X5.2426Y-5.1761
X5.2426Y-5.3532
X5.2426Y-5.5761
X5.2426Y-5.7532
X5.2426Y-5.9761
X5.2426Y-6.1532
X5.4867Y-3.1761
X5.4867Y-3.3532
X5.4867Y-3.5761
X5.4867Y-3.7532
X5.4867Y-3.9761
X5.4867Y-4.1532
X5.4867Y-4.3761
X5.4867Y-4.5532
X5.4867Y-4.7761
X5.4867Y-4.9532
X5.4867Y-5.1761
X5.4867Y-5.3532
X5.4867Y-5.5761
X5.4867Y-5.7532
X5.4867Y-5.9761
X5.4867Y-6.1532
X5.7426Y-3.1761
X5.7426Y-3.3532
X5.7426Y-3.5761
X5.7426Y-3.7532
X5.7426Y-3.9761
X5.7426Y-4.1532
X5.7426Y-4.3761
X5.7426Y-4.5532
X5.7426Y-4.7761
X5.7426Y-4.9532
X5.7426Y-5.1761
X5.7426Y-5.3532
X5.7426Y-5.5761
X5.7426Y-5.7532
X5.7426Y-5.9761
X5.7426Y-6.1532
X5.9867Y-3.1761
X5.9867Y-3.3532
X5.9867Y-3.5761
X5.9867Y-3.7532
X5.9867Y-3.9761
X5.9867Y-4.1532
X5.9867Y-4.3761
X5.9867Y-4.5532
X5.9867Y-4.7761
X5.9867Y-4.9532
X5.9867Y-5.1761
X5.9867Y-5.3532
X5.9867Y-5.5761
X5.9867Y-5.7532
X5.9867Y-5.9761
X5.9867Y-6.1532
X6.2426Y-3.1761
X6.2426Y-3.3532
X6.2426Y-3.5761
X6.2426Y-3.7532
X6.2426Y-3.9761
X6.2426Y-4.1532
X6.2426Y-4.3761
X6.2426Y-4.5532
X6.2426Y-4.7761
X6.2426Y-4.9532
X6.2426Y-5.1761
X6.2426Y-5.3532
X6.2426Y-5.5761
X6.2426Y-5.7532
X6.2426Y-5.9761
X6.2426Y-6.1532
T0
M30
