%TF.GenerationSoftware,KiCad,Pcbnew,6.0.5+dfsg-1~bpo11+1*%
%TF.CreationDate,2022-10-03T08:51:32+13:00*%
%TF.ProjectId,ThinCalculator,5468696e-4361-46c6-9375-6c61746f722e,rev?*%
%TF.SameCoordinates,Original*%
%TF.FileFunction,Soldermask,Top*%
%TF.FilePolarity,Negative*%
%FSLAX46Y46*%
G04 Gerber Fmt 4.6, Leading zero omitted, Abs format (unit mm)*
G04 Created by KiCad (PCBNEW 6.0.5+dfsg-1~bpo11+1) date 2022-10-03 08:51:32*
%MOMM*%
%LPD*%
G01*
G04 APERTURE LIST*
G04 Aperture macros list*
%AMRoundRect*
0 Rectangle with rounded corners*
0 $1 Rounding radius*
0 $2 $3 $4 $5 $6 $7 $8 $9 X,Y pos of 4 corners*
0 Add a 4 corners polygon primitive as box body*
4,1,4,$2,$3,$4,$5,$6,$7,$8,$9,$2,$3,0*
0 Add four circle primitives for the rounded corners*
1,1,$1+$1,$2,$3*
1,1,$1+$1,$4,$5*
1,1,$1+$1,$6,$7*
1,1,$1+$1,$8,$9*
0 Add four rect primitives between the rounded corners*
20,1,$1+$1,$2,$3,$4,$5,0*
20,1,$1+$1,$4,$5,$6,$7,0*
20,1,$1+$1,$6,$7,$8,$9,0*
20,1,$1+$1,$8,$9,$2,$3,0*%
G04 Aperture macros list end*
%ADD10O,2.000000X1.700000*%
%ADD11RoundRect,0.250000X0.750000X-0.600000X0.750000X0.600000X-0.750000X0.600000X-0.750000X-0.600000X0*%
%ADD12C,2.200000*%
%ADD13R,0.300000X1.300000*%
%ADD14R,1.800000X2.200000*%
%ADD15R,1.700000X1.700000*%
%ADD16O,1.700000X1.700000*%
%ADD17R,1.200000X0.900000*%
%ADD18RoundRect,0.237500X-0.237500X0.250000X-0.237500X-0.250000X0.237500X-0.250000X0.237500X0.250000X0*%
%ADD19RoundRect,0.237500X0.237500X-0.250000X0.237500X0.250000X-0.237500X0.250000X-0.237500X-0.250000X0*%
%ADD20RoundRect,0.250000X0.337500X0.475000X-0.337500X0.475000X-0.337500X-0.475000X0.337500X-0.475000X0*%
%ADD21R,2.900000X1.800000*%
%ADD22RoundRect,0.150000X-0.150000X0.512500X-0.150000X-0.512500X0.150000X-0.512500X0.150000X0.512500X0*%
%ADD23C,2.000000*%
%ADD24RoundRect,0.237500X0.250000X0.237500X-0.250000X0.237500X-0.250000X-0.237500X0.250000X-0.237500X0*%
%ADD25RoundRect,0.150000X0.150000X-0.587500X0.150000X0.587500X-0.150000X0.587500X-0.150000X-0.587500X0*%
%ADD26RoundRect,0.250000X-0.425000X0.537500X-0.425000X-0.537500X0.425000X-0.537500X0.425000X0.537500X0*%
%ADD27RoundRect,0.237500X-0.250000X-0.237500X0.250000X-0.237500X0.250000X0.237500X-0.250000X0.237500X0*%
%ADD28RoundRect,0.150000X-0.150000X0.587500X-0.150000X-0.587500X0.150000X-0.587500X0.150000X0.587500X0*%
%ADD29RoundRect,0.250000X-0.337500X-0.475000X0.337500X-0.475000X0.337500X0.475000X-0.337500X0.475000X0*%
%ADD30O,1.500000X1.500000*%
%ADD31O,1.800000X1.800000*%
%ADD32RoundRect,0.250000X-0.537500X-0.425000X0.537500X-0.425000X0.537500X0.425000X-0.537500X0.425000X0*%
%ADD33C,0.900000*%
G04 APERTURE END LIST*
D10*
%TO.C,J2*%
X110226974Y-39781974D03*
D11*
X110226974Y-42281974D03*
%TD*%
D12*
%TO.C,H8*%
X148961974Y-118481974D03*
%TD*%
%TO.C,H7*%
X110861974Y-118481974D03*
%TD*%
%TO.C,H6*%
X159121974Y-161026974D03*
%TD*%
%TO.C,H5*%
X100701974Y-161026974D03*
%TD*%
%TO.C,H4*%
X159121974Y-76571974D03*
%TD*%
%TO.C,H3*%
X100701974Y-76571974D03*
%TD*%
%TO.C,H2*%
X159121974Y-37836974D03*
%TD*%
%TO.C,H1*%
X100701974Y-37836974D03*
%TD*%
D13*
%TO.C,U3*%
X124161974Y-42336974D03*
X124661974Y-42336974D03*
X125161974Y-42336974D03*
X125661974Y-42336974D03*
X126161974Y-42336974D03*
X126661974Y-42336974D03*
X127161974Y-42336974D03*
X127661974Y-42336974D03*
X128161974Y-42336974D03*
X128661974Y-42336974D03*
X129161974Y-42336974D03*
X129661974Y-42336974D03*
X130161974Y-42336974D03*
X130661974Y-42336974D03*
X131161974Y-42336974D03*
X131661974Y-42336974D03*
X132161974Y-42336974D03*
X132661974Y-42336974D03*
X133161974Y-42336974D03*
X133661974Y-42336974D03*
X134161974Y-42336974D03*
X134661974Y-42336974D03*
X135161974Y-42336974D03*
X135661974Y-42336974D03*
D14*
X137561974Y-45586974D03*
X122261974Y-45586974D03*
%TD*%
D15*
%TO.C,J1*%
X155438974Y-65141974D03*
D16*
X155438974Y-67681974D03*
X155438974Y-70221974D03*
%TD*%
D17*
%TO.C,D1*%
X155184974Y-41901974D03*
X155184974Y-45201974D03*
%TD*%
D18*
%TO.C,R1*%
X153279974Y-44163474D03*
X153279974Y-45988474D03*
%TD*%
D19*
%TO.C,R2*%
X151374974Y-45988474D03*
X151374974Y-44163474D03*
%TD*%
D20*
%TO.C,C1*%
X153936474Y-52060974D03*
X151861474Y-52060974D03*
%TD*%
D21*
%TO.C,L1*%
X156708974Y-50485974D03*
X156708974Y-47285974D03*
%TD*%
D20*
%TO.C,C2*%
X153174474Y-42281974D03*
X151099474Y-42281974D03*
%TD*%
D22*
%TO.C,U1*%
X153594974Y-47748474D03*
X152644974Y-47748474D03*
X151694974Y-47748474D03*
X151694974Y-50023474D03*
X153594974Y-50023474D03*
%TD*%
D23*
%TO.C,SW41*%
X158561974Y-151791974D03*
X152061974Y-151791974D03*
X158561974Y-156291974D03*
X152061974Y-156291974D03*
%TD*%
%TO.C,SW40*%
X158561974Y-141631974D03*
X152061974Y-141631974D03*
X158561974Y-146131974D03*
X152061974Y-146131974D03*
%TD*%
%TO.C,SW39*%
X158561974Y-131471974D03*
X152061974Y-131471974D03*
X158561974Y-135971974D03*
X152061974Y-135971974D03*
%TD*%
%TO.C,SW38*%
X158561974Y-121311974D03*
X152061974Y-121311974D03*
X158561974Y-125811974D03*
X152061974Y-125811974D03*
%TD*%
%TO.C,SW37*%
X158561974Y-111151974D03*
X152061974Y-111151974D03*
X158561974Y-115651974D03*
X152061974Y-115651974D03*
%TD*%
%TO.C,SW36*%
X158561974Y-100991974D03*
X152061974Y-100991974D03*
X158561974Y-105491974D03*
X152061974Y-105491974D03*
%TD*%
%TO.C,SW35*%
X158561974Y-90831974D03*
X152061974Y-90831974D03*
X158561974Y-95331974D03*
X152061974Y-95331974D03*
%TD*%
%TO.C,SW34*%
X158561974Y-80671974D03*
X152061974Y-80671974D03*
X158561974Y-85171974D03*
X152061974Y-85171974D03*
%TD*%
%TO.C,SW33*%
X145861974Y-151791974D03*
X139361974Y-151791974D03*
X145861974Y-156291974D03*
X139361974Y-156291974D03*
%TD*%
%TO.C,SW32*%
X145861974Y-141631974D03*
X139361974Y-141631974D03*
X145861974Y-146131974D03*
X139361974Y-146131974D03*
%TD*%
%TO.C,SW31*%
X145861974Y-131471974D03*
X139361974Y-131471974D03*
X145861974Y-135971974D03*
X139361974Y-135971974D03*
%TD*%
%TO.C,SW30*%
X145861974Y-121311974D03*
X139361974Y-121311974D03*
X145861974Y-125811974D03*
X139361974Y-125811974D03*
%TD*%
%TO.C,SW29*%
X145861974Y-111151974D03*
X139361974Y-111151974D03*
X145861974Y-115651974D03*
X139361974Y-115651974D03*
%TD*%
%TO.C,SW28*%
X145861974Y-100991974D03*
X139361974Y-100991974D03*
X145861974Y-105491974D03*
X139361974Y-105491974D03*
%TD*%
%TO.C,SW27*%
X145861974Y-90831974D03*
X139361974Y-90831974D03*
X145861974Y-95331974D03*
X139361974Y-95331974D03*
%TD*%
%TO.C,SW26*%
X145861974Y-80671974D03*
X139361974Y-80671974D03*
X145861974Y-85171974D03*
X139361974Y-85171974D03*
%TD*%
%TO.C,SW25*%
X133161974Y-151791974D03*
X126661974Y-151791974D03*
X133161974Y-156291974D03*
X126661974Y-156291974D03*
%TD*%
%TO.C,SW24*%
X133161974Y-141631974D03*
X126661974Y-141631974D03*
X133161974Y-146131974D03*
X126661974Y-146131974D03*
%TD*%
%TO.C,SW23*%
X133161974Y-131471974D03*
X126661974Y-131471974D03*
X133161974Y-135971974D03*
X126661974Y-135971974D03*
%TD*%
%TO.C,SW22*%
X133161974Y-121311974D03*
X126661974Y-121311974D03*
X133161974Y-125811974D03*
X126661974Y-125811974D03*
%TD*%
%TO.C,SW21*%
X133161974Y-111151974D03*
X126661974Y-111151974D03*
X133161974Y-115651974D03*
X126661974Y-115651974D03*
%TD*%
%TO.C,SW20*%
X133161974Y-100991974D03*
X126661974Y-100991974D03*
X133161974Y-105491974D03*
X126661974Y-105491974D03*
%TD*%
%TO.C,SW19*%
X133161974Y-90831974D03*
X126661974Y-90831974D03*
X133161974Y-95331974D03*
X126661974Y-95331974D03*
%TD*%
%TO.C,SW18*%
X133161974Y-80671974D03*
X126661974Y-80671974D03*
X133161974Y-85171974D03*
X126661974Y-85171974D03*
%TD*%
%TO.C,SW17*%
X120461974Y-151791974D03*
X113961974Y-151791974D03*
X120461974Y-156291974D03*
X113961974Y-156291974D03*
%TD*%
%TO.C,SW16*%
X120461974Y-141631974D03*
X113961974Y-141631974D03*
X120461974Y-146131974D03*
X113961974Y-146131974D03*
%TD*%
%TO.C,SW15*%
X120461974Y-131471974D03*
X113961974Y-131471974D03*
X120461974Y-135971974D03*
X113961974Y-135971974D03*
%TD*%
%TO.C,SW14*%
X120461974Y-121311974D03*
X113961974Y-121311974D03*
X120461974Y-125811974D03*
X113961974Y-125811974D03*
%TD*%
%TO.C,SW13*%
X120461974Y-111151974D03*
X113961974Y-111151974D03*
X120461974Y-115651974D03*
X113961974Y-115651974D03*
%TD*%
%TO.C,SW12*%
X120461974Y-100991974D03*
X113961974Y-100991974D03*
X120461974Y-105491974D03*
X113961974Y-105491974D03*
%TD*%
%TO.C,SW11*%
X120461974Y-90831974D03*
X113961974Y-90831974D03*
X120461974Y-95331974D03*
X113961974Y-95331974D03*
%TD*%
%TO.C,SW10*%
X120461974Y-80671974D03*
X113961974Y-80671974D03*
X120461974Y-85171974D03*
X113961974Y-85171974D03*
%TD*%
%TO.C,SW9*%
X107761974Y-151791974D03*
X101261974Y-151791974D03*
X107761974Y-156291974D03*
X101261974Y-156291974D03*
%TD*%
%TO.C,SW8*%
X107761974Y-141631974D03*
X101261974Y-141631974D03*
X107761974Y-146131974D03*
X101261974Y-146131974D03*
%TD*%
%TO.C,SW7*%
X107761974Y-131471974D03*
X101261974Y-131471974D03*
X107761974Y-135971974D03*
X101261974Y-135971974D03*
%TD*%
%TO.C,SW6*%
X107761974Y-121311974D03*
X101261974Y-121311974D03*
X107761974Y-125811974D03*
X101261974Y-125811974D03*
%TD*%
%TO.C,SW5*%
X107761974Y-111151974D03*
X101261974Y-111151974D03*
X107761974Y-115651974D03*
X101261974Y-115651974D03*
%TD*%
%TO.C,SW4*%
X107761974Y-100991974D03*
X101261974Y-100991974D03*
X107761974Y-105491974D03*
X101261974Y-105491974D03*
%TD*%
%TO.C,SW3*%
X107761974Y-90831974D03*
X101261974Y-90831974D03*
X107761974Y-95331974D03*
X101261974Y-95331974D03*
%TD*%
%TO.C,SW2*%
X107761974Y-80671974D03*
X101261974Y-80671974D03*
X107761974Y-85171974D03*
X101261974Y-85171974D03*
%TD*%
D24*
%TO.C,R4*%
X142254474Y-41646974D03*
X140429474Y-41646974D03*
%TD*%
%TO.C,R3*%
X106059474Y-43551974D03*
X104234474Y-43551974D03*
%TD*%
D25*
%TO.C,Q2*%
X100701974Y-45789474D03*
X101651974Y-47664474D03*
X99751974Y-47664474D03*
%TD*%
D26*
%TO.C,C4*%
X146802974Y-42622474D03*
X146802974Y-45497474D03*
%TD*%
D27*
%TO.C,R5*%
X111854474Y-47996974D03*
X113679474Y-47996974D03*
%TD*%
D18*
%TO.C,R10*%
X106416974Y-73119474D03*
X106416974Y-74944474D03*
%TD*%
%TO.C,R6*%
X113401974Y-73119474D03*
X113401974Y-74944474D03*
%TD*%
%TO.C,R7*%
X108321974Y-73119474D03*
X108321974Y-74944474D03*
%TD*%
D22*
%TO.C,U4*%
X109906974Y-45589474D03*
X108956974Y-45589474D03*
X108006974Y-45589474D03*
X108006974Y-47864474D03*
X109906974Y-47864474D03*
%TD*%
D18*
%TO.C,R8*%
X104511974Y-73119474D03*
X104511974Y-74944474D03*
%TD*%
%TO.C,R9*%
X110861974Y-73119474D03*
X110861974Y-74944474D03*
%TD*%
D28*
%TO.C,Q1*%
X105461974Y-45789474D03*
X103561974Y-45789474D03*
X104511974Y-47664474D03*
%TD*%
D29*
%TO.C,C6*%
X140304474Y-44186974D03*
X142379474Y-44186974D03*
%TD*%
D30*
%TO.C,U2*%
X103861974Y-63121974D03*
D31*
X100831974Y-57971974D03*
X100831974Y-63421974D03*
D30*
X103861974Y-58271974D03*
D16*
X100701974Y-69586974D03*
X103241974Y-69586974D03*
D15*
X105781974Y-69586974D03*
D16*
X108321974Y-69586974D03*
X110861974Y-69586974D03*
X113401974Y-69586974D03*
X115941974Y-69586974D03*
D15*
X118481974Y-69586974D03*
D16*
X121021974Y-69586974D03*
X123561974Y-69586974D03*
X126101974Y-69586974D03*
X128641974Y-69586974D03*
D15*
X131181974Y-69586974D03*
D16*
X133721974Y-69586974D03*
X136261974Y-69586974D03*
X138801974Y-69586974D03*
X141341974Y-69586974D03*
D15*
X143881974Y-69586974D03*
D16*
X146421974Y-69586974D03*
X148961974Y-69586974D03*
X148961974Y-51806974D03*
X146421974Y-51806974D03*
D15*
X143881974Y-51806974D03*
D16*
X141341974Y-51806974D03*
X138801974Y-51806974D03*
X136261974Y-51806974D03*
X133721974Y-51806974D03*
D15*
X131181974Y-51806974D03*
D16*
X128641974Y-51806974D03*
X126101974Y-51806974D03*
X123561974Y-51806974D03*
X121021974Y-51806974D03*
D15*
X118481974Y-51806974D03*
D16*
X115941974Y-51806974D03*
X113401974Y-51806974D03*
X110861974Y-51806974D03*
X108321974Y-51806974D03*
D15*
X105781974Y-51806974D03*
D16*
X103241974Y-51806974D03*
X100701974Y-51806974D03*
X148731974Y-63236974D03*
D15*
X148731974Y-60696974D03*
D16*
X148731974Y-58156974D03*
%TD*%
D32*
%TO.C,C5*%
X140539474Y-46726974D03*
X143414474Y-46726974D03*
%TD*%
D26*
%TO.C,C3*%
X149088974Y-42622474D03*
X149088974Y-45497474D03*
%TD*%
D32*
%TO.C,C7*%
X112131974Y-45456974D03*
X115006974Y-45456974D03*
%TD*%
D33*
%TO.C,SW1*%
X159248974Y-53359974D03*
X159248974Y-60159974D03*
%TD*%
M02*
