%TF.GenerationSoftware,KiCad,Pcbnew,6.0.5+dfsg-1~bpo11+1*%
%TF.CreationDate,2022-10-03T08:51:32+13:00*%
%TF.ProjectId,ThinCalculator,5468696e-4361-46c6-9375-6c61746f722e,rev?*%
%TF.SameCoordinates,Original*%
%TF.FileFunction,Copper,L1,Top*%
%TF.FilePolarity,Positive*%
%FSLAX46Y46*%
G04 Gerber Fmt 4.6, Leading zero omitted, Abs format (unit mm)*
G04 Created by KiCad (PCBNEW 6.0.5+dfsg-1~bpo11+1) date 2022-10-03 08:51:32*
%MOMM*%
%LPD*%
G01*
G04 APERTURE LIST*
G04 Aperture macros list*
%AMRoundRect*
0 Rectangle with rounded corners*
0 $1 Rounding radius*
0 $2 $3 $4 $5 $6 $7 $8 $9 X,Y pos of 4 corners*
0 Add a 4 corners polygon primitive as box body*
4,1,4,$2,$3,$4,$5,$6,$7,$8,$9,$2,$3,0*
0 Add four circle primitives for the rounded corners*
1,1,$1+$1,$2,$3*
1,1,$1+$1,$4,$5*
1,1,$1+$1,$6,$7*
1,1,$1+$1,$8,$9*
0 Add four rect primitives between the rounded corners*
20,1,$1+$1,$2,$3,$4,$5,0*
20,1,$1+$1,$4,$5,$6,$7,0*
20,1,$1+$1,$6,$7,$8,$9,0*
20,1,$1+$1,$8,$9,$2,$3,0*%
G04 Aperture macros list end*
%TA.AperFunction,ComponentPad*%
%ADD10O,2.000000X1.700000*%
%TD*%
%TA.AperFunction,ComponentPad*%
%ADD11RoundRect,0.250000X0.750000X-0.600000X0.750000X0.600000X-0.750000X0.600000X-0.750000X-0.600000X0*%
%TD*%
%TA.AperFunction,SMDPad,CuDef*%
%ADD12R,0.300000X1.300000*%
%TD*%
%TA.AperFunction,SMDPad,CuDef*%
%ADD13R,1.800000X2.200000*%
%TD*%
%TA.AperFunction,ComponentPad*%
%ADD14R,1.700000X1.700000*%
%TD*%
%TA.AperFunction,ComponentPad*%
%ADD15O,1.700000X1.700000*%
%TD*%
%TA.AperFunction,SMDPad,CuDef*%
%ADD16R,1.200000X0.900000*%
%TD*%
%TA.AperFunction,SMDPad,CuDef*%
%ADD17RoundRect,0.237500X-0.237500X0.250000X-0.237500X-0.250000X0.237500X-0.250000X0.237500X0.250000X0*%
%TD*%
%TA.AperFunction,SMDPad,CuDef*%
%ADD18RoundRect,0.237500X0.237500X-0.250000X0.237500X0.250000X-0.237500X0.250000X-0.237500X-0.250000X0*%
%TD*%
%TA.AperFunction,SMDPad,CuDef*%
%ADD19RoundRect,0.250000X0.337500X0.475000X-0.337500X0.475000X-0.337500X-0.475000X0.337500X-0.475000X0*%
%TD*%
%TA.AperFunction,SMDPad,CuDef*%
%ADD20R,2.900000X1.800000*%
%TD*%
%TA.AperFunction,SMDPad,CuDef*%
%ADD21RoundRect,0.150000X-0.150000X0.512500X-0.150000X-0.512500X0.150000X-0.512500X0.150000X0.512500X0*%
%TD*%
%TA.AperFunction,ComponentPad*%
%ADD22C,2.000000*%
%TD*%
%TA.AperFunction,SMDPad,CuDef*%
%ADD23RoundRect,0.237500X0.250000X0.237500X-0.250000X0.237500X-0.250000X-0.237500X0.250000X-0.237500X0*%
%TD*%
%TA.AperFunction,SMDPad,CuDef*%
%ADD24RoundRect,0.150000X0.150000X-0.587500X0.150000X0.587500X-0.150000X0.587500X-0.150000X-0.587500X0*%
%TD*%
%TA.AperFunction,SMDPad,CuDef*%
%ADD25RoundRect,0.250000X-0.425000X0.537500X-0.425000X-0.537500X0.425000X-0.537500X0.425000X0.537500X0*%
%TD*%
%TA.AperFunction,SMDPad,CuDef*%
%ADD26RoundRect,0.237500X-0.250000X-0.237500X0.250000X-0.237500X0.250000X0.237500X-0.250000X0.237500X0*%
%TD*%
%TA.AperFunction,SMDPad,CuDef*%
%ADD27RoundRect,0.150000X-0.150000X0.587500X-0.150000X-0.587500X0.150000X-0.587500X0.150000X0.587500X0*%
%TD*%
%TA.AperFunction,SMDPad,CuDef*%
%ADD28RoundRect,0.250000X-0.337500X-0.475000X0.337500X-0.475000X0.337500X0.475000X-0.337500X0.475000X0*%
%TD*%
%TA.AperFunction,SMDPad,CuDef*%
%ADD29RoundRect,0.250000X-0.537500X-0.425000X0.537500X-0.425000X0.537500X0.425000X-0.537500X0.425000X0*%
%TD*%
%TA.AperFunction,ViaPad*%
%ADD30C,0.800000*%
%TD*%
%TA.AperFunction,Conductor*%
%ADD31C,0.300000*%
%TD*%
%TA.AperFunction,Conductor*%
%ADD32C,0.500000*%
%TD*%
%TA.AperFunction,Conductor*%
%ADD33C,0.800000*%
%TD*%
%TA.AperFunction,Conductor*%
%ADD34C,1.000000*%
%TD*%
G04 APERTURE END LIST*
D10*
%TO.P,J2,2,Pin_2*%
%TO.N,GND*%
X110226974Y-39781974D03*
D11*
%TO.P,J2,1,Pin_1*%
%TO.N,VBAT*%
X110226974Y-42281974D03*
%TD*%
D12*
%TO.P,U3,1,GND*%
%TO.N,GND*%
X124161974Y-42336974D03*
%TO.P,U3,2,VLSS*%
X124661974Y-42336974D03*
%TO.P,U3,3,VSS*%
X125161974Y-42336974D03*
%TO.P,U3,4,N/C*%
%TO.N,unconnected-(U3-Pad4)*%
X125661974Y-42336974D03*
%TO.P,U3,5,VDD*%
%TO.N,+3V3*%
X126161974Y-42336974D03*
%TO.P,U3,6,BS1*%
%TO.N,GND*%
X126661974Y-42336974D03*
%TO.P,U3,7,BS2*%
X127161974Y-42336974D03*
%TO.P,U3,8,CS#*%
%TO.N,CS*%
X127661974Y-42336974D03*
%TO.P,U3,9,RES#*%
%TO.N,RESET*%
X128161974Y-42336974D03*
%TO.P,U3,10,D/C#*%
%TO.N,DC*%
X128661974Y-42336974D03*
%TO.P,U3,11,R/W#*%
%TO.N,GND*%
X129161974Y-42336974D03*
%TO.P,U3,12,E/RD#*%
X129661974Y-42336974D03*
%TO.P,U3,13,D0/SCK*%
%TO.N,SCK*%
X130161974Y-42336974D03*
%TO.P,U3,14,D1/SDA*%
%TO.N,SDO*%
X130661974Y-42336974D03*
%TO.P,U3,15,D2/SDA*%
%TO.N,unconnected-(U3-Pad15)*%
X131161974Y-42336974D03*
%TO.P,U3,16,D3*%
%TO.N,GND*%
X131661974Y-42336974D03*
%TO.P,U3,17,D4*%
X132161974Y-42336974D03*
%TO.P,U3,18,D5*%
X132661974Y-42336974D03*
%TO.P,U3,19,D6*%
X133161974Y-42336974D03*
%TO.P,U3,20,D7*%
X133661974Y-42336974D03*
%TO.P,U3,21,IREF*%
%TO.N,Net-(R4-Pad2)*%
X134161974Y-42336974D03*
%TO.P,U3,22,VCOM*%
%TO.N,Net-(C5-Pad1)*%
X134661974Y-42336974D03*
%TO.P,U3,23,VOP*%
%TO.N,VOP*%
X135161974Y-42336974D03*
%TO.P,U3,24,GND*%
%TO.N,GND*%
X135661974Y-42336974D03*
D13*
%TO.P,U3,MP*%
%TO.N,N/C*%
X137561974Y-45586974D03*
X122261974Y-45586974D03*
%TD*%
D14*
%TO.P,J1,1,Pin_1*%
%TO.N,Net-(J1-Pad1)*%
X155438974Y-65141974D03*
D15*
%TO.P,J1,2,Pin_2*%
%TO.N,GND*%
X155438974Y-67681974D03*
%TO.P,J1,3,Pin_3*%
%TO.N,Net-(J1-Pad3)*%
X155438974Y-70221974D03*
%TD*%
D16*
%TO.P,D1,1,K*%
%TO.N,VOP*%
X155184974Y-41901974D03*
%TO.P,D1,2,A*%
%TO.N,Net-(D1-Pad2)*%
X155184974Y-45201974D03*
%TD*%
D17*
%TO.P,R1,1*%
%TO.N,VOP*%
X153279974Y-44163474D03*
%TO.P,R1,2*%
%TO.N,Net-(R1-Pad2)*%
X153279974Y-45988474D03*
%TD*%
D18*
%TO.P,R2,1*%
%TO.N,Net-(R1-Pad2)*%
X151374974Y-45988474D03*
%TO.P,R2,2*%
%TO.N,GND*%
X151374974Y-44163474D03*
%TD*%
D19*
%TO.P,C1,1*%
%TO.N,VSYS*%
X153936474Y-52060974D03*
%TO.P,C1,2*%
%TO.N,GND*%
X151861474Y-52060974D03*
%TD*%
D20*
%TO.P,L1,1,1*%
%TO.N,VSYS*%
X156708974Y-50485974D03*
%TO.P,L1,2,2*%
%TO.N,Net-(D1-Pad2)*%
X156708974Y-47285974D03*
%TD*%
D19*
%TO.P,C2,1*%
%TO.N,VOP*%
X153174474Y-42281974D03*
%TO.P,C2,2*%
%TO.N,GND*%
X151099474Y-42281974D03*
%TD*%
D21*
%TO.P,U1,1,SW*%
%TO.N,Net-(D1-Pad2)*%
X153594974Y-47748474D03*
%TO.P,U1,2,GND*%
%TO.N,GND*%
X152644974Y-47748474D03*
%TO.P,U1,3,FB*%
%TO.N,Net-(R1-Pad2)*%
X151694974Y-47748474D03*
%TO.P,U1,4,~{SHDN}*%
%TO.N,OLED_POWER_EN*%
X151694974Y-50023474D03*
%TO.P,U1,5,IN*%
%TO.N,VSYS*%
X153594974Y-50023474D03*
%TD*%
D22*
%TO.P,SW41,1,1*%
%TO.N,ROW8*%
X158561974Y-151791974D03*
X152061974Y-151791974D03*
%TO.P,SW41,2,2*%
%TO.N,Net-(R6-Pad2)*%
X158561974Y-156291974D03*
X152061974Y-156291974D03*
%TD*%
%TO.P,SW40,1,1*%
%TO.N,ROW7*%
X158561974Y-141631974D03*
X152061974Y-141631974D03*
%TO.P,SW40,2,2*%
%TO.N,Net-(R6-Pad2)*%
X158561974Y-146131974D03*
X152061974Y-146131974D03*
%TD*%
%TO.P,SW39,1,1*%
%TO.N,ROW6*%
X158561974Y-131471974D03*
X152061974Y-131471974D03*
%TO.P,SW39,2,2*%
%TO.N,Net-(R6-Pad2)*%
X158561974Y-135971974D03*
X152061974Y-135971974D03*
%TD*%
%TO.P,SW38,1,1*%
%TO.N,ROW5*%
X158561974Y-121311974D03*
X152061974Y-121311974D03*
%TO.P,SW38,2,2*%
%TO.N,Net-(R6-Pad2)*%
X158561974Y-125811974D03*
X152061974Y-125811974D03*
%TD*%
%TO.P,SW37,1,1*%
%TO.N,ROW4*%
X158561974Y-111151974D03*
X152061974Y-111151974D03*
%TO.P,SW37,2,2*%
%TO.N,Net-(R6-Pad2)*%
X158561974Y-115651974D03*
X152061974Y-115651974D03*
%TD*%
%TO.P,SW36,1,1*%
%TO.N,ROW3*%
X158561974Y-100991974D03*
X152061974Y-100991974D03*
%TO.P,SW36,2,2*%
%TO.N,Net-(R6-Pad2)*%
X158561974Y-105491974D03*
X152061974Y-105491974D03*
%TD*%
%TO.P,SW35,1,1*%
%TO.N,ROW2*%
X158561974Y-90831974D03*
X152061974Y-90831974D03*
%TO.P,SW35,2,2*%
%TO.N,Net-(R6-Pad2)*%
X158561974Y-95331974D03*
X152061974Y-95331974D03*
%TD*%
%TO.P,SW34,1,1*%
%TO.N,ROW1*%
X158561974Y-80671974D03*
X152061974Y-80671974D03*
%TO.P,SW34,2,2*%
%TO.N,Net-(R6-Pad2)*%
X158561974Y-85171974D03*
X152061974Y-85171974D03*
%TD*%
%TO.P,SW33,1,1*%
%TO.N,ROW8*%
X145861974Y-151791974D03*
X139361974Y-151791974D03*
%TO.P,SW33,2,2*%
%TO.N,Net-(R9-Pad2)*%
X145861974Y-156291974D03*
X139361974Y-156291974D03*
%TD*%
%TO.P,SW32,1,1*%
%TO.N,ROW7*%
X145861974Y-141631974D03*
X139361974Y-141631974D03*
%TO.P,SW32,2,2*%
%TO.N,Net-(R9-Pad2)*%
X145861974Y-146131974D03*
X139361974Y-146131974D03*
%TD*%
%TO.P,SW31,1,1*%
%TO.N,ROW6*%
X145861974Y-131471974D03*
X139361974Y-131471974D03*
%TO.P,SW31,2,2*%
%TO.N,Net-(R9-Pad2)*%
X145861974Y-135971974D03*
X139361974Y-135971974D03*
%TD*%
%TO.P,SW30,1,1*%
%TO.N,ROW5*%
X145861974Y-121311974D03*
X139361974Y-121311974D03*
%TO.P,SW30,2,2*%
%TO.N,Net-(R9-Pad2)*%
X145861974Y-125811974D03*
X139361974Y-125811974D03*
%TD*%
%TO.P,SW29,1,1*%
%TO.N,ROW4*%
X145861974Y-111151974D03*
X139361974Y-111151974D03*
%TO.P,SW29,2,2*%
%TO.N,Net-(R9-Pad2)*%
X145861974Y-115651974D03*
X139361974Y-115651974D03*
%TD*%
%TO.P,SW28,1,1*%
%TO.N,ROW3*%
X145861974Y-100991974D03*
X139361974Y-100991974D03*
%TO.P,SW28,2,2*%
%TO.N,Net-(R9-Pad2)*%
X145861974Y-105491974D03*
X139361974Y-105491974D03*
%TD*%
%TO.P,SW27,1,1*%
%TO.N,ROW2*%
X145861974Y-90831974D03*
X139361974Y-90831974D03*
%TO.P,SW27,2,2*%
%TO.N,Net-(R9-Pad2)*%
X145861974Y-95331974D03*
X139361974Y-95331974D03*
%TD*%
%TO.P,SW26,1,1*%
%TO.N,ROW1*%
X145861974Y-80671974D03*
X139361974Y-80671974D03*
%TO.P,SW26,2,2*%
%TO.N,Net-(R9-Pad2)*%
X145861974Y-85171974D03*
X139361974Y-85171974D03*
%TD*%
%TO.P,SW25,1,1*%
%TO.N,ROW8*%
X133161974Y-151791974D03*
X126661974Y-151791974D03*
%TO.P,SW25,2,2*%
%TO.N,Net-(R7-Pad2)*%
X133161974Y-156291974D03*
X126661974Y-156291974D03*
%TD*%
%TO.P,SW24,1,1*%
%TO.N,ROW7*%
X133161974Y-141631974D03*
X126661974Y-141631974D03*
%TO.P,SW24,2,2*%
%TO.N,Net-(R7-Pad2)*%
X133161974Y-146131974D03*
X126661974Y-146131974D03*
%TD*%
%TO.P,SW23,1,1*%
%TO.N,ROW6*%
X133161974Y-131471974D03*
X126661974Y-131471974D03*
%TO.P,SW23,2,2*%
%TO.N,Net-(R7-Pad2)*%
X133161974Y-135971974D03*
X126661974Y-135971974D03*
%TD*%
%TO.P,SW22,1,1*%
%TO.N,ROW5*%
X133161974Y-121311974D03*
X126661974Y-121311974D03*
%TO.P,SW22,2,2*%
%TO.N,Net-(R7-Pad2)*%
X133161974Y-125811974D03*
X126661974Y-125811974D03*
%TD*%
%TO.P,SW21,1,1*%
%TO.N,ROW4*%
X133161974Y-111151974D03*
X126661974Y-111151974D03*
%TO.P,SW21,2,2*%
%TO.N,Net-(R7-Pad2)*%
X133161974Y-115651974D03*
X126661974Y-115651974D03*
%TD*%
%TO.P,SW20,1,1*%
%TO.N,ROW3*%
X133161974Y-100991974D03*
X126661974Y-100991974D03*
%TO.P,SW20,2,2*%
%TO.N,Net-(R7-Pad2)*%
X133161974Y-105491974D03*
X126661974Y-105491974D03*
%TD*%
%TO.P,SW19,1,1*%
%TO.N,ROW2*%
X133161974Y-90831974D03*
X126661974Y-90831974D03*
%TO.P,SW19,2,2*%
%TO.N,Net-(R7-Pad2)*%
X133161974Y-95331974D03*
X126661974Y-95331974D03*
%TD*%
%TO.P,SW18,1,1*%
%TO.N,ROW1*%
X133161974Y-80671974D03*
X126661974Y-80671974D03*
%TO.P,SW18,2,2*%
%TO.N,Net-(R7-Pad2)*%
X133161974Y-85171974D03*
X126661974Y-85171974D03*
%TD*%
%TO.P,SW17,1,1*%
%TO.N,ROW8*%
X120461974Y-151791974D03*
X113961974Y-151791974D03*
%TO.P,SW17,2,2*%
%TO.N,Net-(R10-Pad2)*%
X120461974Y-156291974D03*
X113961974Y-156291974D03*
%TD*%
%TO.P,SW16,1,1*%
%TO.N,ROW7*%
X120461974Y-141631974D03*
X113961974Y-141631974D03*
%TO.P,SW16,2,2*%
%TO.N,Net-(R10-Pad2)*%
X120461974Y-146131974D03*
X113961974Y-146131974D03*
%TD*%
%TO.P,SW15,1,1*%
%TO.N,ROW6*%
X120461974Y-131471974D03*
X113961974Y-131471974D03*
%TO.P,SW15,2,2*%
%TO.N,Net-(R10-Pad2)*%
X120461974Y-135971974D03*
X113961974Y-135971974D03*
%TD*%
%TO.P,SW14,1,1*%
%TO.N,ROW5*%
X120461974Y-121311974D03*
X113961974Y-121311974D03*
%TO.P,SW14,2,2*%
%TO.N,Net-(R10-Pad2)*%
X120461974Y-125811974D03*
X113961974Y-125811974D03*
%TD*%
%TO.P,SW13,1,1*%
%TO.N,ROW4*%
X120461974Y-111151974D03*
X113961974Y-111151974D03*
%TO.P,SW13,2,2*%
%TO.N,Net-(R10-Pad2)*%
X120461974Y-115651974D03*
X113961974Y-115651974D03*
%TD*%
%TO.P,SW12,1,1*%
%TO.N,ROW3*%
X120461974Y-100991974D03*
X113961974Y-100991974D03*
%TO.P,SW12,2,2*%
%TO.N,Net-(R10-Pad2)*%
X120461974Y-105491974D03*
X113961974Y-105491974D03*
%TD*%
%TO.P,SW11,1,1*%
%TO.N,ROW2*%
X120461974Y-90831974D03*
X113961974Y-90831974D03*
%TO.P,SW11,2,2*%
%TO.N,Net-(R10-Pad2)*%
X120461974Y-95331974D03*
X113961974Y-95331974D03*
%TD*%
%TO.P,SW10,1,1*%
%TO.N,ROW1*%
X120461974Y-80671974D03*
X113961974Y-80671974D03*
%TO.P,SW10,2,2*%
%TO.N,Net-(R10-Pad2)*%
X120461974Y-85171974D03*
X113961974Y-85171974D03*
%TD*%
%TO.P,SW9,1,1*%
%TO.N,ROW8*%
X107761974Y-151791974D03*
X101261974Y-151791974D03*
%TO.P,SW9,2,2*%
%TO.N,Net-(R8-Pad2)*%
X107761974Y-156291974D03*
X101261974Y-156291974D03*
%TD*%
%TO.P,SW8,1,1*%
%TO.N,ROW7*%
X107761974Y-141631974D03*
X101261974Y-141631974D03*
%TO.P,SW8,2,2*%
%TO.N,Net-(R8-Pad2)*%
X107761974Y-146131974D03*
X101261974Y-146131974D03*
%TD*%
%TO.P,SW7,1,1*%
%TO.N,ROW6*%
X107761974Y-131471974D03*
X101261974Y-131471974D03*
%TO.P,SW7,2,2*%
%TO.N,Net-(R8-Pad2)*%
X107761974Y-135971974D03*
X101261974Y-135971974D03*
%TD*%
%TO.P,SW6,1,1*%
%TO.N,ROW5*%
X107761974Y-121311974D03*
X101261974Y-121311974D03*
%TO.P,SW6,2,2*%
%TO.N,Net-(R8-Pad2)*%
X107761974Y-125811974D03*
X101261974Y-125811974D03*
%TD*%
%TO.P,SW5,1,1*%
%TO.N,ROW4*%
X107761974Y-111151974D03*
X101261974Y-111151974D03*
%TO.P,SW5,2,2*%
%TO.N,Net-(R8-Pad2)*%
X107761974Y-115651974D03*
X101261974Y-115651974D03*
%TD*%
%TO.P,SW4,1,1*%
%TO.N,ROW3*%
X107761974Y-100991974D03*
X101261974Y-100991974D03*
%TO.P,SW4,2,2*%
%TO.N,Net-(R8-Pad2)*%
X107761974Y-105491974D03*
X101261974Y-105491974D03*
%TD*%
%TO.P,SW3,1,1*%
%TO.N,ROW2*%
X107761974Y-90831974D03*
X101261974Y-90831974D03*
%TO.P,SW3,2,2*%
%TO.N,Net-(R8-Pad2)*%
X107761974Y-95331974D03*
X101261974Y-95331974D03*
%TD*%
%TO.P,SW2,1,1*%
%TO.N,ROW1*%
X107761974Y-80671974D03*
X101261974Y-80671974D03*
%TO.P,SW2,2,2*%
%TO.N,Net-(R8-Pad2)*%
X107761974Y-85171974D03*
X101261974Y-85171974D03*
%TD*%
D23*
%TO.P,R4,1*%
%TO.N,GND*%
X142254474Y-41646974D03*
%TO.P,R4,2*%
%TO.N,Net-(R4-Pad2)*%
X140429474Y-41646974D03*
%TD*%
%TO.P,R3,1*%
%TO.N,Net-(Q1-Pad1)*%
X106059474Y-43551974D03*
%TO.P,R3,2*%
%TO.N,Net-(Q1-Pad2)*%
X104234474Y-43551974D03*
%TD*%
D24*
%TO.P,Q2,3,D*%
%TO.N,VBAT*%
X100701974Y-45789474D03*
%TO.P,Q2,2,S*%
%TO.N,Net-(Q1-Pad2)*%
X101651974Y-47664474D03*
%TO.P,Q2,1,G*%
%TO.N,VBUS*%
X99751974Y-47664474D03*
%TD*%
D25*
%TO.P,C4,1*%
%TO.N,VOP*%
X146802974Y-42622474D03*
%TO.P,C4,2*%
%TO.N,GND*%
X146802974Y-45497474D03*
%TD*%
D26*
%TO.P,R5,1*%
%TO.N,Net-(R5-Pad1)*%
X111854474Y-47996974D03*
%TO.P,R5,2*%
%TO.N,GND*%
X113679474Y-47996974D03*
%TD*%
D17*
%TO.P,R10,1*%
%TO.N,COL2*%
X106416974Y-73119474D03*
%TO.P,R10,2*%
%TO.N,Net-(R10-Pad2)*%
X106416974Y-74944474D03*
%TD*%
%TO.P,R6,1*%
%TO.N,COL5*%
X113401974Y-73119474D03*
%TO.P,R6,2*%
%TO.N,Net-(R6-Pad2)*%
X113401974Y-74944474D03*
%TD*%
%TO.P,R7,1*%
%TO.N,COL3*%
X108321974Y-73119474D03*
%TO.P,R7,2*%
%TO.N,Net-(R7-Pad2)*%
X108321974Y-74944474D03*
%TD*%
D21*
%TO.P,U4,1,STAT*%
%TO.N,BAT_STAT*%
X109906974Y-45589474D03*
%TO.P,U4,2,VSS*%
%TO.N,GND*%
X108956974Y-45589474D03*
%TO.P,U4,3,VBAT*%
%TO.N,VBAT*%
X108006974Y-45589474D03*
%TO.P,U4,4,VDD*%
%TO.N,VBUS*%
X108006974Y-47864474D03*
%TO.P,U4,5,PROG*%
%TO.N,Net-(R5-Pad1)*%
X109906974Y-47864474D03*
%TD*%
D17*
%TO.P,R8,1*%
%TO.N,COL1*%
X104511974Y-73119474D03*
%TO.P,R8,2*%
%TO.N,Net-(R8-Pad2)*%
X104511974Y-74944474D03*
%TD*%
%TO.P,R9,1*%
%TO.N,COL4*%
X110861974Y-73119474D03*
%TO.P,R9,2*%
%TO.N,Net-(R9-Pad2)*%
X110861974Y-74944474D03*
%TD*%
D27*
%TO.P,Q1,1,G*%
%TO.N,Net-(Q1-Pad1)*%
X105461974Y-45789474D03*
%TO.P,Q1,2,S*%
%TO.N,Net-(Q1-Pad2)*%
X103561974Y-45789474D03*
%TO.P,Q1,3,D*%
%TO.N,VSYS*%
X104511974Y-47664474D03*
%TD*%
D28*
%TO.P,C6,1*%
%TO.N,Net-(C5-Pad1)*%
X140304474Y-44186974D03*
%TO.P,C6,2*%
%TO.N,GND*%
X142379474Y-44186974D03*
%TD*%
D15*
%TO.P,U2,1,GPIO0*%
%TO.N,COL1*%
X100701974Y-69586974D03*
%TO.P,U2,2,GPIO1*%
%TO.N,COL2*%
X103241974Y-69586974D03*
D14*
%TO.P,U2,3,GND*%
%TO.N,GND*%
X105781974Y-69586974D03*
D15*
%TO.P,U2,4,GPIO2*%
%TO.N,COL3*%
X108321974Y-69586974D03*
%TO.P,U2,5,GPIO3*%
%TO.N,COL4*%
X110861974Y-69586974D03*
%TO.P,U2,6,GPIO4*%
%TO.N,COL5*%
X113401974Y-69586974D03*
%TO.P,U2,7,GPIO5*%
%TO.N,ROW1*%
X115941974Y-69586974D03*
D14*
%TO.P,U2,8,GND*%
%TO.N,GND*%
X118481974Y-69586974D03*
D15*
%TO.P,U2,9,GPIO6*%
%TO.N,ROW2*%
X121021974Y-69586974D03*
%TO.P,U2,10,GPIO7*%
%TO.N,ROW3*%
X123561974Y-69586974D03*
%TO.P,U2,11,GPIO8*%
%TO.N,ROW4*%
X126101974Y-69586974D03*
%TO.P,U2,12,GPIO9*%
%TO.N,ROW5*%
X128641974Y-69586974D03*
D14*
%TO.P,U2,13,GND*%
%TO.N,GND*%
X131181974Y-69586974D03*
D15*
%TO.P,U2,14,GPIO10*%
%TO.N,ROW6*%
X133721974Y-69586974D03*
%TO.P,U2,15,GPIO11*%
%TO.N,ROW7*%
X136261974Y-69586974D03*
%TO.P,U2,16,GPIO12*%
%TO.N,ROW8*%
X138801974Y-69586974D03*
%TO.P,U2,17,GPIO13*%
%TO.N,unconnected-(U2-Pad17)*%
X141341974Y-69586974D03*
D14*
%TO.P,U2,18,GND*%
%TO.N,GND*%
X143881974Y-69586974D03*
D15*
%TO.P,U2,19,GPIO14*%
%TO.N,unconnected-(U2-Pad19)*%
X146421974Y-69586974D03*
%TO.P,U2,20,GPIO15*%
%TO.N,OLED_POWER_EN*%
X148961974Y-69586974D03*
%TO.P,U2,21,GPIO16*%
%TO.N,DC*%
X148961974Y-51806974D03*
%TO.P,U2,22,GPIO17*%
%TO.N,CS*%
X146421974Y-51806974D03*
D14*
%TO.P,U2,23,GND*%
%TO.N,GND*%
X143881974Y-51806974D03*
D15*
%TO.P,U2,24,GPIO18*%
%TO.N,SCK*%
X141341974Y-51806974D03*
%TO.P,U2,25,GPIO19*%
%TO.N,SDO*%
X138801974Y-51806974D03*
%TO.P,U2,26,GPIO20*%
%TO.N,RESET*%
X136261974Y-51806974D03*
%TO.P,U2,27,GPIO21*%
%TO.N,unconnected-(U2-Pad27)*%
X133721974Y-51806974D03*
D14*
%TO.P,U2,28,GND*%
%TO.N,GND*%
X131181974Y-51806974D03*
D15*
%TO.P,U2,29,GPIO22*%
%TO.N,BAT_STAT*%
X128641974Y-51806974D03*
%TO.P,U2,30,RUN*%
%TO.N,unconnected-(U2-Pad30)*%
X126101974Y-51806974D03*
%TO.P,U2,31,GPIO26_ADC0*%
%TO.N,unconnected-(U2-Pad31)*%
X123561974Y-51806974D03*
%TO.P,U2,32,GPIO27_ADC1*%
%TO.N,unconnected-(U2-Pad32)*%
X121021974Y-51806974D03*
D14*
%TO.P,U2,33,AGND*%
%TO.N,GND*%
X118481974Y-51806974D03*
D15*
%TO.P,U2,34,GPIO28_ADC2*%
%TO.N,unconnected-(U2-Pad34)*%
X115941974Y-51806974D03*
%TO.P,U2,35,ADC_VREF*%
%TO.N,unconnected-(U2-Pad35)*%
X113401974Y-51806974D03*
%TO.P,U2,36,3V3*%
%TO.N,+3V3*%
X110861974Y-51806974D03*
%TO.P,U2,37,3V3_EN*%
%TO.N,~{POWER_EN}*%
X108321974Y-51806974D03*
D14*
%TO.P,U2,38,GND*%
%TO.N,GND*%
X105781974Y-51806974D03*
D15*
%TO.P,U2,39,VSYS*%
%TO.N,VSYS*%
X103241974Y-51806974D03*
%TO.P,U2,40,VBUS*%
%TO.N,VBUS*%
X100701974Y-51806974D03*
%TO.P,U2,41,SWCLK*%
%TO.N,Net-(J1-Pad3)*%
X148731974Y-63236974D03*
D14*
%TO.P,U2,42,GND*%
%TO.N,GND*%
X148731974Y-60696974D03*
D15*
%TO.P,U2,43,SWDIO*%
%TO.N,Net-(J1-Pad1)*%
X148731974Y-58156974D03*
%TD*%
D29*
%TO.P,C5,1*%
%TO.N,Net-(C5-Pad1)*%
X140539474Y-46726974D03*
%TO.P,C5,2*%
%TO.N,GND*%
X143414474Y-46726974D03*
%TD*%
D25*
%TO.P,C3,1*%
%TO.N,VOP*%
X149088974Y-42622474D03*
%TO.P,C3,2*%
%TO.N,GND*%
X149088974Y-45497474D03*
%TD*%
D29*
%TO.P,C7,1*%
%TO.N,VBAT*%
X112131974Y-45456974D03*
%TO.P,C7,2*%
%TO.N,GND*%
X115006974Y-45456974D03*
%TD*%
D30*
%TO.N,Net-(Q1-Pad1)*%
X157724974Y-52949974D03*
%TO.N,~{POWER_EN}*%
X158486974Y-59045974D03*
%TO.N,GND*%
X151607474Y-43276474D03*
X147905474Y-45497474D03*
X152644974Y-48885974D03*
X151607474Y-53330974D03*
%TO.N,~{POWER_EN}*%
X118481974Y-37407954D03*
X118481974Y-40376974D03*
X118481974Y-43551974D03*
%TO.N,Net-(Q1-Pad1)*%
X106416974Y-38107474D03*
%TO.N,ROW1*%
X115941974Y-74666974D03*
X115941974Y-78476974D03*
%TO.N,ROW2*%
X118481974Y-78476974D03*
X118481974Y-74666974D03*
%TO.N,ROW3*%
X123561974Y-78476974D03*
X123561974Y-74666974D03*
%TO.N,ROW4*%
X128641974Y-78476974D03*
X128641974Y-74666974D03*
%TO.N,ROW5*%
X131181974Y-78476974D03*
X131181974Y-74666974D03*
%TO.N,ROW6*%
X135626974Y-78476974D03*
X135626974Y-74666974D03*
%TO.N,ROW7*%
X141341974Y-74666974D03*
X141341974Y-78476974D03*
%TO.N,ROW8*%
X143881974Y-78476974D03*
X143881974Y-74666974D03*
%TO.N,Net-(Q1-Pad1)*%
X106416974Y-42281974D03*
%TO.N,VBUS*%
X106781474Y-47361974D03*
X100701974Y-47996974D03*
%TO.N,GND*%
X123561974Y-41011974D03*
X124831974Y-41011974D03*
X144516974Y-46726974D03*
X136261974Y-42281974D03*
X133086974Y-41011974D03*
X131816974Y-41011974D03*
X108956974Y-46726974D03*
X129276974Y-41011974D03*
X143246974Y-41646974D03*
X114671974Y-48631974D03*
X143246974Y-44186974D03*
X126736974Y-41011974D03*
X114671974Y-44186974D03*
%TO.N,+3V3*%
X119801298Y-47361974D03*
%TO.N,VSYS*%
X104511974Y-39741974D03*
X104511974Y-46091974D03*
%TO.N,~{POWER_EN}*%
X118102287Y-45926787D03*
%TO.N,DC*%
X131411474Y-44821974D03*
X129280818Y-44186974D03*
%TO.N,CS*%
X131411474Y-45879497D03*
X128912954Y-46268737D03*
%TO.N,SCK*%
X132451974Y-46726974D03*
X130416984Y-47021938D03*
%TD*%
D31*
%TO.N,Net-(R4-Pad2)*%
X140429474Y-41646974D02*
X139159474Y-40376974D01*
X139159474Y-40376974D02*
X135122952Y-40376974D01*
X135122952Y-40376974D02*
X134161974Y-41337952D01*
X134161974Y-41337952D02*
X134161974Y-42336974D01*
D32*
%TO.N,Net-(R10-Pad2)*%
X112131974Y-95621974D02*
X112131974Y-116196934D01*
X112131974Y-116196934D02*
X113401974Y-117466934D01*
X113401974Y-117466934D02*
X113401974Y-119822055D01*
X113401974Y-119822055D02*
X112131974Y-121092055D01*
X112131974Y-121092055D02*
X112131974Y-146421974D01*
D33*
%TO.N,GND*%
X114671974Y-44186974D02*
X115006974Y-44521974D01*
X115006974Y-44521974D02*
X115006974Y-45456974D01*
D32*
%TO.N,Net-(Q1-Pad1)*%
X106416974Y-38107474D02*
X107957474Y-36566974D01*
X107957474Y-36566974D02*
X116439603Y-36566974D01*
X116439603Y-36566974D02*
X118130083Y-38257454D01*
X160177474Y-43718474D02*
X160177474Y-50497474D01*
X118130083Y-38257454D02*
X154716454Y-38257454D01*
X154716454Y-38257454D02*
X160177474Y-43718474D01*
X160177474Y-50497474D02*
X157724974Y-52949974D01*
D33*
%TO.N,VSYS*%
X104511974Y-39741974D02*
X106195997Y-39741974D01*
X106195997Y-39741974D02*
X108100997Y-37836974D01*
X108100997Y-37836974D02*
X116508201Y-37836974D01*
X116508201Y-37836974D02*
X117778201Y-39106974D01*
X117778201Y-39106974D02*
X154295974Y-39106974D01*
X154295974Y-39106974D02*
X159248974Y-44059974D01*
X159248974Y-48631974D02*
X157394974Y-50485974D01*
X159248974Y-44059974D02*
X159248974Y-48631974D01*
%TO.N,VBAT*%
X110226974Y-42281974D02*
X108956974Y-41011974D01*
X108956974Y-41011974D02*
X103241974Y-41011974D01*
X103241974Y-41011974D02*
X100701974Y-43551974D01*
X100701974Y-43551974D02*
X100701974Y-45789474D01*
D32*
%TO.N,~{POWER_EN}*%
X161026974Y-56505974D02*
X158486974Y-59045974D01*
X161026974Y-43578704D02*
X161026974Y-56505974D01*
X155006204Y-37557934D02*
X161026974Y-43578704D01*
X118631954Y-37557934D02*
X155006204Y-37557934D01*
X118481974Y-37407954D02*
X118631954Y-37557934D01*
%TO.N,Net-(R6-Pad2)*%
X150231974Y-115941974D02*
X151501974Y-117211974D01*
X151501974Y-117211974D02*
X151501974Y-119822055D01*
X151501974Y-119822055D02*
X150231974Y-121092055D01*
X150231974Y-121092055D02*
X150231974Y-126101974D01*
%TO.N,Net-(R10-Pad2)*%
X112131974Y-146421974D02*
X112131974Y-154461974D01*
X112131974Y-154461974D02*
X113961974Y-156291974D01*
%TO.N,Net-(R6-Pad2)*%
X150231974Y-146421974D02*
X150231974Y-154461974D01*
X150231974Y-154461974D02*
X152061974Y-156291974D01*
X113401974Y-74944474D02*
X114394474Y-75936974D01*
X114394474Y-75936974D02*
X147691974Y-75936974D01*
X147691974Y-75936974D02*
X150231974Y-78476974D01*
X150231974Y-78476974D02*
X150231974Y-95621974D01*
%TO.N,Net-(R10-Pad2)*%
X112131974Y-85461974D02*
X112131974Y-95621974D01*
D31*
%TO.N,GND*%
X133661974Y-41586974D02*
X133086974Y-41011974D01*
X133086974Y-41011974D02*
X133161974Y-41086974D01*
X133086974Y-41011974D02*
X132661974Y-41436974D01*
X132661974Y-41436974D02*
X132661974Y-42336974D01*
X133161974Y-41086974D02*
X133161974Y-42336974D01*
X131661974Y-42336974D02*
X131661974Y-41166974D01*
%TO.N,VOP*%
X135161974Y-42336974D02*
X135161974Y-41337952D01*
%TO.N,+3V3*%
X126161974Y-42336974D02*
X126161974Y-43491974D01*
X126161974Y-43491974D02*
X126067463Y-43586485D01*
D33*
X119801298Y-47361974D02*
X119801298Y-44848628D01*
X120762463Y-43887463D02*
X125766485Y-43887463D01*
X119801298Y-44848628D02*
X120762463Y-43887463D01*
X125766485Y-43887463D02*
X126067463Y-43586485D01*
D31*
%TO.N,Net-(R1-Pad2)*%
X151694974Y-47748474D02*
X151694974Y-46308474D01*
%TO.N,GND*%
X152644974Y-47748474D02*
X152644974Y-48885974D01*
%TO.N,OLED_POWER_EN*%
X152798494Y-51126994D02*
X152798494Y-65750454D01*
%TO.N,Net-(R1-Pad2)*%
X151694974Y-46308474D02*
X151374974Y-45988474D01*
%TO.N,OLED_POWER_EN*%
X151694974Y-50023474D02*
X152798494Y-51126994D01*
X152798494Y-65750454D02*
X148961974Y-69586974D01*
%TO.N,VSYS*%
X153594974Y-50023474D02*
X153594974Y-51973474D01*
D32*
%TO.N,Net-(D1-Pad2)*%
X155184974Y-45761974D02*
X156708974Y-47285974D01*
D34*
X154004974Y-47285974D02*
X153644494Y-47646454D01*
%TO.N,VSYS*%
X153936474Y-52060974D02*
X155133974Y-52060974D01*
X155133974Y-52060974D02*
X156708974Y-50485974D01*
%TO.N,Net-(D1-Pad2)*%
X156708974Y-47285974D02*
X154004974Y-47285974D01*
D32*
X155184974Y-45201974D02*
X155184974Y-45761974D01*
D34*
X153644494Y-47646454D02*
X153644494Y-47748474D01*
D32*
%TO.N,VOP*%
X155184974Y-41901974D02*
X153554474Y-41901974D01*
X153554474Y-41901974D02*
X153174474Y-42281974D01*
X153174474Y-42281974D02*
X151904474Y-41011974D01*
D33*
%TO.N,GND*%
X151374974Y-42557474D02*
X151374974Y-44163474D01*
D32*
%TO.N,VOP*%
X151904474Y-41011974D02*
X150021224Y-41011974D01*
X150021224Y-41011974D02*
X149088974Y-41944224D01*
X149088974Y-41944224D02*
X149088974Y-42622474D01*
X153279974Y-44163474D02*
X153279974Y-42387474D01*
D33*
%TO.N,GND*%
X151099474Y-42281974D02*
X151374974Y-42557474D01*
D34*
X151607474Y-53330974D02*
X151607474Y-52314974D01*
X151607474Y-52314974D02*
X151861474Y-52060974D01*
D32*
%TO.N,Net-(R10-Pad2)*%
X110861974Y-78476974D02*
X112131974Y-79746974D01*
%TO.N,VOP*%
X143881974Y-42916974D02*
X144176474Y-42622474D01*
X144176474Y-42622474D02*
X146802974Y-42622474D01*
D33*
%TO.N,GND*%
X149088974Y-45497474D02*
X146802974Y-45497474D01*
D32*
%TO.N,VOP*%
X149088974Y-42622474D02*
X146802974Y-42622474D01*
D31*
%TO.N,Net-(R1-Pad2)*%
X153279974Y-45988474D02*
X151374974Y-45988474D01*
D32*
%TO.N,VOP*%
X135161974Y-41337952D02*
X135487952Y-41011974D01*
X139436974Y-42916974D02*
X143881974Y-42916974D01*
X135487952Y-41011974D02*
X137531974Y-41011974D01*
X137531974Y-41011974D02*
X139436974Y-42916974D01*
%TO.N,~{POWER_EN}*%
X118481974Y-43551974D02*
X118481974Y-40376974D01*
%TO.N,Net-(Q1-Pad1)*%
X106059474Y-42639474D02*
X106416974Y-42281974D01*
X106059474Y-43551974D02*
X106059474Y-42639474D01*
%TO.N,ROW1*%
X115941974Y-78691974D02*
X113961974Y-80671974D01*
X115941974Y-78476974D02*
X115941974Y-78691974D01*
X115941974Y-69586974D02*
X115941974Y-74666974D01*
%TO.N,COL1*%
X104055724Y-73119474D02*
X104511974Y-73119474D01*
X100701974Y-69765724D02*
X104055724Y-73119474D01*
%TO.N,ROW2*%
X118481974Y-88851974D02*
X120461974Y-90831974D01*
X121021974Y-72126974D02*
X121021974Y-69586974D01*
X118481974Y-74666974D02*
X121021974Y-72126974D01*
X118481974Y-78476974D02*
X118481974Y-88851974D01*
%TO.N,ROW3*%
X123561974Y-78476974D02*
X123561974Y-97891974D01*
X123561974Y-69586974D02*
X123561974Y-74666974D01*
X123561974Y-97891974D02*
X120461974Y-100991974D01*
%TO.N,ROW4*%
X128641974Y-109171974D02*
X126661974Y-111151974D01*
X128641974Y-78476974D02*
X128641974Y-109171974D01*
X128641974Y-74666974D02*
X126101974Y-72126974D01*
X126101974Y-72126974D02*
X126101974Y-69586974D01*
%TO.N,ROW5*%
X131181974Y-78476974D02*
X131181974Y-119331974D01*
X131181974Y-74666974D02*
X128641974Y-72126974D01*
X131181974Y-119331974D02*
X133161974Y-121311974D01*
X128641974Y-72126974D02*
X128641974Y-69586974D01*
%TO.N,ROW6*%
X135626974Y-129006974D02*
X133161974Y-131471974D01*
X133721974Y-72761974D02*
X133721974Y-69586974D01*
X135626974Y-78476974D02*
X135626974Y-129006974D01*
X135626974Y-74666974D02*
X133721974Y-72761974D01*
%TO.N,ROW7*%
X141341974Y-78476974D02*
X141341974Y-139651974D01*
X141341974Y-74666974D02*
X136261974Y-69586974D01*
X141341974Y-139651974D02*
X139361974Y-141631974D01*
%TO.N,ROW8*%
X143881974Y-149811974D02*
X145861974Y-151791974D01*
X143881974Y-74666974D02*
X138801974Y-69586974D01*
X143881974Y-78476974D02*
X143881974Y-149811974D01*
%TO.N,COL2*%
X103241974Y-69944474D02*
X106416974Y-73119474D01*
%TO.N,COL3*%
X108321974Y-69586974D02*
X108321974Y-73119474D01*
%TO.N,COL4*%
X110861974Y-69586974D02*
X110861974Y-73119474D01*
%TO.N,COL5*%
X113401974Y-69586974D02*
X113401974Y-73119474D01*
D31*
%TO.N,Net-(C5-Pad1)*%
X134661974Y-42336974D02*
X134661974Y-43221974D01*
X134661974Y-43221974D02*
X134991974Y-43551974D01*
X140304474Y-44186974D02*
X140304474Y-46491974D01*
X139669474Y-43551974D02*
X140304474Y-44186974D01*
X134991974Y-43551974D02*
X139669474Y-43551974D01*
D32*
%TO.N,Net-(Q1-Pad1)*%
X105461974Y-45789474D02*
X106059474Y-45191974D01*
X106059474Y-45191974D02*
X106059474Y-43551974D01*
D33*
%TO.N,VBUS*%
X107504474Y-47361974D02*
X108006974Y-47864474D01*
D34*
X99751974Y-50856974D02*
X100701974Y-51806974D01*
D33*
X106781474Y-47361974D02*
X107504474Y-47361974D01*
X100084474Y-47996974D02*
X99751974Y-47664474D01*
X100701974Y-47996974D02*
X100084474Y-47996974D01*
D34*
X99751974Y-47664474D02*
X99751974Y-50856974D01*
D31*
%TO.N,GND*%
X124161974Y-42336974D02*
X124161974Y-41611974D01*
X124661974Y-42336974D02*
X124661974Y-41181974D01*
X143246974Y-44186974D02*
X142379474Y-44186974D01*
X133661974Y-42336974D02*
X133661974Y-41586974D01*
X124161974Y-41611974D02*
X123561974Y-41011974D01*
X129161974Y-41126974D02*
X129276974Y-41011974D01*
D33*
X114036974Y-47996974D02*
X113679474Y-47996974D01*
D31*
X126661974Y-41086974D02*
X126736974Y-41011974D01*
X132161974Y-42336974D02*
X132161974Y-41356974D01*
X125161974Y-41341974D02*
X124831974Y-41011974D01*
X129161974Y-42336974D02*
X129161974Y-41126974D01*
D33*
X108956974Y-45589474D02*
X108956974Y-46726974D01*
D31*
X124161974Y-42336974D02*
X124161974Y-41681974D01*
X143246974Y-41646974D02*
X142254474Y-41646974D01*
X126661974Y-42336974D02*
X126661974Y-41086974D01*
X129661974Y-42336974D02*
X129661974Y-41396974D01*
X135716974Y-42281974D02*
X135661974Y-42336974D01*
X143414474Y-46726974D02*
X144516974Y-46726974D01*
X125161974Y-42336974D02*
X125161974Y-41341974D01*
X131661974Y-41166974D02*
X131816974Y-41011974D01*
X124661974Y-41181974D02*
X124831974Y-41011974D01*
X132161974Y-41356974D02*
X131816974Y-41011974D01*
X127161974Y-41436974D02*
X126736974Y-41011974D01*
X136261974Y-42281974D02*
X135716974Y-42281974D01*
X129661974Y-41396974D02*
X129276974Y-41011974D01*
D33*
X114671974Y-48631974D02*
X114036974Y-47996974D01*
D31*
X127161974Y-42336974D02*
X127161974Y-41436974D01*
D32*
%TO.N,Net-(R6-Pad2)*%
X152061974Y-105491974D02*
X150521974Y-105491974D01*
X150231974Y-95621974D02*
X150231974Y-105781974D01*
X152061974Y-135971974D02*
X150521974Y-135971974D01*
X152061974Y-146131974D02*
X150521974Y-146131974D01*
X152061974Y-95331974D02*
X150521974Y-95331974D01*
X152061974Y-115651974D02*
X150521974Y-115651974D01*
X150521974Y-115651974D02*
X150231974Y-115941974D01*
X150231974Y-105781974D02*
X150231974Y-115941974D01*
X150231974Y-136261974D02*
X150231974Y-146421974D01*
X150521974Y-135971974D02*
X150231974Y-136261974D01*
X150231974Y-126101974D02*
X150231974Y-136261974D01*
X150521974Y-95331974D02*
X150231974Y-95621974D01*
X150521974Y-125811974D02*
X150231974Y-126101974D01*
X152061974Y-125811974D02*
X150521974Y-125811974D01*
X150521974Y-146131974D02*
X150231974Y-146421974D01*
X152061974Y-85171974D02*
X150521974Y-85171974D01*
X150521974Y-105491974D02*
X150231974Y-105781974D01*
D33*
%TO.N,VSYS*%
X104511974Y-46091974D02*
X104511974Y-47664474D01*
X103241974Y-51806974D02*
X103241974Y-49266974D01*
X103241974Y-49266974D02*
X104511974Y-47996974D01*
X104511974Y-47996974D02*
X104511974Y-47664474D01*
%TO.N,VBAT*%
X108641974Y-44181993D02*
X110221974Y-44181993D01*
X110221974Y-44181993D02*
X111496955Y-45456974D01*
X107957454Y-44727472D02*
X107957454Y-45589474D01*
X108641974Y-44181993D02*
X108641974Y-41326974D01*
X108502933Y-44181993D02*
X107957454Y-44727472D01*
X108641974Y-44181993D02*
X108502933Y-44181993D01*
X111496955Y-45456974D02*
X112131974Y-45456974D01*
D32*
%TO.N,Net-(Q1-Pad2)*%
X101686974Y-47664474D02*
X103561974Y-45789474D01*
X103561974Y-44224474D02*
X104234474Y-43551974D01*
X103561974Y-45789474D02*
X103561974Y-44224474D01*
D33*
%TO.N,Net-(R5-Pad1)*%
X110039474Y-47996974D02*
X109906974Y-47864474D01*
X111854474Y-47996974D02*
X110039474Y-47996974D01*
D32*
%TO.N,Net-(R7-Pad2)*%
X125121974Y-135971974D02*
X124831974Y-136261974D01*
X125121974Y-125811974D02*
X124831974Y-126101974D01*
X126661974Y-135971974D02*
X125121974Y-135971974D01*
X124831974Y-95621974D02*
X124831974Y-105781974D01*
X123691014Y-77336014D02*
X124831974Y-78476974D01*
X126661974Y-146131974D02*
X125121974Y-146131974D01*
X126661974Y-95331974D02*
X125121974Y-95331974D01*
X110713514Y-77336014D02*
X123691014Y-77336014D01*
X125121974Y-85171974D02*
X124831974Y-85461974D01*
X125121974Y-146131974D02*
X124831974Y-146421974D01*
X125121974Y-115651974D02*
X124831974Y-115941974D01*
X124831974Y-136261974D02*
X124831974Y-146421974D01*
X126661974Y-125811974D02*
X125121974Y-125811974D01*
X124831974Y-126101974D02*
X124831974Y-136261974D01*
X124831974Y-115941974D02*
X124831974Y-126101974D01*
X108321974Y-74944474D02*
X110713514Y-77336014D01*
X124831974Y-85461974D02*
X124831974Y-95621974D01*
X126661974Y-115651974D02*
X125121974Y-115651974D01*
X124831974Y-154461974D02*
X126661974Y-156291974D01*
X125121974Y-105491974D02*
X124831974Y-105781974D01*
X126661974Y-85171974D02*
X125121974Y-85171974D01*
X125121974Y-95331974D02*
X124831974Y-95621974D01*
X126661974Y-105491974D02*
X125121974Y-105491974D01*
X124831974Y-78476974D02*
X124831974Y-85461974D01*
X124831974Y-146421974D02*
X124831974Y-154461974D01*
X124831974Y-105781974D02*
X124831974Y-115941974D01*
%TO.N,BAT_STAT*%
X116100724Y-46726974D02*
X117750422Y-45077276D01*
X119751974Y-49901974D02*
X126736974Y-49901974D01*
X118454167Y-45077276D02*
X118951798Y-45574907D01*
X126736974Y-49901974D02*
X128641974Y-51806974D01*
X118951798Y-49101798D02*
X119751974Y-49901974D01*
X118951798Y-45574907D02*
X118951798Y-49101798D01*
X111044474Y-46726974D02*
X116100724Y-46726974D01*
X109906974Y-45589474D02*
X111044474Y-46726974D01*
X117750422Y-45077276D02*
X118454167Y-45077276D01*
%TO.N,Net-(R8-Pad2)*%
X99431974Y-154461974D02*
X101261974Y-156291974D01*
X99431974Y-85461974D02*
X99431974Y-95621974D01*
X101261974Y-85171974D02*
X99721974Y-85171974D01*
X99431974Y-84826974D02*
X104511974Y-79746974D01*
X99431974Y-146421974D02*
X99431974Y-154461974D01*
X99721974Y-135971974D02*
X99431974Y-136261974D01*
X99721974Y-146131974D02*
X99431974Y-146421974D01*
X101261974Y-115651974D02*
X99721974Y-115651974D01*
X101261974Y-125811974D02*
X99721974Y-125811974D01*
X99721974Y-125811974D02*
X99431974Y-126101974D01*
X99431974Y-136261974D02*
X99431974Y-146421974D01*
X101261974Y-135971974D02*
X99721974Y-135971974D01*
X99721974Y-95331974D02*
X99431974Y-95621974D01*
X99431974Y-95621974D02*
X99431974Y-115941974D01*
X99721974Y-85171974D02*
X99431974Y-85461974D01*
X99431974Y-115941974D02*
X99431974Y-126101974D01*
X101261974Y-95331974D02*
X99721974Y-95331974D01*
X101261974Y-105491974D02*
X99721974Y-105491974D01*
X99721974Y-115651974D02*
X99431974Y-115941974D01*
X101261974Y-146131974D02*
X99721974Y-146131974D01*
X99431974Y-126101974D02*
X99431974Y-136261974D01*
X99431974Y-85461974D02*
X99431974Y-84826974D01*
X104511974Y-79746974D02*
X104511974Y-74944474D01*
%TO.N,Net-(R9-Pad2)*%
X139361974Y-85171974D02*
X137821974Y-85171974D01*
X137821974Y-146131974D02*
X137531974Y-146421974D01*
X137531974Y-85461974D02*
X137531974Y-77841974D01*
X139361974Y-146131974D02*
X137821974Y-146131974D01*
X139361974Y-125811974D02*
X137821974Y-125811974D01*
X139361974Y-135971974D02*
X137821974Y-135971974D01*
X137531974Y-95621974D02*
X137531974Y-105781974D01*
X137531974Y-115941974D02*
X137531974Y-126101974D01*
X137531974Y-146421974D02*
X137531974Y-154461974D01*
X137821974Y-125811974D02*
X137531974Y-126101974D01*
X139361974Y-115651974D02*
X137821974Y-115651974D01*
X137531974Y-126101974D02*
X137531974Y-136261974D01*
X137531974Y-105781974D02*
X137531974Y-115941974D01*
X112553994Y-76636494D02*
X110861974Y-74944474D01*
X137531974Y-77841974D02*
X136326494Y-76636494D01*
X136326494Y-76636494D02*
X112553994Y-76636494D01*
X137821974Y-95331974D02*
X137531974Y-95621974D01*
X137531974Y-136261974D02*
X137531974Y-146421974D01*
X137531974Y-154461974D02*
X139361974Y-156291974D01*
X139361974Y-95331974D02*
X137821974Y-95331974D01*
X139361974Y-105491974D02*
X137821974Y-105491974D01*
X137821974Y-135971974D02*
X137531974Y-136261974D01*
X137821974Y-115651974D02*
X137531974Y-115941974D01*
X137531974Y-85461974D02*
X137531974Y-95621974D01*
X137821974Y-85171974D02*
X137531974Y-85461974D01*
X137821974Y-105491974D02*
X137531974Y-105781974D01*
%TO.N,Net-(R10-Pad2)*%
X112131974Y-85461974D02*
X112131974Y-79746974D01*
X113961974Y-115651974D02*
X112421974Y-115651974D01*
X113961974Y-125811974D02*
X112421974Y-125811974D01*
X109949474Y-78476974D02*
X106416974Y-74944474D01*
X112421974Y-85171974D02*
X112131974Y-85461974D01*
X113961974Y-146131974D02*
X112421974Y-146131974D01*
X113961974Y-85171974D02*
X112421974Y-85171974D01*
X113961974Y-135971974D02*
X112421974Y-135971974D01*
X110861974Y-78476974D02*
X109949474Y-78476974D01*
X112421974Y-95331974D02*
X112131974Y-95621974D01*
X112421974Y-146131974D02*
X112131974Y-146421974D01*
X113961974Y-105491974D02*
X112421974Y-105491974D01*
X113961974Y-95331974D02*
X112421974Y-95331974D01*
%TO.N,~{POWER_EN}*%
X110226974Y-49901974D02*
X108321974Y-51806974D01*
X115941974Y-49901974D02*
X110226974Y-49901974D01*
X118102287Y-45926787D02*
X118102287Y-47741661D01*
X118102287Y-47741661D02*
X115941974Y-49901974D01*
D31*
%TO.N,DC*%
X131411474Y-44821974D02*
X133721974Y-44821974D01*
X145151974Y-47996974D02*
X148961974Y-51806974D01*
X136896974Y-47996974D02*
X145151974Y-47996974D01*
X133721974Y-44821974D02*
X136896974Y-47996974D01*
X129280818Y-44186974D02*
X128661974Y-43568130D01*
X128661974Y-43568130D02*
X128661974Y-42336974D01*
%TO.N,CS*%
X128912954Y-46268737D02*
X128818737Y-46268737D01*
X133509497Y-45879497D02*
X136261974Y-48631974D01*
X136261974Y-48631974D02*
X143246974Y-48631974D01*
X128818737Y-46268737D02*
X127661974Y-45111974D01*
X131411474Y-45879497D02*
X133509497Y-45879497D01*
X127661974Y-45111974D02*
X127661974Y-42336974D01*
X143246974Y-48631974D02*
X146421974Y-51806974D01*
%TO.N,SCK*%
X130416984Y-47021938D02*
X130161974Y-46766928D01*
X133086974Y-46726974D02*
X135626974Y-49266974D01*
X132451974Y-46726974D02*
X133086974Y-46726974D01*
X130161974Y-46766928D02*
X130161974Y-42336974D01*
X138801974Y-49266974D02*
X141341974Y-51806974D01*
X135626974Y-49266974D02*
X138801974Y-49266974D01*
%TO.N,RESET*%
X128161974Y-42336974D02*
X128161974Y-44208294D01*
X129662454Y-45708774D02*
X129662454Y-47747454D01*
X132522463Y-50607463D02*
X135062463Y-50607463D01*
X129662454Y-47747454D02*
X132522463Y-50607463D01*
X135062463Y-50607463D02*
X136261974Y-51806974D01*
X128161974Y-44208294D02*
X129662454Y-45708774D01*
%TO.N,SDO*%
X130661974Y-46206974D02*
X134356974Y-49901974D01*
X134356974Y-49901974D02*
X136896974Y-49901974D01*
X130661974Y-42336974D02*
X130661974Y-46206974D01*
X136896974Y-49901974D02*
X138801974Y-51806974D01*
%TD*%
M02*
