%TF.GenerationSoftware,KiCad,Pcbnew,6.0.5+dfsg-1~bpo11+1*%
%TF.CreationDate,2022-10-03T08:51:32+13:00*%
%TF.ProjectId,ThinCalculator,5468696e-4361-46c6-9375-6c61746f722e,rev?*%
%TF.SameCoordinates,Original*%
%TF.FileFunction,Legend,Top*%
%TF.FilePolarity,Positive*%
%FSLAX46Y46*%
G04 Gerber Fmt 4.6, Leading zero omitted, Abs format (unit mm)*
G04 Created by KiCad (PCBNEW 6.0.5+dfsg-1~bpo11+1) date 2022-10-03 08:51:32*
%MOMM*%
%LPD*%
G01*
G04 APERTURE LIST*
%ADD10C,0.150000*%
%ADD11C,0.120000*%
G04 APERTURE END LIST*
D10*
X157961140Y-58244354D02*
X158151616Y-58244354D01*
X158246854Y-58291974D01*
X158342093Y-58387212D01*
X158389712Y-58577688D01*
X158389712Y-58911021D01*
X158342093Y-59101497D01*
X158246854Y-59196735D01*
X158151616Y-59244354D01*
X157961140Y-59244354D01*
X157865902Y-59196735D01*
X157770664Y-59101497D01*
X157723045Y-58911021D01*
X157723045Y-58577688D01*
X157770664Y-58387212D01*
X157865902Y-58291974D01*
X157961140Y-58244354D01*
X159151616Y-58720545D02*
X158818283Y-58720545D01*
X158818283Y-59244354D02*
X158818283Y-58244354D01*
X159294474Y-58244354D01*
X160008759Y-58720545D02*
X159675426Y-58720545D01*
X159675426Y-59244354D02*
X159675426Y-58244354D01*
X160151616Y-58244354D01*
X158627807Y-54434354D02*
X158818283Y-54434354D01*
X158913521Y-54481974D01*
X159008759Y-54577212D01*
X159056378Y-54767688D01*
X159056378Y-55101021D01*
X159008759Y-55291497D01*
X158913521Y-55386735D01*
X158818283Y-55434354D01*
X158627807Y-55434354D01*
X158532569Y-55386735D01*
X158437331Y-55291497D01*
X158389712Y-55101021D01*
X158389712Y-54767688D01*
X158437331Y-54577212D01*
X158532569Y-54481974D01*
X158627807Y-54434354D01*
X159484950Y-55434354D02*
X159484950Y-54434354D01*
X160056378Y-55434354D01*
X160056378Y-54434354D01*
X157568378Y-67181974D02*
X157473140Y-67134354D01*
X157330283Y-67134354D01*
X157187426Y-67181974D01*
X157092188Y-67277212D01*
X157044569Y-67372450D01*
X156996950Y-67562926D01*
X156996950Y-67705783D01*
X157044569Y-67896259D01*
X157092188Y-67991497D01*
X157187426Y-68086735D01*
X157330283Y-68134354D01*
X157425521Y-68134354D01*
X157568378Y-68086735D01*
X157615997Y-68039116D01*
X157615997Y-67705783D01*
X157425521Y-67705783D01*
X158044569Y-68134354D02*
X158044569Y-67134354D01*
X158615997Y-68134354D01*
X158615997Y-67134354D01*
X159092188Y-68134354D02*
X159092188Y-67134354D01*
X159330283Y-67134354D01*
X159473140Y-67181974D01*
X159568378Y-67277212D01*
X159615997Y-67372450D01*
X159663616Y-67562926D01*
X159663616Y-67705783D01*
X159615997Y-67896259D01*
X159568378Y-67991497D01*
X159473140Y-68086735D01*
X159330283Y-68134354D01*
X159092188Y-68134354D01*
X156996950Y-65546735D02*
X157139807Y-65594354D01*
X157377902Y-65594354D01*
X157473140Y-65546735D01*
X157520759Y-65499116D01*
X157568378Y-65403878D01*
X157568378Y-65308640D01*
X157520759Y-65213402D01*
X157473140Y-65165783D01*
X157377902Y-65118164D01*
X157187426Y-65070545D01*
X157092188Y-65022926D01*
X157044569Y-64975307D01*
X156996950Y-64880069D01*
X156996950Y-64784831D01*
X157044569Y-64689593D01*
X157092188Y-64641974D01*
X157187426Y-64594354D01*
X157425521Y-64594354D01*
X157568378Y-64641974D01*
X157901712Y-64594354D02*
X158139807Y-65594354D01*
X158330283Y-64880069D01*
X158520759Y-65594354D01*
X158758854Y-64594354D01*
X159139807Y-65594354D02*
X159139807Y-64594354D01*
X159377902Y-64594354D01*
X159520759Y-64641974D01*
X159615997Y-64737212D01*
X159663616Y-64832450D01*
X159711235Y-65022926D01*
X159711235Y-65165783D01*
X159663616Y-65356259D01*
X159615997Y-65451497D01*
X159520759Y-65546735D01*
X159377902Y-65594354D01*
X159139807Y-65594354D01*
X160139807Y-65594354D02*
X160139807Y-64594354D01*
X160806474Y-64594354D02*
X160996950Y-64594354D01*
X161092188Y-64641974D01*
X161187426Y-64737212D01*
X161235045Y-64927688D01*
X161235045Y-65261021D01*
X161187426Y-65451497D01*
X161092188Y-65546735D01*
X160996950Y-65594354D01*
X160806474Y-65594354D01*
X160711235Y-65546735D01*
X160615997Y-65451497D01*
X160568378Y-65261021D01*
X160568378Y-64927688D01*
X160615997Y-64737212D01*
X160711235Y-64641974D01*
X160806474Y-64594354D01*
X156996950Y-70626735D02*
X157139807Y-70674354D01*
X157377902Y-70674354D01*
X157473140Y-70626735D01*
X157520759Y-70579116D01*
X157568378Y-70483878D01*
X157568378Y-70388640D01*
X157520759Y-70293402D01*
X157473140Y-70245783D01*
X157377902Y-70198164D01*
X157187426Y-70150545D01*
X157092188Y-70102926D01*
X157044569Y-70055307D01*
X156996950Y-69960069D01*
X156996950Y-69864831D01*
X157044569Y-69769593D01*
X157092188Y-69721974D01*
X157187426Y-69674354D01*
X157425521Y-69674354D01*
X157568378Y-69721974D01*
X157901712Y-69674354D02*
X158139807Y-70674354D01*
X158330283Y-69960069D01*
X158520759Y-70674354D01*
X158758854Y-69674354D01*
X159711235Y-70579116D02*
X159663616Y-70626735D01*
X159520759Y-70674354D01*
X159425521Y-70674354D01*
X159282664Y-70626735D01*
X159187426Y-70531497D01*
X159139807Y-70436259D01*
X159092188Y-70245783D01*
X159092188Y-70102926D01*
X159139807Y-69912450D01*
X159187426Y-69817212D01*
X159282664Y-69721974D01*
X159425521Y-69674354D01*
X159520759Y-69674354D01*
X159663616Y-69721974D01*
X159711235Y-69769593D01*
X160139807Y-70674354D02*
X160139807Y-69674354D01*
X160711235Y-70674354D02*
X160282664Y-70102926D01*
X160711235Y-69674354D02*
X160139807Y-70245783D01*
X107758402Y-42773878D02*
X107758402Y-42011974D01*
X108139354Y-42392926D02*
X107377450Y-42392926D01*
X107758402Y-40011974D02*
X107758402Y-39250069D01*
X103246378Y-160844354D02*
X103246378Y-159844354D01*
X103627331Y-159844354D01*
X103722569Y-159891974D01*
X103770188Y-159939593D01*
X103817807Y-160034831D01*
X103817807Y-160177688D01*
X103770188Y-160272926D01*
X103722569Y-160320545D01*
X103627331Y-160368164D01*
X103246378Y-160368164D01*
X104246378Y-160844354D02*
X104246378Y-160177688D01*
X104246378Y-159844354D02*
X104198759Y-159891974D01*
X104246378Y-159939593D01*
X104293997Y-159891974D01*
X104246378Y-159844354D01*
X104246378Y-159939593D01*
X105151140Y-160796735D02*
X105055902Y-160844354D01*
X104865426Y-160844354D01*
X104770188Y-160796735D01*
X104722569Y-160749116D01*
X104674950Y-160653878D01*
X104674950Y-160368164D01*
X104722569Y-160272926D01*
X104770188Y-160225307D01*
X104865426Y-160177688D01*
X105055902Y-160177688D01*
X105151140Y-160225307D01*
X105722569Y-160844354D02*
X105627331Y-160796735D01*
X105579712Y-160749116D01*
X105532093Y-160653878D01*
X105532093Y-160368164D01*
X105579712Y-160272926D01*
X105627331Y-160225307D01*
X105722569Y-160177688D01*
X105865426Y-160177688D01*
X105960664Y-160225307D01*
X106008283Y-160272926D01*
X106055902Y-160368164D01*
X106055902Y-160653878D01*
X106008283Y-160749116D01*
X105960664Y-160796735D01*
X105865426Y-160844354D01*
X105722569Y-160844354D01*
X107817807Y-160749116D02*
X107770188Y-160796735D01*
X107627331Y-160844354D01*
X107532093Y-160844354D01*
X107389235Y-160796735D01*
X107293997Y-160701497D01*
X107246378Y-160606259D01*
X107198759Y-160415783D01*
X107198759Y-160272926D01*
X107246378Y-160082450D01*
X107293997Y-159987212D01*
X107389235Y-159891974D01*
X107532093Y-159844354D01*
X107627331Y-159844354D01*
X107770188Y-159891974D01*
X107817807Y-159939593D01*
X108674950Y-160844354D02*
X108674950Y-160320545D01*
X108627331Y-160225307D01*
X108532093Y-160177688D01*
X108341616Y-160177688D01*
X108246378Y-160225307D01*
X108674950Y-160796735D02*
X108579712Y-160844354D01*
X108341616Y-160844354D01*
X108246378Y-160796735D01*
X108198759Y-160701497D01*
X108198759Y-160606259D01*
X108246378Y-160511021D01*
X108341616Y-160463402D01*
X108579712Y-160463402D01*
X108674950Y-160415783D01*
X109293997Y-160844354D02*
X109198759Y-160796735D01*
X109151140Y-160701497D01*
X109151140Y-159844354D01*
X110103521Y-160796735D02*
X110008283Y-160844354D01*
X109817807Y-160844354D01*
X109722569Y-160796735D01*
X109674950Y-160749116D01*
X109627331Y-160653878D01*
X109627331Y-160368164D01*
X109674950Y-160272926D01*
X109722569Y-160225307D01*
X109817807Y-160177688D01*
X110008283Y-160177688D01*
X110103521Y-160225307D01*
X111293997Y-160463402D02*
X112055902Y-160463402D01*
X113293997Y-160844354D02*
X113293997Y-159844354D01*
X113532093Y-159844354D01*
X113674950Y-159891974D01*
X113770188Y-159987212D01*
X113817807Y-160082450D01*
X113865426Y-160272926D01*
X113865426Y-160415783D01*
X113817807Y-160606259D01*
X113770188Y-160701497D01*
X113674950Y-160796735D01*
X113532093Y-160844354D01*
X113293997Y-160844354D01*
X114674950Y-160796735D02*
X114579712Y-160844354D01*
X114389235Y-160844354D01*
X114293997Y-160796735D01*
X114246378Y-160701497D01*
X114246378Y-160320545D01*
X114293997Y-160225307D01*
X114389235Y-160177688D01*
X114579712Y-160177688D01*
X114674950Y-160225307D01*
X114722569Y-160320545D01*
X114722569Y-160415783D01*
X114246378Y-160511021D01*
X115103521Y-160796735D02*
X115198759Y-160844354D01*
X115389235Y-160844354D01*
X115484474Y-160796735D01*
X115532093Y-160701497D01*
X115532093Y-160653878D01*
X115484474Y-160558640D01*
X115389235Y-160511021D01*
X115246378Y-160511021D01*
X115151140Y-160463402D01*
X115103521Y-160368164D01*
X115103521Y-160320545D01*
X115151140Y-160225307D01*
X115246378Y-160177688D01*
X115389235Y-160177688D01*
X115484474Y-160225307D01*
X115960664Y-160844354D02*
X115960664Y-160177688D01*
X115960664Y-159844354D02*
X115913045Y-159891974D01*
X115960664Y-159939593D01*
X116008283Y-159891974D01*
X115960664Y-159844354D01*
X115960664Y-159939593D01*
X116865426Y-160177688D02*
X116865426Y-160987212D01*
X116817807Y-161082450D01*
X116770188Y-161130069D01*
X116674950Y-161177688D01*
X116532093Y-161177688D01*
X116436854Y-161130069D01*
X116865426Y-160796735D02*
X116770188Y-160844354D01*
X116579712Y-160844354D01*
X116484474Y-160796735D01*
X116436854Y-160749116D01*
X116389235Y-160653878D01*
X116389235Y-160368164D01*
X116436854Y-160272926D01*
X116484474Y-160225307D01*
X116579712Y-160177688D01*
X116770188Y-160177688D01*
X116865426Y-160225307D01*
X117341616Y-160177688D02*
X117341616Y-160844354D01*
X117341616Y-160272926D02*
X117389235Y-160225307D01*
X117484474Y-160177688D01*
X117627331Y-160177688D01*
X117722569Y-160225307D01*
X117770188Y-160320545D01*
X117770188Y-160844354D01*
X118627331Y-160796735D02*
X118532093Y-160844354D01*
X118341616Y-160844354D01*
X118246378Y-160796735D01*
X118198759Y-160701497D01*
X118198759Y-160320545D01*
X118246378Y-160225307D01*
X118341616Y-160177688D01*
X118532093Y-160177688D01*
X118627331Y-160225307D01*
X118674950Y-160320545D01*
X118674950Y-160415783D01*
X118198759Y-160511021D01*
X119532093Y-160844354D02*
X119532093Y-159844354D01*
X119532093Y-160796735D02*
X119436854Y-160844354D01*
X119246378Y-160844354D01*
X119151140Y-160796735D01*
X119103521Y-160749116D01*
X119055902Y-160653878D01*
X119055902Y-160368164D01*
X119103521Y-160272926D01*
X119151140Y-160225307D01*
X119246378Y-160177688D01*
X119436854Y-160177688D01*
X119532093Y-160225307D01*
X120770188Y-160844354D02*
X120770188Y-159844354D01*
X120770188Y-160225307D02*
X120865426Y-160177688D01*
X121055902Y-160177688D01*
X121151140Y-160225307D01*
X121198759Y-160272926D01*
X121246378Y-160368164D01*
X121246378Y-160653878D01*
X121198759Y-160749116D01*
X121151140Y-160796735D01*
X121055902Y-160844354D01*
X120865426Y-160844354D01*
X120770188Y-160796735D01*
X121579712Y-160177688D02*
X121817807Y-160844354D01*
X122055902Y-160177688D02*
X121817807Y-160844354D01*
X121722569Y-161082450D01*
X121674950Y-161130069D01*
X121579712Y-161177688D01*
X123198759Y-160844354D02*
X123198759Y-159844354D01*
X123532093Y-160558640D01*
X123865426Y-159844354D01*
X123865426Y-160844354D01*
X124341616Y-160844354D02*
X124341616Y-160177688D01*
X124341616Y-159844354D02*
X124293997Y-159891974D01*
X124341616Y-159939593D01*
X124389235Y-159891974D01*
X124341616Y-159844354D01*
X124341616Y-159939593D01*
X125246378Y-160796735D02*
X125151140Y-160844354D01*
X124960664Y-160844354D01*
X124865426Y-160796735D01*
X124817807Y-160749116D01*
X124770188Y-160653878D01*
X124770188Y-160368164D01*
X124817807Y-160272926D01*
X124865426Y-160225307D01*
X124960664Y-160177688D01*
X125151140Y-160177688D01*
X125246378Y-160225307D01*
X125674950Y-160844354D02*
X125674950Y-159844354D01*
X126103521Y-160844354D02*
X126103521Y-160320545D01*
X126055902Y-160225307D01*
X125960664Y-160177688D01*
X125817807Y-160177688D01*
X125722569Y-160225307D01*
X125674950Y-160272926D01*
X127008283Y-160844354D02*
X127008283Y-160320545D01*
X126960664Y-160225307D01*
X126865426Y-160177688D01*
X126674950Y-160177688D01*
X126579712Y-160225307D01*
X127008283Y-160796735D02*
X126913045Y-160844354D01*
X126674950Y-160844354D01*
X126579712Y-160796735D01*
X126532093Y-160701497D01*
X126532093Y-160606259D01*
X126579712Y-160511021D01*
X126674950Y-160463402D01*
X126913045Y-160463402D01*
X127008283Y-160415783D01*
X127865426Y-160796735D02*
X127770188Y-160844354D01*
X127579712Y-160844354D01*
X127484474Y-160796735D01*
X127436854Y-160701497D01*
X127436854Y-160320545D01*
X127484474Y-160225307D01*
X127579712Y-160177688D01*
X127770188Y-160177688D01*
X127865426Y-160225307D01*
X127913045Y-160320545D01*
X127913045Y-160415783D01*
X127436854Y-160511021D01*
X128484474Y-160844354D02*
X128389235Y-160796735D01*
X128341616Y-160701497D01*
X128341616Y-159844354D01*
X129484474Y-159844354D02*
X130055902Y-159844354D01*
X129770188Y-160844354D02*
X129770188Y-159844354D01*
X130817807Y-160177688D02*
X130817807Y-160844354D01*
X130389235Y-160177688D02*
X130389235Y-160701497D01*
X130436854Y-160796735D01*
X130532093Y-160844354D01*
X130674950Y-160844354D01*
X130770188Y-160796735D01*
X130817807Y-160749116D01*
X131293997Y-160844354D02*
X131293997Y-160177688D01*
X131293997Y-160368164D02*
X131341616Y-160272926D01*
X131389235Y-160225307D01*
X131484474Y-160177688D01*
X131579712Y-160177688D01*
X131913045Y-160177688D02*
X131913045Y-160844354D01*
X131913045Y-160272926D02*
X131960664Y-160225307D01*
X132055902Y-160177688D01*
X132198759Y-160177688D01*
X132293997Y-160225307D01*
X132341616Y-160320545D01*
X132341616Y-160844354D01*
X133198759Y-160796735D02*
X133103521Y-160844354D01*
X132913045Y-160844354D01*
X132817807Y-160796735D01*
X132770188Y-160701497D01*
X132770188Y-160320545D01*
X132817807Y-160225307D01*
X132913045Y-160177688D01*
X133103521Y-160177688D01*
X133198759Y-160225307D01*
X133246378Y-160320545D01*
X133246378Y-160415783D01*
X132770188Y-160511021D01*
X133674950Y-160844354D02*
X133674950Y-160177688D01*
X133674950Y-160368164D02*
X133722569Y-160272926D01*
X133770188Y-160225307D01*
X133865426Y-160177688D01*
X133960664Y-160177688D01*
X135055902Y-160463402D02*
X135817807Y-160463402D01*
X137341616Y-161225307D02*
X137293997Y-161177688D01*
X137198759Y-161034831D01*
X137151140Y-160939593D01*
X137103521Y-160796735D01*
X137055902Y-160558640D01*
X137055902Y-160368164D01*
X137103521Y-160130069D01*
X137151140Y-159987212D01*
X137198759Y-159891974D01*
X137293997Y-159749116D01*
X137341616Y-159701497D01*
X138293997Y-160749116D02*
X138246378Y-160796735D01*
X138103521Y-160844354D01*
X138008283Y-160844354D01*
X137865426Y-160796735D01*
X137770188Y-160701497D01*
X137722569Y-160606259D01*
X137674950Y-160415783D01*
X137674950Y-160272926D01*
X137722569Y-160082450D01*
X137770188Y-159987212D01*
X137865426Y-159891974D01*
X138008283Y-159844354D01*
X138103521Y-159844354D01*
X138246378Y-159891974D01*
X138293997Y-159939593D01*
X138627331Y-161225307D02*
X138674950Y-161177688D01*
X138770188Y-161034831D01*
X138817807Y-160939593D01*
X138865426Y-160796735D01*
X138913045Y-160558640D01*
X138913045Y-160368164D01*
X138865426Y-160130069D01*
X138817807Y-159987212D01*
X138770188Y-159891974D01*
X138674950Y-159749116D01*
X138627331Y-159701497D01*
X140103521Y-159939593D02*
X140151140Y-159891974D01*
X140246378Y-159844354D01*
X140484474Y-159844354D01*
X140579712Y-159891974D01*
X140627331Y-159939593D01*
X140674950Y-160034831D01*
X140674950Y-160130069D01*
X140627331Y-160272926D01*
X140055902Y-160844354D01*
X140674950Y-160844354D01*
X141293997Y-159844354D02*
X141389235Y-159844354D01*
X141484474Y-159891974D01*
X141532093Y-159939593D01*
X141579712Y-160034831D01*
X141627331Y-160225307D01*
X141627331Y-160463402D01*
X141579712Y-160653878D01*
X141532093Y-160749116D01*
X141484474Y-160796735D01*
X141389235Y-160844354D01*
X141293997Y-160844354D01*
X141198759Y-160796735D01*
X141151140Y-160749116D01*
X141103521Y-160653878D01*
X141055902Y-160463402D01*
X141055902Y-160225307D01*
X141103521Y-160034831D01*
X141151140Y-159939593D01*
X141198759Y-159891974D01*
X141293997Y-159844354D01*
X142008283Y-159939593D02*
X142055902Y-159891974D01*
X142151140Y-159844354D01*
X142389235Y-159844354D01*
X142484474Y-159891974D01*
X142532093Y-159939593D01*
X142579712Y-160034831D01*
X142579712Y-160130069D01*
X142532093Y-160272926D01*
X141960664Y-160844354D01*
X142579712Y-160844354D01*
X142960664Y-159939593D02*
X143008283Y-159891974D01*
X143103521Y-159844354D01*
X143341616Y-159844354D01*
X143436854Y-159891974D01*
X143484474Y-159939593D01*
X143532093Y-160034831D01*
X143532093Y-160130069D01*
X143484474Y-160272926D01*
X142913045Y-160844354D01*
X143532093Y-160844354D01*
X145055902Y-160320545D02*
X145198759Y-160368164D01*
X145246378Y-160415783D01*
X145293997Y-160511021D01*
X145293997Y-160653878D01*
X145246378Y-160749116D01*
X145198759Y-160796735D01*
X145103521Y-160844354D01*
X144722569Y-160844354D01*
X144722569Y-159844354D01*
X145055902Y-159844354D01*
X145151140Y-159891974D01*
X145198759Y-159939593D01*
X145246378Y-160034831D01*
X145246378Y-160130069D01*
X145198759Y-160225307D01*
X145151140Y-160272926D01*
X145055902Y-160320545D01*
X144722569Y-160320545D01*
X145865426Y-160844354D02*
X145770188Y-160796735D01*
X145722569Y-160701497D01*
X145722569Y-159844354D01*
X146674950Y-160177688D02*
X146674950Y-160844354D01*
X146246378Y-160177688D02*
X146246378Y-160701497D01*
X146293997Y-160796735D01*
X146389235Y-160844354D01*
X146532093Y-160844354D01*
X146627331Y-160796735D01*
X146674950Y-160749116D01*
X147532093Y-160796735D02*
X147436854Y-160844354D01*
X147246378Y-160844354D01*
X147151140Y-160796735D01*
X147103521Y-160701497D01*
X147103521Y-160320545D01*
X147151140Y-160225307D01*
X147246378Y-160177688D01*
X147436854Y-160177688D01*
X147532093Y-160225307D01*
X147579712Y-160320545D01*
X147579712Y-160415783D01*
X147103521Y-160511021D01*
X147960664Y-160796735D02*
X148055902Y-160844354D01*
X148246378Y-160844354D01*
X148341616Y-160796735D01*
X148389235Y-160701497D01*
X148389235Y-160653878D01*
X148341616Y-160558640D01*
X148246378Y-160511021D01*
X148103521Y-160511021D01*
X148008283Y-160463402D01*
X147960664Y-160368164D01*
X147960664Y-160320545D01*
X148008283Y-160225307D01*
X148103521Y-160177688D01*
X148246378Y-160177688D01*
X148341616Y-160225307D01*
X148817807Y-160844354D02*
X148817807Y-159844354D01*
X148913045Y-160463402D02*
X149198759Y-160844354D01*
X149198759Y-160177688D02*
X148817807Y-160558640D01*
X149627331Y-160844354D02*
X149627331Y-160177688D01*
X149627331Y-159844354D02*
X149579712Y-159891974D01*
X149627331Y-159939593D01*
X149674950Y-159891974D01*
X149627331Y-159844354D01*
X149627331Y-159939593D01*
X150103521Y-160177688D02*
X150103521Y-160844354D01*
X150103521Y-160272926D02*
X150151140Y-160225307D01*
X150246378Y-160177688D01*
X150389235Y-160177688D01*
X150484474Y-160225307D01*
X150532093Y-160320545D01*
X150532093Y-160844354D01*
X151770188Y-160844354D02*
X151770188Y-159844354D01*
X152008283Y-159844354D01*
X152151140Y-159891974D01*
X152246378Y-159987212D01*
X152293997Y-160082450D01*
X152341616Y-160272926D01*
X152341616Y-160415783D01*
X152293997Y-160606259D01*
X152246378Y-160701497D01*
X152151140Y-160796735D01*
X152008283Y-160844354D01*
X151770188Y-160844354D01*
X153151140Y-160796735D02*
X153055902Y-160844354D01*
X152865426Y-160844354D01*
X152770188Y-160796735D01*
X152722569Y-160701497D01*
X152722569Y-160320545D01*
X152770188Y-160225307D01*
X152865426Y-160177688D01*
X153055902Y-160177688D01*
X153151140Y-160225307D01*
X153198759Y-160320545D01*
X153198759Y-160415783D01*
X152722569Y-160511021D01*
X153579712Y-160796735D02*
X153674950Y-160844354D01*
X153865426Y-160844354D01*
X153960664Y-160796735D01*
X154008283Y-160701497D01*
X154008283Y-160653878D01*
X153960664Y-160558640D01*
X153865426Y-160511021D01*
X153722569Y-160511021D01*
X153627331Y-160463402D01*
X153579712Y-160368164D01*
X153579712Y-160320545D01*
X153627331Y-160225307D01*
X153722569Y-160177688D01*
X153865426Y-160177688D01*
X153960664Y-160225307D01*
X154436854Y-160844354D02*
X154436854Y-160177688D01*
X154436854Y-159844354D02*
X154389235Y-159891974D01*
X154436854Y-159939593D01*
X154484474Y-159891974D01*
X154436854Y-159844354D01*
X154436854Y-159939593D01*
X155341616Y-160177688D02*
X155341616Y-160987212D01*
X155293997Y-161082450D01*
X155246378Y-161130069D01*
X155151140Y-161177688D01*
X155008283Y-161177688D01*
X154913045Y-161130069D01*
X155341616Y-160796735D02*
X155246378Y-160844354D01*
X155055902Y-160844354D01*
X154960664Y-160796735D01*
X154913045Y-160749116D01*
X154865426Y-160653878D01*
X154865426Y-160368164D01*
X154913045Y-160272926D01*
X154960664Y-160225307D01*
X155055902Y-160177688D01*
X155246378Y-160177688D01*
X155341616Y-160225307D01*
X155817807Y-160177688D02*
X155817807Y-160844354D01*
X155817807Y-160272926D02*
X155865426Y-160225307D01*
X155960664Y-160177688D01*
X156103521Y-160177688D01*
X156198759Y-160225307D01*
X156246378Y-160320545D01*
X156246378Y-160844354D01*
%TO.C,U3*%
X129150069Y-39939354D02*
X129150069Y-40748878D01*
X129197688Y-40844116D01*
X129245307Y-40891735D01*
X129340545Y-40939354D01*
X129531021Y-40939354D01*
X129626259Y-40891735D01*
X129673878Y-40844116D01*
X129721497Y-40748878D01*
X129721497Y-39939354D01*
X130102450Y-39939354D02*
X130721497Y-39939354D01*
X130388164Y-40320307D01*
X130531021Y-40320307D01*
X130626259Y-40367926D01*
X130673878Y-40415545D01*
X130721497Y-40510783D01*
X130721497Y-40748878D01*
X130673878Y-40844116D01*
X130626259Y-40891735D01*
X130531021Y-40939354D01*
X130245307Y-40939354D01*
X130150069Y-40891735D01*
X130102450Y-40844116D01*
%TO.C,J1*%
X155105640Y-72468354D02*
X155105640Y-73182640D01*
X155058021Y-73325497D01*
X154962783Y-73420735D01*
X154819926Y-73468354D01*
X154724688Y-73468354D01*
X156105640Y-73468354D02*
X155534212Y-73468354D01*
X155819926Y-73468354D02*
X155819926Y-72468354D01*
X155724688Y-72611212D01*
X155629450Y-72706450D01*
X155534212Y-72754069D01*
%TO.C,D1*%
X156478878Y-44004354D02*
X156478878Y-43004354D01*
X156716974Y-43004354D01*
X156859831Y-43051974D01*
X156955069Y-43147212D01*
X157002688Y-43242450D01*
X157050307Y-43432926D01*
X157050307Y-43575783D01*
X157002688Y-43766259D01*
X156955069Y-43861497D01*
X156859831Y-43956735D01*
X156716974Y-44004354D01*
X156478878Y-44004354D01*
X158002688Y-44004354D02*
X157431259Y-44004354D01*
X157716974Y-44004354D02*
X157716974Y-43004354D01*
X157621735Y-43147212D01*
X157526497Y-43242450D01*
X157431259Y-43290069D01*
%TO.C,R1*%
X153494307Y-40956354D02*
X153160974Y-40480164D01*
X152922878Y-40956354D02*
X152922878Y-39956354D01*
X153303831Y-39956354D01*
X153399069Y-40003974D01*
X153446688Y-40051593D01*
X153494307Y-40146831D01*
X153494307Y-40289688D01*
X153446688Y-40384926D01*
X153399069Y-40432545D01*
X153303831Y-40480164D01*
X152922878Y-40480164D01*
X154446688Y-40956354D02*
X153875259Y-40956354D01*
X154160974Y-40956354D02*
X154160974Y-39956354D01*
X154065735Y-40099212D01*
X153970497Y-40194450D01*
X153875259Y-40242069D01*
%TO.C,R2*%
X150954307Y-40956354D02*
X150620974Y-40480164D01*
X150382878Y-40956354D02*
X150382878Y-39956354D01*
X150763831Y-39956354D01*
X150859069Y-40003974D01*
X150906688Y-40051593D01*
X150954307Y-40146831D01*
X150954307Y-40289688D01*
X150906688Y-40384926D01*
X150859069Y-40432545D01*
X150763831Y-40480164D01*
X150382878Y-40480164D01*
X151335259Y-40051593D02*
X151382878Y-40003974D01*
X151478116Y-39956354D01*
X151716212Y-39956354D01*
X151811450Y-40003974D01*
X151859069Y-40051593D01*
X151906688Y-40146831D01*
X151906688Y-40242069D01*
X151859069Y-40384926D01*
X151287640Y-40956354D01*
X151906688Y-40956354D01*
%TO.C,C1*%
X152732307Y-54098116D02*
X152684688Y-54145735D01*
X152541831Y-54193354D01*
X152446593Y-54193354D01*
X152303735Y-54145735D01*
X152208497Y-54050497D01*
X152160878Y-53955259D01*
X152113259Y-53764783D01*
X152113259Y-53621926D01*
X152160878Y-53431450D01*
X152208497Y-53336212D01*
X152303735Y-53240974D01*
X152446593Y-53193354D01*
X152541831Y-53193354D01*
X152684688Y-53240974D01*
X152732307Y-53288593D01*
X153684688Y-54193354D02*
X153113259Y-54193354D01*
X153398974Y-54193354D02*
X153398974Y-53193354D01*
X153303735Y-53336212D01*
X153208497Y-53431450D01*
X153113259Y-53479069D01*
%TO.C,L1*%
X159463307Y-48866354D02*
X158987116Y-48866354D01*
X158987116Y-47866354D01*
X160320450Y-48866354D02*
X159749021Y-48866354D01*
X160034735Y-48866354D02*
X160034735Y-47866354D01*
X159939497Y-48009212D01*
X159844259Y-48104450D01*
X159749021Y-48152069D01*
%TO.C,C2*%
X151716307Y-39083116D02*
X151668688Y-39130735D01*
X151525831Y-39178354D01*
X151430593Y-39178354D01*
X151287735Y-39130735D01*
X151192497Y-39035497D01*
X151144878Y-38940259D01*
X151097259Y-38749783D01*
X151097259Y-38606926D01*
X151144878Y-38416450D01*
X151192497Y-38321212D01*
X151287735Y-38225974D01*
X151430593Y-38178354D01*
X151525831Y-38178354D01*
X151668688Y-38225974D01*
X151716307Y-38273593D01*
X152097259Y-38273593D02*
X152144878Y-38225974D01*
X152240116Y-38178354D01*
X152478212Y-38178354D01*
X152573450Y-38225974D01*
X152621069Y-38273593D01*
X152668688Y-38368831D01*
X152668688Y-38464069D01*
X152621069Y-38606926D01*
X152049640Y-39178354D01*
X152668688Y-39178354D01*
%TO.C,U1*%
X149343069Y-48338354D02*
X149343069Y-49147878D01*
X149390688Y-49243116D01*
X149438307Y-49290735D01*
X149533545Y-49338354D01*
X149724021Y-49338354D01*
X149819259Y-49290735D01*
X149866878Y-49243116D01*
X149914497Y-49147878D01*
X149914497Y-48338354D01*
X150914497Y-49338354D02*
X150343069Y-49338354D01*
X150628783Y-49338354D02*
X150628783Y-48338354D01*
X150533545Y-48481212D01*
X150438307Y-48576450D01*
X150343069Y-48624069D01*
%TO.C,SW41*%
X153502450Y-150196735D02*
X153645307Y-150244354D01*
X153883402Y-150244354D01*
X153978640Y-150196735D01*
X154026259Y-150149116D01*
X154073878Y-150053878D01*
X154073878Y-149958640D01*
X154026259Y-149863402D01*
X153978640Y-149815783D01*
X153883402Y-149768164D01*
X153692926Y-149720545D01*
X153597688Y-149672926D01*
X153550069Y-149625307D01*
X153502450Y-149530069D01*
X153502450Y-149434831D01*
X153550069Y-149339593D01*
X153597688Y-149291974D01*
X153692926Y-149244354D01*
X153931021Y-149244354D01*
X154073878Y-149291974D01*
X154407212Y-149244354D02*
X154645307Y-150244354D01*
X154835783Y-149530069D01*
X155026259Y-150244354D01*
X155264354Y-149244354D01*
X156073878Y-149577688D02*
X156073878Y-150244354D01*
X155835783Y-149196735D02*
X155597688Y-149911021D01*
X156216735Y-149911021D01*
X157121497Y-150244354D02*
X156550069Y-150244354D01*
X156835783Y-150244354D02*
X156835783Y-149244354D01*
X156740545Y-149387212D01*
X156645307Y-149482450D01*
X156550069Y-149530069D01*
%TO.C,SW40*%
X153502450Y-140036735D02*
X153645307Y-140084354D01*
X153883402Y-140084354D01*
X153978640Y-140036735D01*
X154026259Y-139989116D01*
X154073878Y-139893878D01*
X154073878Y-139798640D01*
X154026259Y-139703402D01*
X153978640Y-139655783D01*
X153883402Y-139608164D01*
X153692926Y-139560545D01*
X153597688Y-139512926D01*
X153550069Y-139465307D01*
X153502450Y-139370069D01*
X153502450Y-139274831D01*
X153550069Y-139179593D01*
X153597688Y-139131974D01*
X153692926Y-139084354D01*
X153931021Y-139084354D01*
X154073878Y-139131974D01*
X154407212Y-139084354D02*
X154645307Y-140084354D01*
X154835783Y-139370069D01*
X155026259Y-140084354D01*
X155264354Y-139084354D01*
X156073878Y-139417688D02*
X156073878Y-140084354D01*
X155835783Y-139036735D02*
X155597688Y-139751021D01*
X156216735Y-139751021D01*
X156788164Y-139084354D02*
X156883402Y-139084354D01*
X156978640Y-139131974D01*
X157026259Y-139179593D01*
X157073878Y-139274831D01*
X157121497Y-139465307D01*
X157121497Y-139703402D01*
X157073878Y-139893878D01*
X157026259Y-139989116D01*
X156978640Y-140036735D01*
X156883402Y-140084354D01*
X156788164Y-140084354D01*
X156692926Y-140036735D01*
X156645307Y-139989116D01*
X156597688Y-139893878D01*
X156550069Y-139703402D01*
X156550069Y-139465307D01*
X156597688Y-139274831D01*
X156645307Y-139179593D01*
X156692926Y-139131974D01*
X156788164Y-139084354D01*
%TO.C,SW39*%
X153502450Y-129876735D02*
X153645307Y-129924354D01*
X153883402Y-129924354D01*
X153978640Y-129876735D01*
X154026259Y-129829116D01*
X154073878Y-129733878D01*
X154073878Y-129638640D01*
X154026259Y-129543402D01*
X153978640Y-129495783D01*
X153883402Y-129448164D01*
X153692926Y-129400545D01*
X153597688Y-129352926D01*
X153550069Y-129305307D01*
X153502450Y-129210069D01*
X153502450Y-129114831D01*
X153550069Y-129019593D01*
X153597688Y-128971974D01*
X153692926Y-128924354D01*
X153931021Y-128924354D01*
X154073878Y-128971974D01*
X154407212Y-128924354D02*
X154645307Y-129924354D01*
X154835783Y-129210069D01*
X155026259Y-129924354D01*
X155264354Y-128924354D01*
X155550069Y-128924354D02*
X156169116Y-128924354D01*
X155835783Y-129305307D01*
X155978640Y-129305307D01*
X156073878Y-129352926D01*
X156121497Y-129400545D01*
X156169116Y-129495783D01*
X156169116Y-129733878D01*
X156121497Y-129829116D01*
X156073878Y-129876735D01*
X155978640Y-129924354D01*
X155692926Y-129924354D01*
X155597688Y-129876735D01*
X155550069Y-129829116D01*
X156645307Y-129924354D02*
X156835783Y-129924354D01*
X156931021Y-129876735D01*
X156978640Y-129829116D01*
X157073878Y-129686259D01*
X157121497Y-129495783D01*
X157121497Y-129114831D01*
X157073878Y-129019593D01*
X157026259Y-128971974D01*
X156931021Y-128924354D01*
X156740545Y-128924354D01*
X156645307Y-128971974D01*
X156597688Y-129019593D01*
X156550069Y-129114831D01*
X156550069Y-129352926D01*
X156597688Y-129448164D01*
X156645307Y-129495783D01*
X156740545Y-129543402D01*
X156931021Y-129543402D01*
X157026259Y-129495783D01*
X157073878Y-129448164D01*
X157121497Y-129352926D01*
%TO.C,SW38*%
X153502450Y-119716735D02*
X153645307Y-119764354D01*
X153883402Y-119764354D01*
X153978640Y-119716735D01*
X154026259Y-119669116D01*
X154073878Y-119573878D01*
X154073878Y-119478640D01*
X154026259Y-119383402D01*
X153978640Y-119335783D01*
X153883402Y-119288164D01*
X153692926Y-119240545D01*
X153597688Y-119192926D01*
X153550069Y-119145307D01*
X153502450Y-119050069D01*
X153502450Y-118954831D01*
X153550069Y-118859593D01*
X153597688Y-118811974D01*
X153692926Y-118764354D01*
X153931021Y-118764354D01*
X154073878Y-118811974D01*
X154407212Y-118764354D02*
X154645307Y-119764354D01*
X154835783Y-119050069D01*
X155026259Y-119764354D01*
X155264354Y-118764354D01*
X155550069Y-118764354D02*
X156169116Y-118764354D01*
X155835783Y-119145307D01*
X155978640Y-119145307D01*
X156073878Y-119192926D01*
X156121497Y-119240545D01*
X156169116Y-119335783D01*
X156169116Y-119573878D01*
X156121497Y-119669116D01*
X156073878Y-119716735D01*
X155978640Y-119764354D01*
X155692926Y-119764354D01*
X155597688Y-119716735D01*
X155550069Y-119669116D01*
X156740545Y-119192926D02*
X156645307Y-119145307D01*
X156597688Y-119097688D01*
X156550069Y-119002450D01*
X156550069Y-118954831D01*
X156597688Y-118859593D01*
X156645307Y-118811974D01*
X156740545Y-118764354D01*
X156931021Y-118764354D01*
X157026259Y-118811974D01*
X157073878Y-118859593D01*
X157121497Y-118954831D01*
X157121497Y-119002450D01*
X157073878Y-119097688D01*
X157026259Y-119145307D01*
X156931021Y-119192926D01*
X156740545Y-119192926D01*
X156645307Y-119240545D01*
X156597688Y-119288164D01*
X156550069Y-119383402D01*
X156550069Y-119573878D01*
X156597688Y-119669116D01*
X156645307Y-119716735D01*
X156740545Y-119764354D01*
X156931021Y-119764354D01*
X157026259Y-119716735D01*
X157073878Y-119669116D01*
X157121497Y-119573878D01*
X157121497Y-119383402D01*
X157073878Y-119288164D01*
X157026259Y-119240545D01*
X156931021Y-119192926D01*
%TO.C,SW37*%
X153502450Y-109556735D02*
X153645307Y-109604354D01*
X153883402Y-109604354D01*
X153978640Y-109556735D01*
X154026259Y-109509116D01*
X154073878Y-109413878D01*
X154073878Y-109318640D01*
X154026259Y-109223402D01*
X153978640Y-109175783D01*
X153883402Y-109128164D01*
X153692926Y-109080545D01*
X153597688Y-109032926D01*
X153550069Y-108985307D01*
X153502450Y-108890069D01*
X153502450Y-108794831D01*
X153550069Y-108699593D01*
X153597688Y-108651974D01*
X153692926Y-108604354D01*
X153931021Y-108604354D01*
X154073878Y-108651974D01*
X154407212Y-108604354D02*
X154645307Y-109604354D01*
X154835783Y-108890069D01*
X155026259Y-109604354D01*
X155264354Y-108604354D01*
X155550069Y-108604354D02*
X156169116Y-108604354D01*
X155835783Y-108985307D01*
X155978640Y-108985307D01*
X156073878Y-109032926D01*
X156121497Y-109080545D01*
X156169116Y-109175783D01*
X156169116Y-109413878D01*
X156121497Y-109509116D01*
X156073878Y-109556735D01*
X155978640Y-109604354D01*
X155692926Y-109604354D01*
X155597688Y-109556735D01*
X155550069Y-109509116D01*
X156502450Y-108604354D02*
X157169116Y-108604354D01*
X156740545Y-109604354D01*
%TO.C,SW36*%
X153502450Y-99396735D02*
X153645307Y-99444354D01*
X153883402Y-99444354D01*
X153978640Y-99396735D01*
X154026259Y-99349116D01*
X154073878Y-99253878D01*
X154073878Y-99158640D01*
X154026259Y-99063402D01*
X153978640Y-99015783D01*
X153883402Y-98968164D01*
X153692926Y-98920545D01*
X153597688Y-98872926D01*
X153550069Y-98825307D01*
X153502450Y-98730069D01*
X153502450Y-98634831D01*
X153550069Y-98539593D01*
X153597688Y-98491974D01*
X153692926Y-98444354D01*
X153931021Y-98444354D01*
X154073878Y-98491974D01*
X154407212Y-98444354D02*
X154645307Y-99444354D01*
X154835783Y-98730069D01*
X155026259Y-99444354D01*
X155264354Y-98444354D01*
X155550069Y-98444354D02*
X156169116Y-98444354D01*
X155835783Y-98825307D01*
X155978640Y-98825307D01*
X156073878Y-98872926D01*
X156121497Y-98920545D01*
X156169116Y-99015783D01*
X156169116Y-99253878D01*
X156121497Y-99349116D01*
X156073878Y-99396735D01*
X155978640Y-99444354D01*
X155692926Y-99444354D01*
X155597688Y-99396735D01*
X155550069Y-99349116D01*
X157026259Y-98444354D02*
X156835783Y-98444354D01*
X156740545Y-98491974D01*
X156692926Y-98539593D01*
X156597688Y-98682450D01*
X156550069Y-98872926D01*
X156550069Y-99253878D01*
X156597688Y-99349116D01*
X156645307Y-99396735D01*
X156740545Y-99444354D01*
X156931021Y-99444354D01*
X157026259Y-99396735D01*
X157073878Y-99349116D01*
X157121497Y-99253878D01*
X157121497Y-99015783D01*
X157073878Y-98920545D01*
X157026259Y-98872926D01*
X156931021Y-98825307D01*
X156740545Y-98825307D01*
X156645307Y-98872926D01*
X156597688Y-98920545D01*
X156550069Y-99015783D01*
%TO.C,SW35*%
X153502450Y-89236735D02*
X153645307Y-89284354D01*
X153883402Y-89284354D01*
X153978640Y-89236735D01*
X154026259Y-89189116D01*
X154073878Y-89093878D01*
X154073878Y-88998640D01*
X154026259Y-88903402D01*
X153978640Y-88855783D01*
X153883402Y-88808164D01*
X153692926Y-88760545D01*
X153597688Y-88712926D01*
X153550069Y-88665307D01*
X153502450Y-88570069D01*
X153502450Y-88474831D01*
X153550069Y-88379593D01*
X153597688Y-88331974D01*
X153692926Y-88284354D01*
X153931021Y-88284354D01*
X154073878Y-88331974D01*
X154407212Y-88284354D02*
X154645307Y-89284354D01*
X154835783Y-88570069D01*
X155026259Y-89284354D01*
X155264354Y-88284354D01*
X155550069Y-88284354D02*
X156169116Y-88284354D01*
X155835783Y-88665307D01*
X155978640Y-88665307D01*
X156073878Y-88712926D01*
X156121497Y-88760545D01*
X156169116Y-88855783D01*
X156169116Y-89093878D01*
X156121497Y-89189116D01*
X156073878Y-89236735D01*
X155978640Y-89284354D01*
X155692926Y-89284354D01*
X155597688Y-89236735D01*
X155550069Y-89189116D01*
X157073878Y-88284354D02*
X156597688Y-88284354D01*
X156550069Y-88760545D01*
X156597688Y-88712926D01*
X156692926Y-88665307D01*
X156931021Y-88665307D01*
X157026259Y-88712926D01*
X157073878Y-88760545D01*
X157121497Y-88855783D01*
X157121497Y-89093878D01*
X157073878Y-89189116D01*
X157026259Y-89236735D01*
X156931021Y-89284354D01*
X156692926Y-89284354D01*
X156597688Y-89236735D01*
X156550069Y-89189116D01*
%TO.C,SW34*%
X153502450Y-79076735D02*
X153645307Y-79124354D01*
X153883402Y-79124354D01*
X153978640Y-79076735D01*
X154026259Y-79029116D01*
X154073878Y-78933878D01*
X154073878Y-78838640D01*
X154026259Y-78743402D01*
X153978640Y-78695783D01*
X153883402Y-78648164D01*
X153692926Y-78600545D01*
X153597688Y-78552926D01*
X153550069Y-78505307D01*
X153502450Y-78410069D01*
X153502450Y-78314831D01*
X153550069Y-78219593D01*
X153597688Y-78171974D01*
X153692926Y-78124354D01*
X153931021Y-78124354D01*
X154073878Y-78171974D01*
X154407212Y-78124354D02*
X154645307Y-79124354D01*
X154835783Y-78410069D01*
X155026259Y-79124354D01*
X155264354Y-78124354D01*
X155550069Y-78124354D02*
X156169116Y-78124354D01*
X155835783Y-78505307D01*
X155978640Y-78505307D01*
X156073878Y-78552926D01*
X156121497Y-78600545D01*
X156169116Y-78695783D01*
X156169116Y-78933878D01*
X156121497Y-79029116D01*
X156073878Y-79076735D01*
X155978640Y-79124354D01*
X155692926Y-79124354D01*
X155597688Y-79076735D01*
X155550069Y-79029116D01*
X157026259Y-78457688D02*
X157026259Y-79124354D01*
X156788164Y-78076735D02*
X156550069Y-78791021D01*
X157169116Y-78791021D01*
%TO.C,SW33*%
X140802450Y-150196735D02*
X140945307Y-150244354D01*
X141183402Y-150244354D01*
X141278640Y-150196735D01*
X141326259Y-150149116D01*
X141373878Y-150053878D01*
X141373878Y-149958640D01*
X141326259Y-149863402D01*
X141278640Y-149815783D01*
X141183402Y-149768164D01*
X140992926Y-149720545D01*
X140897688Y-149672926D01*
X140850069Y-149625307D01*
X140802450Y-149530069D01*
X140802450Y-149434831D01*
X140850069Y-149339593D01*
X140897688Y-149291974D01*
X140992926Y-149244354D01*
X141231021Y-149244354D01*
X141373878Y-149291974D01*
X141707212Y-149244354D02*
X141945307Y-150244354D01*
X142135783Y-149530069D01*
X142326259Y-150244354D01*
X142564354Y-149244354D01*
X142850069Y-149244354D02*
X143469116Y-149244354D01*
X143135783Y-149625307D01*
X143278640Y-149625307D01*
X143373878Y-149672926D01*
X143421497Y-149720545D01*
X143469116Y-149815783D01*
X143469116Y-150053878D01*
X143421497Y-150149116D01*
X143373878Y-150196735D01*
X143278640Y-150244354D01*
X142992926Y-150244354D01*
X142897688Y-150196735D01*
X142850069Y-150149116D01*
X143802450Y-149244354D02*
X144421497Y-149244354D01*
X144088164Y-149625307D01*
X144231021Y-149625307D01*
X144326259Y-149672926D01*
X144373878Y-149720545D01*
X144421497Y-149815783D01*
X144421497Y-150053878D01*
X144373878Y-150149116D01*
X144326259Y-150196735D01*
X144231021Y-150244354D01*
X143945307Y-150244354D01*
X143850069Y-150196735D01*
X143802450Y-150149116D01*
%TO.C,SW32*%
X140802450Y-140036735D02*
X140945307Y-140084354D01*
X141183402Y-140084354D01*
X141278640Y-140036735D01*
X141326259Y-139989116D01*
X141373878Y-139893878D01*
X141373878Y-139798640D01*
X141326259Y-139703402D01*
X141278640Y-139655783D01*
X141183402Y-139608164D01*
X140992926Y-139560545D01*
X140897688Y-139512926D01*
X140850069Y-139465307D01*
X140802450Y-139370069D01*
X140802450Y-139274831D01*
X140850069Y-139179593D01*
X140897688Y-139131974D01*
X140992926Y-139084354D01*
X141231021Y-139084354D01*
X141373878Y-139131974D01*
X141707212Y-139084354D02*
X141945307Y-140084354D01*
X142135783Y-139370069D01*
X142326259Y-140084354D01*
X142564354Y-139084354D01*
X142850069Y-139084354D02*
X143469116Y-139084354D01*
X143135783Y-139465307D01*
X143278640Y-139465307D01*
X143373878Y-139512926D01*
X143421497Y-139560545D01*
X143469116Y-139655783D01*
X143469116Y-139893878D01*
X143421497Y-139989116D01*
X143373878Y-140036735D01*
X143278640Y-140084354D01*
X142992926Y-140084354D01*
X142897688Y-140036735D01*
X142850069Y-139989116D01*
X143850069Y-139179593D02*
X143897688Y-139131974D01*
X143992926Y-139084354D01*
X144231021Y-139084354D01*
X144326259Y-139131974D01*
X144373878Y-139179593D01*
X144421497Y-139274831D01*
X144421497Y-139370069D01*
X144373878Y-139512926D01*
X143802450Y-140084354D01*
X144421497Y-140084354D01*
%TO.C,SW31*%
X140802450Y-129876735D02*
X140945307Y-129924354D01*
X141183402Y-129924354D01*
X141278640Y-129876735D01*
X141326259Y-129829116D01*
X141373878Y-129733878D01*
X141373878Y-129638640D01*
X141326259Y-129543402D01*
X141278640Y-129495783D01*
X141183402Y-129448164D01*
X140992926Y-129400545D01*
X140897688Y-129352926D01*
X140850069Y-129305307D01*
X140802450Y-129210069D01*
X140802450Y-129114831D01*
X140850069Y-129019593D01*
X140897688Y-128971974D01*
X140992926Y-128924354D01*
X141231021Y-128924354D01*
X141373878Y-128971974D01*
X141707212Y-128924354D02*
X141945307Y-129924354D01*
X142135783Y-129210069D01*
X142326259Y-129924354D01*
X142564354Y-128924354D01*
X142850069Y-128924354D02*
X143469116Y-128924354D01*
X143135783Y-129305307D01*
X143278640Y-129305307D01*
X143373878Y-129352926D01*
X143421497Y-129400545D01*
X143469116Y-129495783D01*
X143469116Y-129733878D01*
X143421497Y-129829116D01*
X143373878Y-129876735D01*
X143278640Y-129924354D01*
X142992926Y-129924354D01*
X142897688Y-129876735D01*
X142850069Y-129829116D01*
X144421497Y-129924354D02*
X143850069Y-129924354D01*
X144135783Y-129924354D02*
X144135783Y-128924354D01*
X144040545Y-129067212D01*
X143945307Y-129162450D01*
X143850069Y-129210069D01*
%TO.C,SW30*%
X140802450Y-119716735D02*
X140945307Y-119764354D01*
X141183402Y-119764354D01*
X141278640Y-119716735D01*
X141326259Y-119669116D01*
X141373878Y-119573878D01*
X141373878Y-119478640D01*
X141326259Y-119383402D01*
X141278640Y-119335783D01*
X141183402Y-119288164D01*
X140992926Y-119240545D01*
X140897688Y-119192926D01*
X140850069Y-119145307D01*
X140802450Y-119050069D01*
X140802450Y-118954831D01*
X140850069Y-118859593D01*
X140897688Y-118811974D01*
X140992926Y-118764354D01*
X141231021Y-118764354D01*
X141373878Y-118811974D01*
X141707212Y-118764354D02*
X141945307Y-119764354D01*
X142135783Y-119050069D01*
X142326259Y-119764354D01*
X142564354Y-118764354D01*
X142850069Y-118764354D02*
X143469116Y-118764354D01*
X143135783Y-119145307D01*
X143278640Y-119145307D01*
X143373878Y-119192926D01*
X143421497Y-119240545D01*
X143469116Y-119335783D01*
X143469116Y-119573878D01*
X143421497Y-119669116D01*
X143373878Y-119716735D01*
X143278640Y-119764354D01*
X142992926Y-119764354D01*
X142897688Y-119716735D01*
X142850069Y-119669116D01*
X144088164Y-118764354D02*
X144183402Y-118764354D01*
X144278640Y-118811974D01*
X144326259Y-118859593D01*
X144373878Y-118954831D01*
X144421497Y-119145307D01*
X144421497Y-119383402D01*
X144373878Y-119573878D01*
X144326259Y-119669116D01*
X144278640Y-119716735D01*
X144183402Y-119764354D01*
X144088164Y-119764354D01*
X143992926Y-119716735D01*
X143945307Y-119669116D01*
X143897688Y-119573878D01*
X143850069Y-119383402D01*
X143850069Y-119145307D01*
X143897688Y-118954831D01*
X143945307Y-118859593D01*
X143992926Y-118811974D01*
X144088164Y-118764354D01*
%TO.C,SW29*%
X140802450Y-109556735D02*
X140945307Y-109604354D01*
X141183402Y-109604354D01*
X141278640Y-109556735D01*
X141326259Y-109509116D01*
X141373878Y-109413878D01*
X141373878Y-109318640D01*
X141326259Y-109223402D01*
X141278640Y-109175783D01*
X141183402Y-109128164D01*
X140992926Y-109080545D01*
X140897688Y-109032926D01*
X140850069Y-108985307D01*
X140802450Y-108890069D01*
X140802450Y-108794831D01*
X140850069Y-108699593D01*
X140897688Y-108651974D01*
X140992926Y-108604354D01*
X141231021Y-108604354D01*
X141373878Y-108651974D01*
X141707212Y-108604354D02*
X141945307Y-109604354D01*
X142135783Y-108890069D01*
X142326259Y-109604354D01*
X142564354Y-108604354D01*
X142897688Y-108699593D02*
X142945307Y-108651974D01*
X143040545Y-108604354D01*
X143278640Y-108604354D01*
X143373878Y-108651974D01*
X143421497Y-108699593D01*
X143469116Y-108794831D01*
X143469116Y-108890069D01*
X143421497Y-109032926D01*
X142850069Y-109604354D01*
X143469116Y-109604354D01*
X143945307Y-109604354D02*
X144135783Y-109604354D01*
X144231021Y-109556735D01*
X144278640Y-109509116D01*
X144373878Y-109366259D01*
X144421497Y-109175783D01*
X144421497Y-108794831D01*
X144373878Y-108699593D01*
X144326259Y-108651974D01*
X144231021Y-108604354D01*
X144040545Y-108604354D01*
X143945307Y-108651974D01*
X143897688Y-108699593D01*
X143850069Y-108794831D01*
X143850069Y-109032926D01*
X143897688Y-109128164D01*
X143945307Y-109175783D01*
X144040545Y-109223402D01*
X144231021Y-109223402D01*
X144326259Y-109175783D01*
X144373878Y-109128164D01*
X144421497Y-109032926D01*
%TO.C,SW28*%
X140802450Y-99396735D02*
X140945307Y-99444354D01*
X141183402Y-99444354D01*
X141278640Y-99396735D01*
X141326259Y-99349116D01*
X141373878Y-99253878D01*
X141373878Y-99158640D01*
X141326259Y-99063402D01*
X141278640Y-99015783D01*
X141183402Y-98968164D01*
X140992926Y-98920545D01*
X140897688Y-98872926D01*
X140850069Y-98825307D01*
X140802450Y-98730069D01*
X140802450Y-98634831D01*
X140850069Y-98539593D01*
X140897688Y-98491974D01*
X140992926Y-98444354D01*
X141231021Y-98444354D01*
X141373878Y-98491974D01*
X141707212Y-98444354D02*
X141945307Y-99444354D01*
X142135783Y-98730069D01*
X142326259Y-99444354D01*
X142564354Y-98444354D01*
X142897688Y-98539593D02*
X142945307Y-98491974D01*
X143040545Y-98444354D01*
X143278640Y-98444354D01*
X143373878Y-98491974D01*
X143421497Y-98539593D01*
X143469116Y-98634831D01*
X143469116Y-98730069D01*
X143421497Y-98872926D01*
X142850069Y-99444354D01*
X143469116Y-99444354D01*
X144040545Y-98872926D02*
X143945307Y-98825307D01*
X143897688Y-98777688D01*
X143850069Y-98682450D01*
X143850069Y-98634831D01*
X143897688Y-98539593D01*
X143945307Y-98491974D01*
X144040545Y-98444354D01*
X144231021Y-98444354D01*
X144326259Y-98491974D01*
X144373878Y-98539593D01*
X144421497Y-98634831D01*
X144421497Y-98682450D01*
X144373878Y-98777688D01*
X144326259Y-98825307D01*
X144231021Y-98872926D01*
X144040545Y-98872926D01*
X143945307Y-98920545D01*
X143897688Y-98968164D01*
X143850069Y-99063402D01*
X143850069Y-99253878D01*
X143897688Y-99349116D01*
X143945307Y-99396735D01*
X144040545Y-99444354D01*
X144231021Y-99444354D01*
X144326259Y-99396735D01*
X144373878Y-99349116D01*
X144421497Y-99253878D01*
X144421497Y-99063402D01*
X144373878Y-98968164D01*
X144326259Y-98920545D01*
X144231021Y-98872926D01*
%TO.C,SW27*%
X140802450Y-89236735D02*
X140945307Y-89284354D01*
X141183402Y-89284354D01*
X141278640Y-89236735D01*
X141326259Y-89189116D01*
X141373878Y-89093878D01*
X141373878Y-88998640D01*
X141326259Y-88903402D01*
X141278640Y-88855783D01*
X141183402Y-88808164D01*
X140992926Y-88760545D01*
X140897688Y-88712926D01*
X140850069Y-88665307D01*
X140802450Y-88570069D01*
X140802450Y-88474831D01*
X140850069Y-88379593D01*
X140897688Y-88331974D01*
X140992926Y-88284354D01*
X141231021Y-88284354D01*
X141373878Y-88331974D01*
X141707212Y-88284354D02*
X141945307Y-89284354D01*
X142135783Y-88570069D01*
X142326259Y-89284354D01*
X142564354Y-88284354D01*
X142897688Y-88379593D02*
X142945307Y-88331974D01*
X143040545Y-88284354D01*
X143278640Y-88284354D01*
X143373878Y-88331974D01*
X143421497Y-88379593D01*
X143469116Y-88474831D01*
X143469116Y-88570069D01*
X143421497Y-88712926D01*
X142850069Y-89284354D01*
X143469116Y-89284354D01*
X143802450Y-88284354D02*
X144469116Y-88284354D01*
X144040545Y-89284354D01*
%TO.C,SW26*%
X140802450Y-79076735D02*
X140945307Y-79124354D01*
X141183402Y-79124354D01*
X141278640Y-79076735D01*
X141326259Y-79029116D01*
X141373878Y-78933878D01*
X141373878Y-78838640D01*
X141326259Y-78743402D01*
X141278640Y-78695783D01*
X141183402Y-78648164D01*
X140992926Y-78600545D01*
X140897688Y-78552926D01*
X140850069Y-78505307D01*
X140802450Y-78410069D01*
X140802450Y-78314831D01*
X140850069Y-78219593D01*
X140897688Y-78171974D01*
X140992926Y-78124354D01*
X141231021Y-78124354D01*
X141373878Y-78171974D01*
X141707212Y-78124354D02*
X141945307Y-79124354D01*
X142135783Y-78410069D01*
X142326259Y-79124354D01*
X142564354Y-78124354D01*
X142897688Y-78219593D02*
X142945307Y-78171974D01*
X143040545Y-78124354D01*
X143278640Y-78124354D01*
X143373878Y-78171974D01*
X143421497Y-78219593D01*
X143469116Y-78314831D01*
X143469116Y-78410069D01*
X143421497Y-78552926D01*
X142850069Y-79124354D01*
X143469116Y-79124354D01*
X144326259Y-78124354D02*
X144135783Y-78124354D01*
X144040545Y-78171974D01*
X143992926Y-78219593D01*
X143897688Y-78362450D01*
X143850069Y-78552926D01*
X143850069Y-78933878D01*
X143897688Y-79029116D01*
X143945307Y-79076735D01*
X144040545Y-79124354D01*
X144231021Y-79124354D01*
X144326259Y-79076735D01*
X144373878Y-79029116D01*
X144421497Y-78933878D01*
X144421497Y-78695783D01*
X144373878Y-78600545D01*
X144326259Y-78552926D01*
X144231021Y-78505307D01*
X144040545Y-78505307D01*
X143945307Y-78552926D01*
X143897688Y-78600545D01*
X143850069Y-78695783D01*
%TO.C,SW25*%
X128102450Y-150196735D02*
X128245307Y-150244354D01*
X128483402Y-150244354D01*
X128578640Y-150196735D01*
X128626259Y-150149116D01*
X128673878Y-150053878D01*
X128673878Y-149958640D01*
X128626259Y-149863402D01*
X128578640Y-149815783D01*
X128483402Y-149768164D01*
X128292926Y-149720545D01*
X128197688Y-149672926D01*
X128150069Y-149625307D01*
X128102450Y-149530069D01*
X128102450Y-149434831D01*
X128150069Y-149339593D01*
X128197688Y-149291974D01*
X128292926Y-149244354D01*
X128531021Y-149244354D01*
X128673878Y-149291974D01*
X129007212Y-149244354D02*
X129245307Y-150244354D01*
X129435783Y-149530069D01*
X129626259Y-150244354D01*
X129864354Y-149244354D01*
X130197688Y-149339593D02*
X130245307Y-149291974D01*
X130340545Y-149244354D01*
X130578640Y-149244354D01*
X130673878Y-149291974D01*
X130721497Y-149339593D01*
X130769116Y-149434831D01*
X130769116Y-149530069D01*
X130721497Y-149672926D01*
X130150069Y-150244354D01*
X130769116Y-150244354D01*
X131673878Y-149244354D02*
X131197688Y-149244354D01*
X131150069Y-149720545D01*
X131197688Y-149672926D01*
X131292926Y-149625307D01*
X131531021Y-149625307D01*
X131626259Y-149672926D01*
X131673878Y-149720545D01*
X131721497Y-149815783D01*
X131721497Y-150053878D01*
X131673878Y-150149116D01*
X131626259Y-150196735D01*
X131531021Y-150244354D01*
X131292926Y-150244354D01*
X131197688Y-150196735D01*
X131150069Y-150149116D01*
%TO.C,SW24*%
X128102450Y-140036735D02*
X128245307Y-140084354D01*
X128483402Y-140084354D01*
X128578640Y-140036735D01*
X128626259Y-139989116D01*
X128673878Y-139893878D01*
X128673878Y-139798640D01*
X128626259Y-139703402D01*
X128578640Y-139655783D01*
X128483402Y-139608164D01*
X128292926Y-139560545D01*
X128197688Y-139512926D01*
X128150069Y-139465307D01*
X128102450Y-139370069D01*
X128102450Y-139274831D01*
X128150069Y-139179593D01*
X128197688Y-139131974D01*
X128292926Y-139084354D01*
X128531021Y-139084354D01*
X128673878Y-139131974D01*
X129007212Y-139084354D02*
X129245307Y-140084354D01*
X129435783Y-139370069D01*
X129626259Y-140084354D01*
X129864354Y-139084354D01*
X130197688Y-139179593D02*
X130245307Y-139131974D01*
X130340545Y-139084354D01*
X130578640Y-139084354D01*
X130673878Y-139131974D01*
X130721497Y-139179593D01*
X130769116Y-139274831D01*
X130769116Y-139370069D01*
X130721497Y-139512926D01*
X130150069Y-140084354D01*
X130769116Y-140084354D01*
X131626259Y-139417688D02*
X131626259Y-140084354D01*
X131388164Y-139036735D02*
X131150069Y-139751021D01*
X131769116Y-139751021D01*
%TO.C,SW23*%
X128102450Y-129876735D02*
X128245307Y-129924354D01*
X128483402Y-129924354D01*
X128578640Y-129876735D01*
X128626259Y-129829116D01*
X128673878Y-129733878D01*
X128673878Y-129638640D01*
X128626259Y-129543402D01*
X128578640Y-129495783D01*
X128483402Y-129448164D01*
X128292926Y-129400545D01*
X128197688Y-129352926D01*
X128150069Y-129305307D01*
X128102450Y-129210069D01*
X128102450Y-129114831D01*
X128150069Y-129019593D01*
X128197688Y-128971974D01*
X128292926Y-128924354D01*
X128531021Y-128924354D01*
X128673878Y-128971974D01*
X129007212Y-128924354D02*
X129245307Y-129924354D01*
X129435783Y-129210069D01*
X129626259Y-129924354D01*
X129864354Y-128924354D01*
X130197688Y-129019593D02*
X130245307Y-128971974D01*
X130340545Y-128924354D01*
X130578640Y-128924354D01*
X130673878Y-128971974D01*
X130721497Y-129019593D01*
X130769116Y-129114831D01*
X130769116Y-129210069D01*
X130721497Y-129352926D01*
X130150069Y-129924354D01*
X130769116Y-129924354D01*
X131102450Y-128924354D02*
X131721497Y-128924354D01*
X131388164Y-129305307D01*
X131531021Y-129305307D01*
X131626259Y-129352926D01*
X131673878Y-129400545D01*
X131721497Y-129495783D01*
X131721497Y-129733878D01*
X131673878Y-129829116D01*
X131626259Y-129876735D01*
X131531021Y-129924354D01*
X131245307Y-129924354D01*
X131150069Y-129876735D01*
X131102450Y-129829116D01*
%TO.C,SW22*%
X128102450Y-119716735D02*
X128245307Y-119764354D01*
X128483402Y-119764354D01*
X128578640Y-119716735D01*
X128626259Y-119669116D01*
X128673878Y-119573878D01*
X128673878Y-119478640D01*
X128626259Y-119383402D01*
X128578640Y-119335783D01*
X128483402Y-119288164D01*
X128292926Y-119240545D01*
X128197688Y-119192926D01*
X128150069Y-119145307D01*
X128102450Y-119050069D01*
X128102450Y-118954831D01*
X128150069Y-118859593D01*
X128197688Y-118811974D01*
X128292926Y-118764354D01*
X128531021Y-118764354D01*
X128673878Y-118811974D01*
X129007212Y-118764354D02*
X129245307Y-119764354D01*
X129435783Y-119050069D01*
X129626259Y-119764354D01*
X129864354Y-118764354D01*
X130197688Y-118859593D02*
X130245307Y-118811974D01*
X130340545Y-118764354D01*
X130578640Y-118764354D01*
X130673878Y-118811974D01*
X130721497Y-118859593D01*
X130769116Y-118954831D01*
X130769116Y-119050069D01*
X130721497Y-119192926D01*
X130150069Y-119764354D01*
X130769116Y-119764354D01*
X131150069Y-118859593D02*
X131197688Y-118811974D01*
X131292926Y-118764354D01*
X131531021Y-118764354D01*
X131626259Y-118811974D01*
X131673878Y-118859593D01*
X131721497Y-118954831D01*
X131721497Y-119050069D01*
X131673878Y-119192926D01*
X131102450Y-119764354D01*
X131721497Y-119764354D01*
%TO.C,SW21*%
X128102450Y-109556735D02*
X128245307Y-109604354D01*
X128483402Y-109604354D01*
X128578640Y-109556735D01*
X128626259Y-109509116D01*
X128673878Y-109413878D01*
X128673878Y-109318640D01*
X128626259Y-109223402D01*
X128578640Y-109175783D01*
X128483402Y-109128164D01*
X128292926Y-109080545D01*
X128197688Y-109032926D01*
X128150069Y-108985307D01*
X128102450Y-108890069D01*
X128102450Y-108794831D01*
X128150069Y-108699593D01*
X128197688Y-108651974D01*
X128292926Y-108604354D01*
X128531021Y-108604354D01*
X128673878Y-108651974D01*
X129007212Y-108604354D02*
X129245307Y-109604354D01*
X129435783Y-108890069D01*
X129626259Y-109604354D01*
X129864354Y-108604354D01*
X130197688Y-108699593D02*
X130245307Y-108651974D01*
X130340545Y-108604354D01*
X130578640Y-108604354D01*
X130673878Y-108651974D01*
X130721497Y-108699593D01*
X130769116Y-108794831D01*
X130769116Y-108890069D01*
X130721497Y-109032926D01*
X130150069Y-109604354D01*
X130769116Y-109604354D01*
X131721497Y-109604354D02*
X131150069Y-109604354D01*
X131435783Y-109604354D02*
X131435783Y-108604354D01*
X131340545Y-108747212D01*
X131245307Y-108842450D01*
X131150069Y-108890069D01*
%TO.C,SW20*%
X128102450Y-99396735D02*
X128245307Y-99444354D01*
X128483402Y-99444354D01*
X128578640Y-99396735D01*
X128626259Y-99349116D01*
X128673878Y-99253878D01*
X128673878Y-99158640D01*
X128626259Y-99063402D01*
X128578640Y-99015783D01*
X128483402Y-98968164D01*
X128292926Y-98920545D01*
X128197688Y-98872926D01*
X128150069Y-98825307D01*
X128102450Y-98730069D01*
X128102450Y-98634831D01*
X128150069Y-98539593D01*
X128197688Y-98491974D01*
X128292926Y-98444354D01*
X128531021Y-98444354D01*
X128673878Y-98491974D01*
X129007212Y-98444354D02*
X129245307Y-99444354D01*
X129435783Y-98730069D01*
X129626259Y-99444354D01*
X129864354Y-98444354D01*
X130197688Y-98539593D02*
X130245307Y-98491974D01*
X130340545Y-98444354D01*
X130578640Y-98444354D01*
X130673878Y-98491974D01*
X130721497Y-98539593D01*
X130769116Y-98634831D01*
X130769116Y-98730069D01*
X130721497Y-98872926D01*
X130150069Y-99444354D01*
X130769116Y-99444354D01*
X131388164Y-98444354D02*
X131483402Y-98444354D01*
X131578640Y-98491974D01*
X131626259Y-98539593D01*
X131673878Y-98634831D01*
X131721497Y-98825307D01*
X131721497Y-99063402D01*
X131673878Y-99253878D01*
X131626259Y-99349116D01*
X131578640Y-99396735D01*
X131483402Y-99444354D01*
X131388164Y-99444354D01*
X131292926Y-99396735D01*
X131245307Y-99349116D01*
X131197688Y-99253878D01*
X131150069Y-99063402D01*
X131150069Y-98825307D01*
X131197688Y-98634831D01*
X131245307Y-98539593D01*
X131292926Y-98491974D01*
X131388164Y-98444354D01*
%TO.C,SW19*%
X128102450Y-89236735D02*
X128245307Y-89284354D01*
X128483402Y-89284354D01*
X128578640Y-89236735D01*
X128626259Y-89189116D01*
X128673878Y-89093878D01*
X128673878Y-88998640D01*
X128626259Y-88903402D01*
X128578640Y-88855783D01*
X128483402Y-88808164D01*
X128292926Y-88760545D01*
X128197688Y-88712926D01*
X128150069Y-88665307D01*
X128102450Y-88570069D01*
X128102450Y-88474831D01*
X128150069Y-88379593D01*
X128197688Y-88331974D01*
X128292926Y-88284354D01*
X128531021Y-88284354D01*
X128673878Y-88331974D01*
X129007212Y-88284354D02*
X129245307Y-89284354D01*
X129435783Y-88570069D01*
X129626259Y-89284354D01*
X129864354Y-88284354D01*
X130769116Y-89284354D02*
X130197688Y-89284354D01*
X130483402Y-89284354D02*
X130483402Y-88284354D01*
X130388164Y-88427212D01*
X130292926Y-88522450D01*
X130197688Y-88570069D01*
X131245307Y-89284354D02*
X131435783Y-89284354D01*
X131531021Y-89236735D01*
X131578640Y-89189116D01*
X131673878Y-89046259D01*
X131721497Y-88855783D01*
X131721497Y-88474831D01*
X131673878Y-88379593D01*
X131626259Y-88331974D01*
X131531021Y-88284354D01*
X131340545Y-88284354D01*
X131245307Y-88331974D01*
X131197688Y-88379593D01*
X131150069Y-88474831D01*
X131150069Y-88712926D01*
X131197688Y-88808164D01*
X131245307Y-88855783D01*
X131340545Y-88903402D01*
X131531021Y-88903402D01*
X131626259Y-88855783D01*
X131673878Y-88808164D01*
X131721497Y-88712926D01*
%TO.C,SW18*%
X128102450Y-79076735D02*
X128245307Y-79124354D01*
X128483402Y-79124354D01*
X128578640Y-79076735D01*
X128626259Y-79029116D01*
X128673878Y-78933878D01*
X128673878Y-78838640D01*
X128626259Y-78743402D01*
X128578640Y-78695783D01*
X128483402Y-78648164D01*
X128292926Y-78600545D01*
X128197688Y-78552926D01*
X128150069Y-78505307D01*
X128102450Y-78410069D01*
X128102450Y-78314831D01*
X128150069Y-78219593D01*
X128197688Y-78171974D01*
X128292926Y-78124354D01*
X128531021Y-78124354D01*
X128673878Y-78171974D01*
X129007212Y-78124354D02*
X129245307Y-79124354D01*
X129435783Y-78410069D01*
X129626259Y-79124354D01*
X129864354Y-78124354D01*
X130769116Y-79124354D02*
X130197688Y-79124354D01*
X130483402Y-79124354D02*
X130483402Y-78124354D01*
X130388164Y-78267212D01*
X130292926Y-78362450D01*
X130197688Y-78410069D01*
X131340545Y-78552926D02*
X131245307Y-78505307D01*
X131197688Y-78457688D01*
X131150069Y-78362450D01*
X131150069Y-78314831D01*
X131197688Y-78219593D01*
X131245307Y-78171974D01*
X131340545Y-78124354D01*
X131531021Y-78124354D01*
X131626259Y-78171974D01*
X131673878Y-78219593D01*
X131721497Y-78314831D01*
X131721497Y-78362450D01*
X131673878Y-78457688D01*
X131626259Y-78505307D01*
X131531021Y-78552926D01*
X131340545Y-78552926D01*
X131245307Y-78600545D01*
X131197688Y-78648164D01*
X131150069Y-78743402D01*
X131150069Y-78933878D01*
X131197688Y-79029116D01*
X131245307Y-79076735D01*
X131340545Y-79124354D01*
X131531021Y-79124354D01*
X131626259Y-79076735D01*
X131673878Y-79029116D01*
X131721497Y-78933878D01*
X131721497Y-78743402D01*
X131673878Y-78648164D01*
X131626259Y-78600545D01*
X131531021Y-78552926D01*
%TO.C,SW17*%
X115402450Y-150196735D02*
X115545307Y-150244354D01*
X115783402Y-150244354D01*
X115878640Y-150196735D01*
X115926259Y-150149116D01*
X115973878Y-150053878D01*
X115973878Y-149958640D01*
X115926259Y-149863402D01*
X115878640Y-149815783D01*
X115783402Y-149768164D01*
X115592926Y-149720545D01*
X115497688Y-149672926D01*
X115450069Y-149625307D01*
X115402450Y-149530069D01*
X115402450Y-149434831D01*
X115450069Y-149339593D01*
X115497688Y-149291974D01*
X115592926Y-149244354D01*
X115831021Y-149244354D01*
X115973878Y-149291974D01*
X116307212Y-149244354D02*
X116545307Y-150244354D01*
X116735783Y-149530069D01*
X116926259Y-150244354D01*
X117164354Y-149244354D01*
X118069116Y-150244354D02*
X117497688Y-150244354D01*
X117783402Y-150244354D02*
X117783402Y-149244354D01*
X117688164Y-149387212D01*
X117592926Y-149482450D01*
X117497688Y-149530069D01*
X118402450Y-149244354D02*
X119069116Y-149244354D01*
X118640545Y-150244354D01*
%TO.C,SW16*%
X115402450Y-140036735D02*
X115545307Y-140084354D01*
X115783402Y-140084354D01*
X115878640Y-140036735D01*
X115926259Y-139989116D01*
X115973878Y-139893878D01*
X115973878Y-139798640D01*
X115926259Y-139703402D01*
X115878640Y-139655783D01*
X115783402Y-139608164D01*
X115592926Y-139560545D01*
X115497688Y-139512926D01*
X115450069Y-139465307D01*
X115402450Y-139370069D01*
X115402450Y-139274831D01*
X115450069Y-139179593D01*
X115497688Y-139131974D01*
X115592926Y-139084354D01*
X115831021Y-139084354D01*
X115973878Y-139131974D01*
X116307212Y-139084354D02*
X116545307Y-140084354D01*
X116735783Y-139370069D01*
X116926259Y-140084354D01*
X117164354Y-139084354D01*
X118069116Y-140084354D02*
X117497688Y-140084354D01*
X117783402Y-140084354D02*
X117783402Y-139084354D01*
X117688164Y-139227212D01*
X117592926Y-139322450D01*
X117497688Y-139370069D01*
X118926259Y-139084354D02*
X118735783Y-139084354D01*
X118640545Y-139131974D01*
X118592926Y-139179593D01*
X118497688Y-139322450D01*
X118450069Y-139512926D01*
X118450069Y-139893878D01*
X118497688Y-139989116D01*
X118545307Y-140036735D01*
X118640545Y-140084354D01*
X118831021Y-140084354D01*
X118926259Y-140036735D01*
X118973878Y-139989116D01*
X119021497Y-139893878D01*
X119021497Y-139655783D01*
X118973878Y-139560545D01*
X118926259Y-139512926D01*
X118831021Y-139465307D01*
X118640545Y-139465307D01*
X118545307Y-139512926D01*
X118497688Y-139560545D01*
X118450069Y-139655783D01*
%TO.C,SW15*%
X115402450Y-129876735D02*
X115545307Y-129924354D01*
X115783402Y-129924354D01*
X115878640Y-129876735D01*
X115926259Y-129829116D01*
X115973878Y-129733878D01*
X115973878Y-129638640D01*
X115926259Y-129543402D01*
X115878640Y-129495783D01*
X115783402Y-129448164D01*
X115592926Y-129400545D01*
X115497688Y-129352926D01*
X115450069Y-129305307D01*
X115402450Y-129210069D01*
X115402450Y-129114831D01*
X115450069Y-129019593D01*
X115497688Y-128971974D01*
X115592926Y-128924354D01*
X115831021Y-128924354D01*
X115973878Y-128971974D01*
X116307212Y-128924354D02*
X116545307Y-129924354D01*
X116735783Y-129210069D01*
X116926259Y-129924354D01*
X117164354Y-128924354D01*
X118069116Y-129924354D02*
X117497688Y-129924354D01*
X117783402Y-129924354D02*
X117783402Y-128924354D01*
X117688164Y-129067212D01*
X117592926Y-129162450D01*
X117497688Y-129210069D01*
X118973878Y-128924354D02*
X118497688Y-128924354D01*
X118450069Y-129400545D01*
X118497688Y-129352926D01*
X118592926Y-129305307D01*
X118831021Y-129305307D01*
X118926259Y-129352926D01*
X118973878Y-129400545D01*
X119021497Y-129495783D01*
X119021497Y-129733878D01*
X118973878Y-129829116D01*
X118926259Y-129876735D01*
X118831021Y-129924354D01*
X118592926Y-129924354D01*
X118497688Y-129876735D01*
X118450069Y-129829116D01*
%TO.C,SW14*%
X115402450Y-119716735D02*
X115545307Y-119764354D01*
X115783402Y-119764354D01*
X115878640Y-119716735D01*
X115926259Y-119669116D01*
X115973878Y-119573878D01*
X115973878Y-119478640D01*
X115926259Y-119383402D01*
X115878640Y-119335783D01*
X115783402Y-119288164D01*
X115592926Y-119240545D01*
X115497688Y-119192926D01*
X115450069Y-119145307D01*
X115402450Y-119050069D01*
X115402450Y-118954831D01*
X115450069Y-118859593D01*
X115497688Y-118811974D01*
X115592926Y-118764354D01*
X115831021Y-118764354D01*
X115973878Y-118811974D01*
X116307212Y-118764354D02*
X116545307Y-119764354D01*
X116735783Y-119050069D01*
X116926259Y-119764354D01*
X117164354Y-118764354D01*
X118069116Y-119764354D02*
X117497688Y-119764354D01*
X117783402Y-119764354D02*
X117783402Y-118764354D01*
X117688164Y-118907212D01*
X117592926Y-119002450D01*
X117497688Y-119050069D01*
X118926259Y-119097688D02*
X118926259Y-119764354D01*
X118688164Y-118716735D02*
X118450069Y-119431021D01*
X119069116Y-119431021D01*
%TO.C,SW13*%
X115402450Y-109556735D02*
X115545307Y-109604354D01*
X115783402Y-109604354D01*
X115878640Y-109556735D01*
X115926259Y-109509116D01*
X115973878Y-109413878D01*
X115973878Y-109318640D01*
X115926259Y-109223402D01*
X115878640Y-109175783D01*
X115783402Y-109128164D01*
X115592926Y-109080545D01*
X115497688Y-109032926D01*
X115450069Y-108985307D01*
X115402450Y-108890069D01*
X115402450Y-108794831D01*
X115450069Y-108699593D01*
X115497688Y-108651974D01*
X115592926Y-108604354D01*
X115831021Y-108604354D01*
X115973878Y-108651974D01*
X116307212Y-108604354D02*
X116545307Y-109604354D01*
X116735783Y-108890069D01*
X116926259Y-109604354D01*
X117164354Y-108604354D01*
X118069116Y-109604354D02*
X117497688Y-109604354D01*
X117783402Y-109604354D02*
X117783402Y-108604354D01*
X117688164Y-108747212D01*
X117592926Y-108842450D01*
X117497688Y-108890069D01*
X118402450Y-108604354D02*
X119021497Y-108604354D01*
X118688164Y-108985307D01*
X118831021Y-108985307D01*
X118926259Y-109032926D01*
X118973878Y-109080545D01*
X119021497Y-109175783D01*
X119021497Y-109413878D01*
X118973878Y-109509116D01*
X118926259Y-109556735D01*
X118831021Y-109604354D01*
X118545307Y-109604354D01*
X118450069Y-109556735D01*
X118402450Y-109509116D01*
%TO.C,SW12*%
X115402450Y-99396735D02*
X115545307Y-99444354D01*
X115783402Y-99444354D01*
X115878640Y-99396735D01*
X115926259Y-99349116D01*
X115973878Y-99253878D01*
X115973878Y-99158640D01*
X115926259Y-99063402D01*
X115878640Y-99015783D01*
X115783402Y-98968164D01*
X115592926Y-98920545D01*
X115497688Y-98872926D01*
X115450069Y-98825307D01*
X115402450Y-98730069D01*
X115402450Y-98634831D01*
X115450069Y-98539593D01*
X115497688Y-98491974D01*
X115592926Y-98444354D01*
X115831021Y-98444354D01*
X115973878Y-98491974D01*
X116307212Y-98444354D02*
X116545307Y-99444354D01*
X116735783Y-98730069D01*
X116926259Y-99444354D01*
X117164354Y-98444354D01*
X118069116Y-99444354D02*
X117497688Y-99444354D01*
X117783402Y-99444354D02*
X117783402Y-98444354D01*
X117688164Y-98587212D01*
X117592926Y-98682450D01*
X117497688Y-98730069D01*
X118450069Y-98539593D02*
X118497688Y-98491974D01*
X118592926Y-98444354D01*
X118831021Y-98444354D01*
X118926259Y-98491974D01*
X118973878Y-98539593D01*
X119021497Y-98634831D01*
X119021497Y-98730069D01*
X118973878Y-98872926D01*
X118402450Y-99444354D01*
X119021497Y-99444354D01*
%TO.C,SW11*%
X115402450Y-89236735D02*
X115545307Y-89284354D01*
X115783402Y-89284354D01*
X115878640Y-89236735D01*
X115926259Y-89189116D01*
X115973878Y-89093878D01*
X115973878Y-88998640D01*
X115926259Y-88903402D01*
X115878640Y-88855783D01*
X115783402Y-88808164D01*
X115592926Y-88760545D01*
X115497688Y-88712926D01*
X115450069Y-88665307D01*
X115402450Y-88570069D01*
X115402450Y-88474831D01*
X115450069Y-88379593D01*
X115497688Y-88331974D01*
X115592926Y-88284354D01*
X115831021Y-88284354D01*
X115973878Y-88331974D01*
X116307212Y-88284354D02*
X116545307Y-89284354D01*
X116735783Y-88570069D01*
X116926259Y-89284354D01*
X117164354Y-88284354D01*
X118069116Y-89284354D02*
X117497688Y-89284354D01*
X117783402Y-89284354D02*
X117783402Y-88284354D01*
X117688164Y-88427212D01*
X117592926Y-88522450D01*
X117497688Y-88570069D01*
X119021497Y-89284354D02*
X118450069Y-89284354D01*
X118735783Y-89284354D02*
X118735783Y-88284354D01*
X118640545Y-88427212D01*
X118545307Y-88522450D01*
X118450069Y-88570069D01*
%TO.C,SW10*%
X115402450Y-79076735D02*
X115545307Y-79124354D01*
X115783402Y-79124354D01*
X115878640Y-79076735D01*
X115926259Y-79029116D01*
X115973878Y-78933878D01*
X115973878Y-78838640D01*
X115926259Y-78743402D01*
X115878640Y-78695783D01*
X115783402Y-78648164D01*
X115592926Y-78600545D01*
X115497688Y-78552926D01*
X115450069Y-78505307D01*
X115402450Y-78410069D01*
X115402450Y-78314831D01*
X115450069Y-78219593D01*
X115497688Y-78171974D01*
X115592926Y-78124354D01*
X115831021Y-78124354D01*
X115973878Y-78171974D01*
X116307212Y-78124354D02*
X116545307Y-79124354D01*
X116735783Y-78410069D01*
X116926259Y-79124354D01*
X117164354Y-78124354D01*
X118069116Y-79124354D02*
X117497688Y-79124354D01*
X117783402Y-79124354D02*
X117783402Y-78124354D01*
X117688164Y-78267212D01*
X117592926Y-78362450D01*
X117497688Y-78410069D01*
X118688164Y-78124354D02*
X118783402Y-78124354D01*
X118878640Y-78171974D01*
X118926259Y-78219593D01*
X118973878Y-78314831D01*
X119021497Y-78505307D01*
X119021497Y-78743402D01*
X118973878Y-78933878D01*
X118926259Y-79029116D01*
X118878640Y-79076735D01*
X118783402Y-79124354D01*
X118688164Y-79124354D01*
X118592926Y-79076735D01*
X118545307Y-79029116D01*
X118497688Y-78933878D01*
X118450069Y-78743402D01*
X118450069Y-78505307D01*
X118497688Y-78314831D01*
X118545307Y-78219593D01*
X118592926Y-78171974D01*
X118688164Y-78124354D01*
%TO.C,SW9*%
X103178640Y-150196735D02*
X103321497Y-150244354D01*
X103559593Y-150244354D01*
X103654831Y-150196735D01*
X103702450Y-150149116D01*
X103750069Y-150053878D01*
X103750069Y-149958640D01*
X103702450Y-149863402D01*
X103654831Y-149815783D01*
X103559593Y-149768164D01*
X103369116Y-149720545D01*
X103273878Y-149672926D01*
X103226259Y-149625307D01*
X103178640Y-149530069D01*
X103178640Y-149434831D01*
X103226259Y-149339593D01*
X103273878Y-149291974D01*
X103369116Y-149244354D01*
X103607212Y-149244354D01*
X103750069Y-149291974D01*
X104083402Y-149244354D02*
X104321497Y-150244354D01*
X104511974Y-149530069D01*
X104702450Y-150244354D01*
X104940545Y-149244354D01*
X105369116Y-150244354D02*
X105559593Y-150244354D01*
X105654831Y-150196735D01*
X105702450Y-150149116D01*
X105797688Y-150006259D01*
X105845307Y-149815783D01*
X105845307Y-149434831D01*
X105797688Y-149339593D01*
X105750069Y-149291974D01*
X105654831Y-149244354D01*
X105464354Y-149244354D01*
X105369116Y-149291974D01*
X105321497Y-149339593D01*
X105273878Y-149434831D01*
X105273878Y-149672926D01*
X105321497Y-149768164D01*
X105369116Y-149815783D01*
X105464354Y-149863402D01*
X105654831Y-149863402D01*
X105750069Y-149815783D01*
X105797688Y-149768164D01*
X105845307Y-149672926D01*
%TO.C,SW8*%
X103178640Y-140036735D02*
X103321497Y-140084354D01*
X103559593Y-140084354D01*
X103654831Y-140036735D01*
X103702450Y-139989116D01*
X103750069Y-139893878D01*
X103750069Y-139798640D01*
X103702450Y-139703402D01*
X103654831Y-139655783D01*
X103559593Y-139608164D01*
X103369116Y-139560545D01*
X103273878Y-139512926D01*
X103226259Y-139465307D01*
X103178640Y-139370069D01*
X103178640Y-139274831D01*
X103226259Y-139179593D01*
X103273878Y-139131974D01*
X103369116Y-139084354D01*
X103607212Y-139084354D01*
X103750069Y-139131974D01*
X104083402Y-139084354D02*
X104321497Y-140084354D01*
X104511974Y-139370069D01*
X104702450Y-140084354D01*
X104940545Y-139084354D01*
X105464354Y-139512926D02*
X105369116Y-139465307D01*
X105321497Y-139417688D01*
X105273878Y-139322450D01*
X105273878Y-139274831D01*
X105321497Y-139179593D01*
X105369116Y-139131974D01*
X105464354Y-139084354D01*
X105654831Y-139084354D01*
X105750069Y-139131974D01*
X105797688Y-139179593D01*
X105845307Y-139274831D01*
X105845307Y-139322450D01*
X105797688Y-139417688D01*
X105750069Y-139465307D01*
X105654831Y-139512926D01*
X105464354Y-139512926D01*
X105369116Y-139560545D01*
X105321497Y-139608164D01*
X105273878Y-139703402D01*
X105273878Y-139893878D01*
X105321497Y-139989116D01*
X105369116Y-140036735D01*
X105464354Y-140084354D01*
X105654831Y-140084354D01*
X105750069Y-140036735D01*
X105797688Y-139989116D01*
X105845307Y-139893878D01*
X105845307Y-139703402D01*
X105797688Y-139608164D01*
X105750069Y-139560545D01*
X105654831Y-139512926D01*
%TO.C,SW7*%
X103178640Y-129876735D02*
X103321497Y-129924354D01*
X103559593Y-129924354D01*
X103654831Y-129876735D01*
X103702450Y-129829116D01*
X103750069Y-129733878D01*
X103750069Y-129638640D01*
X103702450Y-129543402D01*
X103654831Y-129495783D01*
X103559593Y-129448164D01*
X103369116Y-129400545D01*
X103273878Y-129352926D01*
X103226259Y-129305307D01*
X103178640Y-129210069D01*
X103178640Y-129114831D01*
X103226259Y-129019593D01*
X103273878Y-128971974D01*
X103369116Y-128924354D01*
X103607212Y-128924354D01*
X103750069Y-128971974D01*
X104083402Y-128924354D02*
X104321497Y-129924354D01*
X104511974Y-129210069D01*
X104702450Y-129924354D01*
X104940545Y-128924354D01*
X105226259Y-128924354D02*
X105892926Y-128924354D01*
X105464354Y-129924354D01*
%TO.C,SW6*%
X103178640Y-119716735D02*
X103321497Y-119764354D01*
X103559593Y-119764354D01*
X103654831Y-119716735D01*
X103702450Y-119669116D01*
X103750069Y-119573878D01*
X103750069Y-119478640D01*
X103702450Y-119383402D01*
X103654831Y-119335783D01*
X103559593Y-119288164D01*
X103369116Y-119240545D01*
X103273878Y-119192926D01*
X103226259Y-119145307D01*
X103178640Y-119050069D01*
X103178640Y-118954831D01*
X103226259Y-118859593D01*
X103273878Y-118811974D01*
X103369116Y-118764354D01*
X103607212Y-118764354D01*
X103750069Y-118811974D01*
X104083402Y-118764354D02*
X104321497Y-119764354D01*
X104511974Y-119050069D01*
X104702450Y-119764354D01*
X104940545Y-118764354D01*
X105750069Y-118764354D02*
X105559593Y-118764354D01*
X105464354Y-118811974D01*
X105416735Y-118859593D01*
X105321497Y-119002450D01*
X105273878Y-119192926D01*
X105273878Y-119573878D01*
X105321497Y-119669116D01*
X105369116Y-119716735D01*
X105464354Y-119764354D01*
X105654831Y-119764354D01*
X105750069Y-119716735D01*
X105797688Y-119669116D01*
X105845307Y-119573878D01*
X105845307Y-119335783D01*
X105797688Y-119240545D01*
X105750069Y-119192926D01*
X105654831Y-119145307D01*
X105464354Y-119145307D01*
X105369116Y-119192926D01*
X105321497Y-119240545D01*
X105273878Y-119335783D01*
%TO.C,SW5*%
X103178640Y-109556735D02*
X103321497Y-109604354D01*
X103559593Y-109604354D01*
X103654831Y-109556735D01*
X103702450Y-109509116D01*
X103750069Y-109413878D01*
X103750069Y-109318640D01*
X103702450Y-109223402D01*
X103654831Y-109175783D01*
X103559593Y-109128164D01*
X103369116Y-109080545D01*
X103273878Y-109032926D01*
X103226259Y-108985307D01*
X103178640Y-108890069D01*
X103178640Y-108794831D01*
X103226259Y-108699593D01*
X103273878Y-108651974D01*
X103369116Y-108604354D01*
X103607212Y-108604354D01*
X103750069Y-108651974D01*
X104083402Y-108604354D02*
X104321497Y-109604354D01*
X104511974Y-108890069D01*
X104702450Y-109604354D01*
X104940545Y-108604354D01*
X105797688Y-108604354D02*
X105321497Y-108604354D01*
X105273878Y-109080545D01*
X105321497Y-109032926D01*
X105416735Y-108985307D01*
X105654831Y-108985307D01*
X105750069Y-109032926D01*
X105797688Y-109080545D01*
X105845307Y-109175783D01*
X105845307Y-109413878D01*
X105797688Y-109509116D01*
X105750069Y-109556735D01*
X105654831Y-109604354D01*
X105416735Y-109604354D01*
X105321497Y-109556735D01*
X105273878Y-109509116D01*
%TO.C,SW4*%
X103178640Y-99396735D02*
X103321497Y-99444354D01*
X103559593Y-99444354D01*
X103654831Y-99396735D01*
X103702450Y-99349116D01*
X103750069Y-99253878D01*
X103750069Y-99158640D01*
X103702450Y-99063402D01*
X103654831Y-99015783D01*
X103559593Y-98968164D01*
X103369116Y-98920545D01*
X103273878Y-98872926D01*
X103226259Y-98825307D01*
X103178640Y-98730069D01*
X103178640Y-98634831D01*
X103226259Y-98539593D01*
X103273878Y-98491974D01*
X103369116Y-98444354D01*
X103607212Y-98444354D01*
X103750069Y-98491974D01*
X104083402Y-98444354D02*
X104321497Y-99444354D01*
X104511974Y-98730069D01*
X104702450Y-99444354D01*
X104940545Y-98444354D01*
X105750069Y-98777688D02*
X105750069Y-99444354D01*
X105511974Y-98396735D02*
X105273878Y-99111021D01*
X105892926Y-99111021D01*
%TO.C,SW3*%
X103178640Y-89236735D02*
X103321497Y-89284354D01*
X103559593Y-89284354D01*
X103654831Y-89236735D01*
X103702450Y-89189116D01*
X103750069Y-89093878D01*
X103750069Y-88998640D01*
X103702450Y-88903402D01*
X103654831Y-88855783D01*
X103559593Y-88808164D01*
X103369116Y-88760545D01*
X103273878Y-88712926D01*
X103226259Y-88665307D01*
X103178640Y-88570069D01*
X103178640Y-88474831D01*
X103226259Y-88379593D01*
X103273878Y-88331974D01*
X103369116Y-88284354D01*
X103607212Y-88284354D01*
X103750069Y-88331974D01*
X104083402Y-88284354D02*
X104321497Y-89284354D01*
X104511974Y-88570069D01*
X104702450Y-89284354D01*
X104940545Y-88284354D01*
X105226259Y-88284354D02*
X105845307Y-88284354D01*
X105511974Y-88665307D01*
X105654831Y-88665307D01*
X105750069Y-88712926D01*
X105797688Y-88760545D01*
X105845307Y-88855783D01*
X105845307Y-89093878D01*
X105797688Y-89189116D01*
X105750069Y-89236735D01*
X105654831Y-89284354D01*
X105369116Y-89284354D01*
X105273878Y-89236735D01*
X105226259Y-89189116D01*
%TO.C,SW2*%
X103178640Y-79076735D02*
X103321497Y-79124354D01*
X103559593Y-79124354D01*
X103654831Y-79076735D01*
X103702450Y-79029116D01*
X103750069Y-78933878D01*
X103750069Y-78838640D01*
X103702450Y-78743402D01*
X103654831Y-78695783D01*
X103559593Y-78648164D01*
X103369116Y-78600545D01*
X103273878Y-78552926D01*
X103226259Y-78505307D01*
X103178640Y-78410069D01*
X103178640Y-78314831D01*
X103226259Y-78219593D01*
X103273878Y-78171974D01*
X103369116Y-78124354D01*
X103607212Y-78124354D01*
X103750069Y-78171974D01*
X104083402Y-78124354D02*
X104321497Y-79124354D01*
X104511974Y-78410069D01*
X104702450Y-79124354D01*
X104940545Y-78124354D01*
X105273878Y-78219593D02*
X105321497Y-78171974D01*
X105416735Y-78124354D01*
X105654831Y-78124354D01*
X105750069Y-78171974D01*
X105797688Y-78219593D01*
X105845307Y-78314831D01*
X105845307Y-78410069D01*
X105797688Y-78552926D01*
X105226259Y-79124354D01*
X105845307Y-79124354D01*
%TO.C,R4*%
X144350307Y-42099354D02*
X144016974Y-41623164D01*
X143778878Y-42099354D02*
X143778878Y-41099354D01*
X144159831Y-41099354D01*
X144255069Y-41146974D01*
X144302688Y-41194593D01*
X144350307Y-41289831D01*
X144350307Y-41432688D01*
X144302688Y-41527926D01*
X144255069Y-41575545D01*
X144159831Y-41623164D01*
X143778878Y-41623164D01*
X145207450Y-41432688D02*
X145207450Y-42099354D01*
X144969354Y-41051735D02*
X144731259Y-41766021D01*
X145350307Y-41766021D01*
%TO.C,R3*%
X104980307Y-42734354D02*
X104646974Y-42258164D01*
X104408878Y-42734354D02*
X104408878Y-41734354D01*
X104789831Y-41734354D01*
X104885069Y-41781974D01*
X104932688Y-41829593D01*
X104980307Y-41924831D01*
X104980307Y-42067688D01*
X104932688Y-42162926D01*
X104885069Y-42210545D01*
X104789831Y-42258164D01*
X104408878Y-42258164D01*
X105313640Y-41734354D02*
X105932688Y-41734354D01*
X105599354Y-42115307D01*
X105742212Y-42115307D01*
X105837450Y-42162926D01*
X105885069Y-42210545D01*
X105932688Y-42305783D01*
X105932688Y-42543878D01*
X105885069Y-42639116D01*
X105837450Y-42686735D01*
X105742212Y-42734354D01*
X105456497Y-42734354D01*
X105361259Y-42686735D01*
X105313640Y-42639116D01*
%TO.C,Q2*%
X100733735Y-49941593D02*
X100638497Y-49893974D01*
X100543259Y-49798735D01*
X100400402Y-49655878D01*
X100305164Y-49608259D01*
X100209926Y-49608259D01*
X100257545Y-49846354D02*
X100162307Y-49798735D01*
X100067069Y-49703497D01*
X100019450Y-49513021D01*
X100019450Y-49179688D01*
X100067069Y-48989212D01*
X100162307Y-48893974D01*
X100257545Y-48846354D01*
X100448021Y-48846354D01*
X100543259Y-48893974D01*
X100638497Y-48989212D01*
X100686116Y-49179688D01*
X100686116Y-49513021D01*
X100638497Y-49703497D01*
X100543259Y-49798735D01*
X100448021Y-49846354D01*
X100257545Y-49846354D01*
X101067069Y-48941593D02*
X101114688Y-48893974D01*
X101209926Y-48846354D01*
X101448021Y-48846354D01*
X101543259Y-48893974D01*
X101590878Y-48941593D01*
X101638497Y-49036831D01*
X101638497Y-49132069D01*
X101590878Y-49274926D01*
X101019450Y-49846354D01*
X101638497Y-49846354D01*
%TO.C,C4*%
X146636307Y-47592116D02*
X146588688Y-47639735D01*
X146445831Y-47687354D01*
X146350593Y-47687354D01*
X146207735Y-47639735D01*
X146112497Y-47544497D01*
X146064878Y-47449259D01*
X146017259Y-47258783D01*
X146017259Y-47115926D01*
X146064878Y-46925450D01*
X146112497Y-46830212D01*
X146207735Y-46734974D01*
X146350593Y-46687354D01*
X146445831Y-46687354D01*
X146588688Y-46734974D01*
X146636307Y-46782593D01*
X147493450Y-47020688D02*
X147493450Y-47687354D01*
X147255354Y-46639735D02*
X147017259Y-47354021D01*
X147636307Y-47354021D01*
%TO.C,R5*%
X115775307Y-48449354D02*
X115441974Y-47973164D01*
X115203878Y-48449354D02*
X115203878Y-47449354D01*
X115584831Y-47449354D01*
X115680069Y-47496974D01*
X115727688Y-47544593D01*
X115775307Y-47639831D01*
X115775307Y-47782688D01*
X115727688Y-47877926D01*
X115680069Y-47925545D01*
X115584831Y-47973164D01*
X115203878Y-47973164D01*
X116680069Y-47449354D02*
X116203878Y-47449354D01*
X116156259Y-47925545D01*
X116203878Y-47877926D01*
X116299116Y-47830307D01*
X116537212Y-47830307D01*
X116632450Y-47877926D01*
X116680069Y-47925545D01*
X116727688Y-48020783D01*
X116727688Y-48258878D01*
X116680069Y-48354116D01*
X116632450Y-48401735D01*
X116537212Y-48449354D01*
X116299116Y-48449354D01*
X116203878Y-48401735D01*
X116156259Y-48354116D01*
%TO.C,R10*%
X106409116Y-77024354D02*
X106075783Y-76548164D01*
X105837688Y-77024354D02*
X105837688Y-76024354D01*
X106218640Y-76024354D01*
X106313878Y-76071974D01*
X106361497Y-76119593D01*
X106409116Y-76214831D01*
X106409116Y-76357688D01*
X106361497Y-76452926D01*
X106313878Y-76500545D01*
X106218640Y-76548164D01*
X105837688Y-76548164D01*
X107361497Y-77024354D02*
X106790069Y-77024354D01*
X107075783Y-77024354D02*
X107075783Y-76024354D01*
X106980545Y-76167212D01*
X106885307Y-76262450D01*
X106790069Y-76310069D01*
X107980545Y-76024354D02*
X108075783Y-76024354D01*
X108171021Y-76071974D01*
X108218640Y-76119593D01*
X108266259Y-76214831D01*
X108313878Y-76405307D01*
X108313878Y-76643402D01*
X108266259Y-76833878D01*
X108218640Y-76929116D01*
X108171021Y-76976735D01*
X108075783Y-77024354D01*
X107980545Y-77024354D01*
X107885307Y-76976735D01*
X107837688Y-76929116D01*
X107790069Y-76833878D01*
X107742450Y-76643402D01*
X107742450Y-76405307D01*
X107790069Y-76214831D01*
X107837688Y-76119593D01*
X107885307Y-76071974D01*
X107980545Y-76024354D01*
%TO.C,R6*%
X113235307Y-77024354D02*
X112901974Y-76548164D01*
X112663878Y-77024354D02*
X112663878Y-76024354D01*
X113044831Y-76024354D01*
X113140069Y-76071974D01*
X113187688Y-76119593D01*
X113235307Y-76214831D01*
X113235307Y-76357688D01*
X113187688Y-76452926D01*
X113140069Y-76500545D01*
X113044831Y-76548164D01*
X112663878Y-76548164D01*
X114092450Y-76024354D02*
X113901974Y-76024354D01*
X113806735Y-76071974D01*
X113759116Y-76119593D01*
X113663878Y-76262450D01*
X113616259Y-76452926D01*
X113616259Y-76833878D01*
X113663878Y-76929116D01*
X113711497Y-76976735D01*
X113806735Y-77024354D01*
X113997212Y-77024354D01*
X114092450Y-76976735D01*
X114140069Y-76929116D01*
X114187688Y-76833878D01*
X114187688Y-76595783D01*
X114140069Y-76500545D01*
X114092450Y-76452926D01*
X113997212Y-76405307D01*
X113806735Y-76405307D01*
X113711497Y-76452926D01*
X113663878Y-76500545D01*
X113616259Y-76595783D01*
%TO.C,R7*%
X108155307Y-78294354D02*
X107821974Y-77818164D01*
X107583878Y-78294354D02*
X107583878Y-77294354D01*
X107964831Y-77294354D01*
X108060069Y-77341974D01*
X108107688Y-77389593D01*
X108155307Y-77484831D01*
X108155307Y-77627688D01*
X108107688Y-77722926D01*
X108060069Y-77770545D01*
X107964831Y-77818164D01*
X107583878Y-77818164D01*
X108488640Y-77294354D02*
X109155307Y-77294354D01*
X108726735Y-78294354D01*
%TO.C,U4*%
X108195069Y-43639354D02*
X108195069Y-44448878D01*
X108242688Y-44544116D01*
X108290307Y-44591735D01*
X108385545Y-44639354D01*
X108576021Y-44639354D01*
X108671259Y-44591735D01*
X108718878Y-44544116D01*
X108766497Y-44448878D01*
X108766497Y-43639354D01*
X109671259Y-43972688D02*
X109671259Y-44639354D01*
X109433164Y-43591735D02*
X109195069Y-44306021D01*
X109814116Y-44306021D01*
%TO.C,R8*%
X104345307Y-77024354D02*
X104011974Y-76548164D01*
X103773878Y-77024354D02*
X103773878Y-76024354D01*
X104154831Y-76024354D01*
X104250069Y-76071974D01*
X104297688Y-76119593D01*
X104345307Y-76214831D01*
X104345307Y-76357688D01*
X104297688Y-76452926D01*
X104250069Y-76500545D01*
X104154831Y-76548164D01*
X103773878Y-76548164D01*
X104916735Y-76452926D02*
X104821497Y-76405307D01*
X104773878Y-76357688D01*
X104726259Y-76262450D01*
X104726259Y-76214831D01*
X104773878Y-76119593D01*
X104821497Y-76071974D01*
X104916735Y-76024354D01*
X105107212Y-76024354D01*
X105202450Y-76071974D01*
X105250069Y-76119593D01*
X105297688Y-76214831D01*
X105297688Y-76262450D01*
X105250069Y-76357688D01*
X105202450Y-76405307D01*
X105107212Y-76452926D01*
X104916735Y-76452926D01*
X104821497Y-76500545D01*
X104773878Y-76548164D01*
X104726259Y-76643402D01*
X104726259Y-76833878D01*
X104773878Y-76929116D01*
X104821497Y-76976735D01*
X104916735Y-77024354D01*
X105107212Y-77024354D01*
X105202450Y-76976735D01*
X105250069Y-76929116D01*
X105297688Y-76833878D01*
X105297688Y-76643402D01*
X105250069Y-76548164D01*
X105202450Y-76500545D01*
X105107212Y-76452926D01*
%TO.C,R9*%
X110695307Y-77024354D02*
X110361974Y-76548164D01*
X110123878Y-77024354D02*
X110123878Y-76024354D01*
X110504831Y-76024354D01*
X110600069Y-76071974D01*
X110647688Y-76119593D01*
X110695307Y-76214831D01*
X110695307Y-76357688D01*
X110647688Y-76452926D01*
X110600069Y-76500545D01*
X110504831Y-76548164D01*
X110123878Y-76548164D01*
X111171497Y-77024354D02*
X111361974Y-77024354D01*
X111457212Y-76976735D01*
X111504831Y-76929116D01*
X111600069Y-76786259D01*
X111647688Y-76595783D01*
X111647688Y-76214831D01*
X111600069Y-76119593D01*
X111552450Y-76071974D01*
X111457212Y-76024354D01*
X111266735Y-76024354D01*
X111171497Y-76071974D01*
X111123878Y-76119593D01*
X111076259Y-76214831D01*
X111076259Y-76452926D01*
X111123878Y-76548164D01*
X111171497Y-76595783D01*
X111266735Y-76643402D01*
X111457212Y-76643402D01*
X111552450Y-76595783D01*
X111600069Y-76548164D01*
X111647688Y-76452926D01*
%TO.C,Q1*%
X104543735Y-49941593D02*
X104448497Y-49893974D01*
X104353259Y-49798735D01*
X104210402Y-49655878D01*
X104115164Y-49608259D01*
X104019926Y-49608259D01*
X104067545Y-49846354D02*
X103972307Y-49798735D01*
X103877069Y-49703497D01*
X103829450Y-49513021D01*
X103829450Y-49179688D01*
X103877069Y-48989212D01*
X103972307Y-48893974D01*
X104067545Y-48846354D01*
X104258021Y-48846354D01*
X104353259Y-48893974D01*
X104448497Y-48989212D01*
X104496116Y-49179688D01*
X104496116Y-49513021D01*
X104448497Y-49703497D01*
X104353259Y-49798735D01*
X104258021Y-49846354D01*
X104067545Y-49846354D01*
X105448497Y-49846354D02*
X104877069Y-49846354D01*
X105162783Y-49846354D02*
X105162783Y-48846354D01*
X105067545Y-48989212D01*
X104972307Y-49084450D01*
X104877069Y-49132069D01*
%TO.C,C6*%
X144350307Y-44544116D02*
X144302688Y-44591735D01*
X144159831Y-44639354D01*
X144064593Y-44639354D01*
X143921735Y-44591735D01*
X143826497Y-44496497D01*
X143778878Y-44401259D01*
X143731259Y-44210783D01*
X143731259Y-44067926D01*
X143778878Y-43877450D01*
X143826497Y-43782212D01*
X143921735Y-43686974D01*
X144064593Y-43639354D01*
X144159831Y-43639354D01*
X144302688Y-43686974D01*
X144350307Y-43734593D01*
X145207450Y-43639354D02*
X145016974Y-43639354D01*
X144921735Y-43686974D01*
X144874116Y-43734593D01*
X144778878Y-43877450D01*
X144731259Y-44067926D01*
X144731259Y-44448878D01*
X144778878Y-44544116D01*
X144826497Y-44591735D01*
X144921735Y-44639354D01*
X145112212Y-44639354D01*
X145207450Y-44591735D01*
X145255069Y-44544116D01*
X145302688Y-44448878D01*
X145302688Y-44210783D01*
X145255069Y-44115545D01*
X145207450Y-44067926D01*
X145112212Y-44020307D01*
X144921735Y-44020307D01*
X144826497Y-44067926D01*
X144778878Y-44115545D01*
X144731259Y-44210783D01*
%TO.C,U2*%
X150613069Y-66372354D02*
X150613069Y-67181878D01*
X150660688Y-67277116D01*
X150708307Y-67324735D01*
X150803545Y-67372354D01*
X150994021Y-67372354D01*
X151089259Y-67324735D01*
X151136878Y-67277116D01*
X151184497Y-67181878D01*
X151184497Y-66372354D01*
X151613069Y-66467593D02*
X151660688Y-66419974D01*
X151755926Y-66372354D01*
X151994021Y-66372354D01*
X152089259Y-66419974D01*
X152136878Y-66467593D01*
X152184497Y-66562831D01*
X152184497Y-66658069D01*
X152136878Y-66800926D01*
X151565450Y-67372354D01*
X152184497Y-67372354D01*
%TO.C,C5*%
X141810307Y-48989116D02*
X141762688Y-49036735D01*
X141619831Y-49084354D01*
X141524593Y-49084354D01*
X141381735Y-49036735D01*
X141286497Y-48941497D01*
X141238878Y-48846259D01*
X141191259Y-48655783D01*
X141191259Y-48512926D01*
X141238878Y-48322450D01*
X141286497Y-48227212D01*
X141381735Y-48131974D01*
X141524593Y-48084354D01*
X141619831Y-48084354D01*
X141762688Y-48131974D01*
X141810307Y-48179593D01*
X142715069Y-48084354D02*
X142238878Y-48084354D01*
X142191259Y-48560545D01*
X142238878Y-48512926D01*
X142334116Y-48465307D01*
X142572212Y-48465307D01*
X142667450Y-48512926D01*
X142715069Y-48560545D01*
X142762688Y-48655783D01*
X142762688Y-48893878D01*
X142715069Y-48989116D01*
X142667450Y-49036735D01*
X142572212Y-49084354D01*
X142334116Y-49084354D01*
X142238878Y-49036735D01*
X142191259Y-48989116D01*
%TO.C,C3*%
X148922307Y-47592116D02*
X148874688Y-47639735D01*
X148731831Y-47687354D01*
X148636593Y-47687354D01*
X148493735Y-47639735D01*
X148398497Y-47544497D01*
X148350878Y-47449259D01*
X148303259Y-47258783D01*
X148303259Y-47115926D01*
X148350878Y-46925450D01*
X148398497Y-46830212D01*
X148493735Y-46734974D01*
X148636593Y-46687354D01*
X148731831Y-46687354D01*
X148874688Y-46734974D01*
X148922307Y-46782593D01*
X149255640Y-46687354D02*
X149874688Y-46687354D01*
X149541354Y-47068307D01*
X149684212Y-47068307D01*
X149779450Y-47115926D01*
X149827069Y-47163545D01*
X149874688Y-47258783D01*
X149874688Y-47496878D01*
X149827069Y-47592116D01*
X149779450Y-47639735D01*
X149684212Y-47687354D01*
X149398497Y-47687354D01*
X149303259Y-47639735D01*
X149255640Y-47592116D01*
%TO.C,C7*%
X117172307Y-45941116D02*
X117124688Y-45988735D01*
X116981831Y-46036354D01*
X116886593Y-46036354D01*
X116743735Y-45988735D01*
X116648497Y-45893497D01*
X116600878Y-45798259D01*
X116553259Y-45607783D01*
X116553259Y-45464926D01*
X116600878Y-45274450D01*
X116648497Y-45179212D01*
X116743735Y-45083974D01*
X116886593Y-45036354D01*
X116981831Y-45036354D01*
X117124688Y-45083974D01*
X117172307Y-45131593D01*
X117505640Y-45036354D02*
X118172307Y-45036354D01*
X117743735Y-46036354D01*
D11*
%TO.C,U3*%
X137561974Y-42886974D02*
X137561974Y-44226974D01*
X123751974Y-42886974D02*
X123751974Y-41686974D01*
X137561974Y-48686974D02*
X137561974Y-46946974D01*
X123751974Y-42886974D02*
X122261974Y-42886974D01*
X122261974Y-48686974D02*
X137561974Y-48686974D01*
X122261974Y-46946974D02*
X122261974Y-48686974D01*
X122261974Y-42886974D02*
X122261974Y-44226974D01*
X136071974Y-42886974D02*
X137561974Y-42886974D01*
%TO.C,J1*%
X154108974Y-71551974D02*
X156768974Y-71551974D01*
X154108974Y-66411974D02*
X154108974Y-71551974D01*
X154108974Y-65141974D02*
X154108974Y-63811974D01*
X156768974Y-66411974D02*
X156768974Y-71551974D01*
X154108974Y-63811974D02*
X155438974Y-63811974D01*
X154108974Y-66411974D02*
X156768974Y-66411974D01*
%TO.C,D1*%
X154184974Y-41301974D02*
X154184974Y-45201974D01*
X156184974Y-41301974D02*
X154184974Y-41301974D01*
X156184974Y-41301974D02*
X156184974Y-45201974D01*
%TO.C,R1*%
X152757474Y-44821250D02*
X152757474Y-45330698D01*
X153802474Y-44821250D02*
X153802474Y-45330698D01*
%TO.C,R2*%
X151897474Y-45330698D02*
X151897474Y-44821250D01*
X150852474Y-45330698D02*
X150852474Y-44821250D01*
%TO.C,C1*%
X153160226Y-52795974D02*
X152637722Y-52795974D01*
X153160226Y-51325974D02*
X152637722Y-51325974D01*
%TO.C,L1*%
X155108974Y-51385974D02*
X155108974Y-46385974D01*
X158308974Y-51385974D02*
X158308974Y-46385974D01*
%TO.C,C2*%
X152398226Y-43016974D02*
X151875722Y-43016974D01*
X152398226Y-41546974D02*
X151875722Y-41546974D01*
%TO.C,U1*%
X154204974Y-48885974D02*
X154204974Y-49685974D01*
X151084974Y-48885974D02*
X151084974Y-49685974D01*
X154204974Y-48885974D02*
X154204974Y-47085974D01*
X151084974Y-48885974D02*
X151084974Y-48085974D01*
%TO.C,SW41*%
X158811974Y-154791974D02*
X158811974Y-153291974D01*
X157561974Y-150791974D02*
X153061974Y-150791974D01*
X151811974Y-153291974D02*
X151811974Y-154791974D01*
X153061974Y-157291974D02*
X157561974Y-157291974D01*
%TO.C,SW40*%
X158811974Y-144631974D02*
X158811974Y-143131974D01*
X157561974Y-140631974D02*
X153061974Y-140631974D01*
X151811974Y-143131974D02*
X151811974Y-144631974D01*
X153061974Y-147131974D02*
X157561974Y-147131974D01*
%TO.C,SW39*%
X158811974Y-134471974D02*
X158811974Y-132971974D01*
X157561974Y-130471974D02*
X153061974Y-130471974D01*
X151811974Y-132971974D02*
X151811974Y-134471974D01*
X153061974Y-136971974D02*
X157561974Y-136971974D01*
%TO.C,SW38*%
X158811974Y-124311974D02*
X158811974Y-122811974D01*
X157561974Y-120311974D02*
X153061974Y-120311974D01*
X151811974Y-122811974D02*
X151811974Y-124311974D01*
X153061974Y-126811974D02*
X157561974Y-126811974D01*
%TO.C,SW37*%
X158811974Y-114151974D02*
X158811974Y-112651974D01*
X157561974Y-110151974D02*
X153061974Y-110151974D01*
X151811974Y-112651974D02*
X151811974Y-114151974D01*
X153061974Y-116651974D02*
X157561974Y-116651974D01*
%TO.C,SW36*%
X158811974Y-103991974D02*
X158811974Y-102491974D01*
X157561974Y-99991974D02*
X153061974Y-99991974D01*
X151811974Y-102491974D02*
X151811974Y-103991974D01*
X153061974Y-106491974D02*
X157561974Y-106491974D01*
%TO.C,SW35*%
X158811974Y-93831974D02*
X158811974Y-92331974D01*
X157561974Y-89831974D02*
X153061974Y-89831974D01*
X151811974Y-92331974D02*
X151811974Y-93831974D01*
X153061974Y-96331974D02*
X157561974Y-96331974D01*
%TO.C,SW34*%
X158811974Y-83671974D02*
X158811974Y-82171974D01*
X157561974Y-79671974D02*
X153061974Y-79671974D01*
X151811974Y-82171974D02*
X151811974Y-83671974D01*
X153061974Y-86171974D02*
X157561974Y-86171974D01*
%TO.C,SW33*%
X146111974Y-154791974D02*
X146111974Y-153291974D01*
X144861974Y-150791974D02*
X140361974Y-150791974D01*
X139111974Y-153291974D02*
X139111974Y-154791974D01*
X140361974Y-157291974D02*
X144861974Y-157291974D01*
%TO.C,SW32*%
X146111974Y-144631974D02*
X146111974Y-143131974D01*
X144861974Y-140631974D02*
X140361974Y-140631974D01*
X139111974Y-143131974D02*
X139111974Y-144631974D01*
X140361974Y-147131974D02*
X144861974Y-147131974D01*
%TO.C,SW31*%
X146111974Y-134471974D02*
X146111974Y-132971974D01*
X144861974Y-130471974D02*
X140361974Y-130471974D01*
X139111974Y-132971974D02*
X139111974Y-134471974D01*
X140361974Y-136971974D02*
X144861974Y-136971974D01*
%TO.C,SW30*%
X146111974Y-124311974D02*
X146111974Y-122811974D01*
X144861974Y-120311974D02*
X140361974Y-120311974D01*
X139111974Y-122811974D02*
X139111974Y-124311974D01*
X140361974Y-126811974D02*
X144861974Y-126811974D01*
%TO.C,SW29*%
X146111974Y-114151974D02*
X146111974Y-112651974D01*
X144861974Y-110151974D02*
X140361974Y-110151974D01*
X139111974Y-112651974D02*
X139111974Y-114151974D01*
X140361974Y-116651974D02*
X144861974Y-116651974D01*
%TO.C,SW28*%
X146111974Y-103991974D02*
X146111974Y-102491974D01*
X144861974Y-99991974D02*
X140361974Y-99991974D01*
X139111974Y-102491974D02*
X139111974Y-103991974D01*
X140361974Y-106491974D02*
X144861974Y-106491974D01*
%TO.C,SW27*%
X146111974Y-93831974D02*
X146111974Y-92331974D01*
X144861974Y-89831974D02*
X140361974Y-89831974D01*
X139111974Y-92331974D02*
X139111974Y-93831974D01*
X140361974Y-96331974D02*
X144861974Y-96331974D01*
%TO.C,SW26*%
X146111974Y-83671974D02*
X146111974Y-82171974D01*
X144861974Y-79671974D02*
X140361974Y-79671974D01*
X139111974Y-82171974D02*
X139111974Y-83671974D01*
X140361974Y-86171974D02*
X144861974Y-86171974D01*
%TO.C,SW25*%
X133411974Y-154791974D02*
X133411974Y-153291974D01*
X132161974Y-150791974D02*
X127661974Y-150791974D01*
X126411974Y-153291974D02*
X126411974Y-154791974D01*
X127661974Y-157291974D02*
X132161974Y-157291974D01*
%TO.C,SW24*%
X133411974Y-144631974D02*
X133411974Y-143131974D01*
X132161974Y-140631974D02*
X127661974Y-140631974D01*
X126411974Y-143131974D02*
X126411974Y-144631974D01*
X127661974Y-147131974D02*
X132161974Y-147131974D01*
%TO.C,SW23*%
X133411974Y-134471974D02*
X133411974Y-132971974D01*
X132161974Y-130471974D02*
X127661974Y-130471974D01*
X126411974Y-132971974D02*
X126411974Y-134471974D01*
X127661974Y-136971974D02*
X132161974Y-136971974D01*
%TO.C,SW22*%
X133411974Y-124311974D02*
X133411974Y-122811974D01*
X132161974Y-120311974D02*
X127661974Y-120311974D01*
X126411974Y-122811974D02*
X126411974Y-124311974D01*
X127661974Y-126811974D02*
X132161974Y-126811974D01*
%TO.C,SW21*%
X133411974Y-114151974D02*
X133411974Y-112651974D01*
X132161974Y-110151974D02*
X127661974Y-110151974D01*
X126411974Y-112651974D02*
X126411974Y-114151974D01*
X127661974Y-116651974D02*
X132161974Y-116651974D01*
%TO.C,SW20*%
X133411974Y-103991974D02*
X133411974Y-102491974D01*
X132161974Y-99991974D02*
X127661974Y-99991974D01*
X126411974Y-102491974D02*
X126411974Y-103991974D01*
X127661974Y-106491974D02*
X132161974Y-106491974D01*
%TO.C,SW19*%
X133411974Y-93831974D02*
X133411974Y-92331974D01*
X132161974Y-89831974D02*
X127661974Y-89831974D01*
X126411974Y-92331974D02*
X126411974Y-93831974D01*
X127661974Y-96331974D02*
X132161974Y-96331974D01*
%TO.C,SW18*%
X133411974Y-83671974D02*
X133411974Y-82171974D01*
X132161974Y-79671974D02*
X127661974Y-79671974D01*
X126411974Y-82171974D02*
X126411974Y-83671974D01*
X127661974Y-86171974D02*
X132161974Y-86171974D01*
%TO.C,SW17*%
X120711974Y-154791974D02*
X120711974Y-153291974D01*
X119461974Y-150791974D02*
X114961974Y-150791974D01*
X113711974Y-153291974D02*
X113711974Y-154791974D01*
X114961974Y-157291974D02*
X119461974Y-157291974D01*
%TO.C,SW16*%
X120711974Y-144631974D02*
X120711974Y-143131974D01*
X119461974Y-140631974D02*
X114961974Y-140631974D01*
X113711974Y-143131974D02*
X113711974Y-144631974D01*
X114961974Y-147131974D02*
X119461974Y-147131974D01*
%TO.C,SW15*%
X120711974Y-134471974D02*
X120711974Y-132971974D01*
X119461974Y-130471974D02*
X114961974Y-130471974D01*
X113711974Y-132971974D02*
X113711974Y-134471974D01*
X114961974Y-136971974D02*
X119461974Y-136971974D01*
%TO.C,SW14*%
X120711974Y-124311974D02*
X120711974Y-122811974D01*
X119461974Y-120311974D02*
X114961974Y-120311974D01*
X113711974Y-122811974D02*
X113711974Y-124311974D01*
X114961974Y-126811974D02*
X119461974Y-126811974D01*
%TO.C,SW13*%
X120711974Y-114151974D02*
X120711974Y-112651974D01*
X119461974Y-110151974D02*
X114961974Y-110151974D01*
X113711974Y-112651974D02*
X113711974Y-114151974D01*
X114961974Y-116651974D02*
X119461974Y-116651974D01*
%TO.C,SW12*%
X120711974Y-103991974D02*
X120711974Y-102491974D01*
X119461974Y-99991974D02*
X114961974Y-99991974D01*
X113711974Y-102491974D02*
X113711974Y-103991974D01*
X114961974Y-106491974D02*
X119461974Y-106491974D01*
%TO.C,SW11*%
X120711974Y-93831974D02*
X120711974Y-92331974D01*
X119461974Y-89831974D02*
X114961974Y-89831974D01*
X113711974Y-92331974D02*
X113711974Y-93831974D01*
X114961974Y-96331974D02*
X119461974Y-96331974D01*
%TO.C,SW10*%
X120711974Y-83671974D02*
X120711974Y-82171974D01*
X119461974Y-79671974D02*
X114961974Y-79671974D01*
X113711974Y-82171974D02*
X113711974Y-83671974D01*
X114961974Y-86171974D02*
X119461974Y-86171974D01*
%TO.C,SW9*%
X108011974Y-154791974D02*
X108011974Y-153291974D01*
X106761974Y-150791974D02*
X102261974Y-150791974D01*
X101011974Y-153291974D02*
X101011974Y-154791974D01*
X102261974Y-157291974D02*
X106761974Y-157291974D01*
%TO.C,SW8*%
X108011974Y-144631974D02*
X108011974Y-143131974D01*
X106761974Y-140631974D02*
X102261974Y-140631974D01*
X101011974Y-143131974D02*
X101011974Y-144631974D01*
X102261974Y-147131974D02*
X106761974Y-147131974D01*
%TO.C,SW7*%
X108011974Y-134471974D02*
X108011974Y-132971974D01*
X106761974Y-130471974D02*
X102261974Y-130471974D01*
X101011974Y-132971974D02*
X101011974Y-134471974D01*
X102261974Y-136971974D02*
X106761974Y-136971974D01*
%TO.C,SW6*%
X108011974Y-124311974D02*
X108011974Y-122811974D01*
X106761974Y-120311974D02*
X102261974Y-120311974D01*
X101011974Y-122811974D02*
X101011974Y-124311974D01*
X102261974Y-126811974D02*
X106761974Y-126811974D01*
%TO.C,SW5*%
X108011974Y-114151974D02*
X108011974Y-112651974D01*
X106761974Y-110151974D02*
X102261974Y-110151974D01*
X101011974Y-112651974D02*
X101011974Y-114151974D01*
X102261974Y-116651974D02*
X106761974Y-116651974D01*
%TO.C,SW4*%
X108011974Y-103991974D02*
X108011974Y-102491974D01*
X106761974Y-99991974D02*
X102261974Y-99991974D01*
X101011974Y-102491974D02*
X101011974Y-103991974D01*
X102261974Y-106491974D02*
X106761974Y-106491974D01*
%TO.C,SW3*%
X108011974Y-93831974D02*
X108011974Y-92331974D01*
X106761974Y-89831974D02*
X102261974Y-89831974D01*
X101011974Y-92331974D02*
X101011974Y-93831974D01*
X102261974Y-96331974D02*
X106761974Y-96331974D01*
%TO.C,SW2*%
X108011974Y-83671974D02*
X108011974Y-82171974D01*
X106761974Y-79671974D02*
X102261974Y-79671974D01*
X101011974Y-82171974D02*
X101011974Y-83671974D01*
X102261974Y-86171974D02*
X106761974Y-86171974D01*
%TO.C,R4*%
X141596698Y-42169474D02*
X141087250Y-42169474D01*
X141596698Y-41124474D02*
X141087250Y-41124474D01*
%TO.C,R3*%
X105401698Y-43029474D02*
X104892250Y-43029474D01*
X105401698Y-44074474D02*
X104892250Y-44074474D01*
%TO.C,Q2*%
X99141974Y-46726974D02*
X99141974Y-48401974D01*
X102261974Y-46726974D02*
X102261974Y-46076974D01*
X99141974Y-46726974D02*
X99141974Y-46076974D01*
X102261974Y-46726974D02*
X102261974Y-47376974D01*
%TO.C,C4*%
X147737974Y-45659974D02*
X147737974Y-41574974D01*
X145867974Y-41574974D02*
X145867974Y-45659974D01*
X147737974Y-41574974D02*
X145867974Y-41574974D01*
%TO.C,R5*%
X112512250Y-47474474D02*
X113021698Y-47474474D01*
X112512250Y-48519474D02*
X113021698Y-48519474D01*
%TO.C,R10*%
X105894474Y-73777250D02*
X105894474Y-74286698D01*
X106939474Y-73777250D02*
X106939474Y-74286698D01*
%TO.C,R6*%
X112879474Y-73777250D02*
X112879474Y-74286698D01*
X113924474Y-73777250D02*
X113924474Y-74286698D01*
%TO.C,R7*%
X108844474Y-73777250D02*
X108844474Y-74286698D01*
X107799474Y-73777250D02*
X107799474Y-74286698D01*
%TO.C,U4*%
X110516974Y-46726974D02*
X110516974Y-47526974D01*
X107396974Y-46726974D02*
X107396974Y-47526974D01*
X110516974Y-46726974D02*
X110516974Y-44926974D01*
X107396974Y-46726974D02*
X107396974Y-45926974D01*
%TO.C,R8*%
X105034474Y-73777250D02*
X105034474Y-74286698D01*
X103989474Y-73777250D02*
X103989474Y-74286698D01*
%TO.C,R9*%
X111384474Y-73777250D02*
X111384474Y-74286698D01*
X110339474Y-73777250D02*
X110339474Y-74286698D01*
%TO.C,Q1*%
X102951974Y-46726974D02*
X102951974Y-46076974D01*
X106071974Y-46726974D02*
X106071974Y-47376974D01*
X102951974Y-46726974D02*
X102951974Y-47376974D01*
X106071974Y-46726974D02*
X106071974Y-45051974D01*
%TO.C,C6*%
X141080722Y-44921974D02*
X141603226Y-44921974D01*
X141080722Y-43451974D02*
X141603226Y-43451974D01*
%TO.C,U2*%
X117031974Y-50196974D02*
X117431974Y-50196974D01*
X127131974Y-50196974D02*
X127531974Y-50196974D01*
X106831974Y-71196974D02*
X107231974Y-71196974D01*
X109431974Y-71196974D02*
X109831974Y-71196974D01*
X122131974Y-71196974D02*
X122531974Y-71196974D01*
X109431974Y-50196974D02*
X109831974Y-50196974D01*
X117031974Y-71196974D02*
X117431974Y-71196974D01*
X119531974Y-71196974D02*
X119931974Y-71196974D01*
X134831974Y-50196974D02*
X135231974Y-50196974D01*
X142431974Y-50196974D02*
X142831974Y-50196974D01*
X137331974Y-50196974D02*
X137731974Y-50196974D01*
X124631974Y-71196974D02*
X125031974Y-71196974D01*
X127131974Y-71196974D02*
X127531974Y-71196974D01*
X99331974Y-50196974D02*
X99631974Y-50196974D01*
X147531974Y-50196974D02*
X147931974Y-50196974D01*
X144931974Y-50196974D02*
X145331974Y-50196974D01*
X104331974Y-50196974D02*
X104731974Y-50196974D01*
X147531974Y-71196974D02*
X147931974Y-71196974D01*
X104331974Y-71196974D02*
X104731974Y-71196974D01*
X142431974Y-71196974D02*
X142831974Y-71196974D01*
X101731974Y-71196974D02*
X102131974Y-71196974D01*
X132231974Y-71196974D02*
X132631974Y-71196974D01*
X111931974Y-71196974D02*
X112331974Y-71196974D01*
X114431974Y-71196974D02*
X114831974Y-71196974D01*
X139931974Y-50196974D02*
X140331974Y-50196974D01*
X106831974Y-50196974D02*
X107231974Y-50196974D01*
X129731974Y-50196974D02*
X130131974Y-50196974D01*
X114431974Y-50196974D02*
X114831974Y-50196974D01*
X122131974Y-50196974D02*
X122531974Y-50196974D01*
X119531974Y-50196974D02*
X119931974Y-50196974D01*
X134831974Y-71196974D02*
X135231974Y-71196974D01*
X144931974Y-71196974D02*
X145331974Y-71196974D01*
X101731974Y-50196974D02*
X102131974Y-50196974D01*
X132231974Y-50196974D02*
X132631974Y-50196974D01*
X137331974Y-71196974D02*
X137731974Y-71196974D01*
X99331974Y-71196974D02*
X99631974Y-71196974D01*
X150331974Y-59596974D02*
X150331974Y-59196974D01*
X111931974Y-50196974D02*
X112331974Y-50196974D01*
X124631974Y-50196974D02*
X125031974Y-50196974D01*
X150331974Y-64396974D02*
X150331974Y-71196974D01*
X139931974Y-71196974D02*
X140331974Y-71196974D01*
X150331974Y-50196974D02*
X150331974Y-56996974D01*
X150331974Y-62196974D02*
X150331974Y-61796974D01*
X129731974Y-71196974D02*
X130131974Y-71196974D01*
%TO.C,C5*%
X143576974Y-45791974D02*
X139491974Y-45791974D01*
X139491974Y-45791974D02*
X139491974Y-47661974D01*
X139491974Y-47661974D02*
X143576974Y-47661974D01*
%TO.C,C3*%
X150023974Y-45659974D02*
X150023974Y-41574974D01*
X150023974Y-41574974D02*
X148153974Y-41574974D01*
X148153974Y-41574974D02*
X148153974Y-45659974D01*
%TO.C,C7*%
X115169474Y-44521974D02*
X111084474Y-44521974D01*
X111084474Y-44521974D02*
X111084474Y-46391974D01*
X111084474Y-46391974D02*
X115169474Y-46391974D01*
%TD*%
M02*
