%TF.GenerationSoftware,KiCad,Pcbnew,6.0.5+dfsg-1~bpo11+1*%
%TF.CreationDate,2022-10-03T08:51:32+13:00*%
%TF.ProjectId,ThinCalculator,5468696e-4361-46c6-9375-6c61746f722e,rev?*%
%TF.SameCoordinates,Original*%
%TF.FileFunction,Soldermask,Bot*%
%TF.FilePolarity,Negative*%
%FSLAX46Y46*%
G04 Gerber Fmt 4.6, Leading zero omitted, Abs format (unit mm)*
G04 Created by KiCad (PCBNEW 6.0.5+dfsg-1~bpo11+1) date 2022-10-03 08:51:32*
%MOMM*%
%LPD*%
G01*
G04 APERTURE LIST*
G04 Aperture macros list*
%AMRoundRect*
0 Rectangle with rounded corners*
0 $1 Rounding radius*
0 $2 $3 $4 $5 $6 $7 $8 $9 X,Y pos of 4 corners*
0 Add a 4 corners polygon primitive as box body*
4,1,4,$2,$3,$4,$5,$6,$7,$8,$9,$2,$3,0*
0 Add four circle primitives for the rounded corners*
1,1,$1+$1,$2,$3*
1,1,$1+$1,$4,$5*
1,1,$1+$1,$6,$7*
1,1,$1+$1,$8,$9*
0 Add four rect primitives between the rounded corners*
20,1,$1+$1,$2,$3,$4,$5,0*
20,1,$1+$1,$4,$5,$6,$7,0*
20,1,$1+$1,$6,$7,$8,$9,0*
20,1,$1+$1,$8,$9,$2,$3,0*%
G04 Aperture macros list end*
%ADD10O,2.000000X1.700000*%
%ADD11RoundRect,0.250000X0.750000X-0.600000X0.750000X0.600000X-0.750000X0.600000X-0.750000X-0.600000X0*%
%ADD12C,2.200000*%
%ADD13R,1.700000X1.700000*%
%ADD14O,1.700000X1.700000*%
%ADD15C,2.000000*%
%ADD16O,1.500000X1.500000*%
%ADD17O,1.800000X1.800000*%
%ADD18R,1.700000X3.500000*%
%ADD19R,3.500000X1.700000*%
%ADD20C,0.900000*%
%ADD21R,2.500000X1.250000*%
G04 APERTURE END LIST*
D10*
%TO.C,J2*%
X110226974Y-39781974D03*
D11*
X110226974Y-42281974D03*
%TD*%
D12*
%TO.C,H8*%
X148961974Y-118481974D03*
%TD*%
%TO.C,H7*%
X110861974Y-118481974D03*
%TD*%
%TO.C,H6*%
X159121974Y-161026974D03*
%TD*%
%TO.C,H5*%
X100701974Y-161026974D03*
%TD*%
%TO.C,H4*%
X159121974Y-76571974D03*
%TD*%
%TO.C,H3*%
X100701974Y-76571974D03*
%TD*%
%TO.C,H2*%
X159121974Y-37836974D03*
%TD*%
%TO.C,H1*%
X100701974Y-37836974D03*
%TD*%
D13*
%TO.C,J1*%
X155438974Y-65141974D03*
D14*
X155438974Y-67681974D03*
X155438974Y-70221974D03*
%TD*%
D15*
%TO.C,SW41*%
X158561974Y-151791974D03*
X152061974Y-151791974D03*
X158561974Y-156291974D03*
X152061974Y-156291974D03*
%TD*%
%TO.C,SW40*%
X158561974Y-141631974D03*
X152061974Y-141631974D03*
X158561974Y-146131974D03*
X152061974Y-146131974D03*
%TD*%
%TO.C,SW39*%
X158561974Y-131471974D03*
X152061974Y-131471974D03*
X158561974Y-135971974D03*
X152061974Y-135971974D03*
%TD*%
%TO.C,SW38*%
X158561974Y-121311974D03*
X152061974Y-121311974D03*
X158561974Y-125811974D03*
X152061974Y-125811974D03*
%TD*%
%TO.C,SW37*%
X158561974Y-111151974D03*
X152061974Y-111151974D03*
X158561974Y-115651974D03*
X152061974Y-115651974D03*
%TD*%
%TO.C,SW36*%
X158561974Y-100991974D03*
X152061974Y-100991974D03*
X158561974Y-105491974D03*
X152061974Y-105491974D03*
%TD*%
%TO.C,SW35*%
X158561974Y-90831974D03*
X152061974Y-90831974D03*
X158561974Y-95331974D03*
X152061974Y-95331974D03*
%TD*%
%TO.C,SW34*%
X158561974Y-80671974D03*
X152061974Y-80671974D03*
X158561974Y-85171974D03*
X152061974Y-85171974D03*
%TD*%
%TO.C,SW33*%
X145861974Y-151791974D03*
X139361974Y-151791974D03*
X145861974Y-156291974D03*
X139361974Y-156291974D03*
%TD*%
%TO.C,SW32*%
X145861974Y-141631974D03*
X139361974Y-141631974D03*
X145861974Y-146131974D03*
X139361974Y-146131974D03*
%TD*%
%TO.C,SW31*%
X145861974Y-131471974D03*
X139361974Y-131471974D03*
X145861974Y-135971974D03*
X139361974Y-135971974D03*
%TD*%
%TO.C,SW30*%
X145861974Y-121311974D03*
X139361974Y-121311974D03*
X145861974Y-125811974D03*
X139361974Y-125811974D03*
%TD*%
%TO.C,SW29*%
X145861974Y-111151974D03*
X139361974Y-111151974D03*
X145861974Y-115651974D03*
X139361974Y-115651974D03*
%TD*%
%TO.C,SW28*%
X145861974Y-100991974D03*
X139361974Y-100991974D03*
X145861974Y-105491974D03*
X139361974Y-105491974D03*
%TD*%
%TO.C,SW27*%
X145861974Y-90831974D03*
X139361974Y-90831974D03*
X145861974Y-95331974D03*
X139361974Y-95331974D03*
%TD*%
%TO.C,SW26*%
X145861974Y-80671974D03*
X139361974Y-80671974D03*
X145861974Y-85171974D03*
X139361974Y-85171974D03*
%TD*%
%TO.C,SW25*%
X133161974Y-151791974D03*
X126661974Y-151791974D03*
X133161974Y-156291974D03*
X126661974Y-156291974D03*
%TD*%
%TO.C,SW24*%
X133161974Y-141631974D03*
X126661974Y-141631974D03*
X133161974Y-146131974D03*
X126661974Y-146131974D03*
%TD*%
%TO.C,SW23*%
X133161974Y-131471974D03*
X126661974Y-131471974D03*
X133161974Y-135971974D03*
X126661974Y-135971974D03*
%TD*%
%TO.C,SW22*%
X133161974Y-121311974D03*
X126661974Y-121311974D03*
X133161974Y-125811974D03*
X126661974Y-125811974D03*
%TD*%
%TO.C,SW21*%
X133161974Y-111151974D03*
X126661974Y-111151974D03*
X133161974Y-115651974D03*
X126661974Y-115651974D03*
%TD*%
%TO.C,SW20*%
X133161974Y-100991974D03*
X126661974Y-100991974D03*
X133161974Y-105491974D03*
X126661974Y-105491974D03*
%TD*%
%TO.C,SW19*%
X133161974Y-90831974D03*
X126661974Y-90831974D03*
X133161974Y-95331974D03*
X126661974Y-95331974D03*
%TD*%
%TO.C,SW18*%
X133161974Y-80671974D03*
X126661974Y-80671974D03*
X133161974Y-85171974D03*
X126661974Y-85171974D03*
%TD*%
%TO.C,SW17*%
X120461974Y-151791974D03*
X113961974Y-151791974D03*
X120461974Y-156291974D03*
X113961974Y-156291974D03*
%TD*%
%TO.C,SW16*%
X120461974Y-141631974D03*
X113961974Y-141631974D03*
X120461974Y-146131974D03*
X113961974Y-146131974D03*
%TD*%
%TO.C,SW15*%
X120461974Y-131471974D03*
X113961974Y-131471974D03*
X120461974Y-135971974D03*
X113961974Y-135971974D03*
%TD*%
%TO.C,SW14*%
X120461974Y-121311974D03*
X113961974Y-121311974D03*
X120461974Y-125811974D03*
X113961974Y-125811974D03*
%TD*%
%TO.C,SW13*%
X120461974Y-111151974D03*
X113961974Y-111151974D03*
X120461974Y-115651974D03*
X113961974Y-115651974D03*
%TD*%
%TO.C,SW12*%
X120461974Y-100991974D03*
X113961974Y-100991974D03*
X120461974Y-105491974D03*
X113961974Y-105491974D03*
%TD*%
%TO.C,SW11*%
X120461974Y-90831974D03*
X113961974Y-90831974D03*
X120461974Y-95331974D03*
X113961974Y-95331974D03*
%TD*%
%TO.C,SW10*%
X120461974Y-80671974D03*
X113961974Y-80671974D03*
X120461974Y-85171974D03*
X113961974Y-85171974D03*
%TD*%
%TO.C,SW9*%
X107761974Y-151791974D03*
X101261974Y-151791974D03*
X107761974Y-156291974D03*
X101261974Y-156291974D03*
%TD*%
%TO.C,SW8*%
X107761974Y-141631974D03*
X101261974Y-141631974D03*
X107761974Y-146131974D03*
X101261974Y-146131974D03*
%TD*%
%TO.C,SW7*%
X107761974Y-131471974D03*
X101261974Y-131471974D03*
X107761974Y-135971974D03*
X101261974Y-135971974D03*
%TD*%
%TO.C,SW6*%
X107761974Y-121311974D03*
X101261974Y-121311974D03*
X107761974Y-125811974D03*
X101261974Y-125811974D03*
%TD*%
%TO.C,SW5*%
X107761974Y-111151974D03*
X101261974Y-111151974D03*
X107761974Y-115651974D03*
X101261974Y-115651974D03*
%TD*%
%TO.C,SW4*%
X107761974Y-100991974D03*
X101261974Y-100991974D03*
X107761974Y-105491974D03*
X101261974Y-105491974D03*
%TD*%
%TO.C,SW3*%
X107761974Y-90831974D03*
X101261974Y-90831974D03*
X107761974Y-95331974D03*
X101261974Y-95331974D03*
%TD*%
%TO.C,SW2*%
X107761974Y-80671974D03*
X101261974Y-80671974D03*
X107761974Y-85171974D03*
X101261974Y-85171974D03*
%TD*%
D16*
%TO.C,U2*%
X103861974Y-63121974D03*
D17*
X100831974Y-57971974D03*
X100831974Y-63421974D03*
D16*
X103861974Y-58271974D03*
D18*
X100701974Y-70486974D03*
D14*
X100701974Y-69586974D03*
D18*
X103241974Y-70486974D03*
D14*
X103241974Y-69586974D03*
D13*
X105781974Y-69586974D03*
D18*
X105781974Y-70486974D03*
X108321974Y-70486974D03*
D14*
X108321974Y-69586974D03*
D18*
X110861974Y-70486974D03*
D14*
X110861974Y-69586974D03*
X113401974Y-69586974D03*
D18*
X113401974Y-70486974D03*
X115941974Y-70486974D03*
D14*
X115941974Y-69586974D03*
D18*
X118481974Y-70486974D03*
D13*
X118481974Y-69586974D03*
D18*
X121021974Y-70486974D03*
D14*
X121021974Y-69586974D03*
X123561974Y-69586974D03*
D18*
X123561974Y-70486974D03*
X126101974Y-70486974D03*
D14*
X126101974Y-69586974D03*
D18*
X128641974Y-70486974D03*
D14*
X128641974Y-69586974D03*
D13*
X131181974Y-69586974D03*
D18*
X131181974Y-70486974D03*
X133721974Y-70486974D03*
D14*
X133721974Y-69586974D03*
D18*
X136261974Y-70486974D03*
D14*
X136261974Y-69586974D03*
X138801974Y-69586974D03*
D18*
X138801974Y-70486974D03*
X141341974Y-70486974D03*
D14*
X141341974Y-69586974D03*
D13*
X143881974Y-69586974D03*
D18*
X143881974Y-70486974D03*
D14*
X146421974Y-69586974D03*
D18*
X146421974Y-70486974D03*
D14*
X148961974Y-69586974D03*
D18*
X148961974Y-70486974D03*
D14*
X148961974Y-51806974D03*
D18*
X148961974Y-50928974D03*
X146421974Y-50928974D03*
D14*
X146421974Y-51806974D03*
D13*
X143881974Y-51806974D03*
D18*
X143881974Y-50928974D03*
D14*
X141341974Y-51806974D03*
D18*
X141341974Y-50928974D03*
X138801974Y-50928974D03*
D14*
X138801974Y-51806974D03*
D18*
X136261974Y-50928974D03*
D14*
X136261974Y-51806974D03*
X133721974Y-51806974D03*
D18*
X133721974Y-50928974D03*
X131181974Y-50928974D03*
D13*
X131181974Y-51806974D03*
D14*
X128641974Y-51806974D03*
D18*
X128641974Y-50928974D03*
D14*
X126101974Y-51806974D03*
D18*
X126101974Y-50928974D03*
X123561974Y-50928974D03*
D14*
X123561974Y-51806974D03*
D18*
X121021974Y-50928974D03*
D14*
X121021974Y-51806974D03*
D18*
X118481974Y-50928974D03*
D13*
X118481974Y-51806974D03*
D18*
X115941974Y-50928974D03*
D14*
X115941974Y-51806974D03*
X113401974Y-51806974D03*
D18*
X113401974Y-50928974D03*
X110861974Y-50928974D03*
D14*
X110861974Y-51806974D03*
X108321974Y-51806974D03*
D18*
X108321974Y-50928974D03*
X105781974Y-50928974D03*
D13*
X105781974Y-51806974D03*
D18*
X103241974Y-50928974D03*
D14*
X103241974Y-51806974D03*
X100701974Y-51806974D03*
D18*
X100701974Y-50928974D03*
D14*
X148731974Y-63236974D03*
D19*
X149631974Y-63236974D03*
X149631974Y-60696974D03*
D13*
X148731974Y-60696974D03*
D14*
X148731974Y-58156974D03*
D19*
X149631974Y-58156974D03*
%TD*%
D20*
%TO.C,SW1*%
X159248974Y-53359974D03*
X159248974Y-60159974D03*
D21*
X156498974Y-54259974D03*
X156498974Y-56759974D03*
X156498974Y-59259974D03*
%TD*%
M02*
