<?xml version="1.0"?>
<!DOCTYPE svg PUBLIC "-//W3C//DTD SVG 1.1//EN" "http://www.w3.org/Graphics/SVG/1.1/DTD/svg11.dtd">
<svg width="69.36000000000004mm" height="133.78402069502755mm" viewBox="0 0 69.36000000000004 133.78402069502755" xmlns="http://www.w3.org/2000/svg" version="1.1">
<g id="MultiTransform" transform="translate(34.680000,64.156764) scale(1,-1)">
<path id="MultiTransform_f0000"  d="M -31.999999999999993 38.32065888413266 L -32.99999999999999 38.32065888413266 L -32.99999999999999 32.41181236605941 L -32.00000000000001 32.411812366059415 L -31.999999999999993 38.32065888413266 Z " stroke="#191919" stroke-width="0.35 px" style="stroke-width:0.35;stroke-miterlimit:4;stroke-dasharray:none;fill:#cccccc;fill-opacity:1.0;fill-rule: evenodd"/>
<path id="MultiTransform_f0001"  d="M -32.00000000000001 32.411812366059415 L -33.00000000000001 32.411812366059415 M -33.00000000000001 32.41181236605941 L -33.00000000000001 33.106405076727135 L -32.0 33.106405076727135 M -31.999999999999993 33.106405076727135 L -31.999999999999993 32.411812366059415 Z " stroke="#191919" stroke-width="0.35 px" style="stroke-width:0.35;stroke-miterlimit:4;stroke-dasharray:none;fill:#cccccc;fill-opacity:1.0;fill-rule: evenodd"/>
<path id="MultiTransform_f0002"  d="M -33.00000000000001 32.411812366059415 M -33.00000000000001 32.411812366059415 L -34.00000000000001 32.23816418839248 L -33.99999999999999 38.147010706465736 M -33.99999999999999 38.14701070646573 L -32.99999999999999 38.320658884132655 L -32.99999999999999 32.41181236605941 Z " stroke="#191919" stroke-width="0.35 px" style="stroke-width:0.35;stroke-miterlimit:4;stroke-dasharray:none;fill:#cccccc;fill-opacity:1.0;fill-rule: evenodd"/>
<path id="MultiTransform_f0003"  d="M -32.0 34.71409606212244 L -32.0 27.54852398046029 L -32.00000000000001 24.576924478929545 L -32.0 18.668077960856287 L -32.0 21.4559643091458 L -32.0 -59.49892232344522 L -32.00000000000003 -59.84572014804202 L -32.000000000000014 -65.41480799132609 L -32.0 -66.71716932382802 L -32.00000000000001 59.830626938240755 L -32.0 61.13298827074271 L -31.999999999999986 55.56390042745867 L -31.999999999999993 56.30449527921586 L -32.0 34.71409606212244 Z M -32.0 32.411812366059415 M -32.0 32.411812366059415 L -31.999999999999996 33.106405076727135 L -32.0 39.01525159480038 M -32.0 39.01525159480038 L -31.999999999999993 38.32065888413266 L -32.0 32.411812366059415 Z " stroke="#191919" stroke-width="0.35 px" style="stroke-width:0.35;stroke-miterlimit:4;stroke-dasharray:none;fill:#cccccc;fill-opacity:1.0;fill-rule: evenodd"/>
<path id="MultiTransform_f0004"  d="M -32.0 39.01525159480038 L -32.99999999999999 39.01525159480038 M -33.0 39.015251594800375 L -33.0 38.32065888413266 L -31.999999999999993 38.32065888413266 M -31.999999999999993 38.32065888413266 L -31.999999999999993 39.015251594800375 Z " stroke="#191919" stroke-width="0.35 px" style="stroke-width:0.35;stroke-miterlimit:4;stroke-dasharray:none;fill:#cccccc;fill-opacity:1.0;fill-rule: evenodd"/>
<path id="MultiTransform_f0005"  d="M -33.99999999999999 33.28005325439406 M -33.99999999999999 33.28005325439406 L -32.99999999999999 33.106405076727135 M -33.00000000000001 33.106405076727135 L -33.00000000000001 32.41181236605941 M -33.00000000000001 32.411812366059415 L -34.00000000000001 32.23816418839248 M -34.00000000000001 32.23816418839248 L -34.00000000000001 33.28005325439407 Z " stroke="#191919" stroke-width="0.35 px" style="stroke-width:0.35;stroke-miterlimit:4;stroke-dasharray:none;fill:#cccccc;fill-opacity:1.0;fill-rule: evenodd"/>
<path id="MultiTransform_f0006"  d="M -32.0 33.106405076727135 L -32.99999999999999 33.106405076727135 L -32.99999999999999 39.01525159480038 L -32.0 39.01525159480038 L -31.999999999999993 33.106405076727135 Z " stroke="#191919" stroke-width="0.35 px" style="stroke-width:0.35;stroke-miterlimit:4;stroke-dasharray:none;fill:#cccccc;fill-opacity:1.0;fill-rule: evenodd"/>
<path id="MultiTransform_f0007"  d="M -33.99999999999999 39.18889977246731 L -33.99999999999999 33.28005325439406 M -34.00000000000001 33.28005325439407 L -34.00000000000001 32.238164188392474 L -33.99999999999999 38.147010706465736 M -34.0 38.147010706465736 L -34.0 39.18889977246731 Z M -34.00000000000002 -66.9193590760137 L -34.00000000000003 -68.94725709635286 L -34.0 61.539770177764794 L -33.99999999999998 63.476763598674665 L -33.999999999999986 35.44203653065484 L -34.00000000000002 -66.9193590760137 Z " stroke="#191919" stroke-width="0.35 px" style="stroke-width:0.35;stroke-miterlimit:4;stroke-dasharray:none;fill:#cccccc;fill-opacity:1.0;fill-rule: evenodd"/>
<path id="MultiTransform_f0008"  d="M -33.99999999999999 38.14701070646573 M -33.99999999999999 38.14701070646573 L -32.99999999999999 38.320658884132655 M -33.0 38.32065888413266 L -33.0 39.015251594800375 M -32.99999999999999 39.01525159480038 L -33.99999999999999 39.18889977246731 M -34.0 39.18889977246731 L -34.0 38.147010706465736 Z " stroke="#191919" stroke-width="0.35 px" style="stroke-width:0.35;stroke-miterlimit:4;stroke-dasharray:none;fill:#cccccc;fill-opacity:1.0;fill-rule: evenodd"/>
<path id="MultiTransform_f0009"  d="M -31.999999999999986 56.30449527921585 L -31.99999999999999 55.56390042745868 L -29.210000000000004 55.56390042745867 L -29.210000000000004 56.30449527921585 L -31.999999999999986 56.30449527921584 Z " stroke="#191919" stroke-width="0.35 px" style="stroke-width:0.35;stroke-miterlimit:4;stroke-dasharray:none;fill:#cccccc;fill-opacity:1.0;fill-rule: evenodd"/>
<path id="MultiTransform_f0010"  d="M -29.210000000000004 55.56390042745867 M -29.210000000000004 55.56390042745867 L -26.210000000000004 58.51832368649529 L -26.210000000000004 61.13298827074273 L -31.999999999999982 61.13298827073611 L -31.999999999999986 55.56390042745867 L -29.210000000000004 55.56390042745867 Z M -28.110000000000003 58.51832368649529 M -28.110000000000003 58.51832368649529 L -28.110000000000003 58.51832368649529 Z " stroke="#191919" stroke-width="0.35 px" style="stroke-width:0.35;stroke-miterlimit:4;stroke-dasharray:none;fill:#cccccc;fill-opacity:1.0;fill-rule: evenodd"/>
<path id="MultiTransform_f0011"  d="M -29.210000000000004 56.30449527921585 M -29.210000000000008 56.30449527921585 L -26.210000000000008 58.958151071891606 L -26.210000000000004 61.30663644840967 L 26.209999999999994 61.306636448409634 L 26.209999999999987 58.95815107189159 M 26.209999999999994 58.9581510718916 L 29.209999999999994 56.30449527921584 L 32.0 56.30449527921584 L 32.0 34.71409606212241 L -31.999999999999993 34.714096062122444 L -31.999999999999993 56.30449527921586 L -29.210000000000004 56.30449527921585 Z " stroke="#191919" stroke-width="0.35 px" style="stroke-width:0.35;stroke-miterlimit:4;stroke-dasharray:none;fill:#cccccc;fill-opacity:1.0;fill-rule: evenodd"/>
<path id="MultiTransform_f0012"  d="M 32.0 59.830626938240705 L 32.0 61.13298827074268 L 26.20999999999999 61.1329882707427 L 26.209999999999994 61.306636448409634 L -26.210000000000004 61.30663644840966 L -26.210000000000008 61.132988270742736 L -31.999999999999982 61.13298827073611 L -32.00000000000001 59.830626938240755 L 31.999999999999996 59.830626938240734 Z " stroke="#191919" stroke-width="0.35 px" style="stroke-width:0.35;stroke-miterlimit:4;stroke-dasharray:none;fill:#cccccc;fill-opacity:1.0;fill-rule: evenodd"/>
<path id="MultiTransform_f0013"  d="M -29.210000000000004 -59.498922323445235 L -32.000000000000014 -59.498922323445235 L -32.0 21.4559643091458 L -29.209999999999997 21.4559643091458 A 3.04628 3 -90 1 1 -29.21 27.5485L -31.999999999999993 27.548523980460274 L -32.0 34.71409606212244 L 32.0 34.71409606212241 L 32.0 27.548523980460274 L 29.21 27.54852398046027 A 3.04628 3 -90 0 1 29.21 21.456L 32.0 21.455964309145795 L 32.0 -59.49892232344522 L 29.209999999999994 -59.498922323445235 A 3.04628 3 -90 0 1 26.21 -62.5452L 26.209999999999997 -65.24115981365915 L -26.210000000000008 -65.24115981365912 L -26.210000000000008 -62.54520215910247 A 3.04628 3 -90 0 1 -29.21 -59.4989Z " stroke="#191919" stroke-width="0.35 px" style="stroke-width:0.35;stroke-miterlimit:4;stroke-dasharray:none;fill:#cccccc;fill-opacity:1.0;fill-rule: evenodd"/>
<path id="MultiTransform_f0014"  d="M -31.99999999999999 59.830626938240755 L -32.000000000000036 -66.71716932382805 L 31.999999999999975 -66.71716932382807 L 31.999999999999996 59.830626938240734 L -32.0 59.83062693824076 Z M 28.09999999999999 -57.32210336009157 M 28.09999999999999 -57.32210336009157 L 28.09999999999999 -57.32210336009157 Z M 28.09999999999999 -47.31645658948753 M 28.09999999999999 -47.31645658948753 L 28.09999999999999 -47.31645658948753 Z M 28.09999999999999 -37.31080981888349 M 28.09999999999999 -37.31080981888349 L 28.09999999999999 -37.31080981888349 Z M 28.09999999999999 -27.305163048279454 M 28.09999999999999 -27.305163048279454 L 28.09999999999999 -27.305163048279454 Z M 28.09999999999999 -17.299516277675423 M 28.09999999999999 -17.299516277675423 L 28.09999999999999 -17.299516277675423 Z M 28.09999999999999 -7.293869507071383 M 28.09999999999999 -7.293869507071383 L 28.09999999999999 -7.293869507071383 Z M 15.399999999999988 -57.32210336009157 M 15.399999999999988 -57.32210336009157 L 15.399999999999988 -57.32210336009157 Z M 15.399999999999988 -47.31645658948753 M 15.399999999999988 -47.31645658948753 L 15.399999999999988 -47.31645658948753 Z M 15.399999999999988 -37.31080981888349 M 15.399999999999988 -37.31080981888349 L 15.399999999999988 -37.31080981888349 Z M 15.399999999999988 -27.305163048279454 M 15.399999999999988 -27.305163048279454 L 15.399999999999988 -27.305163048279454 Z M 15.399999999999988 -17.299516277675423 M 15.399999999999988 -17.299516277675423 L 15.399999999999988 -17.299516277675423 Z M 15.399999999999988 -7.293869507071383 M 15.399999999999988 -7.293869507071383 L 15.399999999999988 -7.293869507071383 Z M 28.09999999999999 2.711777263532653 M 28.09999999999999 2.711777263532653 L 28.09999999999999 2.711777263532653 Z M 28.09999999999999 12.71742403413669 M 28.09999999999999 12.71742403413669 L 28.09999999999999 12.71742403413669 Z M 15.399999999999988 2.711777263532655 M 15.399999999999988 2.711777263532655 L 15.399999999999988 2.711777263532655 Z M 15.399999999999988 12.71742403413669 M 15.399999999999988 12.71742403413669 L 15.399999999999988 12.71742403413669 Z M 2.699999999999992 -57.32210336009157 M 2.699999999999992 -57.32210336009157 L 2.699999999999992 -57.32210336009157 Z M 2.699999999999992 -47.31645658948753 M 2.699999999999992 -47.31645658948753 L 2.699999999999992 -47.31645658948753 Z M 2.699999999999992 -37.31080981888349 M 2.699999999999992 -37.31080981888349 L 2.699999999999992 -37.31080981888349 Z M -10.000000000000007 -57.32210336009157 M -10.000000000000007 -57.32210336009157 L -10.000000000000007 -57.32210336009157 Z M -10.000000000000007 -47.31645658948753 M -10.000000000000007 -47.31645658948753 L -10.000000000000007 -47.31645658948753 Z M -10.000000000000007 -37.31080981888349 M -10.000000000000007 -37.31080981888349 L -10.000000000000007 -37.31080981888349 Z M 2.699999999999992 -27.305163048279454 M 2.699999999999992 -27.305163048279454 L 2.699999999999992 -27.305163048279454 Z M 2.699999999999992 -17.299516277675416 M 2.699999999999992 -17.299516277675416 L 2.699999999999992 -17.299516277675416 Z M 2.699999999999992 -7.2938695070713795 M 2.699999999999992 -7.2938695070713795 L 2.699999999999992 -7.2938695070713795 Z M -10.000000000000007 -27.305163048279454 M -10.000000000000007 -27.305163048279454 L -10.000000000000007 -27.305163048279454 Z M -10.000000000000007 -17.299516277675416 M -10.000000000000007 -17.299516277675416 L -10.000000000000007 -17.299516277675416 Z M -10.000000000000007 -7.2938695070713795 M -10.000000000000007 -7.2938695070713795 L -10.000000000000007 -7.2938695070713795 Z M -22.700000000000006 -57.32210336009157 M -22.700000000000006 -57.32210336009157 L -22.700000000000006 -57.32210336009157 Z M -22.700000000000006 -47.31645658948753 M -22.700000000000006 -47.31645658948753 L -22.700000000000006 -47.31645658948753 Z M -22.700000000000006 -37.31080981888349 M -22.700000000000006 -37.31080981888349 L -22.700000000000006 -37.31080981888349 Z M -22.700000000000006 -27.305163048279454 M -22.700000000000006 -27.305163048279454 L -22.700000000000006 -27.305163048279454 Z M -22.700000000000006 -17.299516277675416 M -22.700000000000006 -17.299516277675416 L -22.700000000000006 -17.299516277675416 Z M -22.700000000000006 -7.2938695070713795 M -22.700000000000006 -7.2938695070713795 L -22.700000000000006 -7.2938695070713795 Z M 2.699999999999992 2.711777263532655 M 2.699999999999992 2.711777263532655 L 2.699999999999992 2.711777263532655 Z M 2.699999999999992 12.717424034136691 M 2.699999999999992 12.717424034136691 L 2.699999999999992 12.717424034136691 Z M -10.000000000000007 2.7117772635326567 M -10.000000000000007 2.7117772635326567 L -10.000000000000007 2.7117772635326567 Z M -10.000000000000007 12.717424034136691 M -10.000000000000007 12.717424034136691 L -10.000000000000007 12.717424034136691 Z M 27.49999999999999 56.28531902739681 M 27.49999999999999 56.28531902739681 L 28.499999999999986 55.3005112743846 L 28.49999999999999 28.218298066548872 M 28.49999999999999 28.218298066548872 L 27.49999999999999 27.233490313536663 L -27.500000000000004 27.233490313536663 M -27.500000000000004 27.233490313536663 L -28.500000000000004 28.218298066548872 L -28.500000000000004 55.3005112743846 M -28.5 55.3005112743846 L -27.500000000000004 56.28531902739681 L 27.49999999999999 56.2853190273968 Z M -22.700000000000006 2.7117772635326567 M -22.700000000000006 2.7117772635326567 L -22.700000000000006 2.7117772635326567 Z M -22.700000000000006 12.717424034136693 M -22.700000000000006 12.717424034136693 L -22.700000000000006 12.717424034136693 Z " stroke="#191919" stroke-width="0.35 px" style="stroke-width:0.35;stroke-miterlimit:4;stroke-dasharray:none;fill:#cccccc;fill-opacity:1.0;fill-rule: evenodd"/>
<path id="MultiTransform_f0015"  d="M -31.999999999999996 27.548523980460274 L -29.21 27.54852398046027 L -29.210000000000008 24.576924478929545 L -32.0 24.576924478929538 L -31.999999999999996 27.548523980460274 Z " stroke="#191919" stroke-width="0.35 px" style="stroke-width:0.35;stroke-miterlimit:4;stroke-dasharray:none;fill:#cccccc;fill-opacity:1.0;fill-rule: evenodd"/>
<path id="MultiTransform_f0016"  d="M -26.210000000000004 -65.41480799132607 L -26.210000000000008 -65.24115981365914 L 26.209999999999997 -65.24115981365915 L 26.209999999999994 -65.41480799132609 L 31.99999999999997 -65.41480799132609 L 32.0 -66.71716932382805 L -32.00000000000002 -66.71716932382803 L -32.000000000000014 -65.41480799132609 L -26.210000000000004 -65.41480799132607 Z " stroke="#191919" stroke-width="0.35 px" style="stroke-width:0.35;stroke-miterlimit:4;stroke-dasharray:none;fill:#cccccc;fill-opacity:1.0;fill-rule: evenodd"/>
<path id="MultiTransform_f0017"  d="M -29.210000000000004 18.668077960856287 M -29.210000000000004 18.668077960856287 L -29.210000000000004 24.576924478929538 L -32.0 24.576924478929538 L -32.0 18.668077960856287 L -29.210000000000004 18.668077960856287 Z M -28.110000000000003 21.62250121989291 M -28.110000000000003 21.62250121989291 L -28.110000000000003 21.62250121989291 Z " stroke="#191919" stroke-width="0.35 px" style="stroke-width:0.35;stroke-miterlimit:4;stroke-dasharray:none;fill:#cccccc;fill-opacity:1.0;fill-rule: evenodd"/>
<path id="MultiTransform_f0018"  d="M -32.000000000000014 -65.41480799132609 L -32.00000000000002 -59.84572014804201 L -29.210000000000004 -59.84572014804201 M -29.21 -59.84572014804201 L -26.210000000000004 -62.800143407078636 L -26.210000000000004 -65.41480799132607 L -32.000000000000014 -65.41480799132609 Z M -28.110000000000003 -62.800143407078636 M -28.110000000000003 -62.800143407078636 L -28.110000000000003 -62.800143407078636 Z " stroke="#191919" stroke-width="0.35 px" style="stroke-width:0.35;stroke-miterlimit:4;stroke-dasharray:none;fill:#cccccc;fill-opacity:1.0;fill-rule: evenodd"/>
<path id="MultiTransform_f0019"  d="M -29.21 21.4559643091458 L -32.0 21.4559643091458 L -32.00000000000001 18.668077960856294 L -29.210000000000004 18.668077960856287 L -29.21 21.4559643091458 Z " stroke="#191919" stroke-width="0.35 px" style="stroke-width:0.35;stroke-miterlimit:4;stroke-dasharray:none;fill:#cccccc;fill-opacity:1.0;fill-rule: evenodd"/>
<path id="MultiTransform_f0020"  d="M -32.00000000000002 -59.498922323445235 L -29.210000000000008 -59.498922323445235 L -29.210000000000008 -59.84572014804202 L -32.00000000000002 -59.84572014804201 L -32.00000000000002 -59.498922323445235 Z " stroke="#191919" stroke-width="0.35 px" style="stroke-width:0.35;stroke-miterlimit:4;stroke-dasharray:none;fill:#cccccc;fill-opacity:1.0;fill-rule: evenodd"/>
<path id="MultiTransform_f0021"  d="M -32.99999999999999 39.01525159480038 M -32.99999999999999 39.01525159480038 L -33.99999999999999 39.18889977246731 L -33.99999999999999 33.28005325439406 M -33.99999999999999 33.28005325439406 L -32.99999999999999 33.106405076727135 L -32.99999999999999 39.01525159480038 Z " stroke="#191919" stroke-width="0.35 px" style="stroke-width:0.35;stroke-miterlimit:4;stroke-dasharray:none;fill:#cccccc;fill-opacity:1.0;fill-rule: evenodd"/>
<path id="MultiTransform_f0022"  d="M 34.00000000000001 61.539770177764765 L -34.0 61.539770177764794 L -34.00000000000003 -68.94725709635286 L 33.99999999999998 -68.94725709635289 L 34.00000000000003 61.539770177764765 Z M -32.99999999999998 59.57015467174036 M -32.99999999999998 59.57015467174036 L -31.999999999999986 60.554962424752766 L 31.999999999999687 60.554962424752766 M 31.999999999999687 60.554962424752766 L 32.99999999999969 59.57015467174084 L 32.99999999999997 -66.97764159032866 M 32.999999999999964 -66.97764159032866 L 31.99999999999968 -67.96244934334085 L -31.999999999999986 -67.96244934334123 M -31.999999999999986 -67.96244934334123 L -32.99999999999969 -66.97764159032845 L -32.99999999999998 59.57015467174036 Z " stroke="#191919" stroke-width="0.35 px" style="stroke-width:0.35;stroke-miterlimit:4;stroke-dasharray:none;fill:#cccccc;fill-opacity:1.0;fill-rule: evenodd"/>
<path id="MultiTransform_f0023"  d="M -33.99999999999998 63.476763598674665 L 34.00000000000002 63.47676359867464 L 34.00000000000001 61.539770177764765 L -34.0 61.539770177764794 L -33.999999999999986 63.476763598674665 Z " stroke="#191919" stroke-width="0.35 px" style="stroke-width:0.35;stroke-miterlimit:4;stroke-dasharray:none;fill:#cccccc;fill-opacity:1.0;fill-rule: evenodd"/>
<path id="MultiTransform_f0024"  d="M -34.000000000000036 -66.9193590760137 L -34.000000000000036 -68.94725709635286 L 33.99999999999998 -68.94725709635289 L 33.99999999999998 -66.91935907601372 L -34.00000000000003 -66.91935907601368 Z " stroke="#191919" stroke-width="0.35 px" style="stroke-width:0.35;stroke-miterlimit:4;stroke-dasharray:none;fill:#cccccc;fill-opacity:1.0;fill-rule: evenodd"/>
<path id="MultiTransform_f0025"  d="M -33.99999999999998 63.476763598674665 L -33.999999999999986 35.44203653065484 L 34.000000000000014 35.44203653065481 L 34.00000000000002 63.47676359867464 L -33.999999999999986 63.47676359867466 Z " stroke="#191919" stroke-width="0.35 px" style="stroke-width:0.35;stroke-miterlimit:4;stroke-dasharray:none;fill:#cccccc;fill-opacity:1.0;fill-rule: evenodd"/>
<path id="MultiTransform_f0026"  d="M 34.00000000000001 35.4420365306548 L -33.999999999999986 35.44203653065483 L -34.00000000000003 -66.9193590760137 L 33.99999999999998 -66.91935907601372 L 34.000000000000014 35.44203653065481 Z " stroke="#191919" stroke-width="0.35 px" style="stroke-width:0.35;stroke-miterlimit:4;stroke-dasharray:none;fill:#cccccc;fill-opacity:1.0;fill-rule: evenodd"/>
<path id="MultiTransform_f0027"  d="M -26.210000000000008 58.958151071891606 M -26.210000000000008 58.958151071891606 L -29.210000000000008 56.30449527921585 L -29.210000000000008 55.56390042745868 M -29.210000000000004 55.56390042745867 L -26.210000000000004 58.51832368649529 L -26.210000000000008 58.958151071891606 Z " stroke="#191919" stroke-width="0.35 px" style="stroke-width:0.35;stroke-miterlimit:4;stroke-dasharray:none;fill:#cccccc;fill-opacity:1.0;fill-rule: evenodd"/>
<path id="MultiTransform_f0028"  d="M -26.210000000000008 61.30663644840966 L -26.210000000000008 58.958151071891606 L -26.210000000000008 58.5183236864953 L -26.210000000000004 61.13298827074273 L -26.210000000000008 61.30663644840966 Z " stroke="#191919" stroke-width="0.35 px" style="stroke-width:0.35;stroke-miterlimit:4;stroke-dasharray:none;fill:#cccccc;fill-opacity:1.0;fill-rule: evenodd"/>
<path id="MultiTransform_f0029"  d="M -28.110000000000003 58.51832368649529 M -28.110000000000003 58.51832368649529 L -28.110000000000003 58.51832368649529 L -28.110000000000007 58.958151071891606 M -28.110000000000007 58.958151071891606 L -28.110000000000007 58.958151071891606 Z " stroke="#191919" stroke-width="0.35 px" style="stroke-width:0.35;stroke-miterlimit:4;stroke-dasharray:none;fill:#cccccc;fill-opacity:1.0;fill-rule: evenodd"/>
<path id="MultiTransform_f0030"  d="M 26.209999999999994 61.30663644840964 L 26.209999999999994 61.13298827074271 L 26.20999999999999 58.51832368649529 L 26.209999999999994 58.9581510718916 L 26.209999999999994 61.306636448409634 Z " stroke="#191919" stroke-width="0.35 px" style="stroke-width:0.35;stroke-miterlimit:4;stroke-dasharray:none;fill:#cccccc;fill-opacity:1.0;fill-rule: evenodd"/>
<path id="MultiTransform_f0031"  d="M 29.209999999999994 56.30449527921584 M 29.209999999999994 56.30449527921584 L 26.209999999999994 58.9581510718916 L 26.209999999999994 58.5183236864953 M 26.20999999999999 58.51832368649529 L 29.20999999999999 55.56390042745867 L 29.209999999999997 56.30449527921585 Z " stroke="#191919" stroke-width="0.35 px" style="stroke-width:0.35;stroke-miterlimit:4;stroke-dasharray:none;fill:#cccccc;fill-opacity:1.0;fill-rule: evenodd"/>
<path id="MultiTransform_f0032"  d="M 32.0 56.30449527921584 L 29.21 56.30449527921584 L 29.209999999999994 55.56390042745868 L 32.0 55.56390042745867 L 32.0 56.30449527921584 Z " stroke="#191919" stroke-width="0.35 px" style="stroke-width:0.35;stroke-miterlimit:4;stroke-dasharray:none;fill:#cccccc;fill-opacity:1.0;fill-rule: evenodd"/>
<path id="MultiTransform_f0033"  d="M 31.99999999999999 18.668077960856287 L 32.0 21.455964309145795 L 32.0 -59.49892232344522 L 31.999999999999975 -59.84572014804202 L 31.99999999999997 -65.41480799132609 L 32.0 -66.71716932382805 L 31.999999999999996 59.830626938240734 L 32.0 61.13298827074268 L 32.0 55.56390042745867 L 32.0 56.30449527921584 L 32.0 34.71409606212241 L 32.0 27.548523980460274 L 31.999999999999993 24.576924478929538 L 31.99999999999999 18.668077960856287 Z " stroke="#191919" stroke-width="0.35 px" style="stroke-width:0.35;stroke-miterlimit:4;stroke-dasharray:none;fill:#cccccc;fill-opacity:1.0;fill-rule: evenodd"/>
<path id="MultiTransform_f0034"  d="M 26.20999999999999 58.51832368649529 M 26.20999999999999 58.51832368649529 L 29.20999999999999 55.56390042745867 L 32.0 55.56390042745867 L 32.0 61.13298827073608 L 26.20999999999999 61.1329882707427 L 26.20999999999999 58.51832368649529 Z M 30.30999999999999 58.51832368649529 M 30.30999999999999 58.51832368649529 L 30.30999999999999 58.51832368649529 Z " stroke="#191919" stroke-width="0.35 px" style="stroke-width:0.35;stroke-miterlimit:4;stroke-dasharray:none;fill:#cccccc;fill-opacity:1.0;fill-rule: evenodd"/>
<path id="MultiTransform_f0035"  d="M -26.210000000000008 -65.24115981365915 L -26.210000000000008 -65.41480799132609 L -26.210000000000004 -62.800143407078636 L -26.210000000000008 -62.54520215910247 L -26.210000000000008 -65.24115981365914 Z " stroke="#191919" stroke-width="0.35 px" style="stroke-width:0.35;stroke-miterlimit:4;stroke-dasharray:none;fill:#cccccc;fill-opacity:1.0;fill-rule: evenodd"/>
<path id="MultiTransform_f0036"  d="M -29.210000000000004 -59.498922323445235 A 3.04628 3 -90 0 0 -26.21 -62.5452L -26.210000000000008 -62.80014340707864 M -26.210000000000004 -62.800143407078636 L -29.21 -59.84572014804201 L -29.210000000000008 -59.498922323445235 Z " stroke="#191919" stroke-width="0.35 px" style="stroke-width:0.35;stroke-miterlimit:4;stroke-dasharray:none;fill:#cccccc;fill-opacity:1.0;fill-rule: evenodd"/>
<path id="MultiTransform_f0037"  d="M 26.209999999999994 -62.54520215910247 L 26.209999999999994 -62.80014340707864 L 26.20999999999999 -65.41480799132607 L 26.209999999999997 -65.24115981365915 L 26.209999999999994 -62.54520215910247 Z " stroke="#191919" stroke-width="0.35 px" style="stroke-width:0.35;stroke-miterlimit:4;stroke-dasharray:none;fill:#cccccc;fill-opacity:1.0;fill-rule: evenodd"/>
<path id="MultiTransform_f0038"  d="M 26.209999999999994 -62.54520215910247 A 3.04628 3 -90 0 0 29.21 -59.4989L 29.209999999999994 -59.84572014804202 M 29.20999999999999 -59.84572014804201 L 26.20999999999999 -62.800143407078636 L 26.209999999999994 -62.54520215910247 Z " stroke="#191919" stroke-width="0.35 px" style="stroke-width:0.35;stroke-miterlimit:4;stroke-dasharray:none;fill:#cccccc;fill-opacity:1.0;fill-rule: evenodd"/>
<path id="MultiTransform_f0039"  d="M 31.999999999999975 -59.498922323445235 L 31.999999999999975 -59.84572014804202 L 29.20999999999999 -59.84572014804201 L 29.209999999999994 -59.498922323445235 L 31.99999999999998 -59.498922323445235 Z " stroke="#191919" stroke-width="0.35 px" style="stroke-width:0.35;stroke-miterlimit:4;stroke-dasharray:none;fill:#cccccc;fill-opacity:1.0;fill-rule: evenodd"/>
<path id="MultiTransform_f0040"  d="M -29.21 27.548523980460267 A 3.04628 3 -90 1 0 -29.21 21.456L -29.210000000000008 18.668077960856294 M -29.210000000000004 18.668077960856287 L -29.210000000000004 24.576924478929538 L -29.21 27.54852398046027 Z " stroke="#191919" stroke-width="0.35 px" style="stroke-width:0.35;stroke-miterlimit:4;stroke-dasharray:none;fill:#cccccc;fill-opacity:1.0;fill-rule: evenodd"/>
<path id="MultiTransform_f0041"  d="M 32.0 21.4559643091458 L 29.21 21.4559643091458 L 29.209999999999994 18.668077960856287 L 31.99999999999999 18.668077960856287 L 32.0 21.455964309145795 Z " stroke="#191919" stroke-width="0.35 px" style="stroke-width:0.35;stroke-miterlimit:4;stroke-dasharray:none;fill:#cccccc;fill-opacity:1.0;fill-rule: evenodd"/>
<path id="MultiTransform_f0042"  d="M 29.21 21.45596430914579 A 3.04628 3 -90 0 0 29.21 27.5485L 29.209999999999994 24.576924478929538 M 29.209999999999994 24.576924478929538 L 29.20999999999999 18.668077960856287 L 29.21 21.45596430914579 Z " stroke="#191919" stroke-width="0.35 px" style="stroke-width:0.35;stroke-miterlimit:4;stroke-dasharray:none;fill:#cccccc;fill-opacity:1.0;fill-rule: evenodd"/>
<path id="MultiTransform_f0043"  d="M 32.0 27.548523980460264 L 31.999999999999993 24.576924478929538 L 29.20999999999999 24.576924478929538 L 29.21 27.548523980460264 L 32.0 27.54852398046026 Z " stroke="#191919" stroke-width="0.35 px" style="stroke-width:0.35;stroke-miterlimit:4;stroke-dasharray:none;fill:#cccccc;fill-opacity:1.0;fill-rule: evenodd"/>
<path id="MultiTransform_f0044"  d="M 28.09999999999999 -57.495751537758494 M 28.099999999999994 -57.49575153775851 L 28.099999999999994 -57.49575153775851 L 28.09999999999999 -57.32210336009157 M 28.09999999999999 -57.32210336009157 L 28.09999999999999 -57.32210336009157 Z " stroke="#191919" stroke-width="0.35 px" style="stroke-width:0.35;stroke-miterlimit:4;stroke-dasharray:none;fill:#cccccc;fill-opacity:1.0;fill-rule: evenodd"/>
<path id="MultiTransform_f0045"  d="M 28.09999999999999 -47.49010476715446 M 28.099999999999994 -47.49010476715446 L 28.099999999999994 -47.49010476715446 L 28.09999999999999 -47.31645658948753 M 28.09999999999999 -47.31645658948753 L 28.09999999999999 -47.31645658948753 Z " stroke="#191919" stroke-width="0.35 px" style="stroke-width:0.35;stroke-miterlimit:4;stroke-dasharray:none;fill:#cccccc;fill-opacity:1.0;fill-rule: evenodd"/>
<path id="MultiTransform_f0046"  d="M 28.09999999999999 -37.48445799655042 M 28.099999999999994 -37.48445799655043 L 28.099999999999994 -37.48445799655043 L 28.09999999999999 -37.31080981888349 M 28.09999999999999 -37.31080981888349 L 28.09999999999999 -37.31080981888349 Z " stroke="#191919" stroke-width="0.35 px" style="stroke-width:0.35;stroke-miterlimit:4;stroke-dasharray:none;fill:#cccccc;fill-opacity:1.0;fill-rule: evenodd"/>
<path id="MultiTransform_f0047"  d="M 28.09999999999999 -27.478811225946384 M 28.099999999999994 -27.47881122594639 L 28.099999999999994 -27.47881122594639 L 28.09999999999999 -27.305163048279454 M 28.09999999999999 -27.305163048279454 L 28.09999999999999 -27.305163048279454 Z " stroke="#191919" stroke-width="0.35 px" style="stroke-width:0.35;stroke-miterlimit:4;stroke-dasharray:none;fill:#cccccc;fill-opacity:1.0;fill-rule: evenodd"/>
<path id="MultiTransform_f0048"  d="M 28.09999999999999 -17.473164455342353 M 28.099999999999994 -17.47316445534236 L 28.099999999999994 -17.47316445534236 L 28.09999999999999 -17.299516277675423 M 28.09999999999999 -17.299516277675423 L 28.09999999999999 -17.299516277675423 Z " stroke="#191919" stroke-width="0.35 px" style="stroke-width:0.35;stroke-miterlimit:4;stroke-dasharray:none;fill:#cccccc;fill-opacity:1.0;fill-rule: evenodd"/>
<path id="MultiTransform_f0049"  d="M 28.09999999999999 -7.467517684738315 M 28.099999999999994 -7.4675176847383185 L 28.099999999999994 -7.4675176847383185 L 28.09999999999999 -7.293869507071383 M 28.09999999999999 -7.293869507071383 L 28.09999999999999 -7.293869507071383 Z " stroke="#191919" stroke-width="0.35 px" style="stroke-width:0.35;stroke-miterlimit:4;stroke-dasharray:none;fill:#cccccc;fill-opacity:1.0;fill-rule: evenodd"/>
<path id="MultiTransform_f0050"  d="M 15.399999999999988 -57.495751537758494 M 15.399999999999991 -57.49575153775851 L 15.399999999999991 -57.49575153775851 L 15.399999999999988 -57.32210336009157 M 15.399999999999988 -57.32210336009157 L 15.399999999999988 -57.32210336009157 Z " stroke="#191919" stroke-width="0.35 px" style="stroke-width:0.35;stroke-miterlimit:4;stroke-dasharray:none;fill:#cccccc;fill-opacity:1.0;fill-rule: evenodd"/>
<path id="MultiTransform_f0051"  d="M 15.399999999999988 -47.49010476715446 M 15.399999999999991 -47.49010476715446 L 15.399999999999991 -47.49010476715446 L 15.399999999999988 -47.31645658948753 M 15.399999999999988 -47.31645658948753 L 15.399999999999988 -47.31645658948753 Z " stroke="#191919" stroke-width="0.35 px" style="stroke-width:0.35;stroke-miterlimit:4;stroke-dasharray:none;fill:#cccccc;fill-opacity:1.0;fill-rule: evenodd"/>
<path id="MultiTransform_f0052"  d="M 15.399999999999988 -37.48445799655042 M 15.399999999999991 -37.48445799655043 L 15.399999999999991 -37.48445799655043 L 15.399999999999988 -37.31080981888349 M 15.399999999999988 -37.31080981888349 L 15.399999999999988 -37.31080981888349 Z " stroke="#191919" stroke-width="0.35 px" style="stroke-width:0.35;stroke-miterlimit:4;stroke-dasharray:none;fill:#cccccc;fill-opacity:1.0;fill-rule: evenodd"/>
<path id="MultiTransform_f0053"  d="M 15.399999999999988 -27.478811225946384 M 15.399999999999991 -27.47881122594639 L 15.399999999999991 -27.47881122594639 L 15.399999999999988 -27.305163048279454 M 15.399999999999988 -27.305163048279454 L 15.399999999999988 -27.305163048279454 Z " stroke="#191919" stroke-width="0.35 px" style="stroke-width:0.35;stroke-miterlimit:4;stroke-dasharray:none;fill:#cccccc;fill-opacity:1.0;fill-rule: evenodd"/>
<path id="MultiTransform_f0054"  d="M 15.399999999999988 -17.473164455342353 M 15.399999999999991 -17.47316445534236 L 15.399999999999991 -17.47316445534236 L 15.399999999999988 -17.299516277675423 M 15.399999999999988 -17.299516277675423 L 15.399999999999988 -17.299516277675423 Z " stroke="#191919" stroke-width="0.35 px" style="stroke-width:0.35;stroke-miterlimit:4;stroke-dasharray:none;fill:#cccccc;fill-opacity:1.0;fill-rule: evenodd"/>
<path id="MultiTransform_f0055"  d="M 15.399999999999988 -7.467517684738315 M 15.399999999999991 -7.4675176847383185 L 15.399999999999991 -7.4675176847383185 L 15.399999999999988 -7.293869507071383 M 15.399999999999988 -7.293869507071383 L 15.399999999999988 -7.293869507071383 Z " stroke="#191919" stroke-width="0.35 px" style="stroke-width:0.35;stroke-miterlimit:4;stroke-dasharray:none;fill:#cccccc;fill-opacity:1.0;fill-rule: evenodd"/>
<path id="MultiTransform_f0056"  d="M 28.09999999999999 2.5381290858657213 M 28.099999999999994 2.538129085865716 L 28.099999999999994 2.538129085865716 L 28.09999999999999 2.711777263532653 M 28.09999999999999 2.711777263532653 L 28.09999999999999 2.711777263532653 Z " stroke="#191919" stroke-width="0.35 px" style="stroke-width:0.35;stroke-miterlimit:4;stroke-dasharray:none;fill:#cccccc;fill-opacity:1.0;fill-rule: evenodd"/>
<path id="MultiTransform_f0057"  d="M 28.09999999999999 12.543775856469757 M 28.099999999999994 12.543775856469752 L 28.099999999999994 12.543775856469752 L 28.09999999999999 12.71742403413669 M 28.09999999999999 12.71742403413669 L 28.09999999999999 12.71742403413669 Z " stroke="#191919" stroke-width="0.35 px" style="stroke-width:0.35;stroke-miterlimit:4;stroke-dasharray:none;fill:#cccccc;fill-opacity:1.0;fill-rule: evenodd"/>
<path id="MultiTransform_f0058"  d="M 15.399999999999988 2.538129085865723 M 15.399999999999991 2.5381290858657195 L 15.399999999999991 2.5381290858657195 L 15.399999999999988 2.711777263532655 M 15.399999999999988 2.711777263532655 L 15.399999999999988 2.711777263532655 Z " stroke="#191919" stroke-width="0.35 px" style="stroke-width:0.35;stroke-miterlimit:4;stroke-dasharray:none;fill:#cccccc;fill-opacity:1.0;fill-rule: evenodd"/>
<path id="MultiTransform_f0059"  d="M 15.399999999999988 12.543775856469757 M 15.399999999999991 12.543775856469754 L 15.399999999999991 12.543775856469754 L 15.399999999999988 12.71742403413669 M 15.399999999999988 12.71742403413669 L 15.399999999999988 12.71742403413669 Z " stroke="#191919" stroke-width="0.35 px" style="stroke-width:0.35;stroke-miterlimit:4;stroke-dasharray:none;fill:#cccccc;fill-opacity:1.0;fill-rule: evenodd"/>
<path id="MultiTransform_f0060"  d="M 2.699999999999992 -57.495751537758494 M 2.6999999999999957 -57.49575153775851 L 2.6999999999999957 -57.49575153775851 L 2.699999999999992 -57.32210336009157 M 2.699999999999992 -57.32210336009157 L 2.699999999999992 -57.32210336009157 Z " stroke="#191919" stroke-width="0.35 px" style="stroke-width:0.35;stroke-miterlimit:4;stroke-dasharray:none;fill:#cccccc;fill-opacity:1.0;fill-rule: evenodd"/>
<path id="MultiTransform_f0061"  d="M 2.699999999999992 -47.49010476715446 M 2.6999999999999957 -47.49010476715446 L 2.6999999999999957 -47.49010476715446 L 2.699999999999992 -47.31645658948753 M 2.699999999999992 -47.31645658948753 L 2.699999999999992 -47.31645658948753 Z " stroke="#191919" stroke-width="0.35 px" style="stroke-width:0.35;stroke-miterlimit:4;stroke-dasharray:none;fill:#cccccc;fill-opacity:1.0;fill-rule: evenodd"/>
<path id="MultiTransform_f0062"  d="M 2.699999999999992 -37.48445799655042 M 2.6999999999999957 -37.48445799655043 L 2.6999999999999957 -37.48445799655043 L 2.699999999999992 -37.31080981888349 M 2.699999999999992 -37.31080981888349 L 2.699999999999992 -37.31080981888349 Z " stroke="#191919" stroke-width="0.35 px" style="stroke-width:0.35;stroke-miterlimit:4;stroke-dasharray:none;fill:#cccccc;fill-opacity:1.0;fill-rule: evenodd"/>
<path id="MultiTransform_f0063"  d="M -10.000000000000007 -57.495751537758494 M -10.000000000000005 -57.49575153775851 L -10.000000000000005 -57.49575153775851 L -10.000000000000007 -57.32210336009157 M -10.000000000000007 -57.32210336009157 L -10.000000000000007 -57.32210336009157 Z " stroke="#191919" stroke-width="0.35 px" style="stroke-width:0.35;stroke-miterlimit:4;stroke-dasharray:none;fill:#cccccc;fill-opacity:1.0;fill-rule: evenodd"/>
<path id="MultiTransform_f0064"  d="M -10.000000000000007 -47.49010476715446 M -10.000000000000005 -47.49010476715446 L -10.000000000000005 -47.49010476715446 L -10.000000000000007 -47.31645658948753 M -10.000000000000007 -47.31645658948753 L -10.000000000000007 -47.31645658948753 Z " stroke="#191919" stroke-width="0.35 px" style="stroke-width:0.35;stroke-miterlimit:4;stroke-dasharray:none;fill:#cccccc;fill-opacity:1.0;fill-rule: evenodd"/>
<path id="MultiTransform_f0065"  d="M -10.000000000000007 -37.48445799655042 M -10.000000000000005 -37.48445799655043 L -10.000000000000005 -37.48445799655043 L -10.000000000000007 -37.31080981888349 M -10.000000000000007 -37.31080981888349 L -10.000000000000007 -37.31080981888349 Z " stroke="#191919" stroke-width="0.35 px" style="stroke-width:0.35;stroke-miterlimit:4;stroke-dasharray:none;fill:#cccccc;fill-opacity:1.0;fill-rule: evenodd"/>
<path id="MultiTransform_f0066"  d="M 2.699999999999992 -27.478811225946384 M 2.6999999999999957 -27.47881122594639 L 2.6999999999999957 -27.47881122594639 L 2.699999999999992 -27.305163048279454 M 2.699999999999992 -27.305163048279454 L 2.699999999999992 -27.305163048279454 Z " stroke="#191919" stroke-width="0.35 px" style="stroke-width:0.35;stroke-miterlimit:4;stroke-dasharray:none;fill:#cccccc;fill-opacity:1.0;fill-rule: evenodd"/>
<path id="MultiTransform_f0067"  d="M 2.699999999999992 -17.47316445534235 M 2.6999999999999957 -17.473164455342353 L 2.6999999999999957 -17.473164455342353 L 2.699999999999992 -17.299516277675416 M 2.699999999999992 -17.299516277675416 L 2.699999999999992 -17.299516277675416 Z " stroke="#191919" stroke-width="0.35 px" style="stroke-width:0.35;stroke-miterlimit:4;stroke-dasharray:none;fill:#cccccc;fill-opacity:1.0;fill-rule: evenodd"/>
<path id="MultiTransform_f0068"  d="M 2.699999999999992 -7.467517684738311 M 2.6999999999999957 -7.467517684738315 L 2.6999999999999957 -7.467517684738315 L 2.699999999999992 -7.2938695070713795 M 2.699999999999992 -7.2938695070713795 L 2.699999999999992 -7.2938695070713795 Z " stroke="#191919" stroke-width="0.35 px" style="stroke-width:0.35;stroke-miterlimit:4;stroke-dasharray:none;fill:#cccccc;fill-opacity:1.0;fill-rule: evenodd"/>
<path id="MultiTransform_f0069"  d="M -10.000000000000007 -27.478811225946384 M -10.000000000000005 -27.47881122594639 L -10.000000000000005 -27.47881122594639 L -10.000000000000007 -27.305163048279454 M -10.000000000000007 -27.305163048279454 L -10.000000000000007 -27.305163048279454 Z " stroke="#191919" stroke-width="0.35 px" style="stroke-width:0.35;stroke-miterlimit:4;stroke-dasharray:none;fill:#cccccc;fill-opacity:1.0;fill-rule: evenodd"/>
<path id="MultiTransform_f0070"  d="M -10.000000000000007 -17.47316445534235 M -10.000000000000005 -17.473164455342353 L -10.000000000000005 -17.473164455342353 L -10.000000000000007 -17.299516277675416 M -10.000000000000007 -17.299516277675416 L -10.000000000000007 -17.299516277675416 Z " stroke="#191919" stroke-width="0.35 px" style="stroke-width:0.35;stroke-miterlimit:4;stroke-dasharray:none;fill:#cccccc;fill-opacity:1.0;fill-rule: evenodd"/>
<path id="MultiTransform_f0071"  d="M -10.000000000000007 -7.467517684738311 M -10.000000000000005 -7.467517684738315 L -10.000000000000005 -7.467517684738315 L -10.000000000000007 -7.2938695070713795 M -10.000000000000007 -7.2938695070713795 L -10.000000000000007 -7.2938695070713795 Z " stroke="#191919" stroke-width="0.35 px" style="stroke-width:0.35;stroke-miterlimit:4;stroke-dasharray:none;fill:#cccccc;fill-opacity:1.0;fill-rule: evenodd"/>
<path id="MultiTransform_f0072"  d="M -22.700000000000006 -57.495751537758494 M -22.700000000000003 -57.49575153775851 L -22.700000000000003 -57.49575153775851 L -22.700000000000006 -57.32210336009157 M -22.700000000000006 -57.32210336009157 L -22.700000000000006 -57.32210336009157 Z " stroke="#191919" stroke-width="0.35 px" style="stroke-width:0.35;stroke-miterlimit:4;stroke-dasharray:none;fill:#cccccc;fill-opacity:1.0;fill-rule: evenodd"/>
<path id="MultiTransform_f0073"  d="M -22.700000000000006 -47.49010476715446 M -22.700000000000003 -47.49010476715446 L -22.700000000000003 -47.49010476715446 L -22.700000000000006 -47.31645658948753 M -22.700000000000006 -47.31645658948753 L -22.700000000000006 -47.31645658948753 Z " stroke="#191919" stroke-width="0.35 px" style="stroke-width:0.35;stroke-miterlimit:4;stroke-dasharray:none;fill:#cccccc;fill-opacity:1.0;fill-rule: evenodd"/>
<path id="MultiTransform_f0074"  d="M -22.700000000000006 -37.48445799655042 M -22.700000000000003 -37.48445799655043 L -22.700000000000003 -37.48445799655043 L -22.700000000000006 -37.31080981888349 M -22.700000000000006 -37.31080981888349 L -22.700000000000006 -37.31080981888349 Z " stroke="#191919" stroke-width="0.35 px" style="stroke-width:0.35;stroke-miterlimit:4;stroke-dasharray:none;fill:#cccccc;fill-opacity:1.0;fill-rule: evenodd"/>
<path id="MultiTransform_f0075"  d="M -22.700000000000006 -27.478811225946384 M -22.700000000000003 -27.47881122594639 L -22.700000000000003 -27.47881122594639 L -22.700000000000006 -27.305163048279454 M -22.700000000000006 -27.305163048279454 L -22.700000000000006 -27.305163048279454 Z " stroke="#191919" stroke-width="0.35 px" style="stroke-width:0.35;stroke-miterlimit:4;stroke-dasharray:none;fill:#cccccc;fill-opacity:1.0;fill-rule: evenodd"/>
<path id="MultiTransform_f0076"  d="M -22.700000000000006 -17.47316445534235 M -22.700000000000003 -17.473164455342353 L -22.700000000000003 -17.473164455342353 L -22.700000000000006 -17.299516277675416 M -22.700000000000006 -17.299516277675416 L -22.700000000000006 -17.299516277675416 Z " stroke="#191919" stroke-width="0.35 px" style="stroke-width:0.35;stroke-miterlimit:4;stroke-dasharray:none;fill:#cccccc;fill-opacity:1.0;fill-rule: evenodd"/>
<path id="MultiTransform_f0077"  d="M -22.700000000000006 -7.467517684738311 M -22.700000000000003 -7.467517684738315 L -22.700000000000003 -7.467517684738315 L -22.700000000000006 -7.2938695070713795 M -22.700000000000006 -7.2938695070713795 L -22.700000000000006 -7.2938695070713795 Z " stroke="#191919" stroke-width="0.35 px" style="stroke-width:0.35;stroke-miterlimit:4;stroke-dasharray:none;fill:#cccccc;fill-opacity:1.0;fill-rule: evenodd"/>
<path id="MultiTransform_f0078"  d="M 2.699999999999992 2.538129085865723 M 2.6999999999999957 2.5381290858657195 L 2.6999999999999957 2.5381290858657195 L 2.699999999999992 2.711777263532655 M 2.699999999999992 2.711777263532655 L 2.699999999999992 2.711777263532655 Z " stroke="#191919" stroke-width="0.35 px" style="stroke-width:0.35;stroke-miterlimit:4;stroke-dasharray:none;fill:#cccccc;fill-opacity:1.0;fill-rule: evenodd"/>
<path id="MultiTransform_f0079"  d="M 2.699999999999992 12.54377585646976 M 2.6999999999999957 12.543775856469754 L 2.6999999999999957 12.543775856469754 L 2.699999999999992 12.717424034136691 M 2.699999999999992 12.717424034136691 L 2.699999999999992 12.717424034136691 Z " stroke="#191919" stroke-width="0.35 px" style="stroke-width:0.35;stroke-miterlimit:4;stroke-dasharray:none;fill:#cccccc;fill-opacity:1.0;fill-rule: evenodd"/>
<path id="MultiTransform_f0080"  d="M -10.000000000000007 2.538129085865725 M -10.000000000000005 2.5381290858657195 L -10.000000000000005 2.5381290858657195 L -10.000000000000007 2.7117772635326567 M -10.000000000000007 2.7117772635326567 L -10.000000000000007 2.7117772635326567 Z " stroke="#191919" stroke-width="0.35 px" style="stroke-width:0.35;stroke-miterlimit:4;stroke-dasharray:none;fill:#cccccc;fill-opacity:1.0;fill-rule: evenodd"/>
<path id="MultiTransform_f0081"  d="M -10.000000000000007 12.54377585646976 M -10.000000000000005 12.543775856469756 L -10.000000000000005 12.543775856469756 L -10.000000000000007 12.717424034136691 M -10.000000000000007 12.717424034136691 L -10.000000000000007 12.717424034136691 Z " stroke="#191919" stroke-width="0.35 px" style="stroke-width:0.35;stroke-miterlimit:4;stroke-dasharray:none;fill:#cccccc;fill-opacity:1.0;fill-rule: evenodd"/>
<path id="MultiTransform_f0082"  d="M 27.499999999999996 56.2853190273968 L -27.500000000000004 56.2853190273968 L -27.500000000000004 56.111670849729876 L 27.49999999999999 56.111670849729876 L 27.499999999999993 56.28531902739681 Z " stroke="#191919" stroke-width="0.35 px" style="stroke-width:0.35;stroke-miterlimit:4;stroke-dasharray:none;fill:#cccccc;fill-opacity:1.0;fill-rule: evenodd"/>
<path id="MultiTransform_f0083"  d="M -27.500000000000004 56.2853190273968 L -27.500000000000004 56.111670849729876 M -27.500000000000004 56.111670849729876 L -28.500000000000004 55.12686309671766 L -28.500000000000007 55.300511274384604 M -28.500000000000004 55.30051127438459 L -27.500000000000004 56.2853190273968 Z " stroke="#191919" stroke-width="0.35 px" style="stroke-width:0.35;stroke-miterlimit:4;stroke-dasharray:none;fill:#cccccc;fill-opacity:1.0;fill-rule: evenodd"/>
<path id="MultiTransform_f0084"  d="M 28.49999999999999 55.3005112743846 L 28.49999999999999 55.12686309671767 M 28.49999999999999 55.12686309671767 L 27.49999999999999 56.111670849729876 L 27.499999999999993 56.28531902739681 M 27.49999999999999 56.2853190273968 L 28.49999999999999 55.3005112743846 Z " stroke="#191919" stroke-width="0.35 px" style="stroke-width:0.35;stroke-miterlimit:4;stroke-dasharray:none;fill:#cccccc;fill-opacity:1.0;fill-rule: evenodd"/>
<path id="MultiTransform_f0085"  d="M -28.500000000000004 55.3005112743846 L -28.500000000000004 28.218298066548872 L -28.500000000000004 28.044649888881942 L -28.500000000000004 55.12686309671767 L -28.500000000000007 55.300511274384604 Z " stroke="#191919" stroke-width="0.35 px" style="stroke-width:0.35;stroke-miterlimit:4;stroke-dasharray:none;fill:#cccccc;fill-opacity:1.0;fill-rule: evenodd"/>
<path id="MultiTransform_f0086"  d="M 28.49999999999999 28.218298066548872 L 28.49999999999999 55.3005112743846 L 28.49999999999999 55.12686309671767 L 28.49999999999999 28.044649888881942 L 28.499999999999993 28.218298066548872 Z " stroke="#191919" stroke-width="0.35 px" style="stroke-width:0.35;stroke-miterlimit:4;stroke-dasharray:none;fill:#cccccc;fill-opacity:1.0;fill-rule: evenodd"/>
<path id="MultiTransform_f0087"  d="M -28.500000000000004 28.218298066548872 L -28.500000000000004 28.044649888881942 M -28.500000000000004 28.044649888881942 L -27.500000000000004 27.059842135869733 L -27.500000000000007 27.23349031353667 M -27.500000000000004 27.233490313536663 L -28.500000000000004 28.218298066548872 Z " stroke="#191919" stroke-width="0.35 px" style="stroke-width:0.35;stroke-miterlimit:4;stroke-dasharray:none;fill:#cccccc;fill-opacity:1.0;fill-rule: evenodd"/>
<path id="MultiTransform_f0088"  d="M 27.49999999999999 27.233490313536663 L 27.49999999999999 27.059842135869733 M 27.49999999999999 27.059842135869733 L 28.49999999999999 28.044649888881942 L 28.499999999999993 28.218298066548872 M 28.49999999999999 28.218298066548872 L 27.49999999999999 27.233490313536663 Z " stroke="#191919" stroke-width="0.35 px" style="stroke-width:0.35;stroke-miterlimit:4;stroke-dasharray:none;fill:#cccccc;fill-opacity:1.0;fill-rule: evenodd"/>
<path id="MultiTransform_f0089"  d="M -27.50000000000001 27.233490313536663 L 27.49999999999999 27.233490313536663 L 27.49999999999999 27.059842135869733 L -27.500000000000004 27.059842135869733 L -27.500000000000007 27.23349031353667 Z " stroke="#191919" stroke-width="0.35 px" style="stroke-width:0.35;stroke-miterlimit:4;stroke-dasharray:none;fill:#cccccc;fill-opacity:1.0;fill-rule: evenodd"/>
<path id="MultiTransform_f0090"  d="M -22.700000000000006 2.538129085865725 M -22.700000000000003 2.5381290858657195 L -22.700000000000003 2.5381290858657195 L -22.700000000000006 2.7117772635326567 M -22.700000000000006 2.7117772635326567 L -22.700000000000006 2.7117772635326567 Z " stroke="#191919" stroke-width="0.35 px" style="stroke-width:0.35;stroke-miterlimit:4;stroke-dasharray:none;fill:#cccccc;fill-opacity:1.0;fill-rule: evenodd"/>
<path id="MultiTransform_f0091"  d="M -22.700000000000003 12.543775856469757 M -22.700000000000003 12.543775856469757 L -22.700000000000003 12.543775856469757 L -22.700000000000006 12.717424034136693 M -22.700000000000006 12.717424034136693 L -22.700000000000006 12.717424034136693 Z " stroke="#191919" stroke-width="0.35 px" style="stroke-width:0.35;stroke-miterlimit:4;stroke-dasharray:none;fill:#cccccc;fill-opacity:1.0;fill-rule: evenodd"/>
<path id="MultiTransform_f0092"  d="M 29.20999999999999 -59.84572014804201 M 29.20999999999999 -59.84572014804201 L 26.20999999999999 -62.800143407078636 L 26.20999999999999 -65.41480799132607 L 31.99999999999997 -65.41480799132609 L 31.99999999999997 -59.84572014804201 L 29.20999999999999 -59.84572014804201 Z M 30.30999999999999 -62.800143407078636 M 30.30999999999999 -62.800143407078636 L 30.30999999999999 -62.800143407078636 Z " stroke="#191919" stroke-width="0.35 px" style="stroke-width:0.35;stroke-miterlimit:4;stroke-dasharray:none;fill:#cccccc;fill-opacity:1.0;fill-rule: evenodd"/>
<path id="MultiTransform_f0093"  d="M -28.110000000000003 21.62250121989291 M -28.110000000000003 21.62250121989291 L -28.110000000000003 21.62250121989291 L -28.11 24.502244144803033 A 1.1169692730743195 1.1 -2.842170943040401e-14 0 0 -29.21 25.61921341787735 A 1.1169692730743195 1.1 -2.842170943040401e-14 0 0 -28.11 24.502244144803033 Z " stroke="#191919" stroke-width="0.35 px" style="stroke-width:0.35;stroke-miterlimit:4;stroke-dasharray:none;fill:#cccccc;fill-opacity:1.0;fill-rule: evenodd"/>
<path id="MultiTransform_f0094"  d="M -28.110000000000003 -62.800143407078636 M -28.110000000000003 -62.800143407078636 L -28.110000000000003 -62.800143407078636 L -28.110000000000007 -62.54520215910247 A 1.1169692730743195 1.1 -2.842170943040401e-14 0 0 -29.210000000000008 -61.428232886028155 A 1.1169692730743195 1.1 -2.842170943040401e-14 0 0 -28.110000000000007 -62.54520215910247 Z " stroke="#191919" stroke-width="0.35 px" style="stroke-width:0.35;stroke-miterlimit:4;stroke-dasharray:none;fill:#cccccc;fill-opacity:1.0;fill-rule: evenodd"/>
<path id="MultiTransform_f0095"  d="M 34.00000000000001 61.539770177764765 L 33.99999999999998 -68.94725709635289 L 33.99999999999998 -66.91935907601372 L 34.000000000000014 35.44203653065481 L 34.00000000000002 63.47676359867464 L 34.00000000000001 61.539770177764765 Z " stroke="#191919" stroke-width="0.35 px" style="stroke-width:0.35;stroke-miterlimit:4;stroke-dasharray:none;fill:#cccccc;fill-opacity:1.0;fill-rule: evenodd"/>
<path id="MultiTransform_f0096"  d="M -31.999999999999986 60.554962424752766 L -31.999999999999986 60.81543469125316 L 31.999999999999687 60.81543469125316 L 31.99999999999969 60.554962424752595 L -31.999999999999986 60.55496242475258 Z " stroke="#191919" stroke-width="0.35 px" style="stroke-width:0.35;stroke-miterlimit:4;stroke-dasharray:none;fill:#cccccc;fill-opacity:1.0;fill-rule: evenodd"/>
<path id="MultiTransform_f0097"  d="M 31.999999999999684 60.55496242475258 M 31.999999999999684 60.55496242475258 L 32.99999999999968 59.570154671740376 L 32.99999999999969 59.83062693824123 M 32.99999999999969 59.83062693824077 L 31.999999999999684 60.815434691252975 L 31.99999999999969 60.554962424752595 Z " stroke="#191919" stroke-width="0.35 px" style="stroke-width:0.35;stroke-miterlimit:4;stroke-dasharray:none;fill:#cccccc;fill-opacity:1.0;fill-rule: evenodd"/>
<path id="MultiTransform_f0098"  d="M 32.99999999999969 59.57015467174084 L 32.99999999999969 59.83062693824123 L 32.99999999999997 -66.71716932382826 L 32.99999999999969 -66.97764159032846 L 32.99999999999968 59.570154671740376 Z " stroke="#191919" stroke-width="0.35 px" style="stroke-width:0.35;stroke-miterlimit:4;stroke-dasharray:none;fill:#cccccc;fill-opacity:1.0;fill-rule: evenodd"/>
<path id="MultiTransform_f0099"  d="M 32.99999999999968 -66.97764159032846 M 32.99999999999968 -66.97764159032846 L 31.99999999999968 -67.96244934334067 L 31.99999999999968 -67.70197707684045 M 31.99999999999968 -67.70197707684027 L 32.99999999999968 -66.71716932382806 L 32.99999999999969 -66.97764159032846 Z " stroke="#191919" stroke-width="0.35 px" style="stroke-width:0.35;stroke-miterlimit:4;stroke-dasharray:none;fill:#cccccc;fill-opacity:1.0;fill-rule: evenodd"/>
<path id="MultiTransform_f0100"  d="M 31.99999999999968 -67.96244934334085 L 31.99999999999968 -67.70197707684045 L -31.999999999999986 -67.70197707684083 L -31.99999999999999 -67.96244934334067 L 31.99999999999968 -67.96244934334067 Z " stroke="#191919" stroke-width="0.35 px" style="stroke-width:0.35;stroke-miterlimit:4;stroke-dasharray:none;fill:#cccccc;fill-opacity:1.0;fill-rule: evenodd"/>
<path id="MultiTransform_f0101"  d="M -31.999999999999986 -67.96244934334065 M -31.999999999999986 -67.96244934334065 L -32.999999999999986 -66.97764159032845 L -32.99999999999969 -66.71716932382805 M -32.99999999999998 -66.71716932382805 L -31.999999999999986 -67.70197707684025 L -31.99999999999999 -67.96244934334067 Z " stroke="#191919" stroke-width="0.35 px" style="stroke-width:0.35;stroke-miterlimit:4;stroke-dasharray:none;fill:#cccccc;fill-opacity:1.0;fill-rule: evenodd"/>
<path id="MultiTransform_f0102"  d="M -32.99999999999969 -66.97764159032845 L -32.99999999999969 -66.71716932382805 L -32.99999999999998 59.830626938240755 L -32.999999999999986 59.57015467174037 L -32.99999999999998 -66.97764159032845 Z " stroke="#191919" stroke-width="0.35 px" style="stroke-width:0.35;stroke-miterlimit:4;stroke-dasharray:none;fill:#cccccc;fill-opacity:1.0;fill-rule: evenodd"/>
<path id="MultiTransform_f0103"  d="M -32.999999999999986 59.570154671740355 M -32.999999999999986 59.570154671740355 L -31.999999999999986 60.55496242475257 L -31.999999999999986 60.81543469125316 M -31.999999999999986 60.81543469125296 L -32.99999999999998 59.830626938240755 L -32.999999999999986 59.57015467174037 Z " stroke="#191919" stroke-width="0.35 px" style="stroke-width:0.35;stroke-miterlimit:4;stroke-dasharray:none;fill:#cccccc;fill-opacity:1.0;fill-rule: evenodd"/>
<path id="MultiTransform_f0104"  d="M -28.110000000000007 58.958151071891606 M -28.110000000000007 58.958151071891606 L -28.110000000000007 58.958151071891606 Z " stroke="#191919" stroke-width="0.35 px" style="stroke-width:0.35;stroke-miterlimit:4;stroke-dasharray:none;fill:#cccccc;fill-opacity:1.0;fill-rule: evenodd"/>
<path id="MultiTransform_f0105"  d="M 29.20999999999999 24.576924478929538 M 29.209999999999994 24.576924478929538 L 29.20999999999999 18.668077960856287 L 31.99999999999999 18.668077960856287 L 31.99999999999999 24.576924478929538 L 29.20999999999999 24.576924478929538 Z M 30.30999999999999 21.62250121989291 M 30.30999999999999 21.62250121989291 L 30.30999999999999 21.62250121989291 Z " stroke="#191919" stroke-width="0.35 px" style="stroke-width:0.35;stroke-miterlimit:4;stroke-dasharray:none;fill:#cccccc;fill-opacity:1.0;fill-rule: evenodd"/>
<path id="MultiTransform_f0106"  d="M 30.30999999999999 58.51832368649529 M 30.30999999999999 58.51832368649529 L 30.30999999999999 58.51832368649529 L 30.309999999999995 58.9581510718916 M 30.309999999999995 58.9581510718916 L 30.309999999999995 58.9581510718916 Z " stroke="#191919" stroke-width="0.35 px" style="stroke-width:0.35;stroke-miterlimit:4;stroke-dasharray:none;fill:#cccccc;fill-opacity:1.0;fill-rule: evenodd"/>
<path id="MultiTransform_f0107"  d="M -31.999999999999982 60.54330573828481 M -31.999999999999986 60.54330573828481 L -32.89999999999998 59.65697876057383 L -32.89999999999998 -66.89081750149498 M -32.89999999999998 -66.89081750149498 L -31.999999999999986 -67.77714447920596 L 31.999999898833895 -67.77714447920596 M 31.999999898833895 -67.77714447920596 L 32.89999999999967 -66.89081748458183 L 32.89999999999967 59.65697876057386 M 32.89999999999967 59.65697876057386 L 31.999999999999684 60.54330573828482 L -31.999999999999982 60.54330573828481 Z M 28.09999999999999 -57.495751537758494 M 28.099999999999994 -57.49575153775851 L 28.099999999999994 -57.49575153775851 Z M 28.09999999999999 -47.49010476715446 M 28.099999999999994 -47.49010476715446 L 28.099999999999994 -47.49010476715446 Z M 28.09999999999999 -37.48445799655042 M 28.099999999999994 -37.48445799655043 L 28.099999999999994 -37.48445799655043 Z M 28.09999999999999 -27.478811225946384 M 28.099999999999994 -27.47881122594639 L 28.099999999999994 -27.47881122594639 Z M 28.09999999999999 -17.473164455342353 M 28.099999999999994 -17.47316445534236 L 28.099999999999994 -17.47316445534236 Z M 28.09999999999999 -7.467517684738315 M 28.099999999999994 -7.4675176847383185 L 28.099999999999994 -7.4675176847383185 Z M 15.399999999999988 -57.495751537758494 M 15.399999999999991 -57.49575153775851 L 15.399999999999991 -57.49575153775851 Z M 15.399999999999988 -47.49010476715446 M 15.399999999999991 -47.49010476715446 L 15.399999999999991 -47.49010476715446 Z M 15.399999999999988 -37.48445799655042 M 15.399999999999991 -37.48445799655043 L 15.399999999999991 -37.48445799655043 Z M 15.399999999999988 -27.478811225946384 M 15.399999999999991 -27.47881122594639 L 15.399999999999991 -27.47881122594639 Z M 15.399999999999988 -17.473164455342353 M 15.399999999999991 -17.47316445534236 L 15.399999999999991 -17.47316445534236 Z M 15.399999999999988 -7.467517684738315 M 15.399999999999991 -7.4675176847383185 L 15.399999999999991 -7.4675176847383185 Z M 28.09999999999999 2.5381290858657213 M 28.099999999999994 2.538129085865716 L 28.099999999999994 2.538129085865716 Z M 28.09999999999999 12.543775856469757 M 28.099999999999994 12.543775856469752 L 28.099999999999994 12.543775856469752 Z M 15.399999999999988 2.538129085865723 M 15.399999999999991 2.5381290858657195 L 15.399999999999991 2.5381290858657195 Z M 15.399999999999988 12.543775856469757 M 15.399999999999991 12.543775856469754 L 15.399999999999991 12.543775856469754 Z M 2.699999999999992 -57.495751537758494 M 2.6999999999999957 -57.49575153775851 L 2.6999999999999957 -57.49575153775851 Z M 2.699999999999992 -47.49010476715446 M 2.6999999999999957 -47.49010476715446 L 2.6999999999999957 -47.49010476715446 Z M 2.699999999999992 -37.48445799655042 M 2.6999999999999957 -37.48445799655043 L 2.6999999999999957 -37.48445799655043 Z M -10.000000000000007 -57.495751537758494 M -10.000000000000005 -57.49575153775851 L -10.000000000000005 -57.49575153775851 Z M -10.000000000000007 -47.49010476715446 M -10.000000000000005 -47.49010476715446 L -10.000000000000005 -47.49010476715446 Z M -10.000000000000007 -37.48445799655042 M -10.000000000000005 -37.48445799655043 L -10.000000000000005 -37.48445799655043 Z M 2.699999999999992 -27.478811225946384 M 2.6999999999999957 -27.47881122594639 L 2.6999999999999957 -27.47881122594639 Z M 2.699999999999992 -17.47316445534235 M 2.6999999999999957 -17.473164455342353 L 2.6999999999999957 -17.473164455342353 Z M 2.699999999999992 -7.467517684738311 M 2.6999999999999957 -7.467517684738315 L 2.6999999999999957 -7.467517684738315 Z M -10.000000000000007 -27.478811225946384 M -10.000000000000005 -27.47881122594639 L -10.000000000000005 -27.47881122594639 Z M -10.000000000000007 -17.47316445534235 M -10.000000000000005 -17.473164455342353 L -10.000000000000005 -17.473164455342353 Z M -10.000000000000007 -7.467517684738311 M -10.000000000000005 -7.467517684738315 L -10.000000000000005 -7.467517684738315 Z M -22.700000000000006 -57.495751537758494 M -22.700000000000003 -57.49575153775851 L -22.700000000000003 -57.49575153775851 Z M -22.700000000000006 -47.49010476715446 M -22.700000000000003 -47.49010476715446 L -22.700000000000003 -47.49010476715446 Z M -22.700000000000006 -37.48445799655042 M -22.700000000000003 -37.48445799655043 L -22.700000000000003 -37.48445799655043 Z M -22.700000000000006 -27.478811225946384 M -22.700000000000003 -27.47881122594639 L -22.700000000000003 -27.47881122594639 Z M -22.700000000000006 -17.47316445534235 M -22.700000000000003 -17.473164455342353 L -22.700000000000003 -17.473164455342353 Z M -22.700000000000006 -7.467517684738311 M -22.700000000000003 -7.467517684738315 L -22.700000000000003 -7.467517684738315 Z M 2.699999999999992 2.538129085865723 M 2.6999999999999957 2.5381290858657195 L 2.6999999999999957 2.5381290858657195 Z M 2.699999999999992 12.54377585646976 M 2.6999999999999957 12.543775856469754 L 2.6999999999999957 12.543775856469754 Z M -10.000000000000007 2.538129085865725 M -10.000000000000005 2.5381290858657195 L -10.000000000000005 2.5381290858657195 Z M -10.000000000000007 12.54377585646976 M -10.000000000000005 12.543775856469756 L -10.000000000000005 12.543775856469756 Z M -28.500000000000004 55.12686309671767 M -28.500000000000004 55.12686309671767 L -27.500000000000004 56.111670849729876 L 27.49999999999999 56.111670849729876 M 27.49999999999999 56.111670849729876 L 28.49999999999999 55.12686309671767 L 28.49999999999999 28.044649888881942 M 28.49999999999999 28.044649888881942 L 27.49999999999999 27.059842135869733 L -27.500000000000004 27.059842135869733 M -27.500000000000004 27.059842135869733 L -28.500000000000004 28.044649888881942 L -28.500000000000004 55.12686309671767 Z M -22.700000000000006 2.538129085865725 M -22.700000000000003 2.5381290858657195 L -22.700000000000003 2.5381290858657195 Z M -22.700000000000003 12.543775856469757 M -22.700000000000003 12.543775856469757 L -22.700000000000003 12.543775856469757 Z " stroke="#191919" stroke-width="0.35 px" style="stroke-width:0.35;stroke-miterlimit:4;stroke-dasharray:none;fill:#cccccc;fill-opacity:1.0;fill-rule: evenodd"/>
<path id="MultiTransform_f0108"  d="M 30.30999999999999 -62.800143407078636 M 30.30999999999999 -62.800143407078636 L 30.30999999999999 -62.800143407078636 L 30.309999999999995 -62.54520215910247 A 1.1169692730743195 1.1 -2.842170943040401e-14 0 0 29.209999999999994 -61.428232886028155 A 1.1169692730743195 1.1 -2.842170943040401e-14 0 0 30.309999999999995 -62.54520215910247 Z " stroke="#191919" stroke-width="0.35 px" style="stroke-width:0.35;stroke-miterlimit:4;stroke-dasharray:none;fill:#cccccc;fill-opacity:1.0;fill-rule: evenodd"/>
<path id="MultiTransform_f0109"  d="M -28.11 24.502244144803033 A 1.1169692730743195 1.1 -2.842170943040401e-14 0 0 -29.21 25.61921341787735 A 1.1169692730743195 1.1 -2.842170943040401e-14 0 0 -28.11 24.502244144803033 Z " stroke="#191919" stroke-width="0.35 px" style="stroke-width:0.35;stroke-miterlimit:4;stroke-dasharray:none;fill:#cccccc;fill-opacity:1.0;fill-rule: evenodd"/>
<path id="MultiTransform_f0110"  d="M -28.110000000000007 -62.54520215910247 A 1.1169692730743195 1.1 -2.842170943040401e-14 0 0 -29.210000000000008 -61.428232886028155 A 1.1169692730743195 1.1 -2.842170943040401e-14 0 0 -28.110000000000007 -62.54520215910247 Z " stroke="#191919" stroke-width="0.35 px" style="stroke-width:0.35;stroke-miterlimit:4;stroke-dasharray:none;fill:#cccccc;fill-opacity:1.0;fill-rule: evenodd"/>
<path id="MultiTransform_f0111"  d="M -32.99999999999969 -66.71716932382805 L -32.99999999999998 59.830626938240755 M -32.999999999999986 59.83062693824075 L -31.999999999999986 60.81543469125296 L 31.999999999999687 60.81543469125316 M 31.999999999999684 60.815434691252975 L 32.99999999999968 59.83062693824077 L 32.99999999999997 -66.71716932382826 M 32.99999999999968 -66.71716932382806 L 31.99999999999968 -67.70197707684027 L -31.999999999999986 -67.70197707684083 M -31.999999999999986 -67.70197707684025 L -32.999999999999986 -66.71716932382805 Z M -32.89999999999998 59.830626938240755 M -32.89999999999998 59.830626938240755 L -31.999999999999982 60.716953915951734 L 31.999999999999684 60.71695391595176 M 31.999999999999684 60.71695391595176 L 32.89999999999967 59.83062693824078 L 32.89999999999967 -66.7171693069149 M 32.89999999999967 -66.7171693069149 L 31.999999898833895 -67.60349630153902 L -31.999999999999986 -67.60349630153902 M -31.999999999999986 -67.60349630153902 L -32.899999999999984 -66.71716932382805 L -32.89999999999998 59.830626938240755 Z " stroke="#191919" stroke-width="0.35 px" style="stroke-width:0.35;stroke-miterlimit:4;stroke-dasharray:none;fill:#cccccc;fill-opacity:1.0;fill-rule: evenodd"/>
<path id="MultiTransform_f0112"  d="M 30.30999999999999 21.62250121989291 M 30.30999999999999 21.62250121989291 L 30.30999999999999 21.62250121989291 L 30.310000000000002 24.502244144803026 A 1.1169692730743195 1.1 -2.842170943040401e-14 0 0 29.21 25.619213417877344 A 1.1169692730743195 1.1 -2.842170943040401e-14 0 0 30.310000000000002 24.502244144803026 Z " stroke="#191919" stroke-width="0.35 px" style="stroke-width:0.35;stroke-miterlimit:4;stroke-dasharray:none;fill:#cccccc;fill-opacity:1.0;fill-rule: evenodd"/>
<path id="MultiTransform_f0113"  d="M 30.309999999999995 58.9581510718916 M 30.309999999999995 58.9581510718916 L 30.309999999999995 58.9581510718916 Z " stroke="#191919" stroke-width="0.35 px" style="stroke-width:0.35;stroke-miterlimit:4;stroke-dasharray:none;fill:#cccccc;fill-opacity:1.0;fill-rule: evenodd"/>
<path id="MultiTransform_f0114"  d="M -32.89999999999998 59.830626938240755 M -32.89999999999998 59.830626938240755 L -31.999999999999986 60.716953915951734 L -31.999999999999982 60.54330573828481 M -31.999999999999986 60.54330573828481 L -32.89999999999998 59.65697876057383 L -32.899999999999984 59.83062693824076 Z " stroke="#191919" stroke-width="0.35 px" style="stroke-width:0.35;stroke-miterlimit:4;stroke-dasharray:none;fill:#cccccc;fill-opacity:1.0;fill-rule: evenodd"/>
<path id="MultiTransform_f0115"  d="M -31.99999999999999 60.71695391595172 L 31.999999999999684 60.71695391595176 L 31.999999999999684 60.543305738284836 L -31.999999999999982 60.54330573828481 L -31.999999999999986 60.71695391595175 Z " stroke="#191919" stroke-width="0.35 px" style="stroke-width:0.35;stroke-miterlimit:4;stroke-dasharray:none;fill:#cccccc;fill-opacity:1.0;fill-rule: evenodd"/>
<path id="MultiTransform_f0116"  d="M -32.89999999999998 -66.71716932382806 L -32.89999999999998 59.830626938240755 L -32.89999999999998 59.65697876057383 L -32.89999999999998 -66.89081750149498 L -32.899999999999984 -66.71716932382805 Z " stroke="#191919" stroke-width="0.35 px" style="stroke-width:0.35;stroke-miterlimit:4;stroke-dasharray:none;fill:#cccccc;fill-opacity:1.0;fill-rule: evenodd"/>
<path id="MultiTransform_f0117"  d="M 31.999999999999684 60.71695391595176 M 31.999999999999684 60.71695391595176 L 32.89999999999968 59.83062693824079 L 32.89999999999967 59.65697876057386 M 32.89999999999967 59.65697876057386 L 31.999999999999684 60.54330573828482 L 31.999999999999687 60.71695391595178 Z " stroke="#191919" stroke-width="0.35 px" style="stroke-width:0.35;stroke-miterlimit:4;stroke-dasharray:none;fill:#cccccc;fill-opacity:1.0;fill-rule: evenodd"/>
<path id="MultiTransform_f0118"  d="M -31.999999999999986 -67.60349630153902 M -31.999999999999986 -67.60349630153902 L -32.89999999999998 -66.71716932382805 L -32.89999999999998 -66.89081750149498 M -32.89999999999998 -66.89081750149498 L -31.999999999999986 -67.77714447920596 L -31.99999999999999 -67.60349630153904 Z " stroke="#191919" stroke-width="0.35 px" style="stroke-width:0.35;stroke-miterlimit:4;stroke-dasharray:none;fill:#cccccc;fill-opacity:1.0;fill-rule: evenodd"/>
<path id="MultiTransform_f0119"  d="M 32.89999999999967 59.83062693824078 L 32.89999999999967 -66.7171693069149 L 32.89999999999967 -66.89081748458183 L 32.89999999999967 59.65697876057386 L 32.89999999999968 59.83062693824079 Z " stroke="#191919" stroke-width="0.35 px" style="stroke-width:0.35;stroke-miterlimit:4;stroke-dasharray:none;fill:#cccccc;fill-opacity:1.0;fill-rule: evenodd"/>
<path id="MultiTransform_f0120"  d="M 31.999999898833906 -67.60349630153904 L -31.999999999999986 -67.60349630153902 L -31.999999999999986 -67.77714447920596 L 31.999999898833895 -67.77714447920596 L 31.9999998988339 -67.60349630153904 Z " stroke="#191919" stroke-width="0.35 px" style="stroke-width:0.35;stroke-miterlimit:4;stroke-dasharray:none;fill:#cccccc;fill-opacity:1.0;fill-rule: evenodd"/>
<path id="MultiTransform_f0121"  d="M 32.89999999999967 -66.7171693069149 M 32.89999999999967 -66.7171693069149 L 31.999999898833895 -67.60349630153904 L 31.999999898833895 -67.77714447920596 M 31.999999898833895 -67.77714447920596 L 32.89999999999967 -66.89081748458183 L 32.89999999999968 -66.7171693069149 Z " stroke="#191919" stroke-width="0.35 px" style="stroke-width:0.35;stroke-miterlimit:4;stroke-dasharray:none;fill:#cccccc;fill-opacity:1.0;fill-rule: evenodd"/>
<path id="MultiTransform_f0122"  d="M 30.309999999999995 -62.54520215910247 A 1.1169692730743195 1.1 -2.842170943040401e-14 0 0 29.209999999999994 -61.428232886028155 A 1.1169692730743195 1.1 -2.842170943040401e-14 0 0 30.309999999999995 -62.54520215910247 Z " stroke="#191919" stroke-width="0.35 px" style="stroke-width:0.35;stroke-miterlimit:4;stroke-dasharray:none;fill:#cccccc;fill-opacity:1.0;fill-rule: evenodd"/>
<path id="MultiTransform_f0123"  d="M 30.310000000000002 24.502244144803026 A 1.1169692730743195 1.1 -2.842170943040401e-14 0 0 29.21 25.619213417877344 A 1.1169692730743195 1.1 -2.842170943040401e-14 0 0 30.310000000000002 24.502244144803026 Z " stroke="#191919" stroke-width="0.35 px" style="stroke-width:0.35;stroke-miterlimit:4;stroke-dasharray:none;fill:#cccccc;fill-opacity:1.0;fill-rule: evenodd"/>
<title>b'ArrayOfButtonHoles'</title>
</g>
</svg>