<?xml version="1.0"?>
<!DOCTYPE svg PUBLIC "-//W3C//DTD SVG 1.1//EN" "http://www.w3.org/Graphics/SVG/1.1/DTD/svg11.dtd">
<svg width="75.1332mm" height="129.1082mm" viewBox="0 0 75.1332 129.1082" xmlns="http://www.w3.org/2000/svg" version="1.1">
<g id="Sketch003" transform="translate(0.736600,0.736600) scale(1,-1)">
<path id="Sketch003_w0000"  d="M 73.66 -1.2699999999999996 L 73.66000000000001 -126.365 A 1.27 1.27 0 0 0 72.39 -127.635L 1.269999999994155 -127.63499999999712 A 1.27 1.27 0 0 0 2.87792e-12 -126.365L 0.0 -1.269999999999996 A 1.27 1.27 0 0 0 1.27 7.10543e-15L 72.39 7.888609052210118e-31 A 1.27 1.27 0 0 0 73.66 -1.27" stroke="#000000" stroke-width="0.35 px" style="stroke-width:0.35;stroke-miterlimit:4;stroke-dasharray:none;fill:none;fill-opacity:1;fill-rule: evenodd"/>
<circle cx="71.12" cy="-40.64" r="1.25" stroke="#000000" stroke-width="0.35 px" style="stroke-width:0.35;stroke-miterlimit:4;stroke-dasharray:none;fill:none"/>
<circle cx="2.54" cy="-40.64" r="1.25" stroke="#000000" stroke-width="0.35 px" style="stroke-width:0.35;stroke-miterlimit:4;stroke-dasharray:none;fill:none"/>
<circle cx="2.54" cy="-2.54" r="1.25" stroke="#000000" stroke-width="0.35 px" style="stroke-width:0.35;stroke-miterlimit:4;stroke-dasharray:none;fill:none"/>
<circle cx="71.12" cy="-2.54" r="1.25" stroke="#000000" stroke-width="0.35 px" style="stroke-width:0.35;stroke-miterlimit:4;stroke-dasharray:none;fill:none"/>
<circle cx="71.12" cy="-125.095" r="1.25" stroke="#000000" stroke-width="0.35 px" style="stroke-width:0.35;stroke-miterlimit:4;stroke-dasharray:none;fill:none"/>
<circle cx="2.54" cy="-125.095" r="1.25" stroke="#000000" stroke-width="0.35 px" style="stroke-width:0.35;stroke-miterlimit:4;stroke-dasharray:none;fill:none"/>
<path id="Sketch003_w0007"  d="M 5.0 -123.63500000000002 L 68.66000000000003 -123.63500000000002 L 68.66000000000003 -43.0 L 5.0 -43.0 L 5.0 -123.63500000000002 " stroke="#000000" stroke-width="0.35 px" style="stroke-width:0.35;stroke-miterlimit:4;stroke-dasharray:none;fill:none;fill-opacity:1;fill-rule: evenodd"/>
<title>b'Sketch003'</title>
</g>
</svg>