<?xml version="1.0"?>
<!DOCTYPE svg PUBLIC "-//W3C//DTD SVG 1.1//EN" "http://www.w3.org/Graphics/SVG/1.1/DTD/svg11.dtd">
<svg width="75.1332mm" height="129.1082mm" viewBox="0 0 75.1332 129.1082" xmlns="http://www.w3.org/2000/svg" version="1.1">
<g id="Pad" transform="translate(0.736600,0.736600) scale(1,-1)">
<path id="Pad_f0000"  d="M 1.2699999999941545 -127.63499999999712 A 1.27 1.27 0 0 0 2.87792e-12 -126.365L 2.8779201244333308e-12 -126.36500000000584 A 1.27 1.27 0 0 1 1.27 -127.635L 1.269999999994154 -127.63499999999712 Z " stroke="#191919" stroke-width="0.35 px" style="stroke-width:0.35;stroke-miterlimit:4;stroke-dasharray:none;fill:#cccccc;fill-opacity:1.0;fill-rule: evenodd"/>
<path id="Pad_f0001"  d="M 72.39 -127.635 L 1.269999999994154 -127.63499999999712 L 1.269999999994154 -127.63499999999712 L 72.39 -127.635 L 72.39 -127.635 Z " stroke="#191919" stroke-width="0.35 px" style="stroke-width:0.35;stroke-miterlimit:4;stroke-dasharray:none;fill:#cccccc;fill-opacity:1.0;fill-rule: evenodd"/>
<path id="Pad_f0002"  d="M 73.66000000000001 -126.365 A 1.27 1.27 0 0 0 72.39 -127.635L 72.39 -127.635 A 1.27 1.27 0 0 1 73.66 -126.365L 73.66000000000001 -126.365 Z " stroke="#191919" stroke-width="0.35 px" style="stroke-width:0.35;stroke-miterlimit:4;stroke-dasharray:none;fill:#cccccc;fill-opacity:1.0;fill-rule: evenodd"/>
<path id="Pad_f0003"  d="M 73.66 -1.2700000000000002 L 73.66 -1.2700000000000002 L 73.66000000000001 -126.365 L 73.66000000000001 -126.365 L 73.66 -1.2700000000000002 Z " stroke="#191919" stroke-width="0.35 px" style="stroke-width:0.35;stroke-miterlimit:4;stroke-dasharray:none;fill:#cccccc;fill-opacity:1.0;fill-rule: evenodd"/>
<path id="Pad_f0004"  d="M 72.39 0.0 A 1.27 1.27 0 0 0 73.66 -1.27L 73.66 -1.2700000000000002 A 1.27 1.27 0 0 1 72.39 0L 72.39 7.888609052210118e-31 Z " stroke="#191919" stroke-width="0.35 px" style="stroke-width:0.35;stroke-miterlimit:4;stroke-dasharray:none;fill:#cccccc;fill-opacity:1.0;fill-rule: evenodd"/>
<path id="Pad_f0005"  d="M 1.2699999999999998 7.105427357601002e-15 L 1.2699999999999998 7.105427357601002e-15 L 72.39 7.888609052210118e-31 L 72.39 7.888609052210118e-31 L 1.2699999999999998 7.105427357601002e-15 Z " stroke="#191919" stroke-width="0.35 px" style="stroke-width:0.35;stroke-miterlimit:4;stroke-dasharray:none;fill:#cccccc;fill-opacity:1.0;fill-rule: evenodd"/>
<path id="Pad_f0006"  d="M 0.0 -1.27 A 1.27 1.27 0 0 0 1.27 7.10543e-15L 1.2699999999999998 7.105427357601002e-15 A 1.27 1.27 0 0 1 0 -1.27L 0.0 -1.2699999999999978 Z " stroke="#191919" stroke-width="0.35 px" style="stroke-width:0.35;stroke-miterlimit:4;stroke-dasharray:none;fill:#cccccc;fill-opacity:1.0;fill-rule: evenodd"/>
<path id="Pad_f0007"  d="M 2.8779201244333308e-12 -126.36500000000584 L 2.8779201244333308e-12 -126.36500000000584 L 0.0 -1.2699999999999978 L 0.0 -1.2699999999999978 L 2.8779201244333308e-12 -126.36500000000584 Z " stroke="#191919" stroke-width="0.35 px" style="stroke-width:0.35;stroke-miterlimit:4;stroke-dasharray:none;fill:#cccccc;fill-opacity:1.0;fill-rule: evenodd"/>
<path id="Pad_f0008"  d="M 68.66000000000001 -4.999999999999986 L 5.0 -4.999999999999986 L 5.0 -4.999999999999986 L 68.66000000000001 -4.999999999999986 L 68.66000000000001 -4.999999999999986 Z " stroke="#191919" stroke-width="0.35 px" style="stroke-width:0.35;stroke-miterlimit:4;stroke-dasharray:none;fill:#cccccc;fill-opacity:1.0;fill-rule: evenodd"/>
<path id="Pad_f0009"  d="M 68.66000000000001 -123.63500000000002 L 68.66000000000001 -4.999999999999986 L 68.66000000000001 -4.999999999999986 L 68.66000000000001 -123.63500000000002 L 68.66000000000001 -123.63500000000002 Z " stroke="#191919" stroke-width="0.35 px" style="stroke-width:0.35;stroke-miterlimit:4;stroke-dasharray:none;fill:#cccccc;fill-opacity:1.0;fill-rule: evenodd"/>
<path id="Pad_f0010"  d="M 5.0 -123.63500000000002 L 68.66000000000001 -123.63500000000002 L 68.66000000000001 -123.63500000000002 L 5.0 -123.63500000000002 L 5.0 -123.63500000000002 Z " stroke="#191919" stroke-width="0.35 px" style="stroke-width:0.35;stroke-miterlimit:4;stroke-dasharray:none;fill:#cccccc;fill-opacity:1.0;fill-rule: evenodd"/>
<path id="Pad_f0011"  d="M 5.0 -4.999999999999986 L 5.0 -123.63500000000002 L 5.0 -123.63500000000002 L 5.0 -4.999999999999986 L 5.0 -4.999999999999986 Z " stroke="#191919" stroke-width="0.35 px" style="stroke-width:0.35;stroke-miterlimit:4;stroke-dasharray:none;fill:#cccccc;fill-opacity:1.0;fill-rule: evenodd"/>
<circle cx="71.12" cy="-125.095" r="1.25" stroke="#191919" stroke-width="0.35 px" style="stroke-width:0.35;stroke-miterlimit:4;stroke-dasharray:none;fill:#cccccc"/>
<circle cx="2.54" cy="-125.095" r="1.25" stroke="#191919" stroke-width="0.35 px" style="stroke-width:0.35;stroke-miterlimit:4;stroke-dasharray:none;fill:#cccccc"/>
<circle cx="71.12" cy="-40.64" r="1.25" stroke="#191919" stroke-width="0.35 px" style="stroke-width:0.35;stroke-miterlimit:4;stroke-dasharray:none;fill:#cccccc"/>
<circle cx="2.54" cy="-40.64" r="1.25" stroke="#191919" stroke-width="0.35 px" style="stroke-width:0.35;stroke-miterlimit:4;stroke-dasharray:none;fill:#cccccc"/>
<circle cx="71.12" cy="-2.54" r="1.25" stroke="#191919" stroke-width="0.35 px" style="stroke-width:0.35;stroke-miterlimit:4;stroke-dasharray:none;fill:#cccccc"/>
<circle cx="2.54" cy="-2.54" r="1.25" stroke="#191919" stroke-width="0.35 px" style="stroke-width:0.35;stroke-miterlimit:4;stroke-dasharray:none;fill:#cccccc"/>
<circle cx="71.12" cy="-125.095" r="1.25" stroke="#191919" stroke-width="0.35 px" style="stroke-width:0.35;stroke-miterlimit:4;stroke-dasharray:none;fill:#cccccc"/>
<circle cx="71.12" cy="-125.095" r="1.25" stroke="#191919" stroke-width="0.35 px" style="stroke-width:0.35;stroke-miterlimit:4;stroke-dasharray:none;fill:#cccccc"/>
<title>b'Pad'</title>
</g>
</svg>